<svg id="Layer_1" data-name="Layer 1" xmlns="http://www.w3.org/2000/svg" xmlns:xlink="http://www.w3.org/1999/xlink" viewBox="0 0 660 580"><defs><style>.cls-1,.cls-10,.cls-4,.cls-6,.cls-7{fill:none;}.cls-2{fill:#57d1e6;}.cls-3{clip-path:url(#clip-path);}.cls-4{stroke:#a0eaf2;}.cls-10,.cls-4,.cls-7{stroke-miterlimit:10;}.cls-10,.cls-4,.cls-6,.cls-7,.cls-8{stroke-width:1.5px;}.cls-5{clip-path:url(#clip-path-2);}.cls-6,.cls-7,.cls-8{stroke:#333;}.cls-6,.cls-8{stroke-linejoin:round;}.cls-8,.cls-9{fill:#333;}.cls-10{stroke:#57d1e6;}</style><clipPath id="clip-path"><path class="cls-1" d="M115.55,280.48l41.66-40.72,2.09,2.63a11.27,11.27,0,0,1,.22,13.7l-24.21,32.6,65.31-52.78V157.25a12.36,12.36,0,0,0-12.36-12.36H56.7a12.37,12.37,0,0,0-12.36,12.36V337Z"/></clipPath><clipPath id="clip-path-2"><path class="cls-1" d="M450.09,463.93c-63.09-28.77-51.64-122.13,16.67-134q4.42-.76,9.15-1.31c64.36-7.34,47.42-75.92,111.22-27.23s64.92,121.51-9,114.17-74.51,72.26-126.46,49.12Z"/></clipPath></defs><polygon class="cls-2" points="200.62 276.09 200.62 261.37 165.1 297.93 200.62 276.09"/><path class="cls-2" d="M151.67,390.76l49,19.1V335.7l-51,42.62A7.32,7.32,0,0,0,151.67,390.76Z"/><polygon class="cls-2" points="200.62 308.08 200.62 303.96 175.63 323.32 200.62 308.08"/><path class="cls-2" d="M128.92,420.25a76.2,76.2,0,0,0-56.1,16L44.4,458.82A12.36,12.36,0,0,0,56.7,470H188.26a12.36,12.36,0,0,0,12.36-12.37V428.5Z"/><path class="cls-2" d="M115.55,280.48l41.66-40.72,2.09,2.63a11.27,11.27,0,0,1,.22,13.7l-24.21,32.6,65.31-52.78V157.25a12.36,12.36,0,0,0-12.36-12.36H56.7a12.37,12.37,0,0,0-12.36,12.36V337Z"/><g class="cls-3"><path class="cls-4" d="M62.61,116.89s70.05,123.7-32.34,115.67"/><path class="cls-4" d="M198.72,149.76s-62.75,8.75-60.13,68.58S58.93,267.16,81.46,348.93"/></g><path class="cls-2" d="M450.09,463.93c-63.09-28.77-51.64-122.13,16.67-134q4.42-.76,9.15-1.31c64.36-7.34,47.42-75.92,111.22-27.23s64.92,121.51-9,114.17-74.51,72.26-126.46,49.12Z"/><g class="cls-5"><path class="cls-4" d="M487.3,310.08s29.27,120.58-94.16,96.33"/><path class="cls-4" d="M652.6,390.05S505,331.47,581.48,462.72"/></g><line class="cls-6" x1="85.99" y1="451.64" x2="147.54" y2="451.64"/><path class="cls-6" d="M192,427.5v22.24a11.62,11.62,0,0,1-11.62,11.62h-133a11.62,11.62,0,0,1-11.62-11.62V147.86a11.62,11.62,0,0,1,11.62-11.62h133A11.62,11.62,0,0,1,192,147.86v95"/><path class="cls-6" d="M42.51,460.32l30.31-24.06a76.2,76.2,0,0,1,56.1-16l85.44,9.83h0a18.58,18.58,0,0,0-11.71-19.43l-51-19.89a7.32,7.32,0,0,1-2-12.44l66-55.18,28.25-8.41A23.24,23.24,0,0,0,260.22,296h0a1.68,1.68,0,0,0-1.92-1.91l-43.68,6.79a15.26,15.26,0,0,0-5.78,2.17l-44.27,27"/><path class="cls-6" d="M135.12,289l24.4-32.86a11.27,11.27,0,0,0-.22-13.7l-2.09-2.63-41.66,40.72L35.69,343.86"/><path class="cls-6" d="M146.92,309.1l73.23-45,35.57-17a2.77,2.77,0,0,1,3.94,2.86l-.57,4.44a22.63,22.63,0,0,1-10.57,16.38l-24.83,15.3-46.15,35.74"/><path class="cls-6" d="M128,294.58l88.23-71.3,1.45,1.82a15,15,0,0,1-1,19.71L165.2,297.9"/><line class="cls-6" x1="191.97" y1="270.31" x2="191.97" y2="281.08"/><line class="cls-6" x1="191.97" y1="310.66" x2="191.97" y2="313.18"/><line class="cls-6" x1="191.97" y1="342.94" x2="191.97" y2="406.48"/><path class="cls-7" d="M589.05,195.59,417.8,342.3a12.52,12.52,0,0,1-8.14,3H360l1.24-3.49a18.42,18.42,0,0,1,15.45-12.14l17.59-1.83,42.14-37.57"/><path class="cls-7" d="M360,345.31H315.1l.21-.87a19.22,19.22,0,0,1,16.17-14.69l27.34-3.65,42.69-38.36"/><path class="cls-7" d="M327.32,345.31,286.24,362h0a21,21,0,0,1,9.34-22.5L329,318.58,367,281.08"/><path class="cls-7" d="M507.6,124l-36.84,28.91a115.37,115.37,0,0,1-71.21,24.6h-96l1.35,4.42a21.27,21.27,0,0,0,16.86,14.78l42.4,7.07a14.7,14.7,0,0,1,9.56,23l-53,74.42-40.78,33.47a17.78,17.78,0,0,0-6.17,17.12h0l13.77-3.06"/><path class="cls-7" d="M356.13,277.72s40.5,14.13,90.92,12.43"/><path class="cls-7" d="M393.14,223.26s36.75,28,63-13.15"/><path class="cls-6" d="M240.5,254.39V124H589.05V342.81a2.5,2.5,0,0,1-2.5,2.5H409.66"/><line class="cls-6" x1="240.5" y1="296.88" x2="240.5" y2="275.74"/><path class="cls-6" d="M273.72,345.31H243a2.5,2.5,0,0,1-2.5-2.5V315.74"/><path class="cls-6" d="M589.05,124V112.27a2.5,2.5,0,0,0-2.5-2.5H243a2.5,2.5,0,0,0-2.5,2.5V124"/><path class="cls-8" d="M592.8,109.77h-6.25a2.5,2.5,0,0,1,2.5,2.5V342.81a2.5,2.5,0,0,1-2.5,2.5h6.25a2.5,2.5,0,0,0,2.5-2.5V112.27A2.5,2.5,0,0,0,592.8,109.77Z"/><circle class="cls-9" cx="250.84" cy="116.89" r="2.74"/><circle class="cls-9" cx="260.77" cy="116.89" r="2.74"/><circle class="cls-9" cx="270.71" cy="116.89" r="2.74"/><polygon class="cls-10" points="259.94 448.89 252.53 470.23 274.9 467.15 259.94 448.89"/><path class="cls-7" d="M362.11,460.73s-20.65,5.09-33.84-13.73c-19.62-28,6.81-44.42,11.56-30.59s-33,44.08-49.25-5.5"/></svg>