<svg id="Layer_1" data-name="Layer 1" xmlns="http://www.w3.org/2000/svg" xmlns:xlink="http://www.w3.org/1999/xlink" viewBox="0 0 660 580"><defs><style>.cls-1,.cls-4,.cls-5,.cls-6{fill:none;}.cls-2{fill:#fed326;}.cls-3{clip-path:url(#clip-path);}.cls-4{stroke:#ffea92;}.cls-4,.cls-5,.cls-7{stroke-miterlimit:10;}.cls-4,.cls-5,.cls-6,.cls-7{stroke-width:1.5px;}.cls-5,.cls-6,.cls-7{stroke:#333;}.cls-6{stroke-linejoin:round;}.cls-7{fill:#333;}.cls-8{fill:#fff;}.cls-9{fill:#ffea92;}</style><clipPath id="clip-path"><path class="cls-1" d="M382.9,393.3s4.74-56.52,66.55-68.49c52.83-10.23,34.42-87.46,115.54-71.41s71.15,184-33.38,224.51S371.76,472.53,382.9,393.3Z"/></clipPath></defs><path class="cls-2" d="M382.9,393.3s4.74-56.52,66.55-68.49c52.83-10.23,34.42-87.46,115.54-71.41s71.15,184-33.38,224.51S371.76,472.53,382.9,393.3Z"/><g class="cls-3"><path class="cls-4" d="M630.53,285.52s-137.17,90.41-6.6,128.34"/><path class="cls-4" d="M360.34,402.49s72.52-62.44,99.7.49,90.25-17.63,157.33,57"/><path class="cls-4" d="M349.13,448.53s176.85-17.84,85.69,50.3"/></g><path class="cls-5" d="M314.65,247.26V129a7.82,7.82,0,0,1,7.82-7.82H489.24a7.82,7.82,0,0,1,7.82,7.82V336"/><line class="cls-5" x1="477.87" y1="353.7" x2="342.85" y2="353.7"/><path class="cls-5" d="M466.8,121.2q.75,7.87.74,16.48s-.76,42.81-21.07,77.75a107.78,107.78,0,0,0-14.78,54.14v24.57H342.32"/><path class="cls-5" d="M436.25,238.45c-52.62,0-50-44.12-50-44.12A9.23,9.23,0,0,0,397.82,188a9.47,9.47,0,0,0,.4-2.77,16.07,16.07,0,1,0-11.55-29.92S350.91,159,330.52,121.2"/><path class="cls-5" d="M393.06,157.34a12.8,12.8,0,0,1,12.8,12.79"/><path class="cls-6" d="M477.68,354.69,453.75,366.5s5.52,16.28,19.45,12"/><path class="cls-6" d="M470,396.51c-3.07-.08-8.59-1.25-10-8.28l8.9-9"/><polyline class="cls-6" points="496.74 334.41 526.87 346.74 526.87 378.35 503.48 398.26"/><path class="cls-6" d="M513.52,408.38l-10-10.12s-3-29.07-5.1-52.66c-2.84-31.24-14-27.1-14-27.1L464.63,425.6a72.17,72.17,0,0,0-.47,23.14l11.33,79.79"/><path class="cls-6" d="M496.74,316.72l43.19,9.15a14.72,14.72,0,0,1,11,9.91l20.32,63.52a27.41,27.41,0,0,1,.19,16.09l-18.18,62a181.9,181.9,0,0,0-7.34,51.16h0"/><path class="cls-6" d="M500.18,364.32s14.62,5.37,26.69,5"/><line class="cls-6" x1="497.99" y1="342.42" x2="516.07" y2="342.42"/><path class="cls-7" d="M343.12,254l-.46,171.09a6.48,6.48,0,0,1-6.49,6.47H149a6.74,6.74,0,0,0,6.69,6H342.16A6.78,6.78,0,0,0,349,430.8V260.68A6.77,6.77,0,0,0,343.12,254Z"/><rect class="cls-5" x="142.29" y="247.26" width="200.02" height="183.69" rx="5"/><path class="cls-5" d="M275.23,247.26c-3.11,31.8-12.64,60-23.47,69.11s12,14.74,12,14.74l11.64,57.08C278,401.32,290,410.79,304,410.79h38.21"/><path class="cls-6" d="M270.52,362.9h0a25.9,25.9,0,0,0,18.31-7.59l.21-.21"/><path class="cls-6" d="M300.56,274.3h0a16,16,0,0,1-20.49-1.77l-.29-.29"/><line class="cls-5" x1="233.04" y1="449.05" x2="233.04" y2="478.62"/><line class="cls-5" x1="242.31" y1="466.86" x2="242.31" y2="496.43"/><rect class="cls-8" x="175.34" y="158.99" width="180.32" height="53.98" rx="5"/><rect class="cls-9" x="180.21" y="163.85" width="180.32" height="53.98" rx="5"/><rect class="cls-5" x="175.34" y="158.99" width="180.32" height="53.98" rx="5"/><line class="cls-5" x1="211.41" y1="158.99" x2="211.41" y2="172.67"/><line class="cls-5" x1="247.47" y1="158.99" x2="247.47" y2="172.67"/><line class="cls-5" x1="283.53" y1="158.99" x2="283.53" y2="172.67"/><line class="cls-5" x1="319.6" y1="158.99" x2="319.6" y2="172.67"/><line class="cls-5" x1="182.56" y1="158.99" x2="182.56" y2="165.83"/><line class="cls-5" x1="189.77" y1="158.99" x2="189.77" y2="165.83"/><line class="cls-5" x1="196.98" y1="158.99" x2="196.98" y2="165.83"/><line class="cls-5" x1="204.19" y1="158.99" x2="204.19" y2="165.83"/><line class="cls-5" x1="218.62" y1="158.99" x2="218.62" y2="165.83"/><line class="cls-5" x1="225.83" y1="158.99" x2="225.83" y2="165.83"/><line class="cls-5" x1="233.04" y1="158.99" x2="233.04" y2="165.83"/><line class="cls-5" x1="240.26" y1="158.99" x2="240.26" y2="165.83"/><line class="cls-5" x1="254.68" y1="158.99" x2="254.68" y2="165.83"/><line class="cls-5" x1="261.9" y1="158.99" x2="261.9" y2="165.83"/><line class="cls-5" x1="269.11" y1="158.99" x2="269.11" y2="165.83"/><line class="cls-5" x1="276.32" y1="158.99" x2="276.32" y2="165.83"/><line class="cls-5" x1="290.75" y1="158.99" x2="290.75" y2="165.83"/><line class="cls-5" x1="297.96" y1="158.99" x2="297.96" y2="165.83"/><line class="cls-5" x1="305.17" y1="158.99" x2="305.17" y2="165.83"/><line class="cls-5" x1="312.39" y1="158.99" x2="312.39" y2="165.83"/><line class="cls-5" x1="326.81" y1="158.99" x2="326.81" y2="165.83"/><line class="cls-5" x1="334.02" y1="158.99" x2="334.02" y2="165.83"/><line class="cls-5" x1="341.24" y1="158.99" x2="341.24" y2="165.83"/><line class="cls-5" x1="348.45" y1="158.99" x2="348.45" y2="165.83"/><path class="cls-2" d="M41.13,120.21l22.46.07A36.81,36.81,0,0,0,97.26,98.46l9.37-21a9.86,9.86,0,0,1,7.09-5.78l41.17-8.48S157.27,74.79,144,78.36l-19.7,5.24-15.37,34.21,71.18-66.34.95,9.45A15.43,15.43,0,0,1,177,73l-52,55.91,85-73,1,9.77a16.3,16.3,0,0,1-4.84,13.28l-71.43,69.62,43-32.1a10.18,10.18,0,0,1,12.78.48L233,154l-5.64,2.22a18.66,18.66,0,0,1-18-2.44l-24.13-18.09L136.62,177.5A10.29,10.29,0,0,0,135.56,192h0a28.84,28.84,0,0,0,10.36,7.6l37,16.06a15.92,15.92,0,0,1,9.56,15.42v.27l-91.27-22.55a140.79,140.79,0,0,0-34.63-4.09l-25.43.47"/><line class="cls-5" x1="41.13" y1="104.54" x2="41.13" y2="225.31"/><line class="cls-5" x1="41.13" y1="238.45" x2="41.13" y2="253.99"/></svg>