<svg id="Layer_1" data-name="Layer 1" xmlns="http://www.w3.org/2000/svg" xmlns:xlink="http://www.w3.org/1999/xlink" viewBox="0 0 660 580"><defs><style>.cls-1,.cls-10,.cls-12,.cls-13,.cls-2,.cls-4,.cls-5,.cls-9{fill:none;}.cls-12,.cls-2,.cls-4,.cls-5,.cls-7{stroke:#333;}.cls-10,.cls-13,.cls-2,.cls-4,.cls-7,.cls-9{stroke-miterlimit:10;}.cls-10,.cls-12,.cls-2,.cls-4,.cls-5,.cls-7,.cls-9{stroke-width:1.5px;}.cls-3{fill:#57e69e;}.cls-4,.cls-5{stroke-linecap:square;}.cls-5{stroke-linejoin:bevel;}.cls-6{clip-path:url(#clip-path);}.cls-7,.cls-8{fill:#333;}.cls-13,.cls-9{stroke:#57e69e;}.cls-10{stroke:#fff;}.cls-11{fill:#fff;}.cls-12{stroke-linejoin:round;}.cls-13{stroke-linecap:round;stroke-width:2px;}</style><clipPath id="clip-path"><polygon class="cls-1" points="281.78 517.81 468.72 517.81 375.25 353.14 281.78 517.81"/></clipPath></defs><path class="cls-2" d="M506.71,409.82C565.39,370.71,630,364.71,630,364.71s-29.83,59.49-89.11,100c-28.24,19.3-55.79,34.14-78,42.8"/><line class="cls-2" x1="629.96" y1="364.71" x2="463.48" y2="478.44"/><line class="cls-2" x1="537.31" y1="428" x2="533.39" y2="394.31"/><line class="cls-2" x1="487.83" y1="461.8" x2="525.26" y2="475.39"/><line class="cls-2" x1="515.95" y1="442.6" x2="509.79" y2="407.7"/><line class="cls-2" x1="582.61" y1="397.06" x2="601.67" y2="407.26"/><path class="cls-2" d="M464.65,368.21c30.74-41.65,67.47-64.58,67.47-64.58s0,61.27-32,119.07c-15.4,27.78-32.09,51.54-46.86,67.84"/><path class="cls-2" d="M425.27,441.27c4.25-10.49,9.36-21.63,15.22-33.1"/><line class="cls-2" x1="532.12" y1="303.63" x2="440.73" y2="468.49"/><line class="cls-2" x1="498.68" y1="363.95" x2="485.29" y2="343.55"/><line class="cls-2" x1="474.8" y1="407.03" x2="509.85" y2="402.91"/><line class="cls-2" x1="470.49" y1="414.81" x2="461.63" y2="402.91"/><polygon class="cls-3" points="364.72 359.15 396.24 414.68 458.19 523.82 271.25 523.82 364.72 359.15"/><polyline class="cls-4" points="406.77 408.66 468.72 517.81 281.78 517.81 134.44 517.81 227.91 353.14 375.25 353.14"/><polyline class="cls-5" points="281.78 517.81 375.25 353.14 375.25 408.22"/><g class="cls-6"><path class="cls-2" d="M468.72,376s-81,5.58-72.88-12.64"/><path class="cls-2" d="M375.25,379.7c-18.56-3.82-41.91-5.61-58.87,1.18"/><path class="cls-2" d="M375.25,366.42c-3,1.7-9.49,3.29-23.45,2.32-26.14-1.8-58.43,13.68-77.95,1.38"/><path class="cls-2" d="M375.25,389.3c-4.6-1.26-11.51-2.1-21.38-.95-11.53,1.35-47.05,3.21-48.84,8.94s13.89,11.81,31.18,7.76c10-2.34,27.9-1.08,39-2.45"/><path class="cls-2" d="M383.48,408.22a41.86,41.86,0,0,1-12.2,1.55c-24.74-.34-59.17,8.11-74,0S273.85,404,273.85,404"/><path class="cls-2" d="M273.85,417.87s15.59-2.54,28.22,2c17.56,6.33,36.44,1.92,56.07,0a185.36,185.36,0,0,1,63.81,5.4"/><path class="cls-2" d="M468.72,406.36a70,70,0,0,1-27.06,0c-13.92-3-34-2-29.39,6.94s49.11,6.75,56.45,5.49"/><path class="cls-2" d="M468.72,434.06s-20.88,4.38-42.14,0-59.46-9.35-80-1.69c-18.13,6.75-50.76,9.47-72.69-2.85"/><path class="cls-2" d="M468.72,443.42s-23.17,8.51-46.77,3.45-61.21-4.28-68.08-1"/><path class="cls-2" d="M392.55,454s-28.23-.34-42.92,6.07-53.85-7.17-75.78-1.39"/><path class="cls-2" d="M339.19,447.67s-36.61,6.28-65.34-1.79"/><path class="cls-2" d="M440.54,469.59s-11.44-6.07-30.75-5.81-51.81-.68-53.42,8.35,39.47,7.17,52.12,5.69S458.5,482.35,440.54,469.59Z"/><path class="cls-2" d="M468.72,458.64s-35.34,2.1-48.92-2.91"/><path class="cls-2" d="M421.21,469.79s-36.57-3.17-42,.64,10.52,4.26,18.14,3.44S432.36,475.81,421.21,469.79Z"/><path class="cls-2" d="M468.72,484.65s-15.59,7.08-47.58,2.7c-30.35-4.16-53.77,6.41-77.14-.68s-52,0-52,0"/><path class="cls-2" d="M339.19,473.86s-54.13-8.4-65.34,5.92"/><path class="cls-2" d="M273.85,505.06s43-10.58,54.56-5.55,46.73,8.93,66.26,2.1,74.05,3.45,74.05,3.45"/><path class="cls-2" d="M468.72,515.05s-47-6.37-62.36,0-50.16,7.12-68.72,0-46-10.21-63.79,1.11"/><path class="cls-2" d="M273.85,525.46s37.12-6.41,50.26,0,4.3,7.93,4.3,7.93"/><path class="cls-2" d="M415.75,533.39s-7.35-11.55,1.55-13.28,32.86,13.11,51.42,4.34"/><path class="cls-2" d="M358.26,395.2s-21.24-2.77-27.92,2.14S370.26,398.68,358.26,395.2Z"/><path class="cls-2" d="M273.85,383.79s15.33,7.09,28.73,2"/></g><path class="cls-2" d="M461.85,254.23V398.94a9.23,9.23,0,0,1-9.24,9.23H375.25"/><path class="cls-2" d="M196.67,408.17H174.12a9.23,9.23,0,0,1-9.24-9.23V130.43a9.24,9.24,0,0,1,9.24-9.24H452.61a9.24,9.24,0,0,1,9.24,9.24v35.85"/><path class="cls-7" d="M468.88,166.28V130.43a9.24,9.24,0,0,0-9.24-9.24h-7a9.24,9.24,0,0,1,9.24,9.24v35.85"/><path class="cls-7" d="M461.85,254.23V398.94a9.23,9.23,0,0,1-9.24,9.23h7a9.24,9.24,0,0,0,9.24-9.23V254.23"/><line class="cls-2" x1="461.85" y1="143.52" x2="164.88" y2="143.52"/><circle class="cls-8" cx="179.05" cy="132.7" r="3.29"/><circle class="cls-8" cx="191.01" cy="132.7" r="3.29"/><circle class="cls-8" cx="202.96" cy="132.7" r="3.29"/><line class="cls-2" x1="120.89" y1="517.81" x2="497.42" y2="517.81"/><line class="cls-2" x1="110.83" y1="517.81" x2="84.15" y2="517.81"/><path class="cls-9" d="M73.48,111.25s-1.29,19.24,17.6,28c28.1,13.1,38.58-13.09,25.49-15.14s-34.16,36.39,12.68,43.1"/><rect class="cls-7" x="375.25" y="408.17" width="7.72" height="2.43"/><rect class="cls-3" x="36.59" y="210.26" width="163.08" height="108.85" rx="5"/><line class="cls-10" x1="36.59" y1="224.79" x2="199.67" y2="224.79"/><path class="cls-10" d="M59.85,286.8S75,234.41,99.55,267.21c23.54,31.51,44.43-31.63,76.86,19.59"/><circle class="cls-11" cx="46.58" cy="217.77" r="2.32"/><circle class="cls-11" cx="55.01" cy="217.77" r="2.32"/><circle class="cls-11" cx="63.43" cy="217.77" r="2.32"/><rect class="cls-2" x="424.88" y="166.28" width="109.21" height="87.94" rx="5"/><path class="cls-3" d="M506.68,237.55c-1.13-5.91-3.91-14-7.78-17.41-4.42-4-10.25-.84-16.65-.84s-12.24-3.12-16.66.84c-3.87,3.46-6.65,11.5-7.78,17.41Z"/><path class="cls-2" d="M503.92,234.78c-1.14-5.91-3.91-13.94-7.78-17.41-4.42-4-10.25-.83-16.66-.83s-12.24-3.12-16.66.83c-3.86,3.47-6.64,11.5-7.78,17.41Z"/><ellipse class="cls-3" cx="482.25" cy="203.63" rx="10.09" ry="11.97"/><ellipse class="cls-2" cx="479.48" cy="200.86" rx="10.09" ry="11.97"/><path class="cls-11" d="M303.83,258.2c-1.79-2.48,5.31-5.15,1.54-6.75-2-.85-4-3-5.58-4.91a13.74,13.74,0,0,1-2.93-7.51,38.12,38.12,0,0,1,19.59-36.35c.9-.5,1.81-1,2.74-1.36a42.31,42.31,0,1,0,36.73,66.54c-.85.56-1.71,1.1-2.61,1.6A38.14,38.14,0,0,1,303.83,258.2Z"/><path class="cls-3" d="M307.73,262.11c-1.78-2.49,5.31-5.15,1.55-6.76-2-.85-4-3-5.58-4.91a13.68,13.68,0,0,1-2.94-7.5,38.14,38.14,0,0,1,19.59-36.36c.9-.5,1.82-.94,2.74-1.36a42.31,42.31,0,1,0,36.73,66.55c-.84.55-1.71,1.09-2.61,1.59A38.15,38.15,0,0,1,307.73,262.11Z"/><path class="cls-2" d="M303.83,258.2c-1.79-2.48,5.31-5.15,1.54-6.75-2-.85-4-3-5.58-4.91a13.74,13.74,0,0,1-2.93-7.51,38.12,38.12,0,0,1,19.59-36.35c.9-.5,1.81-1,2.74-1.36a42.31,42.31,0,1,0,36.73,66.54c-.85.56-1.71,1.1-2.61,1.6A38.14,38.14,0,0,1,303.83,258.2Z"/><path class="cls-12" d="M307.22,262.35h0a11.68,11.68,0,0,1-7.82,4.3l-.14,0"/><path class="cls-12" d="M287.45,250.1a4.56,4.56,0,0,0,6.54-3.6"/><line class="cls-9" x1="315.5" y1="179.69" x2="315.5" y2="183.8"/><line class="cls-9" x1="315.5" y1="315.11" x2="315.5" y2="319.23"/><line class="cls-9" x1="385.27" y1="249.46" x2="381.15" y2="249.46"/><line class="cls-2" x1="249.85" y1="249.46" x2="245.73" y2="249.46"/><line class="cls-9" x1="376.14" y1="214.95" x2="372.56" y2="216.98"/><line class="cls-2" x1="258.44" y1="281.93" x2="254.86" y2="283.97"/><line class="cls-9" x1="350.01" y1="310.09" x2="347.98" y2="306.52"/><line class="cls-9" x1="283.02" y1="192.4" x2="280.99" y2="188.82"/><line class="cls-9" x1="349.62" y1="188.6" x2="347.61" y2="192.19"/><line class="cls-9" x1="283.39" y1="306.73" x2="281.38" y2="310.32"/><line class="cls-9" x1="376.36" y1="283.58" x2="372.77" y2="281.56"/><line class="cls-2" x1="258.23" y1="217.35" x2="254.64" y2="215.34"/><circle class="cls-2" cx="315.5" cy="249.46" r="69.77"/><path class="cls-13" d="M281,188.81a69.77,69.77,0,1,1,.39,121.52"/></svg>