<svg width="1100" height="1000" viewBox="0 0 1100 1000" fill="none" xmlns="http://www.w3.org/2000/svg">
<g clip-path="url(#clip0_116:339)">
<path d="M234.777 501.044C277.145 314.694 -133.392 40.8505 45.2974 2.37178C199.416 -30.816 473.095 295.781 646.498 264.619C1577.91 97.2393 1096.39 386.895 1010 522C855.926 762.95 1042.81 946.981 806.564 839.093C570.316 731.205 576.724 852.362 330.645 964.962C-15.1659 1123.2 188.191 705.947 234.777 501.044Z" fill="#C39EFF"/>
<path d="M574.169 304.731C477.17 308.398 314.629 127.696 250.836 197.41C187.044 267.123 225.494 335 225.494 335C225.494 335 263.944 408.382 250.836 466.171C237.728 523.961 -55.0155 634.948 112.767 695.487C280.55 756.027 395.9 590.919 546.206 811.064C696.511 1031.21 856.427 723.006 856.427 723.006C856.427 723.006 1133.44 807.394 1035.57 695.487C937.698 583.581 814.48 636.781 914.102 511.116C1013.72 385.451 873.1 383.463 881.771 335C914.102 154.298 914.102 66.241 804.87 154.299C695.639 242.356 671.169 301.063 574.169 304.731Z" fill="#5E4D79"/>
<path opacity="0.1" d="M416.505 327.623H415.517C416.301 326.595 416.732 325.262 416.727 323.883V323.883C416.772 322.507 416.351 321.167 415.556 320.155C414.761 319.144 413.657 318.544 412.486 318.488H382.755C381.584 318.544 380.48 319.144 379.685 320.155C378.89 321.167 378.469 322.507 378.515 323.883V323.883C378.469 325.258 378.89 326.598 379.685 327.61C380.48 328.621 381.584 329.221 382.755 329.277H383.75C382.964 330.303 382.53 331.636 382.533 333.017C382.514 334.183 382.821 335.325 383.407 336.267C383.993 337.209 384.827 337.899 385.779 338.231H377.221C376.095 338.375 375.054 339.001 374.298 339.991C373.542 340.981 373.124 342.264 373.124 343.594C373.124 344.924 373.542 346.207 374.298 347.197C375.054 348.187 376.095 348.813 377.221 348.957H406.952C408.123 348.901 409.227 348.301 410.022 347.29C410.817 346.279 411.238 344.938 411.192 343.563C411.221 342.395 410.922 341.25 410.341 340.302C409.76 339.355 408.929 338.659 407.977 338.321H416.535C417.668 338.188 418.719 337.564 419.482 336.573C420.246 335.581 420.669 334.291 420.669 332.954C420.669 331.616 420.246 330.327 419.482 329.335C418.719 328.343 417.668 327.72 416.535 327.587L416.505 327.623Z" fill="white"/>
<ellipse cx="545.066" cy="898.881" rx="14.1235" ry="14.8342" fill="#5E4D79"/>
<ellipse cx="272.012" cy="87.0249" rx="5.56412" ry="5.84377" fill="#5E4D79"/>
<ellipse cx="189.409" cy="368.88" rx="13.6955" ry="14.3847" fill="#5E4D79"/>
<ellipse cx="417.098" cy="139.62" rx="13.6955" ry="14.3847" fill="#5E4D79"/>
<ellipse cx="970.91" cy="243.911" rx="13.6955" ry="14.3847" fill="#5E4D79"/>
<ellipse cx="909.28" cy="834.598" rx="13.6955" ry="14.3847" fill="#5E4D79"/>
<ellipse cx="934.96" cy="570.272" rx="11.9836" ry="12.5866" fill="#5E4D79"/>
<ellipse cx="1013.28" cy="402.597" rx="18.4033" ry="19.3299" fill="#5E4D79"/>
<ellipse cx="133.345" cy="493.402" rx="17.5474" ry="18.4308" fill="#5E4D79"/>
<ellipse cx="852.787" cy="899.33" rx="8.56019" ry="8.99042" fill="#5E4D79"/>
<ellipse cx="799.717" cy="78.4836" rx="8.56019" ry="8.99042" fill="#5E4D79"/>
<ellipse cx="229.642" cy="748.288" rx="8.56019" ry="8.99042" fill="#5E4D79"/>
<ellipse cx="668.754" cy="139.62" rx="8.56019" ry="8.99042" fill="#5E4D79"/>
<ellipse cx="375.584" cy="819.763" rx="17.5474" ry="18.4308" fill="#5E4D79"/>
<path d="M584.425 412.348H444.81C441.753 412.357 438.735 411.669 435.985 410.336C433.234 409.002 430.824 407.059 428.937 404.653V404.653C427.017 402.225 425.675 399.39 425.014 396.365C424.354 393.34 424.392 390.204 425.127 387.196C437.994 333.282 437.994 277.096 425.126 223.183C424.392 220.175 424.354 217.039 425.015 214.014C425.675 210.989 427.016 208.155 428.937 205.727C430.823 203.321 433.234 201.377 435.984 200.044C438.735 198.711 441.753 198.022 444.81 198.032H584.425C589.245 198.046 593.904 199.771 597.572 202.9C601.239 206.028 603.678 210.358 604.452 215.117C613.641 274.814 613.641 335.566 604.452 395.262C603.678 400.022 601.239 404.351 597.572 407.48C593.904 410.609 589.245 412.334 584.425 412.348V412.348Z" fill="#C13FFF"/>
<path d="M444.81 208.54C443.342 208.535 441.892 208.865 440.571 209.505C439.25 210.145 438.092 211.078 437.186 212.233C436.252 213.416 435.601 214.797 435.281 216.27C434.962 217.743 434.982 219.269 435.341 220.733C448.593 276.257 448.594 334.122 435.342 389.647C434.982 391.11 434.962 392.636 435.281 394.109C435.601 395.582 436.252 396.962 437.185 398.145L437.186 398.146C438.092 399.301 439.25 400.234 440.571 400.874C441.892 401.514 443.342 401.845 444.81 401.84H584.424C586.739 401.84 588.979 401.019 590.746 399.522C592.512 398.026 593.69 395.95 594.069 393.666C603.095 335.027 603.095 275.352 594.069 216.714C593.69 214.429 592.512 212.354 590.746 210.857C588.979 209.36 586.739 208.539 584.424 208.54L444.81 208.54Z" fill="white"/>
<path d="M553.958 259.069H480.694C477.909 259.066 475.239 257.958 473.269 255.988C471.3 254.018 470.192 251.347 470.189 248.561V244.455C470.192 241.669 471.3 238.998 473.269 237.028C475.239 235.058 477.909 233.95 480.694 233.947H553.958C556.743 233.95 559.413 235.058 561.382 237.028C563.352 238.998 564.459 241.669 564.462 244.455V248.561C564.459 251.347 563.352 254.018 561.382 255.988C559.413 257.958 556.743 259.066 553.958 259.069Z" fill="#C13FFF"/>
<path d="M553.958 310.956H480.694C477.909 310.953 475.239 309.845 473.269 307.875C471.3 305.905 470.192 303.234 470.189 300.448V296.341C470.192 293.555 471.3 290.884 473.269 288.915C475.239 286.945 477.909 285.837 480.694 285.833H553.958C556.743 285.837 559.413 286.945 561.382 288.915C563.352 290.884 564.459 293.555 564.462 296.341V300.448C564.459 303.234 563.352 305.905 561.382 307.875C559.413 309.845 556.743 310.953 553.958 310.956Z" fill="#C13FFF"/>
<path d="M553.958 362.842H480.694C477.909 362.839 475.239 361.731 473.269 359.761C471.3 357.791 470.192 355.12 470.189 352.334V348.228C470.192 345.442 471.3 342.771 473.269 340.801C475.239 338.831 477.909 337.723 480.694 337.72H553.958C556.743 337.723 559.413 338.831 561.382 340.801C563.352 342.771 564.459 345.442 564.462 348.228V352.334C564.459 355.12 563.352 357.791 561.382 359.761C559.413 361.731 556.743 362.839 553.958 362.842V362.842Z" fill="#C13FFF"/>
<path d="M847.051 545.454H707.436C704.38 545.463 701.362 544.775 698.611 543.442C695.861 542.108 693.45 540.165 691.564 537.759V537.759C689.643 535.331 688.301 532.496 687.641 529.471C686.981 526.446 687.019 523.31 687.753 520.302C700.621 466.388 700.62 410.202 687.752 356.289C687.019 353.281 686.981 350.145 687.641 347.12C688.301 344.095 689.643 341.261 691.563 338.833C693.45 336.427 695.86 334.483 698.611 333.15C701.361 331.817 704.38 331.128 707.436 331.138H847.051C851.871 331.152 856.53 332.877 860.198 336.006C863.866 339.134 866.304 343.464 867.079 348.223C876.267 407.92 876.267 468.672 867.079 528.368C866.304 533.128 863.866 537.457 860.198 540.586C856.53 543.715 851.871 545.44 847.051 545.454Z" fill="#C13FFF"/>
<path d="M707.436 341.646C705.968 341.641 704.518 341.971 703.197 342.611C701.876 343.25 700.718 344.183 699.812 345.338C698.878 346.521 698.227 347.902 697.907 349.375C697.588 350.848 697.608 352.375 697.967 353.839C711.219 409.363 711.22 467.228 697.968 522.752C697.608 524.216 697.588 525.742 697.907 527.215C698.227 528.687 698.878 530.068 699.811 531.251L699.812 531.252C700.718 532.407 701.876 533.34 703.197 533.98C704.518 534.62 705.968 534.95 707.436 534.945H847.05C849.365 534.946 851.605 534.125 853.371 532.628C855.138 531.131 856.316 529.056 856.695 526.771C865.72 468.133 865.72 408.458 856.695 349.819C856.316 347.535 855.138 345.46 853.371 343.963C851.605 342.466 849.365 341.645 847.05 341.646L707.436 341.646Z" fill="white"/>
<path d="M568.667 696.949H429.052C425.863 696.959 422.714 696.241 419.845 694.85C416.975 693.458 414.46 691.431 412.492 688.921C410.489 686.389 409.09 683.433 408.401 680.279C407.713 677.124 407.752 673.854 408.518 670.717C421.353 616.938 421.353 560.892 408.517 507.114C407.752 503.977 407.712 500.707 408.401 497.552C409.09 494.398 410.489 491.442 412.492 488.91C414.46 486.401 416.975 484.373 419.844 482.982C422.714 481.59 425.863 480.872 429.052 480.882H568.667C573.696 480.897 578.556 482.697 582.383 485.962C586.209 489.227 588.752 493.744 589.56 498.71C598.762 558.495 598.762 619.337 589.56 679.122C588.752 684.087 586.209 688.605 582.383 691.869C578.556 695.134 573.696 696.934 568.667 696.949V696.949Z" fill="#C13FFF"/>
<path d="M816.584 418.445H743.32C740.535 418.442 737.865 417.334 735.895 415.364C733.926 413.394 732.818 410.723 732.815 407.938V403.831C732.818 401.045 733.926 398.374 735.895 396.404C737.865 394.434 740.535 393.326 743.32 393.323H816.584C819.369 393.326 822.039 394.434 824.008 396.404C825.978 398.374 827.085 401.045 827.088 403.831V407.938C827.085 410.724 825.978 413.394 824.008 415.364C822.039 417.334 819.369 418.442 816.584 418.445V418.445Z" fill="#C13FFF"/>
<path d="M816.584 470.332H743.32C740.535 470.329 737.865 469.221 735.895 467.251C733.926 465.281 732.818 462.61 732.815 459.824V455.718C732.818 452.932 733.926 450.261 735.895 448.291C737.865 446.321 740.535 445.213 743.32 445.21H816.584C819.369 445.213 822.039 446.321 824.008 448.291C825.978 450.261 827.085 452.932 827.088 455.718V459.824C827.085 462.61 825.978 465.281 824.008 467.251C822.039 469.221 819.369 470.329 816.584 470.332V470.332Z" fill="#C13FFF"/>
<path d="M499.25 628.474C521.49 628.474 539.52 610.439 539.52 588.192C539.52 565.945 521.49 547.91 499.25 547.91C477.01 547.91 458.981 565.945 458.981 588.192C458.981 610.439 477.01 628.474 499.25 628.474Z" fill="white"/>
<path d="M518.51 582.938H504.503V568.927C504.503 567.534 503.95 566.197 502.965 565.212C501.98 564.226 500.644 563.673 499.251 563.673C497.857 563.673 496.521 564.226 495.536 565.212C494.551 566.197 493.998 567.534 493.998 568.927V582.938H479.991C478.598 582.938 477.262 583.492 476.277 584.477C475.292 585.462 474.739 586.799 474.739 588.192C474.739 589.586 475.292 590.922 476.277 591.908C477.262 592.893 478.598 593.446 479.991 593.446H493.998V607.458C493.998 608.851 494.551 610.188 495.536 611.173C496.521 612.158 497.857 612.712 499.251 612.712C500.644 612.712 501.98 612.158 502.965 611.173C503.95 610.188 504.503 608.851 504.503 607.458V593.446H518.51C519.903 593.446 521.239 592.893 522.224 591.908C523.209 590.922 523.762 589.586 523.762 588.192C523.762 586.799 523.209 585.462 522.224 584.477C521.239 583.492 519.903 582.938 518.51 582.938V582.938Z" fill="#C13FFF"/>
<path d="M550.025 217.774H476.49C474.401 217.771 472.398 216.94 470.921 215.463C469.444 213.985 468.613 211.982 468.611 209.892V195.881C468.613 193.792 469.444 191.788 470.921 190.311C472.398 188.833 474.401 188.002 476.49 188H550.025C552.114 188.002 554.116 188.833 555.593 190.311C557.071 191.788 557.901 193.792 557.904 195.881V209.892C557.901 211.982 557.071 213.985 555.593 215.463C554.116 216.94 552.114 217.771 550.025 217.774Z" fill="#6F6F6F"/>
<path d="M816.153 352.631H742.617C740.528 352.628 738.526 351.797 737.049 350.32C735.572 348.842 734.741 346.839 734.739 344.749V330.738C734.741 328.649 735.572 326.645 737.049 325.168C738.526 323.69 740.528 322.859 742.617 322.857H816.153C818.241 322.859 820.244 323.69 821.721 325.168C823.198 326.645 824.029 328.649 824.031 330.738V344.749C824.029 346.839 823.198 348.842 821.721 350.32C820.244 351.797 818.241 352.628 816.153 352.631Z" fill="#6F6F6F"/>
<path d="M368.403 811.464L239.474 757.879C236.648 756.715 234.125 754.921 232.096 752.634C230.068 750.347 228.587 747.627 227.768 744.682C226.926 741.702 226.774 738.569 227.324 735.522C227.875 732.475 229.113 729.594 230.945 727.098C263.507 682.249 285.058 630.363 293.853 575.638C294.33 572.578 295.497 569.668 297.268 567.128C299.038 564.588 301.364 562.485 304.069 560.98C306.733 559.482 309.705 558.613 312.756 558.437C315.808 558.261 318.859 558.784 321.678 559.966L450.607 613.551C455.053 615.414 458.694 618.795 460.881 623.092C463.068 627.389 463.659 632.323 462.549 637.015C448.137 695.67 424.835 751.772 393.452 803.373C390.911 807.471 386.999 810.533 382.411 812.015C377.824 813.497 372.86 813.301 368.403 811.464Z" fill="#C13FFF"/>
<path d="M317.648 569.67C316.294 569.102 314.829 568.851 313.363 568.935C311.898 569.019 310.471 569.436 309.191 570.154C307.875 570.889 306.744 571.914 305.884 573.151C305.023 574.389 304.457 575.806 304.227 577.296C295.168 633.657 272.973 687.093 239.438 733.282C238.545 734.495 237.941 735.897 237.671 737.38C237.401 738.862 237.473 740.387 237.881 741.838L237.881 741.839C238.275 743.253 238.986 744.559 239.961 745.657C240.935 746.755 242.147 747.617 243.505 748.176L372.434 801.76C374.571 802.649 376.955 802.751 379.16 802.046C381.366 801.342 383.249 799.878 384.476 797.914C415.302 747.227 438.191 692.12 452.348 634.505C452.874 632.25 452.582 629.881 451.525 627.821C450.468 625.761 448.715 624.143 446.577 623.255L317.648 569.67Z" fill="white"/>
<path d="M386.297 688.952L318.64 660.833C316.069 659.761 314.028 657.713 312.965 655.138C311.902 652.563 311.904 649.671 312.97 647.097L314.545 643.305C315.616 640.734 317.663 638.692 320.238 637.629C322.812 636.566 325.703 636.567 328.276 637.633L395.933 665.752C398.503 666.824 400.544 668.872 401.607 671.447C402.67 674.022 402.668 676.914 401.603 679.488L400.028 683.28C398.956 685.851 396.909 687.893 394.335 688.956C391.76 690.019 388.87 690.018 386.297 688.952V688.952Z" fill="#C13FFF"/>
<path d="M366.395 736.868L298.738 708.749C296.167 707.677 294.127 705.629 293.064 703.054C292.001 700.479 292.002 697.587 293.068 695.013L294.643 691.221C295.714 688.65 297.762 686.608 300.336 685.545C302.91 684.482 305.801 684.483 308.374 685.549L376.031 713.668C378.602 714.74 380.642 716.788 381.705 719.363C382.768 721.938 382.767 724.83 381.701 727.404L380.126 731.196C379.055 733.767 377.007 735.809 374.433 736.872C371.859 737.935 368.968 737.934 366.395 736.868V736.868Z" fill="#C13FFF"/>
<path d="M413.407 621.613C412.394 621.612 411.391 621.415 410.453 621.034L342.279 593.462C340.343 592.677 338.798 591.155 337.982 589.232C337.166 587.308 337.147 585.14 337.927 583.202L343.178 570.212C343.961 568.274 345.482 566.727 347.405 565.911C349.329 565.095 351.498 565.076 353.435 565.86L421.609 593.431C423.545 594.217 425.09 595.738 425.906 597.661C426.722 599.585 426.741 601.754 425.961 603.692L420.71 616.682C420.121 618.136 419.111 619.382 417.81 620.261C416.509 621.139 414.976 621.61 413.407 621.613V621.613Z" fill="#6F6F6F"/>
</g>
<defs>
<clipPath id="clip0_116:339">
<rect width="1100" height="1000" fill="white"/>
</clipPath>
</defs>
</svg>
