<svg width="1100" height="1000" viewBox="0 0 1100 1000" fill="none" xmlns="http://www.w3.org/2000/svg">
<g clip-path="url(#clip0_119:211)">
<path d="M234.777 501.044C277.145 314.694 -133.392 40.8505 45.2974 2.37178C199.416 -30.816 473.095 295.781 646.498 264.619C1577.91 97.2393 1096.39 386.895 1010 522C855.926 762.95 1042.81 946.981 806.564 839.093C570.316 731.205 576.724 852.362 330.645 964.962C-15.1659 1123.2 188.191 705.947 234.777 501.044Z" fill="#C39EFF"/>
<path d="M574.169 304.731C477.17 308.398 314.629 127.696 250.836 197.41C187.044 267.123 225.494 335 225.494 335C225.494 335 263.944 408.382 250.836 466.171C237.728 523.961 -55.0155 634.948 112.767 695.487C280.55 756.027 395.9 590.919 546.206 811.064C696.511 1031.21 856.427 723.006 856.427 723.006C856.427 723.006 1133.44 807.394 1035.57 695.487C937.698 583.581 814.48 636.781 914.102 511.116C1013.72 385.451 873.1 383.463 881.771 335C914.102 154.298 914.102 66.241 804.87 154.299C695.639 242.356 671.169 301.063 574.169 304.731Z" fill="#5E4D79"/>
<path opacity="0.1" d="M400.381 439.134H399.394C400.178 438.107 400.609 436.774 400.603 435.394V435.394C400.649 434.019 400.228 432.678 399.433 431.667C398.638 430.656 397.533 430.056 396.362 430H366.632C365.461 430.056 364.357 430.656 363.561 431.667C362.766 432.678 362.345 434.019 362.391 435.394V435.394C362.345 436.77 362.766 438.11 363.561 439.122C364.357 440.133 365.461 440.732 366.632 440.789H367.627C366.84 441.815 366.406 443.148 366.41 444.529C366.39 445.695 366.697 446.837 367.284 447.779C367.87 448.721 368.703 449.411 369.655 449.743H361.097C359.972 449.886 358.931 450.513 358.175 451.503C357.418 452.493 357 453.776 357 455.106C357 456.436 357.418 457.719 358.175 458.709C358.931 459.698 359.972 460.325 361.097 460.469H390.828C391.999 460.412 393.103 459.813 393.898 458.802C394.693 457.79 395.114 456.45 395.069 455.074C395.098 453.907 394.798 452.761 394.217 451.814C393.636 450.866 392.806 450.17 391.854 449.833H400.412C401.545 449.699 402.595 449.076 403.359 448.084C404.123 447.093 404.546 445.803 404.546 444.466C404.546 443.128 404.123 441.839 403.359 440.847C402.595 439.855 401.545 439.232 400.412 439.098L400.381 439.134Z" fill="white"/>
<ellipse cx="545.066" cy="898.881" rx="14.1235" ry="14.8342" fill="#5E4D79"/>
<ellipse cx="272.012" cy="87.0244" rx="5.56412" ry="5.84377" fill="#5E4D79"/>
<ellipse cx="189.409" cy="368.88" rx="13.6955" ry="14.3847" fill="#5E4D79"/>
<ellipse cx="417.098" cy="139.62" rx="13.6955" ry="14.3847" fill="#5E4D79"/>
<ellipse cx="970.91" cy="243.911" rx="13.6955" ry="14.3847" fill="#5E4D79"/>
<ellipse cx="909.28" cy="834.598" rx="13.6955" ry="14.3847" fill="#5E4D79"/>
<ellipse cx="934.96" cy="570.272" rx="11.9836" ry="12.5866" fill="#5E4D79"/>
<ellipse cx="1013.28" cy="402.596" rx="18.4033" ry="19.3299" fill="#5E4D79"/>
<ellipse cx="133.345" cy="493.403" rx="17.5474" ry="18.4308" fill="#5E4D79"/>
<ellipse cx="852.787" cy="899.33" rx="8.56019" ry="8.99042" fill="#5E4D79"/>
<ellipse cx="799.717" cy="78.4836" rx="8.56019" ry="8.99042" fill="#5E4D79"/>
<ellipse cx="229.642" cy="748.287" rx="8.56019" ry="8.99042" fill="#5E4D79"/>
<ellipse cx="348.56" cy="847.99" rx="8.56019" ry="8.99042" fill="#5E4D79"/>
<ellipse cx="668.754" cy="139.62" rx="8.56019" ry="8.99042" fill="#5E4D79"/>
<ellipse cx="308.547" cy="875.431" rx="17.5474" ry="18.4308" fill="#5E4D79"/>
<g clip-path="url(#clip1_119:211)">
<circle cx="551" cy="517" r="198" fill="#C13FFF"/>
<path d="M670.146 459.922C670.146 459.922 665.503 459.274 665.503 452.521C665.503 445.767 662.179 433.122 662.179 433.122C662.179 433.122 659.304 411.118 655.332 407.629C651.361 404.141 646.258 383.658 646.258 383.658C646.258 383.658 645.386 372.544 643.607 370.151C641.827 367.759 639.423 361.901 635.876 353.545C632.329 345.189 617.574 339.462 617.574 339.462C617.574 339.462 590.834 323.952 583.257 318.896C582.564 318.477 581.916 317.987 581.324 317.434C580.004 315.714 574.253 315.678 574.253 315.678C573.652 311.872 573.075 307.511 572.886 303.563C572.886 303.139 572.886 302.714 572.886 302.29C581.336 297.295 587.7 289.42 590.811 280.11C590.952 279.662 591.07 279.202 591.2 278.742C591.717 278.583 592.194 278.315 592.6 277.958C593.007 277.6 593.332 277.161 593.557 276.668C594.228 275.148 594.252 273.38 595.1 271.954C596.09 270.28 597.976 269.385 599.461 268.135C603.208 264.942 604.175 259.579 603.998 254.712C603.88 250.752 603.244 246.768 603.491 242.844C603.491 242.514 603.491 242.184 603.562 241.854C603.633 241.276 603.715 240.675 603.821 240.109C604.399 237.187 605.659 234.429 606.367 231.529C607.074 228.63 607.144 225.366 605.495 222.867C603.079 219.202 598.047 218.471 593.627 218.153C588.619 217.729 584.199 218.271 580.935 214.11C579.438 211.937 577.75 209.902 575.891 208.029C575.231 207.416 568.82 203.492 568.82 203.244C562.548 200.327 555.431 199.779 548.786 201.7C545.451 202.667 542.328 204.246 538.946 205.035C531.686 206.756 523.319 204.894 517.144 209.054C513.703 211.411 511.64 215.171 509.708 218.813C508.136 221.814 506.541 224.82 504.923 227.829C502.307 232.767 499.667 237.788 498.571 243.256C498.342 244.451 498.196 245.66 498.135 246.874V246.874C498.135 247.31 498.135 247.746 498.135 248.182C498.135 248.371 498.135 248.56 498.135 248.748C498.135 249.149 498.135 249.55 498.206 249.927C498.276 250.304 498.206 250.41 498.288 250.657C498.371 250.905 498.394 251.459 498.465 251.836C498.536 252.213 498.677 252.885 498.818 253.392C498.818 253.616 498.96 253.828 499.031 254.052C499.101 254.276 499.29 254.841 499.443 255.23C499.596 255.619 499.608 255.643 499.702 255.843C499.879 256.256 500.091 256.656 500.303 257.022C500.398 257.175 500.468 257.328 500.563 257.481C500.886 258.033 501.248 258.561 501.647 259.061C504.157 262.207 507.881 264.211 510.627 267.157C510.627 267.275 510.627 267.393 510.627 267.511C510.627 267.829 510.627 268.147 510.627 268.477C510.795 275.049 512.566 281.48 515.787 287.211C519.007 292.942 523.58 297.799 529.105 301.359C529.105 301.807 529.164 302.266 529.188 302.726C529.418 306.22 529.374 309.728 529.058 313.215C528.577 312.651 527.976 312.202 527.299 311.9C526.622 311.598 525.887 311.452 525.146 311.471C524.639 311.446 524.132 311.489 523.637 311.601L523.531 311.518V311.624C520.939 312.261 517.745 314.959 514.693 322.632C514.693 322.632 505.406 333.097 498.335 332.661C491.264 332.225 473.363 343.563 473.363 343.563C473.363 343.563 455.898 354.889 452.151 366.439C450.056 372.99 447.54 379.399 444.62 385.626L422.971 430.081L419 465.438C419 465.438 421.204 481.124 420.768 483.528C420.332 485.933 429.83 507.5 429.83 507.5C429.83 507.5 461.213 562.633 474.035 565.462L474.954 564.825C475.505 565.103 476.087 565.317 476.687 565.462L479.326 563.611C479.49 565.683 479.419 567.767 479.114 569.822C477.358 575.279 479.786 610.801 482.874 617.766C485.961 624.731 484.865 716.069 484.865 716.069L484.429 724.119C484.429 724.119 484.429 724.378 484.535 724.826L484.429 726.735L484.747 726.9C485.078 729.461 484.97 732.06 484.429 734.585C483.321 738.12 482.874 748.103 482.874 748.103C482.874 748.103 474.035 804.532 478.23 815.87C482.426 827.207 485.973 839.629 485.973 839.629C485.973 839.629 490.392 853.772 486.185 856.129C481.978 858.486 470.064 862.67 472.491 868.551C474.73 873.996 483.227 888.587 484.488 890.72L484.382 891.898L482.65 910.673C482.93 913.152 483.603 915.57 484.641 917.838C486.539 921.94 490.216 926.171 497.239 925.711C498.418 925.629 499.773 925.499 501.105 925.322C513.938 923.59 529.73 917.862 529.73 917.862C528.911 917.343 528.163 916.721 527.503 916.012V916.012C526.872 915.401 526.372 914.667 526.034 913.857C525.695 913.046 525.526 912.176 525.535 911.297C525.723 907.868 519.324 891.592 517.721 887.573L517.356 886.677C517.356 886.677 531.946 871.415 529.518 857.909C529.518 857.909 513.373 848.48 518.688 843.295C524.003 838.109 533.501 823.259 533.501 823.259C533.501 823.259 533.937 767.69 533.501 759.405C533.047 753.642 533.32 747.845 534.314 742.151C534.491 741.302 534.703 740.466 534.927 739.629C542.284 740.739 549.713 741.302 557.153 741.314C559.872 741.314 562.621 741.259 565.403 741.149C565.403 741.935 565.438 742.783 565.509 743.695C566.122 757.46 567.265 781.609 568.196 790.578C569.515 803.424 576.81 838.085 576.81 838.085C576.81 838.085 562.892 847.007 579.238 869.034C579.238 869.034 579.238 877.001 578.154 878.168C576.995 881.948 576.063 885.792 575.361 889.683C574.677 893.819 574.394 898.027 575.502 900.195C578.154 905.405 594.063 904.98 594.063 904.98C594.191 904.951 594.321 904.931 594.452 904.921C597.455 904.604 600.491 904.889 603.383 905.759C606.274 906.629 608.963 908.067 611.293 909.989C617.338 914.845 640.271 912.723 652.704 911.168C657.572 910.543 660.824 909.989 660.824 909.989C660.981 909.438 661.037 908.863 660.989 908.292V908.292C660.86 905.24 658.467 898.545 642.251 892.57C642.251 892.57 627.002 882.317 627.214 873.383H626.872H625.116C626.224 873.348 627.002 873.348 627.002 873.348C627.002 873.348 621.027 851.556 623.466 849.777C625.906 847.997 618.599 823.848 618.599 823.848C618.599 823.848 614.416 783.306 614.18 780.478C614.195 778.04 614.569 775.618 615.288 773.288L614.18 751.049C614.18 751.049 613.968 743.659 614.18 741.255C614.156 739.168 613.991 737.085 613.685 735.021C613.579 734.196 613.473 733.335 613.355 732.487C619.071 731.037 622.783 729.705 622.783 729.705L622.123 652.333C626.978 642.905 627.874 622.209 627.85 607.548C627.85 598.119 627.426 591.142 627.426 591.142L634.061 580.311C634.061 580.311 635.593 567.347 633.165 564.507C632.093 563.222 632.576 561.891 633.46 560.795C633.925 560.413 634.417 560.067 634.933 559.757C634.875 559.675 634.824 559.589 634.78 559.498C635.243 559.111 635.736 558.76 636.253 558.449C636.253 558.449 633.896 554.796 636.005 553.252C637.985 554.595 639.753 555.668 641.096 556.434C641.002 557.294 640.908 557.789 640.908 557.789L641.474 556.611C642.77 557.341 643.559 557.789 643.559 557.789C643.559 557.789 653.954 537.082 653.73 534.041C653.506 531.001 660.801 518.131 660.801 518.131C660.801 518.131 661.684 511.366 665.668 508.537C669.651 505.709 668.755 485.214 668.755 485.214C668.755 485.214 669.863 474.536 672.515 470.187C675.166 465.838 670.146 459.922 670.146 459.922ZM471.266 450.835L471.466 455.773C470.287 453.876 469.439 452.521 469.439 452.521L471.266 450.835Z" fill="url(#paint0_linear_119:211)"/>
<path d="M644.172 548.832L641.627 559.675C641.627 559.675 621.239 549.245 617.574 536.045C613.909 522.845 623.714 517.812 623.714 517.812L642.723 525.85L644.172 548.832Z" fill="white"/>
<path opacity="0.1" d="M644.172 548.832L641.627 559.675C641.627 559.675 621.239 549.245 617.574 536.045C613.909 522.845 623.714 517.812 623.714 517.812L642.723 525.85L644.172 548.832Z" fill="black"/>
<path d="M557.731 359.344C542.175 353.298 522.164 333.322 527.161 323.988C528.265 321.63 528.924 319.089 529.105 316.492C529.427 312.965 529.474 309.419 529.247 305.885C528.896 300.093 528.199 294.328 527.161 288.619C527.161 288.619 575.726 289.715 572.898 296.869C572.073 298.979 571.931 302.62 572.167 306.686C572.403 310.752 572.98 315.384 573.593 319.285C574.43 324.624 575.29 328.714 575.29 328.714C575.29 328.714 572.308 332.874 570.576 333.098C568.844 333.322 580.051 368.007 557.731 359.344Z" fill="#FFB9B9"/>
<path opacity="0.1" d="M572.898 296.904C572.073 299.014 571.932 302.656 572.167 306.722C565.662 310.639 558.184 312.642 550.592 312.5C543 312.358 535.602 310.078 529.247 305.92C528.896 300.128 528.2 294.363 527.161 288.654C527.161 288.654 575.727 289.75 572.898 296.904Z" fill="black"/>
<path d="M591.647 270.882C591.775 281.575 587.651 291.881 580.181 299.533C572.71 307.185 562.507 311.555 551.815 311.684C541.122 311.812 530.817 307.687 523.165 300.216C515.514 292.746 511.144 282.541 511.016 271.848C511.016 271.518 511.016 271.212 511.016 270.882C511.016 260.186 515.264 249.928 522.827 242.364C530.39 234.801 540.648 230.552 551.343 230.552C562.039 230.552 572.296 234.801 579.859 242.364C587.422 249.928 591.671 260.186 591.671 270.882H591.647Z" fill="#FFB9B9"/>
<path opacity="0.1" d="M557.731 359.345C542.175 353.299 522.164 333.322 527.161 323.988C528.265 321.63 528.924 319.089 529.105 316.492L550.4 334.006L563.576 344.813L573.593 319.321C574.43 324.66 575.29 328.749 575.29 328.749C575.29 328.749 572.308 332.909 570.576 333.133C568.844 333.357 580.051 368.007 557.731 359.345Z" fill="black"/>
<path d="M612.801 436.74L595.018 735.504L571.825 737.024L511.758 563.788L521.61 358.118L523.696 314.665L550.401 336.598L563.576 347.405L573.888 321.159L593.062 337.871L612.801 436.74Z" fill="#591BBE"/>
<path opacity="0.1" d="M579.191 740.502C530.873 748.751 486.621 725.098 486.621 725.098L487.045 717.084C487.045 717.084 488.142 626.229 485.101 619.263C482.061 612.298 479.692 577.024 481.412 571.638C483.133 566.252 475.131 484.931 475.131 484.931L473.835 451.932L426.354 432.639L447.566 388.408C450.431 382.208 452.895 375.83 454.944 369.315C458.632 357.824 475.756 346.545 475.756 346.545C475.756 346.545 493.315 335.278 500.256 335.703C507.198 336.127 516.295 325.732 516.295 325.732C523.013 308.608 529.094 316.304 529.094 316.304C529.094 317.129 529.094 316.304 528.764 318.837C526.407 337.635 566.876 397.035 567.453 398.095L571.354 491.979L575.255 610.789L579.191 740.502Z" fill="black"/>
<path d="M577.894 740.502C529.577 748.751 485.313 725.098 485.313 725.098L485.749 717.084C485.749 717.084 486.833 626.229 483.793 619.263C480.752 612.298 478.384 576.989 480.116 571.555C481.848 566.122 473.799 484.884 473.799 484.884L472.491 451.885L425.022 432.592L446.235 388.36C449.092 382.162 451.556 375.789 453.612 369.28C457.301 357.824 474.483 346.534 474.483 346.534C474.483 346.534 492.042 335.266 498.972 335.691C505.901 336.115 515.046 325.732 515.046 325.732C521.775 308.608 529.188 316.304 529.188 316.304C529.188 317.129 528.481 317.482 528.858 318.837C534.043 337.07 565.674 397.035 566.251 398.095L570.152 491.979L573.97 610.848L577.894 740.502Z" fill="white"/>
<path opacity="0.1" d="M564.873 400.746C559.676 398.577 532.146 367.145 532.146 367.145V359.991C531.144 357.634 525.181 359.072 520.361 360.722L522.435 317.269L524.792 319.225C529.942 337.445 564.307 399.697 564.873 400.746Z" fill="black"/>
<path d="M566.18 398.153C560.971 395.972 533.442 364.552 533.442 364.552V357.386C532.44 355.029 526.489 356.467 521.657 358.117L523.696 314.711L526.053 316.656C531.25 334.852 565.603 397.092 566.18 398.153Z" fill="white"/>
<path opacity="0.1" d="M486.622 554.902C487.27 554.902 520.22 551.438 520.22 551.438C520.22 551.438 540.172 590.683 538.864 600.218C537.555 609.752 535.187 618.214 527.161 616.718C519.136 615.221 483.97 617.896 483.97 617.896L486.622 554.902Z" fill="black"/>
<path d="M485.313 552.297C485.973 552.297 518.923 548.832 518.923 548.832C518.923 548.832 538.863 588.137 537.567 597.565C536.271 606.994 533.878 615.562 525.865 614.065C517.851 612.568 482.662 615.244 482.662 615.244L485.313 552.297Z" fill="white"/>
<path d="M510.144 533.924C510.144 533.924 540.383 550.188 541.032 555.138C541.68 560.088 525.641 552.969 522.176 552.097C519.894 551.555 517.573 551.193 515.235 551.013L492.125 551.638L510.144 533.924Z" fill="#FFB9B9"/>
<path opacity="0.1" d="M556.423 402.773C558.18 402.773 559.604 401.349 559.604 399.591C559.604 397.834 558.18 396.409 556.423 396.409C554.665 396.409 553.241 397.834 553.241 399.591C553.241 401.349 554.665 402.773 556.423 402.773Z" fill="black"/>
<path d="M556.423 401.476C558.18 401.476 559.604 400.052 559.604 398.294C559.604 396.537 558.18 395.112 556.423 395.112C554.665 395.112 553.241 396.537 553.241 398.294C553.241 400.052 554.665 401.476 556.423 401.476Z" fill="#3F3D56"/>
<path opacity="0.1" d="M562.279 540.523C564.037 540.523 565.461 539.099 565.461 537.341C565.461 535.584 564.037 534.159 562.279 534.159C560.522 534.159 559.097 535.584 559.097 537.341C559.097 539.099 560.522 540.523 562.279 540.523Z" fill="black"/>
<path d="M562.279 539.216C564.037 539.216 565.461 537.791 565.461 536.034C565.461 534.276 564.037 532.852 562.279 532.852C560.522 532.852 559.097 534.276 559.097 536.034C559.097 537.791 560.522 539.216 562.279 539.216Z" fill="#3F3D56"/>
<path opacity="0.1" d="M559.604 471.648C561.362 471.648 562.786 470.224 562.786 468.466C562.786 466.709 561.362 465.284 559.604 465.284C557.847 465.284 556.422 466.709 556.422 468.466C556.422 470.224 557.847 471.648 559.604 471.648Z" fill="black"/>
<path d="M559.604 470.353C561.362 470.353 562.786 468.928 562.786 467.17C562.786 465.413 561.362 463.988 559.604 463.988C557.847 463.988 556.422 465.413 556.422 467.17C556.422 468.928 557.847 470.353 559.604 470.353Z" fill="#3F3D56"/>
<path d="M632.953 550.353C632.953 550.353 635.121 553.606 632.953 555.067C630.785 556.528 633.165 560.276 633.165 560.276C633.165 560.276 627.756 563.435 630.136 566.299C632.517 569.162 631.008 582.021 631.008 582.021L624.503 592.851C624.503 592.851 624.892 599.793 624.916 609.174C624.916 623.812 624.055 644.39 619.294 653.771L619.931 730.743C619.931 730.743 597.151 739.075 578.083 736.529L575.255 613.017C575.255 613.017 579.379 542.975 580.9 529.539C581.789 522.564 582.152 515.532 581.984 508.502C581.984 508.502 581.336 487.477 579.155 477.73C579.155 477.73 576.798 435.443 576.563 423.74C576.457 418.142 576.751 401.807 577.081 386.274C577.447 369.291 577.859 353.274 577.859 353.274L573.558 319.226C573.558 319.226 577.859 318.802 579.155 320.522C579.736 321.065 580.367 321.55 581.041 321.972C588.477 326.993 614.71 342.432 614.71 342.432C614.71 342.432 629.229 348.207 632.706 356.48C636.182 364.754 638.598 370.623 640.283 372.98C641.968 375.337 642.888 386.415 642.888 386.415C642.888 386.415 647.884 406.805 651.785 410.258C655.686 413.711 658.491 435.632 658.491 435.632L624.02 462.739C624.02 462.739 620.991 507.83 620.343 509.575C619.695 511.319 632.953 550.353 632.953 550.353Z" fill="white"/>
<path d="M634.261 550.352C634.261 550.352 636.418 553.605 634.261 555.066C632.104 556.528 634.461 560.275 634.461 560.275C634.461 560.275 629.052 563.434 631.433 566.298C633.813 569.162 632.305 582.02 632.305 582.02L625.823 592.851C625.823 592.851 626.212 599.792 626.247 609.174C626.247 623.811 625.387 644.389 620.626 653.77L621.274 730.742C621.274 730.742 598.494 739.074 579.426 736.529L576.61 613.016C576.61 613.016 580.723 542.974 582.255 529.539C583.146 522.564 583.504 515.531 583.327 508.501C583.327 508.501 582.679 487.476 580.511 477.729C580.511 477.729 578.154 435.443 577.906 423.74C577.8 418.142 578.095 401.807 578.425 386.273C578.79 369.29 579.203 353.274 579.203 353.274L573.522 318.766C573.522 318.766 579.202 318.766 580.511 320.522C581.086 321.071 581.718 321.556 582.396 321.971V321.971C589.821 326.992 616.054 342.431 616.054 342.431C616.054 342.431 630.537 348.206 634.073 356.479C637.608 364.753 639.965 370.622 641.65 372.979C643.335 375.336 644.255 386.415 644.255 386.415C644.255 386.415 649.251 406.804 653.152 410.257C657.053 413.71 659.87 435.631 659.87 435.631L625.399 462.738C625.399 462.738 622.37 507.83 621.71 509.574C621.05 511.318 634.261 550.352 634.261 550.352Z" fill="white"/>
<path opacity="0.1" d="M592.979 363.281L596.102 372.355L579.709 388.855C580.075 371.872 580.487 355.856 580.487 355.856L574.807 321.359C574.807 321.359 580.487 321.359 581.795 323.115C582.37 323.664 583.003 324.15 583.681 324.565V324.565L597.61 364.742L592.979 363.281Z" fill="black"/>
<path d="M591.647 360.676L594.77 369.739L578.389 386.239C578.743 369.256 579.167 353.24 579.167 353.24L573.475 318.731C573.475 318.731 579.167 318.731 580.463 320.487C581.041 321.033 581.673 321.519 582.349 321.937V321.937L596.361 362.149L591.647 360.676Z" fill="white"/>
<path opacity="0.1" d="M591.647 270.882C591.652 275.129 590.984 279.349 589.667 283.386C589.445 283.424 589.218 283.416 589 283.363C588.781 283.31 588.575 283.214 588.395 283.08C588.076 272.473 582.867 262.502 576.445 254.029C574.638 251.473 572.453 249.207 569.963 247.311C567.443 245.419 564.309 244.533 561.172 244.824C557.636 245.307 554.513 247.712 550.942 248.018C546.229 248.407 542.01 245.142 537.331 244.989C535.429 245.005 533.552 245.427 531.826 246.228C530.1 247.029 528.566 248.19 527.326 249.633C524.866 252.534 523.039 255.919 521.964 259.568C520.111 265.105 519.102 270.89 518.97 276.728C518.911 280.028 518.593 284.164 515.529 285.366C515.761 282.941 515.486 280.494 514.721 278.181C513.956 275.868 512.718 273.74 511.086 271.931L511.016 271.848C511.016 271.518 511.016 271.212 511.016 270.882C511.016 260.186 515.264 249.928 522.827 242.364C530.39 234.801 540.648 230.552 551.343 230.552C562.039 230.552 572.296 234.801 579.859 242.364C587.422 249.928 591.671 260.186 591.671 270.882H591.647Z" fill="black"/>
<path d="M568.077 206.851C561.954 203.97 554.988 203.425 548.491 205.319C545.227 206.285 542.151 207.853 538.839 208.642C531.769 210.351 523.519 208.501 517.45 212.638C514.08 214.995 512.053 218.719 510.167 222.349L505.453 231.318C502.884 236.232 500.291 241.229 499.219 246.639C498.147 252.049 498.795 258.106 502.224 262.467C504.711 265.626 508.411 267.617 511.122 270.599C512.75 272.417 513.984 274.552 514.747 276.871C515.51 279.189 515.784 281.64 515.553 284.07C518.617 282.891 518.923 278.731 518.994 275.431C519.126 269.594 520.135 263.809 521.987 258.271C523.063 254.622 524.889 251.238 527.349 248.336C528.589 246.892 530.123 245.729 531.848 244.926C533.574 244.124 535.451 243.699 537.355 243.681C542.068 243.846 546.299 247.11 550.966 246.71C554.501 246.415 557.636 244.011 561.195 243.528C564.333 243.231 567.469 244.118 569.987 246.014C572.478 247.905 574.661 250.171 576.456 252.732C582.891 261.218 588.112 271.141 588.418 281.784C589.75 282.75 591.671 281.477 592.331 279.969C592.991 278.46 593.014 276.692 593.851 275.254C594.817 273.593 596.667 272.697 598.117 271.448C601.794 268.277 602.713 262.938 602.572 258.095C602.43 253.251 601.487 248.336 602.407 243.575C602.96 240.664 604.21 237.918 604.893 235.03C605.577 232.143 605.659 228.902 604.045 226.415C601.688 222.773 596.726 222.043 592.401 221.701C587.487 221.277 583.091 221.819 579.957 217.682C578.481 215.526 576.826 213.499 575.007 211.624C574.359 211 568.077 207.11 568.077 206.851Z" fill="#512E4E"/>
<path opacity="0.1" d="M439.954 455.385L427.65 432.627L423.75 467.748C423.75 467.748 425.918 483.352 425.482 485.745C425.046 488.137 434.368 509.587 434.368 509.587C434.368 509.587 465.161 564.449 477.736 567.265L520.161 536.906L508.895 522.598C508.895 522.598 504.994 521.078 504.016 522.598C504.016 522.598 483.086 486.605 480.929 484.012C478.773 481.419 479.185 476.198 479.185 476.198C479.185 476.198 475.933 472.733 477.017 469.48C478.101 466.228 470.794 454.961 470.794 454.961L477.512 448.679L439.954 455.385Z" fill="black"/>
<path d="M428.299 430.021L425.046 432.626L421.145 467.747C421.145 467.747 423.314 483.351 422.878 485.744C422.442 488.136 431.775 509.586 431.775 509.586C431.775 509.586 462.557 564.448 475.131 567.264L517.627 536.905L506.349 522.597C506.349 522.597 502.449 521.077 501.47 522.597C501.47 522.597 480.552 486.604 478.384 484.011C476.216 481.418 476.652 476.197 476.652 476.197C476.652 476.197 473.399 472.732 474.483 469.48C475.567 466.227 468.19 454.96 468.19 454.96L474.908 448.678L428.299 430.021Z" fill="white"/>
<path opacity="0.1" d="M630.137 567.654C632.494 570.518 631.009 583.388 631.009 583.388L624.503 594.148C624.503 594.148 624.892 601.102 624.916 610.483L613.98 613.901C612.99 614.209 611.94 614.277 610.919 614.097C609.898 613.918 608.934 613.497 608.108 612.87C607.283 612.242 606.619 611.427 606.172 610.491C605.726 609.555 605.51 608.526 605.542 607.489L607.439 546.676L632.953 556.422C630.785 557.931 633.165 561.632 633.165 561.632C633.165 561.632 627.756 564.79 630.137 567.654Z" fill="black"/>
<path d="M631.433 566.357C633.79 569.209 632.305 582.079 632.305 582.079L625.823 592.851C625.823 592.851 626.212 599.793 626.247 609.174L615.111 612.651C614.144 612.954 613.118 613.022 612.12 612.848C611.121 612.674 610.179 612.263 609.372 611.651C608.564 611.038 607.915 610.241 607.478 609.326C607.042 608.412 606.83 607.406 606.861 606.393L608.759 545.367L634.261 555.137C632.081 556.646 634.462 560.347 634.462 560.347C634.462 560.347 629.052 563.493 631.433 566.357Z" fill="white"/>
<path d="M639.895 537.342C639.895 537.342 638.162 548.408 633.825 549.056C629.489 549.705 627.544 566.959 623.219 566.358C618.894 565.757 621.758 550.306 621.911 547.312C622.064 544.319 617.197 531.92 620.827 529.103C624.456 526.287 636.006 529.103 636.006 529.103L639.895 537.342Z" fill="#FFB9B9"/>
<path opacity="0.1" d="M649.063 452.132L657.23 435.632C657.23 435.632 660.495 448.207 660.495 454.925C660.495 461.643 665.044 462.303 665.044 462.303C665.044 462.303 670.028 468.195 667.4 472.497C664.772 476.799 663.724 487.453 663.724 487.453C663.724 487.453 664.584 507.83 660.683 510.647C656.782 513.464 655.91 520.193 655.91 520.193C655.91 520.193 648.757 532.981 648.981 536.021C649.205 539.062 639.011 559.651 639.011 559.651C639.011 559.651 643.996 534.065 614.946 523.01C614.946 523.01 614.722 514.336 616.891 511.955C619.059 509.574 622.441 508.419 620.32 496.445C618.199 484.471 619.707 470.034 619.707 467.146C619.707 464.259 626.213 446.262 626.213 446.262L649.063 452.132Z" fill="black"/>
<path d="M652.693 433.274L659.835 435.632C659.835 435.632 663.099 448.207 663.099 454.924C663.099 461.642 667.648 462.302 667.648 462.302C667.648 462.302 672.633 468.195 670.005 472.497C667.377 476.798 666.317 487.453 666.317 487.453C666.317 487.453 667.189 507.83 663.288 510.647C659.387 513.463 658.574 520.193 658.574 520.193C658.574 520.193 651.421 532.98 651.644 536.021C651.868 539.062 641.663 559.651 641.663 559.651C641.663 559.651 646.648 534.065 617.598 523.01C617.598 523.01 617.386 514.335 619.554 511.955C621.723 509.574 625.105 508.419 622.984 496.445C620.863 484.471 622.371 470.034 622.371 467.146C622.371 464.259 628.876 446.262 628.876 446.262L652.693 433.274Z" fill="white"/>
</g>
<path d="M732.069 629.733C615.833 628.234 517.857 715.382 433.5 678C349.143 640.618 290.386 868.653 478.316 846.062C666.245 823.471 560.432 730.962 661.823 757.334C763.214 783.707 848.305 631.233 732.069 629.733Z" fill="#5E4D79"/>
<path d="M362.5 762.479C504 915 306.5 791.979 306.5 774.979C289.5 738.979 381 683.5 291.5 699C291.5 687.954 372.455 669.479 383.5 669.479C394.546 669.479 416 745.979 362.5 762.479Z" fill="#5E4D79"/>
<path d="M592.5 825.785C592.5 830.751 603.607 864.785 598.879 864.785C568.5 852.5 575.5 825.785 525 837.354C525 832.388 579.212 816.795 583.94 816.795C588.667 816.795 592.5 820.82 592.5 825.785Z" fill="#5E4D79"/>
</g>
<defs>
<linearGradient id="paint0_linear_119:211" x1="223770" y1="637924" x2="223770" y2="191697" gradientUnits="userSpaceOnUse">
<stop stop-color="#808080" stop-opacity="0.25"/>
<stop offset="0.54" stop-color="#808080" stop-opacity="0.12"/>
<stop offset="1" stop-color="#808080" stop-opacity="0.1"/>
</linearGradient>
<clipPath id="clip0_119:211">
<rect width="1100" height="1000" fill="white"/>
</clipPath>
<clipPath id="clip1_119:211">
<rect width="518" height="518" fill="white" transform="translate(291 183)"/>
</clipPath>
</defs>
</svg>
