<svg width="1100" height="1000" viewBox="0 0 1100 1000" fill="none" xmlns="http://www.w3.org/2000/svg">
<g clip-path="url(#clip0_119:211)">
<path d="M234.777 501.044C277.145 314.694 -133.392 40.8505 45.2974 2.37178C199.416 -30.816 473.095 295.781 646.498 264.619C1577.91 97.2393 1096.39 386.895 1010 522C855.926 762.95 1042.81 946.981 806.564 839.093C570.316 731.205 576.724 852.362 330.645 964.962C-15.1659 1123.2 188.191 705.947 234.777 501.044Z" fill="#C39EFF"/>
<path d="M574.169 304.731C477.17 308.398 314.629 127.696 250.836 197.41C187.044 267.123 225.494 335 225.494 335C225.494 335 263.944 408.382 250.836 466.171C237.728 523.961 -55.0155 634.948 112.767 695.487C280.55 756.027 395.9 590.919 546.206 811.064C696.511 1031.21 856.427 723.006 856.427 723.006C856.427 723.006 1133.44 807.394 1035.57 695.487C937.698 583.581 814.48 636.781 914.102 511.116C1013.72 385.451 873.1 383.463 881.771 335C914.102 154.298 914.102 66.241 804.87 154.299C695.639 242.356 671.169 301.063 574.169 304.731Z" fill="#5E4D79"/>
<path opacity="0.1" d="M400.381 439.134H399.394C400.178 438.107 400.609 436.774 400.603 435.394V435.394C400.649 434.019 400.228 432.678 399.433 431.667C398.638 430.656 397.533 430.056 396.362 430H366.632C365.461 430.056 364.357 430.656 363.561 431.667C362.766 432.678 362.345 434.019 362.391 435.394V435.394C362.345 436.77 362.766 438.11 363.561 439.122C364.357 440.133 365.461 440.732 366.632 440.789H367.627C366.84 441.815 366.406 443.148 366.41 444.529C366.39 445.695 366.697 446.837 367.284 447.779C367.87 448.721 368.703 449.411 369.655 449.743H361.097C359.972 449.886 358.931 450.513 358.175 451.503C357.418 452.493 357 453.776 357 455.106C357 456.436 357.418 457.719 358.175 458.709C358.931 459.698 359.972 460.325 361.097 460.469H390.828C391.999 460.412 393.103 459.813 393.898 458.802C394.693 457.79 395.114 456.45 395.069 455.074C395.098 453.907 394.798 452.761 394.217 451.814C393.636 450.866 392.806 450.17 391.854 449.833H400.412C401.545 449.699 402.595 449.076 403.359 448.084C404.123 447.093 404.546 445.803 404.546 444.466C404.546 443.128 404.123 441.839 403.359 440.847C402.595 439.855 401.545 439.232 400.412 439.098L400.381 439.134Z" fill="white"/>
<ellipse cx="545.066" cy="898.881" rx="14.1235" ry="14.8342" fill="#5E4D79"/>
<ellipse cx="272.012" cy="87.0244" rx="5.56412" ry="5.84377" fill="#5E4D79"/>
<ellipse cx="189.409" cy="368.88" rx="13.6955" ry="14.3847" fill="#5E4D79"/>
<ellipse cx="417.098" cy="139.62" rx="13.6955" ry="14.3847" fill="#5E4D79"/>
<ellipse cx="970.91" cy="243.911" rx="13.6955" ry="14.3847" fill="#5E4D79"/>
<ellipse cx="909.28" cy="834.598" rx="13.6955" ry="14.3847" fill="#5E4D79"/>
<ellipse cx="934.96" cy="570.272" rx="11.9836" ry="12.5866" fill="#5E4D79"/>
<ellipse cx="1013.28" cy="402.596" rx="18.4033" ry="19.3299" fill="#5E4D79"/>
<ellipse cx="133.345" cy="493.403" rx="17.5474" ry="18.4308" fill="#5E4D79"/>
<ellipse cx="852.787" cy="899.33" rx="8.56019" ry="8.99042" fill="#5E4D79"/>
<ellipse cx="799.717" cy="78.4836" rx="8.56019" ry="8.99042" fill="#5E4D79"/>
<ellipse cx="229.642" cy="748.287" rx="8.56019" ry="8.99042" fill="#5E4D79"/>
<ellipse cx="348.56" cy="847.99" rx="8.56019" ry="8.99042" fill="#5E4D79"/>
<ellipse cx="668.754" cy="139.62" rx="8.56019" ry="8.99042" fill="#5E4D79"/>
<ellipse cx="308.547" cy="875.431" rx="17.5474" ry="18.4308" fill="#5E4D79"/>
<g clip-path="url(#clip1_119:211)">
<circle cx="565" cy="564" r="198" fill="#C13FFF"/>
<path d="M684.146 506.922C684.146 506.922 679.503 506.274 679.503 499.521C679.503 492.767 676.179 480.122 676.179 480.122C676.179 480.122 673.304 458.118 669.332 454.629C665.361 451.141 660.258 430.658 660.258 430.658C660.258 430.658 659.386 419.544 657.607 417.151C655.827 414.759 653.423 408.901 649.876 400.545C646.329 392.189 631.574 386.462 631.574 386.462C631.574 386.462 604.834 370.952 597.257 365.896C596.564 365.477 595.916 364.987 595.324 364.434C594.004 362.714 588.253 362.678 588.253 362.678C587.652 358.872 587.075 354.511 586.886 350.563C586.886 350.139 586.886 349.714 586.886 349.29C595.336 344.295 601.7 336.42 604.811 327.11C604.952 326.662 605.07 326.202 605.2 325.742C605.717 325.583 606.194 325.315 606.6 324.958C607.007 324.6 607.332 324.161 607.557 323.668C608.228 322.148 608.252 320.38 609.1 318.954C610.09 317.28 611.976 316.385 613.461 315.135C617.208 311.942 618.175 306.579 617.998 301.712C617.88 297.752 617.244 293.768 617.491 289.844C617.491 289.514 617.491 289.184 617.562 288.854C617.633 288.276 617.715 287.675 617.821 287.109C618.399 284.187 619.659 281.429 620.367 278.529C621.074 275.63 621.144 272.366 619.495 269.867C617.079 266.202 612.047 265.471 607.627 265.153C602.619 264.729 598.199 265.271 594.935 261.11C593.438 258.937 591.75 256.902 589.891 255.029C589.231 254.416 582.82 250.492 582.82 250.244C576.548 247.327 569.431 246.779 562.786 248.7C559.451 249.667 556.328 251.246 552.946 252.035C545.686 253.756 537.319 251.894 531.144 256.054C527.703 258.411 525.64 262.171 523.708 265.813C522.136 268.814 520.541 271.82 518.923 274.829C516.307 279.767 513.667 284.788 512.571 290.256C512.342 291.451 512.196 292.66 512.135 293.874V293.874C512.135 294.31 512.135 294.746 512.135 295.182C512.135 295.371 512.135 295.56 512.135 295.748C512.135 296.149 512.135 296.55 512.206 296.927C512.276 297.304 512.206 297.41 512.288 297.657C512.371 297.905 512.394 298.459 512.465 298.836C512.536 299.213 512.677 299.885 512.818 300.392C512.818 300.616 512.96 300.828 513.031 301.052C513.101 301.276 513.29 301.841 513.443 302.23C513.596 302.619 513.608 302.643 513.702 302.843C513.879 303.256 514.091 303.656 514.303 304.022C514.398 304.175 514.468 304.328 514.563 304.481C514.886 305.033 515.248 305.561 515.647 306.061C518.157 309.207 521.881 311.211 524.627 314.157C524.627 314.275 524.627 314.393 524.627 314.511C524.627 314.829 524.627 315.147 524.627 315.477C524.795 322.049 526.566 328.48 529.787 334.211C533.007 339.942 537.58 344.799 543.105 348.359C543.105 348.807 543.164 349.266 543.188 349.726C543.418 353.22 543.374 356.728 543.058 360.215C542.577 359.651 541.976 359.202 541.299 358.9C540.622 358.598 539.887 358.452 539.146 358.471C538.639 358.446 538.132 358.489 537.637 358.601L537.531 358.518V358.624C534.939 359.261 531.745 361.959 528.693 369.632C528.693 369.632 519.406 380.097 512.335 379.661C505.264 379.225 487.363 390.563 487.363 390.563C487.363 390.563 469.898 401.889 466.151 413.439C464.056 419.99 461.54 426.399 458.62 432.626L436.971 477.081L433 512.438C433 512.438 435.204 528.124 434.768 530.528C434.332 532.933 443.83 554.5 443.83 554.5C443.83 554.5 475.213 609.633 488.035 612.462L488.954 611.825C489.505 612.103 490.087 612.317 490.687 612.462L493.326 610.611C493.49 612.683 493.419 614.767 493.114 616.822C491.358 622.279 493.786 657.801 496.874 664.766C499.961 671.731 498.865 763.069 498.865 763.069L498.429 771.119C498.429 771.119 498.429 771.378 498.535 771.826L498.429 773.735L498.747 773.9C499.078 776.461 498.97 779.06 498.429 781.585C497.321 785.12 496.874 795.103 496.874 795.103C496.874 795.103 488.035 851.532 492.23 862.87C496.426 874.207 499.973 886.629 499.973 886.629C499.973 886.629 504.392 900.772 500.185 903.129C495.978 905.486 484.064 909.67 486.491 915.551C488.73 920.996 497.227 935.587 498.488 937.72L498.382 938.898L496.65 957.673C496.93 960.152 497.603 962.57 498.641 964.838C500.539 968.94 504.216 973.171 511.239 972.711C512.418 972.629 513.773 972.499 515.105 972.322C527.938 970.59 543.73 964.862 543.73 964.862C542.911 964.343 542.163 963.721 541.503 963.012V963.012C540.872 962.401 540.372 961.667 540.034 960.857C539.695 960.046 539.526 959.176 539.535 958.297C539.723 954.868 533.324 938.592 531.721 934.573L531.356 933.677C531.356 933.677 545.946 918.415 543.518 904.909C543.518 904.909 527.373 895.48 532.688 890.295C538.003 885.109 547.501 870.259 547.501 870.259C547.501 870.259 547.937 814.69 547.501 806.405C547.047 800.642 547.32 794.845 548.314 789.151C548.491 788.302 548.703 787.466 548.927 786.629C556.284 787.739 563.713 788.302 571.153 788.314C573.872 788.314 576.621 788.259 579.403 788.149C579.403 788.935 579.438 789.783 579.509 790.695C580.122 804.46 581.265 828.609 582.196 837.578C583.515 850.424 590.81 885.085 590.81 885.085C590.81 885.085 576.892 894.007 593.238 916.034C593.238 916.034 593.238 924.001 592.154 925.168C590.995 928.948 590.063 932.792 589.361 936.683C588.677 940.819 588.394 945.027 589.502 947.195C592.154 952.405 608.063 951.98 608.063 951.98C608.191 951.951 608.321 951.931 608.452 951.921C611.455 951.604 614.491 951.889 617.383 952.759C620.274 953.629 622.963 955.067 625.293 956.989C631.338 961.845 654.271 959.723 666.704 958.168C671.572 957.543 674.824 956.989 674.824 956.989C674.981 956.438 675.037 955.863 674.989 955.292V955.292C674.86 952.24 672.467 945.545 656.251 939.57C656.251 939.57 641.002 929.317 641.214 920.383H640.872H639.116C640.224 920.348 641.002 920.348 641.002 920.348C641.002 920.348 635.027 898.556 637.466 896.777C639.906 894.997 632.599 870.848 632.599 870.848C632.599 870.848 628.416 830.306 628.18 827.478C628.195 825.04 628.569 822.618 629.288 820.288L628.18 798.049C628.18 798.049 627.968 790.659 628.18 788.255C628.156 786.168 627.991 784.085 627.685 782.021C627.579 781.196 627.473 780.335 627.355 779.487C633.071 778.037 636.783 776.705 636.783 776.705L636.123 699.333C640.978 689.905 641.874 669.209 641.85 654.548C641.85 645.119 641.426 638.142 641.426 638.142L648.061 627.311C648.061 627.311 649.593 614.347 647.165 611.507C646.093 610.222 646.576 608.891 647.46 607.795C647.925 607.413 648.417 607.067 648.933 606.757C648.875 606.675 648.824 606.589 648.78 606.498C649.243 606.111 649.736 605.76 650.253 605.449C650.253 605.449 647.896 601.796 650.005 600.252C651.985 601.595 653.753 602.668 655.096 603.434C655.002 604.294 654.908 604.789 654.908 604.789L655.474 603.611C656.77 604.341 657.559 604.789 657.559 604.789C657.559 604.789 667.954 584.082 667.73 581.041C667.506 578.001 674.801 565.131 674.801 565.131C674.801 565.131 675.684 558.366 679.668 555.537C683.651 552.709 682.755 532.214 682.755 532.214C682.755 532.214 683.863 521.536 686.515 517.187C689.166 512.838 684.146 506.922 684.146 506.922ZM485.266 497.835L485.466 502.773C484.287 500.876 483.439 499.521 483.439 499.521L485.266 497.835Z" fill="url(#paint0_linear_119:211)"/>
<path d="M658.172 595.832L655.627 606.675C655.627 606.675 635.239 596.245 631.574 583.045C627.909 569.845 637.714 564.812 637.714 564.812L656.723 572.85L658.172 595.832Z" fill="white"/>
<path opacity="0.1" d="M658.172 595.832L655.627 606.675C655.627 606.675 635.239 596.245 631.574 583.045C627.909 569.845 637.714 564.812 637.714 564.812L656.723 572.85L658.172 595.832Z" fill="black"/>
<path d="M571.731 406.344C556.175 400.298 536.164 380.322 541.161 370.988C542.265 368.63 542.924 366.089 543.105 363.492C543.427 359.965 543.474 356.419 543.247 352.885C542.896 347.093 542.199 341.328 541.161 335.619C541.161 335.619 589.726 336.715 586.898 343.869C586.073 345.979 585.931 349.62 586.167 353.686C586.403 357.752 586.98 362.384 587.593 366.285C588.43 371.624 589.29 375.714 589.29 375.714C589.29 375.714 586.308 379.874 584.576 380.098C582.844 380.322 594.051 415.007 571.731 406.344Z" fill="#FFB9B9"/>
<path opacity="0.1" d="M586.898 343.904C586.073 346.014 585.932 349.656 586.167 353.722C579.662 357.639 572.184 359.642 564.592 359.5C557 359.358 549.602 357.078 543.247 352.92C542.896 347.128 542.2 341.363 541.161 335.654C541.161 335.654 589.727 336.75 586.898 343.904Z" fill="black"/>
<path d="M605.647 317.882C605.775 328.575 601.651 338.881 594.181 346.533C586.71 354.185 576.507 358.555 565.815 358.684C555.122 358.812 544.817 354.687 537.165 347.216C529.514 339.746 525.144 329.541 525.016 318.848C525.016 318.518 525.016 318.212 525.016 317.882C525.016 307.186 529.264 296.928 536.827 289.364C544.39 281.801 554.648 277.552 565.343 277.552C576.039 277.552 586.296 281.801 593.859 289.364C601.422 296.928 605.671 307.186 605.671 317.882H605.647Z" fill="#FFB9B9"/>
<path opacity="0.1" d="M571.731 406.345C556.175 400.299 536.164 380.322 541.161 370.988C542.265 368.63 542.924 366.089 543.105 363.492L564.4 381.006L577.576 391.813L587.593 366.321C588.43 371.66 589.29 375.749 589.29 375.749C589.29 375.749 586.308 379.909 584.576 380.133C582.844 380.357 594.051 415.007 571.731 406.345Z" fill="black"/>
<path d="M626.801 483.74L609.018 782.504L585.825 784.024L525.758 610.788L535.61 405.118L537.696 361.665L564.401 383.598L577.576 394.405L587.888 368.159L607.062 384.871L626.801 483.74Z" fill="#591BBE"/>
<path opacity="0.1" d="M593.191 787.502C544.873 795.751 500.621 772.098 500.621 772.098L501.045 764.084C501.045 764.084 502.142 673.229 499.101 666.263C496.061 659.298 493.692 624.024 495.412 618.638C497.133 613.252 489.131 531.931 489.131 531.931L487.835 498.932L440.354 479.639L461.566 435.408C464.431 429.208 466.895 422.83 468.944 416.315C472.632 404.824 489.756 393.545 489.756 393.545C489.756 393.545 507.315 382.278 514.256 382.703C521.198 383.127 530.295 372.732 530.295 372.732C537.013 355.608 543.094 363.304 543.094 363.304C543.094 364.129 543.094 363.304 542.764 365.837C540.407 384.635 580.876 444.035 581.453 445.095L585.354 538.979L589.255 657.789L593.191 787.502Z" fill="black"/>
<path d="M591.894 787.502C543.577 795.751 499.313 772.098 499.313 772.098L499.749 764.084C499.749 764.084 500.833 673.229 497.793 666.263C494.752 659.298 492.384 623.989 494.116 618.555C495.848 613.122 487.799 531.884 487.799 531.884L486.491 498.885L439.022 479.592L460.235 435.36C463.092 429.162 465.556 422.789 467.612 416.28C471.301 404.824 488.483 393.534 488.483 393.534C488.483 393.534 506.042 382.266 512.972 382.691C519.901 383.115 529.046 372.732 529.046 372.732C535.775 355.608 543.188 363.304 543.188 363.304C543.188 364.129 542.481 364.482 542.858 365.837C548.043 384.07 579.674 444.035 580.251 445.095L584.152 538.979L587.97 657.848L591.894 787.502Z" fill="white"/>
<path opacity="0.1" d="M578.873 447.746C573.676 445.577 546.146 414.145 546.146 414.145V406.991C545.144 404.634 539.181 406.072 534.361 407.722L536.435 364.269L538.792 366.225C543.942 384.445 578.307 446.697 578.873 447.746Z" fill="black"/>
<path d="M580.18 445.153C574.971 442.972 547.442 411.552 547.442 411.552V404.386C546.44 402.029 540.489 403.467 535.657 405.117L537.696 361.711L540.053 363.656C545.25 381.852 579.603 444.092 580.18 445.153Z" fill="white"/>
<path opacity="0.1" d="M500.622 601.902C501.27 601.902 534.22 598.438 534.22 598.438C534.22 598.438 554.172 637.683 552.864 647.218C551.555 656.752 549.187 665.214 541.161 663.718C533.136 662.221 497.97 664.896 497.97 664.896L500.622 601.902Z" fill="black"/>
<path d="M499.313 599.297C499.973 599.297 532.923 595.832 532.923 595.832C532.923 595.832 552.863 635.137 551.567 644.565C550.271 653.994 547.878 662.562 539.865 661.065C531.851 659.568 496.662 662.244 496.662 662.244L499.313 599.297Z" fill="white"/>
<path d="M524.144 580.924C524.144 580.924 554.383 597.188 555.032 602.138C555.68 607.088 539.641 599.969 536.176 599.097C533.894 598.555 531.573 598.193 529.235 598.013L506.125 598.638L524.144 580.924Z" fill="#FFB9B9"/>
<path opacity="0.1" d="M570.423 449.773C572.18 449.773 573.604 448.349 573.604 446.591C573.604 444.834 572.18 443.409 570.423 443.409C568.665 443.409 567.241 444.834 567.241 446.591C567.241 448.349 568.665 449.773 570.423 449.773Z" fill="black"/>
<path d="M570.423 448.476C572.18 448.476 573.604 447.052 573.604 445.294C573.604 443.537 572.18 442.112 570.423 442.112C568.665 442.112 567.241 443.537 567.241 445.294C567.241 447.052 568.665 448.476 570.423 448.476Z" fill="#3F3D56"/>
<path opacity="0.1" d="M576.279 587.523C578.037 587.523 579.461 586.099 579.461 584.341C579.461 582.584 578.037 581.159 576.279 581.159C574.522 581.159 573.097 582.584 573.097 584.341C573.097 586.099 574.522 587.523 576.279 587.523Z" fill="black"/>
<path d="M576.279 586.216C578.037 586.216 579.461 584.791 579.461 583.034C579.461 581.276 578.037 579.852 576.279 579.852C574.522 579.852 573.097 581.276 573.097 583.034C573.097 584.791 574.522 586.216 576.279 586.216Z" fill="#3F3D56"/>
<path opacity="0.1" d="M573.604 518.648C575.362 518.648 576.786 517.224 576.786 515.466C576.786 513.709 575.362 512.284 573.604 512.284C571.847 512.284 570.422 513.709 570.422 515.466C570.422 517.224 571.847 518.648 573.604 518.648Z" fill="black"/>
<path d="M573.604 517.353C575.362 517.353 576.786 515.928 576.786 514.17C576.786 512.413 575.362 510.988 573.604 510.988C571.847 510.988 570.422 512.413 570.422 514.17C570.422 515.928 571.847 517.353 573.604 517.353Z" fill="#3F3D56"/>
<path d="M646.953 597.353C646.953 597.353 649.121 600.606 646.953 602.067C644.785 603.528 647.165 607.276 647.165 607.276C647.165 607.276 641.756 610.435 644.136 613.299C646.517 616.162 645.008 629.021 645.008 629.021L638.503 639.851C638.503 639.851 638.892 646.793 638.916 656.174C638.916 670.812 638.055 691.39 633.294 700.771L633.931 777.743C633.931 777.743 611.151 786.075 592.083 783.529L589.255 660.017C589.255 660.017 593.379 589.975 594.9 576.539C595.789 569.564 596.152 562.532 595.984 555.502C595.984 555.502 595.336 534.477 593.155 524.73C593.155 524.73 590.798 482.443 590.563 470.74C590.457 465.142 590.751 448.807 591.081 433.274C591.447 416.291 591.859 400.274 591.859 400.274L587.558 366.226C587.558 366.226 591.859 365.802 593.155 367.522C593.736 368.065 594.367 368.55 595.041 368.972C602.477 373.993 628.71 389.432 628.71 389.432C628.71 389.432 643.229 395.207 646.706 403.48C650.182 411.754 652.598 417.623 654.283 419.98C655.968 422.337 656.888 433.415 656.888 433.415C656.888 433.415 661.884 453.805 665.785 457.258C669.686 460.711 672.491 482.632 672.491 482.632L638.02 509.739C638.02 509.739 634.991 554.83 634.343 556.575C633.695 558.319 646.953 597.353 646.953 597.353Z" fill="white"/>
<path d="M648.261 597.352C648.261 597.352 650.418 600.605 648.261 602.066C646.104 603.528 648.461 607.275 648.461 607.275C648.461 607.275 643.052 610.434 645.433 613.298C647.813 616.162 646.305 629.02 646.305 629.02L639.823 639.851C639.823 639.851 640.212 646.792 640.247 656.174C640.247 670.811 639.387 691.389 634.626 700.77L635.274 777.742C635.274 777.742 612.494 786.074 593.426 783.529L590.61 660.016C590.61 660.016 594.723 589.974 596.255 576.539C597.146 569.564 597.504 562.531 597.327 555.501C597.327 555.501 596.679 534.476 594.511 524.729C594.511 524.729 592.154 482.443 591.906 470.74C591.8 465.142 592.095 448.807 592.425 433.273C592.79 416.29 593.203 400.274 593.203 400.274L587.522 365.766C587.522 365.766 593.202 365.766 594.511 367.522C595.086 368.071 595.718 368.556 596.396 368.971V368.971C603.821 373.992 630.054 389.431 630.054 389.431C630.054 389.431 644.537 395.206 648.073 403.479C651.608 411.753 653.965 417.622 655.65 419.979C657.335 422.336 658.255 433.415 658.255 433.415C658.255 433.415 663.251 453.804 667.152 457.257C671.053 460.71 673.87 482.631 673.87 482.631L639.399 509.738C639.399 509.738 636.37 554.83 635.71 556.574C635.05 558.318 648.261 597.352 648.261 597.352Z" fill="white"/>
<path opacity="0.1" d="M606.979 410.281L610.102 419.355L593.709 435.855C594.075 418.872 594.487 402.856 594.487 402.856L588.807 368.359C588.807 368.359 594.487 368.359 595.795 370.115C596.37 370.664 597.003 371.15 597.681 371.565V371.565L611.61 411.742L606.979 410.281Z" fill="black"/>
<path d="M605.647 407.676L608.77 416.739L592.389 433.239C592.743 416.256 593.167 400.24 593.167 400.24L587.475 365.731C587.475 365.731 593.167 365.731 594.463 367.487C595.041 368.033 595.673 368.519 596.349 368.937V368.937L610.361 409.149L605.647 407.676Z" fill="white"/>
<path opacity="0.1" d="M605.647 317.882C605.652 322.129 604.984 326.349 603.667 330.386C603.445 330.424 603.218 330.416 603 330.363C602.781 330.31 602.575 330.214 602.395 330.08C602.076 319.473 596.867 309.502 590.445 301.029C588.638 298.473 586.453 296.207 583.963 294.311C581.443 292.419 578.309 291.533 575.172 291.824C571.636 292.307 568.513 294.712 564.942 295.018C560.229 295.407 556.01 292.142 551.331 291.989C549.429 292.005 547.552 292.427 545.826 293.228C544.1 294.029 542.566 295.19 541.326 296.633C538.866 299.534 537.039 302.919 535.964 306.568C534.111 312.105 533.102 317.89 532.97 323.728C532.911 327.028 532.593 331.164 529.529 332.366C529.761 329.941 529.486 327.494 528.721 325.181C527.956 322.868 526.718 320.74 525.086 318.931L525.016 318.848C525.016 318.518 525.016 318.212 525.016 317.882C525.016 307.186 529.264 296.928 536.827 289.364C544.39 281.801 554.648 277.552 565.343 277.552C576.039 277.552 586.296 281.801 593.859 289.364C601.422 296.928 605.671 307.186 605.671 317.882H605.647Z" fill="black"/>
<path d="M582.077 253.851C575.954 250.97 568.988 250.425 562.491 252.319C559.227 253.285 556.151 254.853 552.839 255.642C545.769 257.351 537.519 255.501 531.45 259.638C528.08 261.995 526.053 265.719 524.167 269.349L519.453 278.318C516.884 283.232 514.291 288.229 513.219 293.639C512.147 299.049 512.795 305.106 516.224 309.467C518.711 312.626 522.411 314.617 525.122 317.599C526.75 319.417 527.984 321.552 528.747 323.871C529.51 326.189 529.784 328.64 529.553 331.07C532.617 329.891 532.923 325.731 532.994 322.431C533.126 316.594 534.135 310.809 535.987 305.271C537.063 301.622 538.889 298.238 541.349 295.336C542.589 293.892 544.123 292.729 545.848 291.926C547.574 291.124 549.451 290.699 551.355 290.681C556.068 290.846 560.299 294.11 564.966 293.71C568.501 293.415 571.636 291.011 575.195 290.528C578.333 290.231 581.469 291.118 583.987 293.014C586.478 294.905 588.661 297.171 590.456 299.732C596.891 308.218 602.112 318.141 602.418 328.784C603.75 329.75 605.671 328.477 606.331 326.969C606.991 325.46 607.014 323.692 607.851 322.254C608.817 320.593 610.667 319.697 612.117 318.448C615.794 315.277 616.713 309.938 616.572 305.095C616.43 300.251 615.487 295.336 616.407 290.575C616.96 287.664 618.21 284.918 618.893 282.03C619.577 279.143 619.659 275.902 618.045 273.415C615.688 269.773 610.726 269.043 606.401 268.701C601.487 268.277 597.091 268.819 593.957 264.682C592.481 262.526 590.826 260.499 589.007 258.624C588.359 258 582.077 254.11 582.077 253.851Z" fill="#512E4E"/>
<path opacity="0.1" d="M453.954 502.385L441.65 479.627L437.75 514.748C437.75 514.748 439.918 530.352 439.482 532.745C439.046 535.137 448.368 556.587 448.368 556.587C448.368 556.587 479.161 611.449 491.736 614.265L534.161 583.906L522.895 569.598C522.895 569.598 518.994 568.078 518.016 569.598C518.016 569.598 497.086 533.605 494.929 531.012C492.773 528.419 493.185 523.198 493.185 523.198C493.185 523.198 489.933 519.733 491.017 516.48C492.101 513.228 484.794 501.961 484.794 501.961L491.512 495.679L453.954 502.385Z" fill="black"/>
<path d="M442.299 477.021L439.046 479.626L435.145 514.747C435.145 514.747 437.314 530.351 436.878 532.744C436.442 535.136 445.775 556.586 445.775 556.586C445.775 556.586 476.557 611.448 489.131 614.264L531.627 583.905L520.349 569.597C520.349 569.597 516.449 568.077 515.47 569.597C515.47 569.597 494.552 533.604 492.384 531.011C490.216 528.418 490.652 523.197 490.652 523.197C490.652 523.197 487.399 519.732 488.483 516.48C489.567 513.227 482.19 501.96 482.19 501.96L488.908 495.678L442.299 477.021Z" fill="white"/>
<path opacity="0.1" d="M644.137 614.654C646.494 617.518 645.009 630.388 645.009 630.388L638.503 641.148C638.503 641.148 638.892 648.102 638.916 657.483L627.98 660.901C626.99 661.209 625.94 661.277 624.919 661.097C623.898 660.918 622.934 660.497 622.108 659.87C621.283 659.242 620.619 658.427 620.172 657.491C619.726 656.555 619.51 655.526 619.542 654.489L621.439 593.676L646.953 603.422C644.785 604.931 647.165 608.632 647.165 608.632C647.165 608.632 641.756 611.79 644.137 614.654Z" fill="black"/>
<path d="M645.433 613.357C647.79 616.209 646.305 629.079 646.305 629.079L639.823 639.851C639.823 639.851 640.212 646.793 640.247 656.174L629.111 659.651C628.144 659.954 627.118 660.022 626.12 659.848C625.121 659.674 624.179 659.263 623.372 658.651C622.564 658.038 621.915 657.241 621.478 656.326C621.042 655.412 620.83 654.406 620.861 653.393L622.759 592.367L648.261 602.137C646.081 603.646 648.462 607.347 648.462 607.347C648.462 607.347 643.052 610.493 645.433 613.357Z" fill="white"/>
<path d="M653.895 584.342C653.895 584.342 652.162 595.408 647.825 596.056C643.489 596.705 641.544 613.959 637.219 613.358C632.894 612.757 635.758 597.306 635.911 594.312C636.064 591.319 631.197 578.92 634.827 576.103C638.456 573.287 650.006 576.103 650.006 576.103L653.895 584.342Z" fill="#FFB9B9"/>
<path opacity="0.1" d="M663.063 499.132L671.23 482.632C671.23 482.632 674.495 495.207 674.495 501.925C674.495 508.643 679.044 509.303 679.044 509.303C679.044 509.303 684.028 515.195 681.4 519.497C678.772 523.799 677.724 534.453 677.724 534.453C677.724 534.453 678.584 554.83 674.683 557.647C670.782 560.464 669.91 567.193 669.91 567.193C669.91 567.193 662.757 579.981 662.981 583.021C663.205 586.062 653.011 606.651 653.011 606.651C653.011 606.651 657.996 581.065 628.946 570.01C628.946 570.01 628.722 561.336 630.891 558.955C633.059 556.574 636.441 555.419 634.32 543.445C632.199 531.471 633.707 517.034 633.707 514.146C633.707 511.259 640.213 493.262 640.213 493.262L663.063 499.132Z" fill="black"/>
<path d="M666.693 480.274L673.835 482.632C673.835 482.632 677.099 495.207 677.099 501.924C677.099 508.642 681.648 509.302 681.648 509.302C681.648 509.302 686.633 515.195 684.005 519.497C681.377 523.798 680.317 534.453 680.317 534.453C680.317 534.453 681.189 554.83 677.288 557.647C673.387 560.463 672.574 567.193 672.574 567.193C672.574 567.193 665.421 579.98 665.644 583.021C665.868 586.062 655.663 606.651 655.663 606.651C655.663 606.651 660.648 581.065 631.598 570.01C631.598 570.01 631.386 561.335 633.554 558.955C635.723 556.574 639.105 555.419 636.984 543.445C634.863 531.471 636.371 517.034 636.371 514.146C636.371 511.259 642.876 493.262 642.876 493.262L666.693 480.274Z" fill="white"/>
</g>
<path d="M743 652C626.764 650.501 499 793.999 403 680C307 566 283.386 868.653 471.315 846.062C659.245 823.471 553.432 730.962 654.823 757.334C756.214 783.706 859.236 653.499 743 652Z" fill="#5E4D79"/>
<path d="M362.5 762.479C504 915 306.5 791.979 306.5 774.979C289.5 738.979 381 683.5 291.5 699C291.5 687.954 372.455 669.479 383.5 669.479C394.546 669.479 416 745.979 362.5 762.479Z" fill="#5E4D79"/>
<path d="M592.5 825.785C592.5 830.751 603.607 864.785 598.879 864.785C568.5 852.5 575.5 825.785 525 837.354C525 832.388 579.212 816.795 583.94 816.795C588.667 816.795 592.5 820.82 592.5 825.785Z" fill="#5E4D79"/>
<ellipse cx="628" cy="770.5" rx="65" ry="68.5" fill="#5E4D79"/>
</g>
<defs>
<linearGradient id="paint0_linear_119:211" x1="223784" y1="637971" x2="223784" y2="191744" gradientUnits="userSpaceOnUse">
<stop stop-color="#808080" stop-opacity="0.25"/>
<stop offset="0.54" stop-color="#808080" stop-opacity="0.12"/>
<stop offset="1" stop-color="#808080" stop-opacity="0.1"/>
</linearGradient>
<clipPath id="clip0_119:211">
<rect width="1100" height="1000" fill="white"/>
</clipPath>
<clipPath id="clip1_119:211">
<rect width="518" height="518" fill="white" transform="translate(305 230)"/>
</clipPath>
</defs>
</svg>
