<svg width="1000" height="1200" viewBox="0 0 1000 1200" fill="none" xmlns="http://www.w3.org/2000/svg">
<g clip-path="url(#clip0_93:349)">
<rect width="1000" height="1200" fill="white"/>
<rect width="1000" height="1200" fill="#591BBE"/>
<path d="M741.343 307.192C749.59 337.973 748.525 370.508 738.282 400.683C728.039 430.858 709.078 457.319 683.796 476.718C658.515 496.117 628.049 507.584 596.25 509.668C564.452 511.752 532.75 504.36 505.153 488.427C477.555 472.493 455.303 448.735 441.209 420.154C427.114 391.574 421.812 359.456 425.971 327.862C430.131 296.268 443.565 266.617 464.576 242.659C485.587 218.7 513.231 201.51 544.012 193.263" stroke="#212121" stroke-opacity="0.5" stroke-width="56" stroke-linecap="round"/>
<circle cx="577.439" cy="363.224" r="94.56" transform="rotate(30 577.439 363.224)" fill="#212121" fill-opacity="0.5"/>
<path d="M479.928 524.772C481.429 526.845 483.743 528.181 486.289 528.444L578.616 538.012C588.274 539.013 592.453 526.121 584.044 521.266L437.267 436.524C428.858 431.669 419.782 441.734 425.478 449.598L479.928 524.772Z" fill="#212121" fill-opacity="0.5"/>
<circle cx="581.5" cy="356.5" r="280.5" stroke="#212121" stroke-opacity="0.5" stroke-width="30"/>
<path d="M580 483C469 486.998 182 312.999 109 389C36.0001 465.001 80 539 80 539C80 539 124 619 109 682.001C94.0001 745.003 -8.99987 858.002 1.00012 916.001C11.0001 974 157 989 273 1027C389 1065 881 1028 881 1028C881 1028 1035 1020 1007 932.001C979 844 868 791.001 868 731C868 670.999 982 584.999 982 527C982 448.424 894 383.001 802 402C710 420.999 691 479.002 580 483Z" fill="#F3F3F3" fill-opacity="0.9"/>
<path opacity="0.1" d="M328.84 497.11H327.55C328.574 495.967 329.137 494.485 329.13 492.95V492.95C329.189 491.42 328.64 489.929 327.601 488.804C326.562 487.679 325.12 487.012 323.59 486.95H284.75C283.22 487.012 281.778 487.679 280.739 488.804C279.7 489.929 279.15 491.42 279.21 492.95V492.95C279.15 494.48 279.7 495.971 280.739 497.096C281.778 498.221 283.22 498.888 284.75 498.95H286.05C285.022 500.091 284.455 501.574 284.46 503.11C284.435 504.407 284.836 505.677 285.602 506.725C286.367 507.773 287.456 508.54 288.7 508.91H277.52C276.049 509.069 274.689 509.767 273.701 510.868C272.713 511.969 272.167 513.396 272.167 514.875C272.167 516.354 272.713 517.781 273.701 518.882C274.689 519.983 276.049 520.68 277.52 520.84H316.36C317.89 520.778 319.332 520.111 320.371 518.986C321.41 517.861 321.959 516.37 321.9 514.84C321.938 513.542 321.547 512.267 320.788 511.213C320.028 510.16 318.943 509.385 317.7 509.01H328.88C330.36 508.861 331.732 508.168 332.73 507.065C333.728 505.962 334.281 504.527 334.281 503.04C334.281 501.552 333.728 500.118 332.73 499.015C331.732 497.912 330.36 497.219 328.88 497.07L328.84 497.11Z" fill="white"/>
<circle cx="631.5" cy="395.5" r="16.5" fill="#F3F3F3"/>
<circle cx="671.5" cy="375.5" r="6.5" fill="#F3F3F3"/>
<circle cx="6" cy="543" r="16" fill="#F3F3F3"/>
<circle cx="905" cy="727" r="14" fill="#F3F3F3"/>
<circle cx="960.5" cy="665.5" r="21.5" fill="#F3F3F3"/>
<path d="M560.291 394.089L555.64 395.336L520.651 271.872C515.28 252.92 502.36 236.826 484.734 227.13C467.108 217.435 446.218 214.932 426.662 220.172L156.738 292.498C147.055 295.092 137.99 299.51 130.061 305.498C122.133 311.486 115.496 318.928 110.529 327.398C105.562 335.868 102.363 345.201 101.114 354.864C99.8654 364.526 100.591 374.329 103.251 383.713L295.205 1061.05C300.576 1080 313.496 1096.09 331.122 1105.79C348.748 1115.48 369.638 1117.99 389.194 1112.75L659.118 1040.42C668.801 1037.83 677.866 1033.41 685.794 1027.42C693.723 1021.43 700.36 1013.99 705.327 1005.52C710.294 997.05 713.493 987.717 714.742 978.054C715.991 968.392 715.265 958.589 712.605 949.205L580.546 483.219L585.197 481.973L560.291 394.089Z" fill="#3F3D56"/>
<path d="M434.906 237.965L399.672 247.406C402.383 250.822 404.185 254.832 404.919 259.086C405.654 263.339 405.298 267.704 403.883 271.795C402.467 275.887 400.037 279.581 396.805 282.55C393.572 285.52 389.638 287.675 385.348 288.825L230.712 330.259C226.422 331.408 221.908 331.518 217.567 330.577C213.227 329.636 209.194 327.675 205.823 324.865C202.452 322.056 199.846 318.485 198.237 314.466C196.627 310.448 196.062 306.105 196.591 301.821L163.682 310.639C149.078 314.552 136.665 323.928 129.174 336.702C121.683 349.477 119.728 364.605 123.739 378.758L315.411 1055.1C317.397 1062.11 320.788 1068.66 325.39 1074.4C329.993 1080.13 335.716 1084.92 342.234 1088.51C348.751 1092.09 355.936 1094.4 363.377 1095.29C370.818 1096.18 378.37 1095.64 385.601 1093.71L656.825 1021.03C664.056 1019.09 670.826 1015.8 676.747 1011.32C682.668 1006.85 687.624 1001.29 691.333 994.969C695.042 988.643 697.432 981.674 698.364 974.458C699.297 967.242 698.754 959.921 696.768 952.913V952.913L505.096 276.574C503.11 269.566 499.719 263.008 495.117 257.275C490.514 251.543 484.791 246.747 478.273 243.162C471.756 239.576 464.571 237.272 457.13 236.381C449.689 235.489 442.137 236.027 434.906 237.965V237.965Z" fill="white"/>
<path d="M286.37 754.694C285.732 754.865 285.256 755.507 285.045 756.478C284.835 757.45 284.909 758.671 285.25 759.874C285.591 761.077 286.171 762.163 286.863 762.893C287.555 763.622 288.303 763.936 288.941 763.765L429.018 726.232C429.656 726.061 430.133 725.419 430.343 724.447C430.553 723.476 430.48 722.254 430.139 721.051C429.798 719.848 429.217 718.763 428.525 718.033C427.833 717.303 427.086 716.989 426.448 717.16L286.37 754.694Z" fill="#CCCCCC"/>
<path d="M296.596 790.78C295.958 790.951 295.482 791.593 295.272 792.564C295.062 793.536 295.135 794.757 295.476 795.96C295.817 797.163 296.397 798.249 297.09 798.979C297.782 799.708 298.529 800.022 299.167 799.851L439.245 762.318C439.883 762.147 440.359 761.505 440.569 760.533C440.779 759.562 440.706 758.34 440.365 757.137C440.024 755.934 439.444 754.849 438.751 754.119C438.059 753.389 437.312 753.075 436.674 753.246L296.596 790.78Z" fill="#CCCCCC"/>
<path d="M309.098 826.256C307.857 826.589 306.802 827.386 306.165 828.472C305.528 829.557 305.362 830.843 305.703 832.046C306.044 833.249 306.864 834.271 307.983 834.886C309.101 835.501 310.427 835.66 311.669 835.328L584.209 762.301C585.45 761.968 586.505 761.171 587.142 760.086C587.779 759 587.945 757.714 587.604 756.511C587.263 755.308 586.443 754.287 585.324 753.671C584.205 753.056 582.879 752.897 581.638 753.229L309.098 826.256Z" fill="#CCCCCC"/>
<path d="M319.325 862.342C318.71 862.507 318.135 862.787 317.631 863.167C317.128 863.547 316.707 864.02 316.392 864.557C316.076 865.095 315.873 865.687 315.794 866.301C315.715 866.914 315.761 867.536 315.93 868.132C316.098 868.727 316.387 869.285 316.778 869.772C317.169 870.259 317.656 870.667 318.209 870.972C318.763 871.276 319.374 871.472 320.007 871.548C320.639 871.624 321.281 871.578 321.896 871.413L594.436 798.386C595.677 798.054 596.732 797.257 597.369 796.171C598.005 795.085 598.172 793.8 597.831 792.597C597.49 791.394 596.67 790.372 595.551 789.757C594.432 789.141 593.106 788.983 591.865 789.315L319.325 862.342Z" fill="#CCCCCC"/>
<path d="M194.88 451.611C197.547 450.896 199.13 448.154 198.416 445.487C197.701 442.82 194.959 441.237 192.292 441.952C189.624 442.666 188.042 445.408 188.756 448.075C189.471 450.743 192.213 452.325 194.88 451.611Z" fill="#3F3D56"/>
<path d="M211.564 447.14C214.231 446.426 215.814 443.684 215.1 441.017C214.385 438.349 211.643 436.766 208.976 437.481C206.309 438.196 204.726 440.937 205.44 443.605C206.155 446.272 208.897 447.855 211.564 447.14Z" fill="#3F3D56"/>
<path d="M228.248 442.67C230.916 441.955 232.499 439.213 231.784 436.546C231.069 433.879 228.328 432.296 225.66 433.011C222.993 433.725 221.41 436.467 222.125 439.134C222.839 441.802 225.581 443.385 228.248 442.67Z" fill="#3F3D56"/>
<path d="M405.153 409.762L193.674 466.428L227.648 593.223L439.127 536.557L405.153 409.762Z" fill="#E4CEFF"/>
<path d="M497.941 384.9L425.496 404.312L439.99 458.403L512.434 438.992L497.941 384.9Z" fill="#E4CEFF"/>
<path d="M517.352 457.344L444.907 476.756L459.401 530.848L531.846 511.436L517.352 457.344Z" fill="#E4CEFF"/>
<path d="M321.365 505.321C330.081 502.986 335.253 494.027 332.918 485.312C330.582 476.596 321.624 471.424 312.908 473.759C304.192 476.094 299.02 485.053 301.355 493.769C303.691 502.484 312.649 507.657 321.365 505.321Z" fill="#9E616A"/>
<path d="M363.652 556.781L324.082 567.384L312.895 516.751L313.092 516.391L315.91 511.192L328.404 507.844L334.244 511.09L334.705 511.349L347.104 518.159L363.652 556.781Z" fill="#CBCBCB"/>
<path d="M335.036 564.448L304.961 572.507C299.631 553.411 295.603 539.006 295.603 539.006L296.889 537.66L296.897 537.653L311.02 522.893L313.019 516.192L313.092 516.39L317.382 528.236C317.382 528.236 327.94 545.003 335.036 564.448Z" fill="#2F2E41"/>
<path d="M375.957 553.484L349.196 560.654C346.027 554.55 343.627 548.571 342.571 543.334C338.247 521.941 332.089 511.082 333.403 510.73L334.244 511.09L344.246 515.398L356.184 516.47L364.468 517.216L365.911 517.345L366.081 517.979C366.939 521.162 370.933 535.938 375.957 553.484Z" fill="#2F2E41"/>
<path d="M303.53 498.478C303.53 498.478 304.24 495.764 301.82 487.981C299.401 480.199 312.571 481.438 322.379 478.006C332.187 474.573 333.789 489.024 333.789 489.024C333.789 489.024 334.29 488.006 334.04 480.891C333.791 473.776 328.491 468.039 328.491 468.039C325.571 461.275 320.604 465.025 320.604 465.025C323.567 465.351 323.65 467.722 323.65 467.722C320.312 464.349 315.345 468.098 315.345 468.098C306.665 465.426 300.779 473.585 300.779 473.585C292.348 478.028 299.525 483.756 299.525 483.756C291.72 490.737 303.53 498.478 303.53 498.478Z" fill="#2F2E41"/>
<path d="M296.247 574.842C292.9 559.277 290.259 547.07 289.778 546.202C288.437 543.788 296.638 537.836 296.889 537.66L296.892 537.654L296.897 537.653L298.893 538.125L309.172 571.379L296.247 574.842Z" fill="#2F2E41"/>
<path d="M382.25 551.798L368.669 555.437L354.493 518.084L355.781 516.484C355.781 516.484 355.928 516.479 356.184 516.47C357.512 516.447 361.81 516.421 364.468 517.216C365.049 517.366 365.597 517.625 366.081 517.979C366.375 518.186 366.578 518.497 366.647 518.849C366.823 519.968 373.903 534.547 382.25 551.798Z" fill="#2F2E41"/>
<path d="M409.269 561.173L265.815 599.612C265.263 599.76 264.793 600.122 264.508 600.617C264.223 601.112 264.146 601.699 264.294 602.251C264.442 602.803 264.802 603.273 265.297 603.559C265.791 603.845 266.379 603.923 266.931 603.776L410.385 565.338C410.659 565.265 410.915 565.139 411.141 564.967C411.366 564.794 411.554 564.58 411.696 564.334C411.838 564.089 411.93 563.818 411.968 563.537C412.005 563.256 411.986 562.971 411.913 562.697C411.839 562.423 411.713 562.166 411.54 561.942C411.367 561.717 411.152 561.528 410.907 561.387C410.661 561.245 410.39 561.154 410.109 561.117C409.828 561.08 409.542 561.099 409.269 561.173V561.173Z" fill="#CACACA"/>
<path d="M370.397 571.589L371.513 575.754L266.931 603.776C266.379 603.923 265.791 603.845 265.297 603.559C264.802 603.273 264.442 602.803 264.294 602.251C264.146 601.699 264.223 601.112 264.508 600.617C264.793 600.122 265.263 599.76 265.815 599.612L370.397 571.589Z" fill="#3F3D56"/>
<path d="M372.071 577.836C374.371 577.22 375.736 574.855 375.12 572.555C374.504 570.255 372.14 568.89 369.839 569.506C367.539 570.123 366.174 572.487 366.791 574.787C367.407 577.087 369.771 578.452 372.071 577.836Z" fill="#3F3D56"/>
<path d="M347.399 617.181C345.699 617.637 343.902 617.578 342.235 617.012C340.568 616.446 339.106 615.399 338.034 614.002C336.963 612.606 336.329 610.923 336.214 609.166C336.099 607.41 336.507 605.658 337.388 604.134C338.268 602.609 339.58 601.38 341.159 600.602C342.738 599.823 344.512 599.53 346.257 599.76C348.003 599.99 349.641 600.732 350.964 601.892C352.288 603.053 353.237 604.58 353.693 606.28C354.301 608.561 353.98 610.989 352.8 613.032C351.62 615.076 349.678 616.568 347.399 617.181V617.181ZM342.969 600.648C341.4 601.069 339.99 601.945 338.919 603.167C337.847 604.389 337.162 605.901 336.95 607.512C336.738 609.123 337.008 610.761 337.727 612.218C338.446 613.675 339.58 614.887 340.988 615.699C342.395 616.512 344.012 616.889 345.633 616.782C347.254 616.676 348.808 616.091 350.097 615.102C351.386 614.113 352.353 612.764 352.875 611.225C353.398 609.686 353.452 608.027 353.032 606.458C352.465 604.354 351.088 602.561 349.202 601.472C347.315 600.383 345.074 600.087 342.969 600.648L342.969 600.648Z" fill="#CBCBCB"/>
<path d="M345.201 613.518C345.113 613.541 345.019 613.529 344.941 613.484C344.862 613.438 344.805 613.363 344.781 613.276L342.478 604.678C342.466 604.635 342.462 604.589 342.468 604.544C342.473 604.5 342.488 604.456 342.51 604.417C342.533 604.378 342.563 604.343 342.598 604.315C342.634 604.288 342.675 604.268 342.719 604.256C342.763 604.244 342.808 604.241 342.853 604.247C342.898 604.253 342.941 604.268 342.98 604.291C343.019 604.314 343.053 604.344 343.081 604.38C343.108 604.416 343.128 604.457 343.139 604.501L345.443 613.098C345.466 613.186 345.454 613.28 345.408 613.358C345.363 613.437 345.288 613.494 345.201 613.518V613.518Z" fill="#CBCBCB"/>
<path d="M347.472 612.909C347.384 612.933 347.291 612.92 347.212 612.875C347.133 612.829 347.076 612.755 347.052 612.667L344.749 604.07C344.737 604.026 344.733 603.981 344.739 603.936C344.745 603.891 344.759 603.848 344.781 603.808C344.804 603.769 344.834 603.735 344.87 603.707C344.905 603.679 344.946 603.659 344.99 603.647C345.034 603.636 345.079 603.633 345.124 603.639C345.169 603.645 345.212 603.66 345.251 603.682C345.29 603.705 345.324 603.736 345.352 603.772C345.379 603.808 345.399 603.849 345.41 603.893L347.714 612.49C347.737 612.577 347.725 612.671 347.68 612.75C347.634 612.828 347.559 612.886 347.472 612.909V612.909Z" fill="#CBCBCB"/>
<path d="M305.719 619.135C305.263 617.435 305.322 615.638 305.888 613.971C306.454 612.304 307.501 610.842 308.898 609.77C310.294 608.699 311.977 608.065 313.734 607.95C315.49 607.835 317.242 608.243 318.766 609.124C320.291 610.004 321.52 611.316 322.298 612.895C323.077 614.474 323.37 616.248 323.14 617.993C322.91 619.739 322.168 621.377 321.008 622.7C319.847 624.024 318.32 624.973 316.619 625.429C314.339 626.037 311.911 625.716 309.868 624.536C307.824 623.356 306.332 621.414 305.719 619.135V619.135ZM306.38 618.958C306.801 620.528 307.677 621.937 308.899 623.009C310.12 624.08 311.632 624.765 313.243 624.977C314.855 625.189 316.492 624.919 317.95 624.2C319.407 623.482 320.619 622.347 321.431 620.94C322.243 619.532 322.62 617.916 322.514 616.294C322.408 614.673 321.823 613.119 320.834 611.83C319.845 610.541 318.495 609.574 316.957 609.052C315.418 608.53 313.759 608.475 312.189 608.896C310.086 609.462 308.293 610.839 307.204 612.726C306.115 614.612 305.819 616.853 306.38 618.958L306.38 618.958Z" fill="#3F3D56"/>
<path d="M318.804 618.731C318.865 618.715 318.919 618.679 318.957 618.63C318.995 618.58 319.016 618.519 319.016 618.456C319.016 618.394 318.995 618.333 318.957 618.283C318.919 618.233 318.865 618.197 318.805 618.181L314.042 616.905L317.529 613.418C317.582 613.365 317.612 613.293 317.612 613.217C317.612 613.142 317.582 613.069 317.529 613.016C317.475 612.962 317.403 612.932 317.327 612.932C317.252 612.932 317.179 612.962 317.126 613.016L313.291 616.851C313.255 616.886 313.23 616.93 313.217 616.979C313.204 617.027 313.204 617.078 313.217 617.126C313.23 617.174 313.255 617.218 313.291 617.254C313.326 617.289 313.37 617.314 313.418 617.327L318.657 618.731C318.706 618.744 318.756 618.744 318.804 618.731V618.731Z" fill="#3F3D56"/>
<path d="M312.977 621.316C313.05 621.297 313.112 621.249 313.15 621.184C313.188 621.118 313.198 621.041 313.178 620.968L311.263 613.818C311.243 613.745 311.195 613.683 311.13 613.645C311.065 613.608 310.987 613.597 310.914 613.617C310.841 613.637 310.779 613.684 310.741 613.75C310.703 613.815 310.693 613.893 310.713 613.966L312.628 621.115C312.648 621.188 312.696 621.25 312.761 621.288C312.826 621.326 312.904 621.336 312.977 621.316V621.316Z" fill="#3F3D56"/>
<path d="M378.18 608.934C376.479 609.389 374.682 609.331 373.015 608.765C371.348 608.199 369.886 607.151 368.815 605.755C367.743 604.358 367.11 602.675 366.995 600.919C366.879 599.162 367.288 597.411 368.168 595.886C369.048 594.362 370.361 593.133 371.939 592.354C373.518 591.575 375.292 591.282 377.038 591.512C378.783 591.742 380.421 592.484 381.744 593.645C383.068 594.806 384.017 596.333 384.473 598.033C385.081 600.313 384.76 602.741 383.58 604.785C382.4 606.828 380.458 608.32 378.18 608.934V608.934ZM373.75 592.401C372.18 592.821 370.77 593.698 369.699 594.919C368.628 596.141 367.942 597.653 367.73 599.264C367.518 600.875 367.789 602.513 368.507 603.97C369.226 605.428 370.361 606.639 371.768 607.452C373.175 608.264 374.792 608.641 376.413 608.535C378.035 608.429 379.588 607.844 380.877 606.855C382.167 605.865 383.133 604.516 383.656 602.977C384.178 601.439 384.232 599.78 383.812 598.21C383.246 596.107 381.868 594.314 379.982 593.225C378.095 592.136 375.854 591.839 373.75 592.401L373.75 592.401Z" fill="#3F3D56"/>
<path d="M372.938 604.226C372.878 604.242 372.813 604.238 372.755 604.214C372.697 604.19 372.649 604.148 372.618 604.094C372.586 604.039 372.574 603.976 372.582 603.914C372.59 603.852 372.619 603.794 372.663 603.75L376.149 600.263L371.387 598.987C371.314 598.967 371.252 598.92 371.214 598.854C371.177 598.789 371.167 598.711 371.186 598.639C371.206 598.566 371.253 598.504 371.318 598.466C371.384 598.428 371.461 598.418 371.534 598.437L376.773 599.841C376.821 599.854 376.865 599.879 376.901 599.915C376.936 599.95 376.961 599.994 376.974 600.042C376.987 600.091 376.987 600.141 376.974 600.19C376.961 600.238 376.936 600.282 376.901 600.317L373.065 604.153C373.03 604.188 372.986 604.213 372.938 604.226V604.226Z" fill="#3F3D56"/>
<path d="M379.277 603.551C379.205 603.571 379.127 603.561 379.061 603.523C378.996 603.485 378.948 603.423 378.929 603.35L377.013 596.201C376.994 596.128 377.004 596.05 377.042 595.985C377.079 595.919 377.142 595.871 377.214 595.852C377.287 595.832 377.365 595.843 377.43 595.88C377.496 595.918 377.544 595.98 377.563 596.053L379.479 603.203C379.498 603.276 379.488 603.353 379.45 603.419C379.413 603.484 379.35 603.532 379.277 603.551V603.551Z" fill="#3F3D56"/>
<path d="M322.8 658.554L250.355 677.966L262.002 721.432L334.447 702.021L322.8 658.554Z" fill="#E4CEFF"/>
<path d="M400.074 637.849L327.629 657.26L339.276 700.727L411.72 681.315L400.074 637.849Z" fill="#E4CEFF"/>
<path d="M477.348 617.143L404.903 636.555L416.55 680.021L488.995 660.61L477.348 617.143Z" fill="#E4CEFF"/>
<path d="M554.622 596.438L482.177 615.849L493.824 659.316L566.269 639.904L554.622 596.438Z" fill="#E4CEFF"/>
<path opacity="0.1" d="M809.3 740.26H808C809.028 739.12 809.592 737.636 809.58 736.1V736.1C809.639 734.57 809.089 733.079 808.051 731.954C807.012 730.829 805.57 730.163 804.04 730.1H765.2C763.671 730.165 762.23 730.833 761.192 731.957C760.154 733.081 759.603 734.571 759.66 736.1V736.1C759.603 737.629 760.154 739.119 761.192 740.243C762.23 741.367 763.671 742.035 765.2 742.1H766.5C765.475 743.242 764.912 744.725 764.92 746.26C764.892 747.557 765.292 748.827 766.058 749.874C766.825 750.921 767.915 751.685 769.16 752.05H757.98C756.5 752.199 755.128 752.892 754.13 753.995C753.132 755.098 752.579 756.533 752.579 758.02C752.579 759.508 753.132 760.942 754.13 762.045C755.128 763.148 756.5 763.842 757.98 763.99H796.82C798.349 763.925 799.79 763.257 800.828 762.133C801.866 761.009 802.417 759.519 802.36 757.99C802.386 756.694 801.985 755.424 801.219 754.378C800.453 753.332 799.364 752.566 798.12 752.2H809.3C810.78 752.052 812.152 751.358 813.15 750.255C814.148 749.152 814.701 747.718 814.701 746.23C814.701 744.743 814.148 743.308 813.15 742.205C812.152 741.102 810.78 740.409 809.3 740.26V740.26Z" fill="#6C63FF"/>
<path opacity="0.1" d="M478.43 735.13C477.616 735.014 476.786 735.078 476 735.32L477.79 728.1L479.98 728.64C479.734 730.859 479.213 733.039 478.43 735.13V735.13Z" fill="black"/>
<path d="M631.49 909.29L587.9 962.22C587.9 962.22 585.98 959.99 582.74 956.17C564.64 934.94 505.08 864.63 505.08 858.67C505.08 851.67 474.57 822.11 474.57 822.11C474.57 822.11 447.17 799.11 462.11 727.43C477.05 655.75 512.55 795.95 511.31 805.29C510.07 814.63 531.23 839.54 531.23 839.54C531.23 839.54 558.01 852.62 571.71 866.94C581.35 877.02 607.02 893.88 621.38 902.94C627.44 906.82 631.49 909.29 631.49 909.29Z" fill="#FDC2CC"/>
<path opacity="0.1" d="M631.49 909.29L587.9 962.22C587.9 962.22 585.98 959.99 582.74 956.17C583.44 941.35 614.74 908.65 620.28 903.68C620.606 903.388 620.978 903.152 621.38 902.98C627.44 906.82 631.49 909.29 631.49 909.29Z" fill="black"/>
<path d="M650.17 918.01C650.17 918.01 630.24 899.33 624.02 904.94C617.8 910.55 578.56 951.64 587.9 962.23C597.24 972.82 653.28 1017.01 653.28 1017.01L650.17 918.01Z" fill="#5F5D7E"/>
<path opacity="0.1" d="M650.17 918.01C650.17 918.01 630.24 899.33 624.02 904.94C617.8 910.55 578.56 951.64 587.9 962.23C597.24 972.82 653.28 1017.01 653.28 1017.01L650.17 918.01Z" fill="black"/>
<path d="M825.15 769.18C825.15 769.18 805.7 787.95 781.34 808.31L780.42 809.07L779 810.25C740.14 842.39 690.06 877.07 684.9 847.39C684.322 843.516 684.299 839.58 684.83 835.7C684.89 835.13 684.97 834.54 685.05 833.94C685.13 833.34 685.21 832.78 685.27 832.21C686.24 824.731 686.777 817.201 686.88 809.66C686.88 808.39 686.88 807.13 686.88 805.88C686.624 778.273 681.197 750.958 670.88 725.35C670.28 723.83 669.67 722.35 669.08 720.94C661.08 701.86 653.25 690.72 653.25 690.72C653.25 690.72 664.82 683.72 680.86 674.72C686.75 671.44 693.23 667.91 699.97 664.37C736.97 644.97 781.46 625.57 775.3 648.37C772.39 659.16 775.09 673.48 780.45 688.47C780.75 689.3 781.05 690.11 781.36 690.93C784.835 699.989 788.842 708.834 793.36 717.42L793.66 718C800.09 730.32 807.02 741.83 812.76 750.78C814.14 752.94 815.45 754.96 816.67 756.78C821.7 764.48 825.15 769.18 825.15 769.18Z" fill="#FDC2CC"/>
<path opacity="0.1" d="M781.39 690.93C781.1 691.36 780.79 691.79 780.48 692.21C771.14 704.91 760.33 712.47 747.48 716.73C738.62 719.68 728.76 721.07 717.71 721.51C714.96 721.61 712.15 721.66 709.25 721.66C702.567 721.672 695.888 721.288 689.25 720.51C685.76 719.96 682.11 722.31 678.58 724.03C675.95 725.3 673.38 726.23 670.98 725.35C670.38 723.83 669.77 722.35 669.18 720.94C661.18 701.86 653.35 690.72 653.35 690.72C653.35 690.72 664.92 683.72 680.96 674.72C686.85 671.44 693.33 667.91 700.07 664.37C737.07 644.97 781.56 625.57 775.4 648.37C772.49 659.16 775.19 673.48 780.55 688.47C780.78 689.3 781.08 690.11 781.39 690.93Z" fill="black"/>
<path d="M799 632.01C799 633.47 799 634.91 798.9 636.35C797.943 657.523 789.96 677.775 776.212 693.906C762.464 710.037 743.734 721.129 722.98 725.43C711.627 727.766 699.946 728.027 688.5 726.2C685.129 725.674 681.791 724.959 678.5 724.06C675.314 723.196 672.177 722.165 669.1 720.97V720.97C656.37 716.021 644.851 708.399 635.319 698.617C625.788 688.835 618.466 677.122 613.849 664.269C609.231 651.415 607.426 637.72 608.554 624.109C609.683 610.498 613.719 597.288 620.39 585.37L621.23 583.9C631.802 565.806 648.039 551.696 667.431 543.751C686.824 535.805 708.292 534.467 728.522 539.941C748.751 545.416 766.614 557.399 779.353 574.04C792.091 590.681 798.996 611.053 799 632.01V632.01Z" fill="#FDC2CC"/>
<path opacity="0.1" d="M825.15 769.18C825.15 769.18 673.83 915.51 685.04 833.94C686.311 824.641 686.932 815.265 686.9 805.88C692.151 799.388 697.729 793.167 703.61 787.24L724.87 771.87C746.791 755.87 773.521 747.84 800.63 749.11C804.72 749.214 808.785 749.774 812.75 750.78C819.88 761.95 825.15 769.18 825.15 769.18Z" fill="black"/>
<path d="M932.4 1020.4C926.86 1022.05 921.19 1023.48 915.47 1024.73C912.65 1025.36 909.81 1025.94 906.97 1026.48C902.14 1027.41 897.29 1028.24 892.47 1029C868.33 1032.79 843.97 1035.25 819.47 1037L815.47 1037.27L813.01 1037.43C809.27 1037.68 805.53 1037.9 801.8 1038.11C786.85 1038.95 771.88 1039.56 756.91 1040.11C745.91 1040.49 735.02 1040.81 724.08 1041.11L701.83 1041.76L696.08 1041.93L693.56 1042C686.973 1042.2 680.38 1042.39 673.78 1042.57L666.12 1042.79L651.89 1043.18L648.89 1043.26C648.09 1036.2 646.62 1023.37 645.06 1010.56L644.7 1007.56C642.98 993.43 641.2 979.86 640.17 974.72C637.68 962.27 640.17 910.58 640.17 910.58L640.44 910.15L641.62 908.15C647.51 898.32 669.35 860.7 668.81 844.53C668.49 834.88 677.81 820.92 686.81 809.67C687.99 808.21 689.16 806.79 690.31 805.44C697.48 797.01 703.62 791.01 703.62 791.01L724.87 775.63C746.802 759.646 773.531 751.624 800.64 752.89C808.64 753.3 815.02 754.42 816.64 756.83C817.33 757.22 832.83 766.12 849.83 785.98C858.11 795.649 865.313 806.191 871.31 817.42C871.49 817.74 871.67 818.07 871.84 818.42C871.84 818.42 910.45 882.56 915.43 921.17C920.41 959.78 927.89 991.53 927.89 991.53C927.89 991.53 930.02 1003.72 932.4 1020.4Z" fill="#5F5D7E"/>
<path opacity="0.1" d="M817.06 990.86C813.99 995.86 816.36 1019.27 819.51 1036.96L815.51 1037.23L813.05 1037.39C809.31 1037.64 805.57 1037.86 801.84 1038.07C786.89 1038.91 771.92 1039.52 756.95 1040.07C745.95 1040.45 735.06 1040.77 724.12 1041.07L701.87 1041.72C701.87 1039.44 701.17 1037.47 699.36 1036.32C698.096 1035.41 696.977 1034.31 696.04 1033.07C695.75 1032.72 695.45 1032.34 695.15 1031.95C688.22 1022.75 679.44 1003.95 679.44 1003.95C679.44 1003.95 668.23 1006.44 666.98 914.95C666.58 885.13 674.3 863.31 684.89 847.44C706.83 814.58 741.08 807.22 741.08 807.22C753.771 805.013 766.815 806.076 778.98 810.31C783.752 811.984 788.348 814.125 792.7 816.7C798.535 820.21 803.977 824.337 808.93 829.01L810.53 830.54C845.45 864.54 853.7 917.63 832.13 961.36C825.22 975.33 818.99 987.72 817.06 990.86Z" fill="black"/>
<path d="M812.08 985.88C808.7 991.38 811.92 1019.31 815.52 1037.23L813.06 1037.39C809.32 1037.64 805.58 1037.86 801.85 1038.07C786.9 1038.91 771.93 1039.52 756.96 1040.07C745.96 1040.45 735.07 1040.77 724.13 1041.07L701.88 1041.72L696.13 1041.89C697.01 1038.66 697.34 1035.33 696.05 1033.07C695.811 1032.65 695.511 1032.28 695.16 1031.95C694.93 1031.72 694.671 1031.51 694.39 1031.34C687.54 1026.98 674.46 998.95 674.46 998.95C674.46 998.95 663.26 1001.45 662.01 909.95C661.55 875.69 671.81 851.95 684.83 835.73C706.61 808.56 736.11 802.22 736.11 802.22C739.972 801.579 743.876 801.218 747.79 801.14H747.91C759.461 800.884 770.909 803.351 781.33 808.34C790.29 812.713 798.47 818.531 805.54 825.56C806.7 826.69 807.84 827.84 808.93 829.01C840.93 863.1 848.01 914.11 827.15 956.38C820.24 970.35 814.01 982.74 812.08 985.88Z" fill="#5F5D7E"/>
<path opacity="0.1" d="M735.05 924.4C735.05 924.4 673.6 968.01 678.84 974.01C684.08 980.01 735.05 924.4 735.05 924.4Z" fill="black"/>
<path opacity="0.1" d="M821.28 940.11C821.28 940.11 802.08 923.01 803.47 929.64C804.86 936.27 821.28 940.11 821.28 940.11Z" fill="black"/>
<path opacity="0.1" d="M801.85 1038.07C786.9 1038.91 771.93 1039.52 756.96 1040.07C731.33 1037.07 704.68 1032.66 704.68 1032.66C706.99 1031.31 788.76 1029.68 801.85 1038.07Z" fill="black"/>
<path opacity="0.1" d="M673.83 1042.53L666.17 1042.75C660.07 1026.09 654.83 1006.33 652.69 997.94C652.03 995.35 651.69 993.84 651.69 993.84L652.64 995.84C655.79 1002.41 666.23 1024.33 673.83 1042.53Z" fill="black"/>
<path opacity="0.1" d="M792.7 666.08C789.648 674.061 785.531 681.593 780.46 688.47C780.76 689.3 781.06 690.11 781.37 690.93C784.845 699.989 788.852 708.834 793.37 717.42L793.67 718C794.19 722 794.91 726 795.74 729.9C780.54 730.7 765.323 731.05 750.09 730.95C743.47 730.95 736.75 730.76 730.44 728.78C727.833 727.957 725.335 726.822 723 725.4C721.122 724.262 719.349 722.96 717.7 721.51C709.476 714.078 704.284 703.873 703.12 692.85C702.21 684.26 703.51 675.36 701.02 667.09C700.733 666.17 700.399 665.266 700.02 664.38C697.984 659.669 694.768 655.563 690.684 652.455C686.599 649.348 681.783 647.345 676.7 646.64C675.229 646.319 673.692 646.528 672.36 647.23C671.224 648.175 670.404 649.445 670.01 650.87L659.7 677.76C652.36 679.6 647.18 670.01 647.79 662.47C648.4 654.93 651.79 647.21 649.28 640.07C648.51 637.86 647.2 635.85 646.64 633.59C644.41 624.68 653.99 616.77 654.07 607.59C654.13 600.04 647.67 593.94 640.81 590.8C634.52 587.92 627.57 586.68 621.27 583.87C631.852 565.793 648.09 551.701 667.477 543.77C686.865 535.839 708.323 534.508 728.541 539.985C748.76 545.461 766.613 557.439 779.347 574.071C792.081 590.703 798.988 611.063 799 632.01C799 633.47 799 634.91 798.9 636.35C798.444 646.529 796.351 656.568 792.7 666.08V666.08Z" fill="black"/>
<path d="M698.29 507.4C691.92 506.76 684.92 506.6 679.76 510.4C674.34 514.4 672.54 521.56 668.94 527.25C662.07 538.13 649.11 543.1 638.17 549.87C627.23 556.64 616.87 568.73 620.53 581.07C627.27 584.47 634.92 585.66 641.78 588.8C648.64 591.94 655.1 598.04 655.04 605.59C654.96 614.77 645.38 622.68 647.61 631.59C648.17 633.85 649.48 635.86 650.25 638.07C652.74 645.21 649.37 652.93 648.76 660.47C648.15 668.01 653.33 677.6 660.67 675.76L671.05 648.87C671.444 647.446 672.264 646.175 673.4 645.23C674.732 644.528 676.269 644.319 677.74 644.64C683.297 645.418 688.521 647.75 692.81 651.369C697.099 654.987 700.277 659.743 701.98 665.09C704.47 673.36 703.17 682.26 704.08 690.85C705.75 706.69 716.22 722.01 731.42 726.78C737.73 728.78 744.42 728.91 751.07 728.95C766.29 729.063 781.507 728.713 796.72 727.9C792.97 710.26 791.44 690.77 800.53 675.21C804.42 668.55 810.03 663.06 814.31 656.64C821.31 646.18 824.49 633.69 827.06 621.38C829.06 612.05 830.69 602.51 829.81 593.02C828.34 577.11 819.89 562.81 811.65 549.13C807.31 541.92 802.75 534.48 795.76 529.82C781.22 520.14 763.4 526.21 747.86 520.65C731.35 514.76 716.26 509.22 698.29 507.4Z" fill="#865A61"/>
<rect x="117.545" y="975.129" width="347" height="133" rx="16" transform="rotate(-15 117.545 975.129)" fill="#03053D" fill-opacity="0.9"/>
<path d="M203.81 1044.79C202.146 1045.23 200.694 1045.25 199.456 1044.83C198.261 1044.4 197.108 1043.51 195.996 1042.16L170.703 1011.35C169.592 1010 169.003 1008.68 168.937 1007.39C168.872 1006.09 169.232 1004.98 170.02 1004.07C170.795 1003.11 171.906 1002.44 173.351 1002.05C175.102 1001.58 176.543 1001.62 177.674 1002.16C178.805 1002.7 179.904 1003.65 180.971 1005.01L199.712 1028.71L204.074 998.746C204.32 997.038 204.804 995.688 205.524 994.697C206.232 993.663 207.418 992.922 209.082 992.477C210.44 992.113 211.672 992.158 212.779 992.612C213.887 993.067 214.714 993.877 215.261 995.045C215.841 996.157 215.986 997.573 215.696 999.293L209.133 1038.64C208.887 1040.35 208.332 1041.7 207.469 1042.68C206.65 1043.65 205.43 1044.35 203.81 1044.79ZM238.371 1035.53C236.444 1036.04 234.815 1035.92 233.482 1035.15C232.15 1034.38 231.214 1032.99 230.674 1030.97L221.258 995.832C220.718 993.817 220.833 992.144 221.603 990.811C222.372 989.479 223.72 988.554 225.647 988.038C227.573 987.522 229.203 987.648 230.535 988.418C231.868 989.187 232.804 990.579 233.344 992.593L242.76 1027.73C243.299 1029.75 243.185 1031.42 242.415 1032.75C241.69 1034.07 240.342 1035 238.371 1035.53ZM258.937 1029.38C254.734 1030.51 252.074 1028.99 250.96 1024.83L241.896 991.006C240.781 986.846 242.326 984.203 246.529 983.076L259.403 979.627C267.417 977.479 274.174 977.828 279.676 980.671C285.179 983.515 288.915 988.615 290.886 995.971C292.858 1003.33 292.177 1009.63 288.846 1014.89C285.503 1020.11 279.824 1023.79 271.811 1025.93L258.937 1029.38ZM262.095 1018.05L268.401 1016.36C272.998 1015.13 276.099 1013.12 277.701 1010.35C279.336 1007.51 279.549 1003.84 278.341 999.333C277.132 994.822 275.118 991.772 272.298 990.181C269.478 988.59 265.792 988.404 261.238 989.625L254.932 991.314L262.095 1018.05ZM310.573 1015.55C306.369 1016.67 303.71 1015.16 302.595 1011L293.531 977.17C292.417 973.01 293.961 970.367 298.165 969.24L320.432 963.274C323.584 962.429 325.571 963.54 326.393 966.605C327.237 969.758 326.083 971.756 322.931 972.601L305.919 977.159L308.277 985.961L323.844 981.79C326.997 980.945 328.99 982.077 329.823 985.186C330.656 988.295 329.496 990.272 326.343 991.117L310.776 995.288L313.328 1004.81L330.34 1000.25C333.493 999.409 335.486 1000.54 336.319 1003.65C337.152 1006.76 335.992 1008.74 332.839 1009.58L310.573 1015.55ZM367.268 1001.13C362.582 1002.39 358.202 1002.5 354.127 1001.48C350.084 1000.41 346.597 998.338 343.664 995.276C340.731 992.213 338.626 988.295 337.347 983.522C336.056 978.705 335.899 974.265 336.875 970.202C337.884 966.084 339.897 962.564 342.916 959.643C345.935 956.722 349.787 954.634 354.473 953.379C359.158 952.123 363.516 952.011 367.547 953.043C371.622 954.063 375.126 956.105 378.059 959.167C380.979 962.186 383.085 966.104 384.376 970.921C385.655 975.694 385.79 980.14 384.782 984.258C383.773 988.377 381.765 991.918 378.758 994.883C375.783 997.792 371.953 999.875 367.268 1001.13ZM364.557 991.015C367.973 990.1 370.321 988.18 371.603 985.255C372.916 982.275 372.992 978.617 371.83 974.282C370.669 969.947 368.802 966.834 366.23 964.941C363.658 963.049 360.642 962.567 357.183 963.494C353.724 964.421 351.353 966.346 350.072 969.271C348.791 972.196 348.731 975.826 349.892 980.161C351.054 984.496 352.927 987.631 355.51 989.567C358.082 991.459 361.098 991.942 364.557 991.015ZM415.127 988.306C412.456 989.022 409.627 989.498 406.64 989.736C403.685 989.917 401.065 989.774 398.781 989.307C397.446 989.054 396.409 988.511 395.669 987.677C394.929 986.843 394.49 985.904 394.352 984.862C394.201 983.776 394.327 982.756 394.729 981.804C395.119 980.808 395.782 980.043 396.719 979.511C397.644 978.934 398.818 978.761 400.24 978.99C402.127 979.376 404.18 979.506 406.399 979.381C408.607 979.212 410.63 978.881 412.469 978.388C415.359 977.614 417.274 976.702 418.213 975.652C419.184 974.547 419.517 973.426 419.212 972.287C418.942 971.28 418.309 970.581 417.313 970.191C416.36 969.789 414.796 969.645 412.621 969.759L404.496 970.176C395.695 970.61 390.368 967.367 388.514 960.449C387.704 957.427 387.805 954.561 388.815 951.85C389.869 949.127 391.698 946.76 394.303 944.747C396.897 942.691 400.142 941.141 404.04 940.097C406.317 939.487 408.686 939.134 411.148 939.037C413.641 938.885 415.877 939.084 417.854 939.634C419.356 939.982 420.446 940.723 421.125 941.855C421.792 942.943 422.059 944.116 421.926 945.371C421.793 946.627 421.228 947.67 420.23 948.501C419.276 949.32 417.852 949.608 415.956 949.365C414.49 949.147 412.934 949.119 411.287 949.278C409.628 949.394 408.055 949.651 406.566 950.05C404.114 950.707 402.348 951.65 401.269 952.878C400.178 954.062 399.815 955.332 400.179 956.69C400.437 957.653 401.042 958.336 401.994 958.738C402.947 959.139 404.489 959.289 406.621 959.188L414.68 958.788C423.612 958.319 428.976 961.434 430.771 968.134C431.581 971.155 431.474 974 430.453 976.667C429.431 979.334 427.617 981.674 425.012 983.686C422.407 985.699 419.112 987.238 415.127 988.306Z" fill="white"/>
</g>
<defs>
<clipPath id="clip0_93:349">
<rect width="1000" height="1200" fill="white"/>
</clipPath>
</defs>
</svg>
