<svg width="1000" height="1200" viewBox="0 0 1000 1200" fill="none" xmlns="http://www.w3.org/2000/svg">
<g clip-path="url(#clip0_93:426)">
<rect width="1000" height="1200" fill="white"/>
<rect width="1000" height="1200" fill="#591BBE"/>
<path d="M741.343 307.192C749.59 337.973 748.525 370.508 738.282 400.683C728.039 430.858 709.078 457.319 683.796 476.718C658.515 496.117 628.049 507.584 596.25 509.668C564.452 511.752 532.75 504.36 505.153 488.427C477.555 472.493 455.303 448.735 441.209 420.154C427.114 391.574 421.812 359.456 425.971 327.862C430.131 296.268 443.565 266.617 464.576 242.659C485.587 218.7 513.231 201.51 544.012 193.263" stroke="#212121" stroke-opacity="0.5" stroke-width="56" stroke-linecap="round"/>
<circle cx="577.439" cy="363.224" r="94.56" transform="rotate(30 577.439 363.224)" fill="#212121" fill-opacity="0.5"/>
<path d="M479.928 524.772C481.429 526.845 483.743 528.181 486.289 528.444L578.616 538.012C588.274 539.013 592.453 526.121 584.044 521.266L437.267 436.524C428.858 431.669 419.782 441.734 425.478 449.598L479.928 524.772Z" fill="#212121" fill-opacity="0.5"/>
<circle cx="581.5" cy="356.5" r="280.5" stroke="#212121" stroke-opacity="0.5" stroke-width="30"/>
<path d="M580 483C469 486.998 182 312.999 109 389C36.0001 465.001 80 539 80 539C80 539 124 619 109 682.001C94.0001 745.003 -8.99987 858.002 1.00012 916.001C11.0001 974 157 989 273 1027C389 1065 881 1028 881 1028C881 1028 1035 1020 1007 932.001C979 844 868 791.001 868 731C868 670.999 982 584.999 982 527C982 448.424 894 383.001 802 402C710 420.999 691 479.002 580 483Z" fill="#F3F3F3" fill-opacity="0.9"/>
<path opacity="0.1" d="M328.84 497.11H327.55C328.574 495.967 329.137 494.485 329.13 492.95V492.95C329.189 491.42 328.64 489.929 327.601 488.804C326.562 487.679 325.12 487.012 323.59 486.95H284.75C283.22 487.012 281.778 487.679 280.739 488.804C279.7 489.929 279.15 491.42 279.21 492.95V492.95C279.15 494.48 279.7 495.971 280.739 497.096C281.778 498.221 283.22 498.888 284.75 498.95H286.05C285.022 500.091 284.455 501.574 284.46 503.11C284.435 504.407 284.836 505.677 285.602 506.725C286.367 507.773 287.456 508.54 288.7 508.91H277.52C276.049 509.069 274.689 509.767 273.701 510.868C272.713 511.969 272.167 513.396 272.167 514.875C272.167 516.354 272.713 517.781 273.701 518.882C274.689 519.983 276.049 520.68 277.52 520.84H316.36C317.89 520.778 319.332 520.111 320.371 518.986C321.41 517.861 321.959 516.37 321.9 514.84C321.938 513.542 321.547 512.267 320.788 511.213C320.028 510.16 318.943 509.385 317.7 509.01H328.88C330.36 508.861 331.732 508.168 332.73 507.065C333.728 505.962 334.281 504.527 334.281 503.04C334.281 501.552 333.728 500.118 332.73 499.015C331.732 497.912 330.36 497.219 328.88 497.07L328.84 497.11Z" fill="white"/>
<circle cx="631.5" cy="395.5" r="16.5" fill="#F3F3F3"/>
<circle cx="671.5" cy="375.5" r="6.5" fill="#F3F3F3"/>
<circle cx="6" cy="543" r="16" fill="#F3F3F3"/>
<circle cx="905" cy="727" r="14" fill="#F3F3F3"/>
<circle cx="960.5" cy="665.5" r="21.5" fill="#F3F3F3"/>
<path d="M560.291 394.089L555.64 395.335L520.651 271.871C515.28 252.92 502.36 236.826 484.734 227.13C467.108 217.435 446.218 214.932 426.662 220.172L156.738 292.497C147.055 295.092 137.99 299.51 130.061 305.498C122.133 311.486 115.496 318.928 110.529 327.398C105.562 335.868 102.363 345.201 101.114 354.863C99.8654 364.526 100.591 374.329 103.251 383.713L295.205 1061.05C300.576 1080 313.496 1096.09 331.122 1105.79C348.748 1115.48 369.638 1117.99 389.194 1112.75L659.118 1040.42C668.801 1037.83 677.866 1033.41 685.794 1027.42C693.723 1021.43 700.36 1013.99 705.327 1005.52C710.294 997.05 713.493 987.717 714.742 978.054C715.991 968.392 715.265 958.588 712.605 949.205L580.546 483.219L585.197 481.973L560.291 394.089Z" fill="#3F3D56"/>
<path d="M434.906 237.965L399.672 247.406C402.383 250.821 404.185 254.832 404.919 259.085C405.654 263.339 405.298 267.703 403.883 271.795C402.467 275.887 400.037 279.581 396.805 282.55C393.572 285.52 389.638 287.674 385.348 288.824L230.712 330.259C226.422 331.408 221.908 331.517 217.567 330.577C213.227 329.636 209.194 327.675 205.823 324.865C202.452 322.056 199.846 318.484 198.237 314.466C196.627 310.447 196.062 306.105 196.591 301.821L163.682 310.639C149.078 314.552 136.665 323.927 129.174 336.702C121.683 349.477 119.728 364.605 123.739 378.758L315.411 1055.1C317.397 1062.1 320.788 1068.66 325.39 1074.4C329.993 1080.13 335.716 1084.92 342.234 1088.51C348.751 1092.09 355.936 1094.4 363.377 1095.29C370.818 1096.18 378.37 1095.64 385.601 1093.71L656.825 1021.03C664.056 1019.09 670.826 1015.8 676.747 1011.32C682.668 1006.85 687.624 1001.29 691.333 994.968C695.042 988.643 697.432 981.673 698.364 974.457C699.297 967.242 698.754 959.921 696.768 952.913V952.913L505.096 276.573C503.11 269.566 499.719 263.008 495.117 257.275C490.514 251.542 484.791 246.746 478.273 243.161C471.756 239.576 464.571 237.272 457.13 236.38C449.689 235.489 442.137 236.027 434.906 237.965V237.965Z" fill="white"/>
<path d="M247.551 610.215C246.913 610.386 246.436 611.028 246.226 612C246.016 612.971 246.09 614.193 246.431 615.396C246.772 616.598 247.352 617.684 248.044 618.414C248.736 619.144 249.484 619.458 250.122 619.287L390.199 581.753C390.837 581.582 391.314 580.94 391.524 579.969C391.734 578.997 391.66 577.776 391.32 576.573C390.979 575.37 390.398 574.284 389.706 573.554C389.014 572.825 388.267 572.511 387.629 572.682L247.551 610.215Z" fill="#CCCCCC"/>
<path d="M252.587 632.677C252.192 632.783 251.949 633.362 251.911 634.288C251.873 635.213 252.043 636.409 252.384 637.612C252.724 638.815 253.208 639.926 253.729 640.702C254.249 641.478 254.763 641.854 255.158 641.748L341.872 618.513C342.267 618.407 342.51 617.828 342.549 616.903C342.587 615.977 342.417 614.782 342.076 613.579C341.735 612.376 341.251 611.264 340.731 610.488C340.211 609.712 339.696 609.336 339.301 609.442L252.587 632.677Z" fill="#CCCCCC"/>
<path d="M265.945 669.069C264.703 669.402 263.648 670.199 263.012 671.284C262.375 672.37 262.209 673.656 262.55 674.859C262.89 676.062 263.711 677.083 264.829 677.699C265.948 678.314 267.274 678.473 268.515 678.14L541.056 605.113C542.297 604.781 543.352 603.984 543.989 602.898C544.625 601.812 544.792 600.527 544.451 599.324C544.11 598.121 543.29 597.099 542.171 596.484C541.052 595.868 539.726 595.71 538.485 596.042L265.945 669.069Z" fill="#CCCCCC"/>
<path d="M276.171 705.155C275.557 705.319 274.981 705.6 274.478 705.98C273.975 706.36 273.553 706.832 273.238 707.37C272.923 707.908 272.72 708.5 272.641 709.113C272.561 709.727 272.607 710.349 272.776 710.945C272.945 711.54 273.233 712.098 273.624 712.585C274.015 713.072 274.502 713.48 275.056 713.784C275.61 714.089 276.221 714.285 276.853 714.361C277.485 714.437 278.127 714.391 278.742 714.226L551.282 641.199C552.523 640.867 553.579 640.07 554.215 638.984C554.852 637.898 555.018 636.612 554.677 635.409C554.336 634.207 553.516 633.185 552.397 632.57C551.279 631.954 549.953 631.795 548.711 632.128L276.171 705.155Z" fill="#CCCCCC"/>
<path d="M286.398 741.241C285.157 741.573 284.102 742.37 283.465 743.456C282.828 744.542 282.662 745.828 283.003 747.031C283.344 748.233 284.164 749.255 285.283 749.87C286.402 750.486 287.727 750.645 288.969 750.312L561.509 677.285C562.75 676.953 563.805 676.156 564.442 675.07C565.079 673.984 565.245 672.698 564.904 671.495C564.563 670.292 563.743 669.271 562.624 668.656C561.505 668.04 560.179 667.881 558.938 668.214L286.398 741.241Z" fill="#CCCCCC"/>
<path d="M294.932 777.253C293.691 777.585 292.636 778.382 291.999 779.468C291.362 780.554 291.196 781.84 291.537 783.042C291.878 784.245 292.698 785.267 293.817 785.882C294.936 786.498 296.262 786.657 297.503 786.324L570.043 713.297C571.284 712.964 572.339 712.168 572.976 711.082C573.613 709.996 573.779 708.71 573.438 707.507C573.097 706.304 572.277 705.283 571.158 704.667C570.04 704.052 568.714 703.893 567.472 704.226L294.932 777.253Z" fill="#CCCCCC"/>
<path d="M305.159 813.338C304.544 813.503 303.969 813.784 303.466 814.164C302.962 814.544 302.541 815.016 302.226 815.554C301.911 816.091 301.708 816.684 301.628 817.297C301.549 817.91 301.595 818.533 301.764 819.128C301.933 819.724 302.221 820.281 302.612 820.768C303.003 821.256 303.49 821.663 304.044 821.968C304.598 822.273 305.208 822.469 305.841 822.544C306.473 822.62 307.115 822.574 307.73 822.41L580.27 749.383C581.511 749.05 582.566 748.253 583.203 747.168C583.84 746.082 584.006 744.796 583.665 743.593C583.324 742.39 582.504 741.369 581.385 740.753C580.266 740.138 578.94 739.979 577.699 740.311L305.159 813.338Z" fill="#CCCCCC"/>
<path d="M315.386 849.424C314.144 849.757 313.089 850.554 312.453 851.64C311.816 852.725 311.65 854.011 311.991 855.214C312.332 856.417 313.152 857.439 314.271 858.054C315.389 858.669 316.715 858.828 317.957 858.496L590.497 785.469C591.738 785.136 592.793 784.339 593.43 783.254C594.067 782.168 594.233 780.882 593.892 779.679C593.551 778.476 592.731 777.455 591.612 776.839C590.493 776.224 589.167 776.065 587.926 776.397L315.386 849.424Z" fill="#CCCCCC"/>
<path d="M194.88 451.611C197.547 450.896 199.13 448.154 198.416 445.487C197.701 442.819 194.959 441.237 192.292 441.951C189.624 442.666 188.042 445.408 188.756 448.075C189.471 450.742 192.213 452.325 194.88 451.611Z" fill="#3F3D56"/>
<path d="M211.564 447.14C214.231 446.425 215.814 443.684 215.1 441.016C214.385 438.349 211.643 436.766 208.976 437.481C206.309 438.196 204.726 440.937 205.44 443.605C206.155 446.272 208.897 447.855 211.564 447.14Z" fill="#3F3D56"/>
<path d="M228.248 442.67C230.916 441.955 232.499 439.213 231.784 436.546C231.069 433.879 228.328 432.296 225.66 433.01C222.993 433.725 221.41 436.467 222.125 439.134C222.839 441.801 225.581 443.384 228.248 442.67Z" fill="#3F3D56"/>
<path d="M498.221 384.651L193.955 466.179L227.86 592.715L532.127 511.187L498.221 384.651Z" fill="#E4CEFF"/>
<path d="M361.934 494.451C370.65 492.115 375.822 483.157 373.487 474.441C371.151 465.725 362.193 460.553 353.477 462.888C344.761 465.224 339.589 474.182 341.924 482.898C344.26 491.614 353.218 496.786 361.934 494.451Z" fill="#9E616A"/>
<path d="M404.221 545.91L364.651 556.513L353.464 505.88L353.661 505.52L356.478 500.321L368.973 496.973L374.812 500.219L375.273 500.478L387.673 507.288L404.221 545.91Z" fill="#CBCBCB"/>
<path d="M375.604 553.578L345.53 561.636C340.2 542.541 336.171 528.136 336.171 528.136L337.457 526.789L337.465 526.782L351.589 512.022L353.588 505.321L353.661 505.52L357.951 517.365C357.951 517.365 368.509 534.132 375.604 553.578Z" fill="#2F2E41"/>
<path d="M416.526 542.613L389.764 549.784C386.596 543.679 384.196 537.701 383.14 532.464C378.816 511.07 372.658 500.211 373.972 499.859L374.812 500.219L384.815 504.528L396.753 505.599L405.037 506.345L406.48 506.475L406.65 507.108C407.508 510.291 411.502 525.067 416.526 542.613Z" fill="#2F2E41"/>
<path d="M344.098 487.607C344.098 487.607 344.808 484.893 342.389 477.11C339.969 469.328 353.14 470.567 362.948 467.135C372.756 463.702 374.357 478.153 374.357 478.153C374.357 478.153 374.858 477.135 374.609 470.02C374.359 462.905 369.06 457.169 369.06 457.169C366.14 450.405 361.173 454.154 361.173 454.154C364.136 454.48 364.219 456.851 364.219 456.851C360.881 453.478 355.914 457.227 355.914 457.227C347.233 454.555 341.347 462.714 341.347 462.714C332.916 467.157 340.094 472.885 340.094 472.885C332.289 479.866 344.098 487.607 344.098 487.607Z" fill="#2F2E41"/>
<path d="M336.816 563.971C333.469 548.407 330.828 536.199 330.347 535.331C329.006 532.918 337.207 526.966 337.457 526.789L337.46 526.784L337.465 526.782L339.461 527.254L349.741 560.508L336.816 563.971Z" fill="#2F2E41"/>
<path d="M422.819 540.927L409.237 544.566L395.062 507.213L396.349 505.613C396.349 505.613 396.497 505.608 396.753 505.599C398.08 505.576 402.379 505.55 405.037 506.346C405.618 506.495 406.165 506.754 406.65 507.109C406.943 507.315 407.146 507.627 407.216 507.979C407.391 509.097 414.472 523.677 422.819 540.927Z" fill="#2F2E41"/>
<path opacity="0.1" d="M809.3 740.26H808C809.028 739.12 809.592 737.635 809.58 736.1V736.1C809.639 734.57 809.089 733.079 808.051 731.954C807.012 730.829 805.57 730.162 804.04 730.1H765.2C763.671 730.165 762.23 730.832 761.192 731.957C760.154 733.081 759.603 734.571 759.66 736.1V736.1C759.603 737.629 760.154 739.119 761.192 740.243C762.23 741.367 763.671 742.035 765.2 742.1H766.5C765.475 743.242 764.912 744.725 764.92 746.26C764.892 747.557 765.292 748.827 766.058 749.874C766.825 750.92 767.915 751.685 769.16 752.05H757.98C756.5 752.198 755.128 752.892 754.13 753.995C753.132 755.098 752.579 756.532 752.579 758.02C752.579 759.507 753.132 760.942 754.13 762.045C755.128 763.148 756.5 763.841 757.98 763.99H796.82C798.349 763.925 799.79 763.257 800.828 762.133C801.866 761.009 802.417 759.519 802.36 757.99C802.386 756.693 801.985 755.424 801.219 754.378C800.453 753.331 799.364 752.566 798.12 752.2H809.3C810.78 752.051 812.152 751.358 813.15 750.255C814.148 749.152 814.701 747.717 814.701 746.23C814.701 744.742 814.148 743.308 813.15 742.205C812.152 741.102 810.78 740.408 809.3 740.26V740.26Z" fill="#6C63FF"/>
<path opacity="0.1" d="M478.43 735.13C477.616 735.013 476.786 735.078 476 735.32L477.79 728.1L479.98 728.64C479.734 730.859 479.213 733.039 478.43 735.13V735.13Z" fill="black"/>
<path d="M631.49 909.29L587.9 962.22C587.9 962.22 585.98 959.99 582.74 956.17C564.64 934.94 505.08 864.63 505.08 858.67C505.08 851.67 474.57 822.11 474.57 822.11C474.57 822.11 447.17 799.11 462.11 727.43C477.05 655.75 512.55 795.95 511.31 805.29C510.07 814.63 531.23 839.54 531.23 839.54C531.23 839.54 558.01 852.62 571.71 866.94C581.35 877.02 607.02 893.88 621.38 902.94C627.44 906.82 631.49 909.29 631.49 909.29Z" fill="#FDC2CC"/>
<path opacity="0.1" d="M631.49 909.29L587.9 962.22C587.9 962.22 585.98 959.99 582.74 956.17C583.44 941.35 614.74 908.65 620.28 903.68C620.606 903.388 620.978 903.151 621.38 902.98C627.44 906.82 631.49 909.29 631.49 909.29Z" fill="black"/>
<path d="M650.17 918.01C650.17 918.01 630.24 899.33 624.02 904.94C617.8 910.55 578.56 951.64 587.9 962.23C597.24 972.82 653.28 1017.01 653.28 1017.01L650.17 918.01Z" fill="#5F5D7E"/>
<path opacity="0.1" d="M650.17 918.01C650.17 918.01 630.24 899.33 624.02 904.94C617.8 910.55 578.56 951.64 587.9 962.23C597.24 972.82 653.28 1017.01 653.28 1017.01L650.17 918.01Z" fill="black"/>
<path d="M825.15 769.18C825.15 769.18 805.7 787.95 781.34 808.31L780.42 809.07L779 810.25C740.14 842.39 690.06 877.07 684.9 847.39C684.322 843.516 684.299 839.58 684.83 835.7C684.89 835.13 684.97 834.54 685.05 833.94C685.13 833.34 685.21 832.78 685.27 832.21C686.24 824.73 686.777 817.201 686.88 809.66C686.88 808.39 686.88 807.13 686.88 805.88C686.624 778.273 681.197 750.958 670.88 725.35C670.28 723.83 669.67 722.35 669.08 720.94C661.08 701.86 653.25 690.72 653.25 690.72C653.25 690.72 664.82 683.72 680.86 674.72C686.75 671.44 693.23 667.91 699.97 664.37C736.97 644.97 781.46 625.57 775.3 648.37C772.39 659.16 775.09 673.48 780.45 688.47C780.75 689.3 781.05 690.11 781.36 690.93C784.835 699.988 788.842 708.834 793.36 717.42L793.66 718C800.09 730.32 807.02 741.83 812.76 750.78C814.14 752.94 815.45 754.96 816.67 756.78C821.7 764.48 825.15 769.18 825.15 769.18Z" fill="#FDC2CC"/>
<path opacity="0.1" d="M781.39 690.93C781.1 691.36 780.79 691.79 780.48 692.21C771.14 704.91 760.33 712.47 747.48 716.73C738.62 719.68 728.76 721.07 717.71 721.51C714.96 721.61 712.15 721.66 709.25 721.66C702.567 721.672 695.888 721.288 689.25 720.51C685.76 719.96 682.11 722.31 678.58 724.03C675.95 725.3 673.38 726.23 670.98 725.35C670.38 723.83 669.77 722.35 669.18 720.94C661.18 701.86 653.35 690.72 653.35 690.72C653.35 690.72 664.92 683.72 680.96 674.72C686.85 671.44 693.33 667.91 700.07 664.37C737.07 644.97 781.56 625.57 775.4 648.37C772.49 659.16 775.19 673.48 780.55 688.47C780.78 689.3 781.08 690.11 781.39 690.93Z" fill="black"/>
<path d="M799 632.01C799 633.47 799 634.91 798.9 636.35C797.943 657.523 789.96 677.775 776.212 693.906C762.464 710.037 743.734 721.129 722.98 725.43C711.627 727.766 699.946 728.027 688.5 726.2C685.129 725.674 681.791 724.959 678.5 724.06C675.314 723.196 672.177 722.164 669.1 720.97V720.97C656.37 716.021 644.851 708.399 635.319 698.617C625.788 688.835 618.466 677.122 613.849 664.268C609.231 651.415 607.426 637.72 608.554 624.109C609.683 610.498 613.719 597.287 620.39 585.37L621.23 583.9C631.802 565.805 648.039 551.696 667.431 543.75C686.824 535.805 708.292 534.466 728.522 539.941C748.751 545.416 766.614 557.399 779.353 574.04C792.091 590.681 798.996 611.053 799 632.01V632.01Z" fill="#FDC2CC"/>
<path opacity="0.1" d="M825.15 769.18C825.15 769.18 673.83 915.51 685.04 833.94C686.311 824.641 686.932 815.265 686.9 805.88C692.151 799.388 697.729 793.166 703.61 787.24L724.87 771.87C746.791 755.87 773.521 747.84 800.63 749.11C804.72 749.214 808.785 749.774 812.75 750.78C819.88 761.95 825.15 769.18 825.15 769.18Z" fill="black"/>
<path d="M932.4 1020.4C926.86 1022.05 921.19 1023.48 915.47 1024.73C912.65 1025.36 909.81 1025.94 906.97 1026.48C902.14 1027.41 897.29 1028.24 892.47 1029C868.33 1032.79 843.97 1035.25 819.47 1037L815.47 1037.27L813.01 1037.43C809.27 1037.68 805.53 1037.9 801.8 1038.11C786.85 1038.95 771.88 1039.56 756.91 1040.11C745.91 1040.49 735.02 1040.81 724.08 1041.11L701.83 1041.76L696.08 1041.93L693.56 1042C686.973 1042.2 680.38 1042.39 673.78 1042.57L666.12 1042.79L651.89 1043.18L648.89 1043.26C648.09 1036.2 646.62 1023.37 645.06 1010.56L644.7 1007.56C642.98 993.43 641.2 979.86 640.17 974.72C637.68 962.27 640.17 910.58 640.17 910.58L640.44 910.15L641.62 908.15C647.51 898.32 669.35 860.7 668.81 844.53C668.49 834.88 677.81 820.92 686.81 809.67C687.99 808.21 689.16 806.79 690.31 805.44C697.48 797.01 703.62 791.01 703.62 791.01L724.87 775.63C746.802 759.646 773.531 751.624 800.64 752.89C808.64 753.3 815.02 754.42 816.64 756.83C817.33 757.22 832.83 766.12 849.83 785.98C858.11 795.649 865.313 806.191 871.31 817.42C871.49 817.74 871.67 818.07 871.84 818.42C871.84 818.42 910.45 882.56 915.43 921.17C920.41 959.78 927.89 991.53 927.89 991.53C927.89 991.53 930.02 1003.72 932.4 1020.4Z" fill="#5F5D7E"/>
<path opacity="0.1" d="M817.06 990.86C813.99 995.86 816.36 1019.27 819.51 1036.96L815.51 1037.23L813.05 1037.39C809.31 1037.64 805.57 1037.86 801.84 1038.07C786.89 1038.91 771.92 1039.52 756.95 1040.07C745.95 1040.45 735.06 1040.77 724.12 1041.07L701.87 1041.72C701.87 1039.44 701.17 1037.47 699.36 1036.32C698.096 1035.41 696.977 1034.31 696.04 1033.07C695.75 1032.72 695.45 1032.34 695.15 1031.95C688.22 1022.75 679.44 1003.95 679.44 1003.95C679.44 1003.95 668.23 1006.44 666.98 914.95C666.58 885.13 674.3 863.31 684.89 847.44C706.83 814.58 741.08 807.22 741.08 807.22C753.771 805.012 766.815 806.076 778.98 810.31C783.752 811.984 788.348 814.124 792.7 816.7C798.535 820.21 803.977 824.337 808.93 829.01L810.53 830.54C845.45 864.54 853.7 917.63 832.13 961.36C825.22 975.33 818.99 987.72 817.06 990.86Z" fill="black"/>
<path d="M812.08 985.88C808.7 991.38 811.92 1019.31 815.52 1037.23L813.06 1037.39C809.32 1037.64 805.58 1037.86 801.85 1038.07C786.9 1038.91 771.93 1039.52 756.96 1040.07C745.96 1040.45 735.07 1040.77 724.13 1041.07L701.88 1041.72L696.13 1041.89C697.01 1038.66 697.34 1035.33 696.05 1033.07C695.811 1032.65 695.511 1032.28 695.16 1031.95C694.93 1031.71 694.671 1031.51 694.39 1031.34C687.54 1026.98 674.46 998.95 674.46 998.95C674.46 998.95 663.26 1001.45 662.01 909.95C661.55 875.69 671.81 851.95 684.83 835.73C706.61 808.56 736.11 802.22 736.11 802.22C739.972 801.579 743.876 801.218 747.79 801.14H747.91C759.461 800.884 770.909 803.351 781.33 808.34C790.29 812.713 798.47 818.53 805.54 825.56C806.7 826.69 807.84 827.84 808.93 829.01C840.93 863.1 848.01 914.11 827.15 956.38C820.24 970.35 814.01 982.74 812.08 985.88Z" fill="#5F5D7E"/>
<path opacity="0.1" d="M735.05 924.4C735.05 924.4 673.6 968.01 678.84 974.01C684.08 980.01 735.05 924.4 735.05 924.4Z" fill="black"/>
<path opacity="0.1" d="M821.28 940.11C821.28 940.11 802.08 923.01 803.47 929.64C804.86 936.27 821.28 940.11 821.28 940.11Z" fill="black"/>
<path opacity="0.1" d="M801.85 1038.07C786.9 1038.91 771.93 1039.52 756.96 1040.07C731.33 1037.07 704.68 1032.66 704.68 1032.66C706.99 1031.31 788.76 1029.68 801.85 1038.07Z" fill="black"/>
<path opacity="0.1" d="M673.83 1042.53L666.17 1042.75C660.07 1026.09 654.83 1006.33 652.69 997.94C652.03 995.35 651.69 993.84 651.69 993.84L652.64 995.84C655.79 1002.41 666.23 1024.33 673.83 1042.53Z" fill="black"/>
<path opacity="0.1" d="M792.7 666.08C789.648 674.061 785.531 681.592 780.46 688.47C780.76 689.3 781.06 690.11 781.37 690.93C784.845 699.988 788.852 708.834 793.37 717.42L793.67 718C794.19 722 794.91 726 795.74 729.9C780.54 730.7 765.323 731.05 750.09 730.95C743.47 730.95 736.75 730.76 730.44 728.78C727.833 727.956 725.335 726.821 723 725.4C721.122 724.261 719.349 722.96 717.7 721.51C709.476 714.078 704.284 703.873 703.12 692.85C702.21 684.26 703.51 675.36 701.02 667.09C700.733 666.17 700.399 665.265 700.02 664.38C697.984 659.669 694.768 655.562 690.684 652.455C686.599 649.348 681.783 647.345 676.7 646.64C675.229 646.319 673.692 646.528 672.36 647.23C671.224 648.175 670.404 649.445 670.01 650.87L659.7 677.76C652.36 679.6 647.18 670.01 647.79 662.47C648.4 654.93 651.79 647.21 649.28 640.07C648.51 637.86 647.2 635.85 646.64 633.59C644.41 624.68 653.99 616.77 654.07 607.59C654.13 600.04 647.67 593.94 640.81 590.8C634.52 587.92 627.57 586.68 621.27 583.87C631.852 565.793 648.09 551.701 667.477 543.77C686.865 535.838 708.323 534.508 728.541 539.985C748.76 545.461 766.613 557.439 779.347 574.071C792.081 590.703 798.988 611.063 799 632.01C799 633.47 799 634.91 798.9 636.35C798.444 646.529 796.351 656.567 792.7 666.08V666.08Z" fill="black"/>
<path d="M698.29 507.4C691.92 506.76 684.92 506.6 679.76 510.4C674.34 514.4 672.54 521.56 668.94 527.25C662.07 538.13 649.11 543.1 638.17 549.87C627.23 556.64 616.87 568.73 620.53 581.07C627.27 584.47 634.92 585.66 641.78 588.8C648.64 591.94 655.1 598.04 655.04 605.59C654.96 614.77 645.38 622.68 647.61 631.59C648.17 633.85 649.48 635.86 650.25 638.07C652.74 645.21 649.37 652.93 648.76 660.47C648.15 668.01 653.33 677.6 660.67 675.76L671.05 648.87C671.444 647.445 672.264 646.175 673.4 645.23C674.732 644.528 676.269 644.319 677.74 644.64C683.297 645.418 688.521 647.75 692.81 651.368C697.099 654.987 700.277 659.743 701.98 665.09C704.47 673.36 703.17 682.26 704.08 690.85C705.75 706.69 716.22 722.01 731.42 726.78C737.73 728.78 744.42 728.91 751.07 728.95C766.29 729.063 781.507 728.713 796.72 727.9C792.97 710.26 791.44 690.77 800.53 675.21C804.42 668.55 810.03 663.06 814.31 656.64C821.31 646.18 824.49 633.69 827.06 621.38C829.06 612.05 830.69 602.51 829.81 593.02C828.34 577.11 819.89 562.81 811.65 549.13C807.31 541.92 802.75 534.48 795.76 529.82C781.22 520.14 763.4 526.21 747.86 520.65C731.35 514.76 716.26 509.22 698.29 507.4Z" fill="#865A61"/>
<rect x="118.295" y="980.823" width="391" height="133" rx="16" transform="rotate(-15 118.295 980.823)" fill="#03053D" fill-opacity="0.9"/>
<path d="M190.476 1053.62C186.272 1054.75 183.613 1053.23 182.498 1049.07L173.435 1015.24C172.32 1011.08 173.864 1008.44 178.068 1007.32L200.335 1001.35C203.487 1000.5 205.475 1001.61 206.296 1004.68C207.141 1007.83 205.987 1009.83 202.834 1010.68L185.822 1015.23L188.18 1024.04L203.747 1019.86C206.9 1019.02 208.893 1020.15 209.726 1023.26C210.559 1026.37 209.399 1028.35 206.246 1029.19L190.679 1033.36L193.231 1042.89L210.243 1038.33C213.396 1037.48 215.389 1038.62 216.222 1041.72C217.055 1044.83 215.895 1046.81 212.742 1047.66L190.476 1053.62ZM228.816 1043.98C227.284 1044.39 225.886 1044.34 224.624 1043.84C223.394 1043.28 222.543 1042.38 222.072 1041.14C221.588 1039.86 221.674 1038.43 222.329 1036.85L230.011 1017.97L214.451 1005.87C213.081 1004.79 212.291 1003.59 212.082 1002.28C211.917 1000.97 212.226 999.758 213.01 998.656C213.795 997.555 214.953 996.798 216.486 996.388C217.756 996.047 218.954 996.055 220.082 996.41C221.21 996.765 222.437 997.492 223.764 998.591L234.502 1007.4L239.462 994.385C240.05 992.725 240.749 991.482 241.56 990.655C242.359 989.783 243.394 989.178 244.664 988.837C246.24 988.415 247.643 988.485 248.873 989.047C250.092 989.565 250.943 990.464 251.426 991.742C251.898 992.977 251.812 994.408 251.168 996.035L243.739 1014.29L259.768 1026.82C261.171 1027.85 261.961 1029.05 262.138 1030.41C262.347 1031.71 262.059 1032.92 261.275 1034.02C260.479 1035.08 259.293 1035.82 257.717 1036.24C256.447 1036.58 255.254 1036.59 254.138 1036.28C253.054 1035.92 251.821 1035.17 250.438 1034.03L239.201 1024.94L234.083 1038.42C233.452 1040.09 232.736 1041.36 231.937 1042.23C231.126 1043.06 230.086 1043.64 228.816 1043.98ZM276.452 1031.22C274.525 1031.73 272.896 1031.61 271.563 1030.84C270.231 1030.07 269.301 1028.7 268.773 1026.73L259.48 992.048C258.952 990.078 259.073 988.426 259.842 987.094C260.611 985.761 261.981 984.831 263.952 984.303L280.11 979.973C285.364 978.565 289.779 978.837 293.352 980.79C296.958 982.686 299.394 985.999 300.662 990.729C301.929 995.458 301.481 999.567 299.319 1003.06C297.188 1006.49 293.495 1008.91 288.241 1010.32L278.06 1013.05L280.858 1023.49C281.386 1025.46 281.266 1027.11 280.496 1028.44C279.771 1029.77 278.423 1030.69 276.452 1031.22ZM275.578 1003.79L283.657 1001.62C288.387 1000.35 290.223 997.749 289.167 993.808C288.111 989.868 285.219 988.531 280.489 989.798L272.41 991.963L275.578 1003.79ZM320.944 1018.66C316.74 1019.79 314.081 1018.27 312.966 1014.11L303.902 980.286C302.788 976.126 304.332 973.483 308.536 972.356L330.803 966.39C333.955 965.545 335.942 966.656 336.764 969.721C337.609 972.874 336.455 974.872 333.302 975.717L316.29 980.275L318.648 989.077L334.215 984.906C337.368 984.061 339.361 985.193 340.194 988.302C341.027 991.411 339.867 993.388 336.714 994.233L321.147 998.404L323.699 1007.93L340.711 1003.37C343.864 1002.52 345.857 1003.66 346.69 1006.77C347.523 1009.88 346.363 1011.85 343.21 1012.7L320.944 1018.66ZM361.186 1008.51C359.259 1009.03 357.629 1008.9 356.297 1008.13C354.964 1007.36 354.034 1005.99 353.506 1004.02L344.214 969.344C343.686 967.373 343.806 965.722 344.576 964.389C345.345 963.057 346.715 962.127 348.685 961.599L364.843 957.269C370.098 955.861 374.494 956.067 378.033 957.888C381.604 959.654 383.999 962.813 385.219 967.367C386.146 970.827 386.051 973.973 384.933 976.807C383.847 979.586 381.785 981.875 378.747 983.674C381.375 983.674 383.798 984.832 386.014 987.148L390.882 992.179C391.935 993.305 392.575 994.471 392.805 995.677C393.078 996.871 392.882 997.979 392.217 999.002C391.541 999.981 390.349 1000.7 388.641 1001.16C386.933 1001.61 385.444 1001.66 384.174 1001.3C382.935 1000.88 381.694 1000.01 380.452 998.705L371.535 989.338C370.752 988.515 369.897 988.04 368.971 987.913C368.077 987.73 367.105 987.779 366.054 988.061L362.441 989.029L365.592 1000.79C366.12 1002.76 365.999 1004.41 365.23 1005.74C364.504 1007.06 363.156 1007.99 361.186 1008.51ZM360.154 980.49L368.167 978.343C372.94 977.064 374.822 974.542 373.813 970.776C372.815 967.054 369.93 965.832 365.157 967.111L357.144 969.258L360.154 980.49ZM417.182 993.51C415.255 994.026 413.626 993.899 412.293 993.13C410.961 992.361 410.03 990.991 409.502 989.02L401.213 958.084L390.901 960.847C387.573 961.738 385.469 960.542 384.589 957.258C383.709 953.974 384.933 951.886 388.261 950.994L420.971 942.23C424.299 941.338 426.403 942.534 427.283 945.818C428.163 949.102 426.939 951.19 423.611 952.082L413.299 954.845L421.588 985.782C422.116 987.752 421.995 989.404 421.226 990.736C420.501 992.057 419.153 992.982 417.182 993.51ZM458.339 982.622C455.668 983.338 452.839 983.815 449.852 984.052C446.897 984.233 444.278 984.091 441.993 983.623C440.659 983.371 439.621 982.827 438.881 981.993C438.142 981.159 437.703 980.22 437.564 979.178C437.414 978.092 437.54 977.073 437.941 976.12C438.332 975.124 438.995 974.359 439.932 973.827C440.857 973.251 442.03 973.077 443.453 973.306C445.34 973.692 447.393 973.822 449.612 973.697C451.819 973.528 453.843 973.197 455.682 972.704C458.572 971.93 460.486 971.018 461.425 969.968C462.397 968.863 462.73 967.742 462.425 966.603C462.155 965.596 461.522 964.897 460.525 964.507C459.573 964.105 458.009 963.961 455.834 964.075L447.709 964.492C438.908 964.926 433.58 961.684 431.727 954.765C430.917 951.744 431.017 948.877 432.027 946.166C433.081 943.443 434.911 941.076 437.516 939.064C440.11 937.008 443.355 935.457 447.252 934.413C449.529 933.803 451.898 933.45 454.36 933.353C456.854 933.202 459.089 933.4 461.067 933.95C462.568 934.299 463.658 935.039 464.337 936.171C465.004 937.26 465.272 938.432 465.139 939.688C465.006 940.943 464.441 941.987 463.443 942.817C462.489 943.636 461.064 943.924 459.169 943.681C457.703 943.464 456.146 943.435 454.499 943.594C452.841 943.71 451.267 943.968 449.778 944.367C447.326 945.024 445.561 945.966 444.482 947.194C443.391 948.378 443.027 949.648 443.391 951.006C443.649 951.969 444.255 952.652 445.207 953.054C446.159 953.456 447.701 953.606 449.833 953.504L457.892 953.104C466.825 952.635 472.188 955.75 473.983 962.45C474.793 965.471 474.687 968.316 473.665 970.983C472.643 973.65 470.83 975.99 468.225 978.002C465.619 980.015 462.324 981.555 458.339 982.622Z" fill="white"/>
</g>
<defs>
<clipPath id="clip0_93:426">
<rect width="1000" height="1200" fill="white"/>
</clipPath>
</defs>
</svg>
