<svg width="1221" height="1050" viewBox="0 0 1221 1050" fill="none" xmlns="http://www.w3.org/2000/svg">
<path d="M236.683 526.096C279.395 330.429 -134.475 42.893 45.6652 2.49036C201.035 -32.3568 476.936 310.57 651.746 277.85C1590.72 102.101 1105.29 406.24 1018.2 548.1C862.875 801.097 1051.28 994.33 813.112 881.048C574.947 767.765 581.406 894.98 333.33 1013.21C-15.289 1179.36 189.719 741.244 236.683 526.096Z" fill="#C39EFF"/>
<path d="M578.831 319.967C481.044 323.818 317.183 134.081 252.873 207.28C188.563 280.48 227.325 351.75 227.325 351.75C227.325 351.75 266.088 428.801 252.873 489.48C239.659 550.159 -55.4617 666.695 113.683 730.262C282.828 793.829 399.115 620.465 550.641 851.617C702.166 1082.77 863.38 759.156 863.38 759.156C863.38 759.156 1142.64 847.764 1043.98 730.262C945.312 612.76 821.093 668.62 921.523 536.672C1021.95 404.724 880.189 402.636 888.93 351.75C921.523 162.014 921.523 69.5532 811.405 162.014C701.287 254.474 676.618 316.117 578.831 319.967Z" fill="#6B35C3"/>
<ellipse cx="549.491" cy="943.826" rx="14.2382" ry="15.5759" fill="#6B35C3"/>
<ellipse cx="274.22" cy="91.3762" rx="5.60929" ry="6.13596" fill="#6B35C3"/>
<ellipse cx="190.946" cy="387.324" rx="13.8067" ry="15.1039" fill="#6B35C3"/>
<ellipse cx="420.484" cy="146.601" rx="13.8067" ry="15.1039" fill="#6B35C3"/>
<ellipse cx="978.793" cy="256.107" rx="13.8067" ry="15.1039" fill="#6B35C3"/>
<ellipse cx="916.663" cy="876.327" rx="13.8067" ry="15.1039" fill="#6B35C3"/>
<ellipse cx="942.551" cy="598.786" rx="12.0809" ry="13.2159" fill="#6B35C3"/>
<ellipse cx="1021.51" cy="422.726" rx="18.5527" ry="20.2964" fill="#6B35C3"/>
<ellipse cx="134.427" cy="518.073" rx="17.6898" ry="19.3524" fill="#6B35C3"/>
<ellipse cx="859.711" cy="944.297" rx="8.62968" ry="9.43994" fill="#6B35C3"/>
<ellipse cx="806.21" cy="82.4077" rx="8.62968" ry="9.43994" fill="#6B35C3"/>
<ellipse cx="231.506" cy="785.702" rx="8.62968" ry="9.43994" fill="#6B35C3"/>
<ellipse cx="674.183" cy="146.601" rx="8.62968" ry="9.43994" fill="#6B35C3"/>
<ellipse cx="378.633" cy="860.752" rx="17.6898" ry="19.3524" fill="#6B35C3"/>
</svg>
