<svg width="1000" height="1200" viewBox="0 0 1000 1200" fill="none" xmlns="http://www.w3.org/2000/svg">
<g clip-path="url(#clip0_87:626)">
<rect width="1000" height="1200" fill="white"/>
<rect width="1000" height="1200" fill="#591BBE"/>
<path d="M741.343 307.192C749.591 337.973 748.525 370.508 738.282 400.683C728.039 430.858 709.078 457.319 683.797 476.718C658.515 496.117 628.049 507.584 596.251 509.668C564.452 511.752 532.75 504.36 505.153 488.427C477.556 472.493 455.303 448.735 441.209 420.154C427.115 391.574 421.812 359.456 425.971 327.862C430.131 296.268 443.565 266.617 464.577 242.659C485.588 218.7 513.231 201.51 544.012 193.263" stroke="#212121" stroke-opacity="0.5" stroke-width="56" stroke-linecap="round"/>
<circle cx="577.439" cy="363.224" r="94.56" transform="rotate(30 577.439 363.224)" fill="#212121" fill-opacity="0.5"/>
<path d="M479.928 524.772C481.429 526.845 483.743 528.181 486.289 528.444L578.616 538.012C588.275 539.013 592.453 526.121 584.044 521.266L437.267 436.524C428.858 431.669 419.782 441.734 425.478 449.598L479.928 524.772Z" fill="#212121" fill-opacity="0.5"/>
<circle cx="581.5" cy="356.5" r="280.5" stroke="#212121" stroke-opacity="0.5" stroke-width="30"/>
<path d="M580 483C469 486.998 182 312.999 109 389C36.0001 465.001 80 539 80 539C80 539 124 619 109 682.001C94.0001 745.003 -8.99987 858.002 1.00012 916.001C11.0001 974 157 989 273 1027C389 1065 881 1028 881 1028C881 1028 1035 1020 1007 932.001C979 844 868 791.001 868 731C868 670.999 982 584.999 982 527C982 448.424 894 383.001 802 402C710 420.999 691 479.002 580 483Z" fill="#F3F3F3" fill-opacity="0.9"/>
<path opacity="0.1" d="M328.84 497.11H327.55C328.574 495.967 329.137 494.485 329.13 492.95V492.95C329.189 491.42 328.64 489.929 327.601 488.804C326.562 487.679 325.12 487.012 323.59 486.95H284.75C283.22 487.012 281.778 487.679 280.739 488.804C279.7 489.929 279.15 491.42 279.21 492.95V492.95C279.15 494.48 279.7 495.971 280.739 497.096C281.778 498.221 283.22 498.888 284.75 498.95H286.05C285.022 500.091 284.455 501.574 284.46 503.11C284.435 504.407 284.836 505.677 285.602 506.725C286.367 507.773 287.456 508.54 288.7 508.91H277.52C276.049 509.069 274.689 509.767 273.701 510.868C272.713 511.969 272.167 513.396 272.167 514.875C272.167 516.354 272.713 517.781 273.701 518.882C274.689 519.983 276.049 520.68 277.52 520.84H316.36C317.89 520.778 319.332 520.111 320.371 518.986C321.41 517.861 321.959 516.37 321.9 514.84C321.938 513.542 321.547 512.267 320.788 511.213C320.028 510.16 318.943 509.385 317.7 509.01H328.88C330.36 508.861 331.732 508.168 332.73 507.065C333.728 505.962 334.281 504.527 334.281 503.04C334.281 501.552 333.728 500.118 332.73 499.015C331.732 497.912 330.36 497.219 328.88 497.07L328.84 497.11Z" fill="white"/>
<circle cx="631.5" cy="395.5" r="16.5" fill="#F3F3F3"/>
<circle cx="671.5" cy="375.5" r="6.5" fill="#F3F3F3"/>
<circle cx="6" cy="543" r="16" fill="#F3F3F3"/>
<circle cx="905" cy="727" r="14" fill="#F3F3F3"/>
<circle cx="960.5" cy="665.5" r="21.5" fill="#F3F3F3"/>
<path d="M572.109 390.904L567.328 392.186L532.342 268.735C526.972 249.785 513.835 233.751 495.822 224.161C477.808 214.571 456.394 212.209 436.29 217.596L158.804 291.948C148.849 294.616 139.516 299.105 131.337 305.16C123.157 311.215 116.292 318.717 111.133 327.238C105.974 335.759 102.623 345.131 101.27 354.821C99.9173 364.51 100.59 374.327 103.249 383.71L295.183 1060.97C300.553 1079.92 313.69 1095.95 331.703 1105.54C349.716 1115.13 371.131 1117.5 391.235 1112.11L668.721 1037.76C678.675 1035.09 688.009 1030.6 696.188 1024.55C704.368 1018.49 711.233 1010.99 716.391 1002.47C721.55 993.947 724.902 984.574 726.255 974.885C727.607 965.195 726.935 955.379 724.276 945.996L592.231 480.06L597.012 478.779L572.109 390.904Z" fill="#3F3D56"/>
<path d="M444.616 235.365L408.395 245.071C411.152 248.473 412.971 252.479 413.693 256.735C414.415 260.991 414.017 265.367 412.535 269.476C411.053 273.586 408.532 277.303 405.193 280.301C401.855 283.299 397.802 285.485 393.392 286.667L234.424 329.262C230.013 330.444 225.381 330.585 220.935 329.673C216.488 328.761 212.364 326.824 208.926 324.033C205.489 321.242 202.842 317.682 201.22 313.667C199.598 309.652 199.05 305.306 199.625 301.01L165.795 310.075C150.781 314.098 137.975 323.578 130.195 336.429C122.414 349.28 120.296 364.45 124.307 378.602L315.959 1054.87C317.945 1061.88 321.375 1068.42 326.055 1074.13C330.734 1079.84 336.571 1084.61 343.232 1088.16C349.893 1091.7 357.247 1093.96 364.875 1094.8C372.503 1095.64 380.256 1095.05 387.69 1093.06L666.512 1018.35C673.946 1016.36 680.916 1013 687.024 1008.48C693.132 1003.96 698.259 998.358 702.112 991.994C705.964 985.631 708.467 978.632 709.477 971.396C710.488 964.16 709.986 956.829 708 949.822L516.348 273.555C514.362 266.548 510.931 260.001 506.252 254.29C501.572 248.579 495.735 243.814 489.074 240.268C482.414 236.721 475.059 234.463 467.431 233.622C459.803 232.781 452.05 233.373 444.616 235.365Z" fill="white"/>
<path d="M556.309 513.131L378.783 560.699C377.192 561.123 375.476 560.845 374.012 559.927C372.547 559.009 371.454 557.525 370.972 555.8L339.421 442.549C338.943 440.824 339.114 439.001 339.899 437.48C340.684 435.959 342.017 434.864 343.607 434.436L521.133 386.868C522.724 386.444 524.44 386.722 525.904 387.64C527.369 388.558 528.462 390.042 528.944 391.766L560.495 505.018C560.974 506.743 560.802 508.566 560.017 510.087C559.232 511.608 557.898 512.702 556.309 513.131ZM344.528 437.74C343.745 437.95 343.089 438.489 342.702 439.238C342.316 439.986 342.231 440.884 342.467 441.733L374.018 554.984C374.255 555.833 374.793 556.563 375.514 557.015C376.235 557.467 377.079 557.604 377.862 557.395L555.388 509.827C556.171 509.617 556.827 509.078 557.214 508.329C557.6 507.581 557.685 506.683 557.449 505.834L525.898 392.583C525.661 391.734 525.123 391.003 524.402 390.551C523.681 390.099 522.837 389.963 522.054 390.171L344.528 437.74Z" fill="#979797"/>
<path d="M333.79 622.467C332.514 622.809 331.425 623.614 330.764 624.707C330.102 625.799 329.922 627.088 330.263 628.291C330.604 629.494 331.438 630.512 332.581 631.12C333.725 631.729 335.084 631.879 336.36 631.537L467.83 596.31C469.106 595.968 470.194 595.162 470.855 594.07C471.517 592.978 471.697 591.688 471.356 590.485C471.015 589.283 470.181 588.265 469.038 587.656C467.894 587.047 466.535 586.898 465.259 587.239L333.79 622.467Z" fill="#CCCCCC"/>
<path d="M221.773 569.067C220.743 569.343 219.89 570.086 219.403 571.132C218.915 572.177 218.833 573.441 219.173 574.643C219.514 575.846 220.251 576.89 221.22 577.545C222.19 578.201 223.313 578.414 224.344 578.137L330.497 549.694C331.528 549.418 332.381 548.675 332.868 547.629C333.356 546.584 333.438 545.32 333.097 544.118C332.756 542.915 332.02 541.871 331.05 541.216C330.081 540.56 328.957 540.347 327.927 540.623L221.773 569.067Z" fill="#CCCCCC"/>
<path d="M212.781 542.489C212.213 542.641 211.805 543.265 211.645 544.223C211.484 545.181 211.586 546.395 211.927 547.597C212.268 548.8 212.82 549.893 213.462 550.636C214.104 551.379 214.784 551.711 215.351 551.559L273.803 535.897C274.37 535.745 274.779 535.122 274.939 534.164C275.099 533.206 274.997 531.992 274.657 530.789C274.316 529.586 273.763 528.493 273.121 527.75C272.479 527.007 271.799 526.675 271.232 526.827L212.781 542.489Z" fill="#CCCCCC"/>
<path d="M358.498 668.053C357.609 668.291 356.893 668.998 356.506 670.016C356.118 671.035 356.092 672.283 356.433 673.486C356.774 674.689 357.454 675.748 358.323 676.43C359.192 677.112 360.18 677.362 361.068 677.124L556.122 624.859C557.011 624.621 557.727 623.915 558.115 622.896C558.502 621.877 558.528 620.629 558.187 619.426C557.846 618.224 557.166 617.165 556.297 616.482C555.428 615.8 554.44 615.551 553.552 615.789L358.498 668.053Z" fill="#CCCCCC"/>
<path d="M368.074 703.793C367.185 704.031 366.469 704.737 366.082 705.756C365.695 706.774 365.669 708.023 366.009 709.225C366.35 710.428 367.03 711.487 367.899 712.169C368.769 712.851 369.756 713.101 370.644 712.863L565.699 660.598C566.587 660.36 567.304 659.654 567.691 658.635C568.078 657.617 568.104 656.368 567.763 655.166C567.422 653.963 566.742 652.904 565.873 652.222C565.004 651.539 564.016 651.29 563.128 651.528L368.074 703.793Z" fill="#CCCCCC"/>
<path d="M377.65 739.532C376.762 739.77 376.045 740.476 375.658 741.495C375.271 742.514 375.245 743.762 375.586 744.965C375.926 746.167 376.606 747.226 377.475 747.909C378.345 748.591 379.332 748.84 380.221 748.602L575.275 696.338C576.163 696.1 576.88 695.393 577.267 694.375C577.654 693.356 577.68 692.108 577.339 690.905C576.998 689.702 576.319 688.643 575.449 687.961C574.58 687.279 573.593 687.029 572.704 687.267L377.65 739.532Z" fill="#CCCCCC"/>
<path d="M387.226 775.271C386.338 775.509 385.621 776.215 385.234 777.234C384.847 778.253 384.821 779.501 385.162 780.704C385.503 781.907 386.182 782.966 387.052 783.648C387.921 784.33 388.908 784.579 389.797 784.341L584.851 732.077C585.739 731.839 586.456 731.133 586.843 730.114C587.23 729.095 587.256 727.847 586.915 726.644C586.575 725.441 585.895 724.382 585.025 723.7C584.156 723.018 583.169 722.768 582.28 723.007L387.226 775.271Z" fill="#CCCCCC"/>
<path d="M396.803 811.01C395.914 811.248 395.198 811.955 394.811 812.973C394.424 813.992 394.398 815.24 394.738 816.443C395.079 817.646 395.759 818.705 396.628 819.387C397.498 820.069 398.485 820.319 399.373 820.081L594.428 767.816C595.316 767.578 596.033 766.872 596.42 765.853C596.807 764.834 596.833 763.586 596.492 762.383C596.151 761.181 595.471 760.122 594.602 759.439C593.733 758.757 592.745 758.508 591.857 758.746L396.803 811.01Z" fill="#CCCCCC"/>
<path d="M406.379 846.75C405.491 846.988 404.774 847.694 404.387 848.713C404 849.731 403.974 850.98 404.315 852.182C404.655 853.385 405.335 854.444 406.204 855.126C407.074 855.809 408.061 856.058 408.95 855.82L604.004 803.555C604.892 803.317 605.609 802.611 605.996 801.592C606.383 800.574 606.409 799.325 606.068 798.123C605.727 796.92 605.048 795.861 604.178 795.179C603.309 794.497 602.322 794.247 601.433 794.485L406.379 846.75Z" fill="#CCCCCC"/>
<path d="M253.882 696.085C253.584 696.165 253.434 696.719 253.465 697.626C253.495 698.533 253.704 699.718 254.045 700.921C254.385 702.124 254.831 703.246 255.282 704.04C255.734 704.834 256.155 705.235 256.452 705.155L321.822 687.64C322.12 687.56 322.27 687.005 322.239 686.099C322.209 685.192 322 684.006 321.659 682.804C321.318 681.601 320.873 680.479 320.422 679.685C319.97 678.891 319.549 678.489 319.251 678.569L253.882 696.085Z" fill="#CCCCCC"/>
<path d="M262.661 732.045C262.363 732.125 262.213 732.679 262.244 733.586C262.274 734.493 262.483 735.679 262.824 736.881C263.165 738.084 263.61 739.206 264.061 740C264.513 740.794 264.934 741.195 265.232 741.116L330.601 723.6C330.899 723.52 331.049 722.966 331.019 722.059C330.988 721.152 330.78 719.967 330.439 718.764C330.098 717.561 329.653 716.439 329.201 715.645C328.749 714.851 328.328 714.45 328.031 714.53L262.661 732.045Z" fill="#CCCCCC"/>
<path d="M194.878 451.615C197.545 450.9 199.128 448.159 198.413 445.491C197.699 442.824 194.957 441.241 192.29 441.956C189.622 442.671 188.039 445.412 188.754 448.08C189.469 450.747 192.21 452.33 194.878 451.615Z" fill="#3F3D56"/>
<path d="M211.562 447.145C214.229 446.43 215.812 443.688 215.097 441.021C214.383 438.354 211.641 436.771 208.974 437.485C206.306 438.2 204.723 440.942 205.438 443.609C206.153 446.277 208.895 447.859 211.562 447.145Z" fill="#3F3D56"/>
<path d="M228.246 442.674C230.913 441.96 232.496 439.218 231.781 436.551C231.067 433.883 228.325 432.3 225.658 433.015C222.99 433.73 221.408 436.471 222.122 439.139C222.837 441.806 225.579 443.389 228.246 442.674Z" fill="#3F3D56"/>
<path opacity="0.1" d="M809.3 740.26H808C809.028 739.12 809.592 737.636 809.58 736.1V736.1C809.639 734.57 809.089 733.079 808.051 731.954C807.012 730.829 805.57 730.163 804.04 730.1H765.2C763.671 730.165 762.23 730.833 761.192 731.957C760.154 733.081 759.603 734.571 759.66 736.1V736.1C759.603 737.629 760.154 739.119 761.192 740.243C762.23 741.367 763.671 742.035 765.2 742.1H766.5C765.475 743.242 764.912 744.725 764.92 746.26C764.892 747.557 765.292 748.827 766.058 749.874C766.825 750.921 767.915 751.685 769.16 752.05H757.98C756.5 752.199 755.128 752.892 754.13 753.995C753.132 755.098 752.579 756.533 752.579 758.02C752.579 759.508 753.132 760.942 754.13 762.045C755.128 763.148 756.5 763.842 757.98 763.99H796.82C798.349 763.925 799.79 763.257 800.828 762.133C801.866 761.009 802.417 759.519 802.36 757.99C802.386 756.694 801.985 755.424 801.219 754.378C800.453 753.332 799.364 752.566 798.12 752.2H809.3C810.78 752.052 812.152 751.358 813.15 750.255C814.148 749.152 814.701 747.718 814.701 746.23C814.701 744.743 814.148 743.308 813.15 742.205C812.152 741.102 810.78 740.409 809.3 740.26V740.26Z" fill="#6C63FF"/>
<path opacity="0.1" d="M478.43 735.13C477.616 735.014 476.786 735.078 476 735.32L477.79 728.1L479.98 728.64C479.734 730.859 479.213 733.039 478.43 735.13V735.13Z" fill="black"/>
<path d="M631.49 909.29L587.9 962.22C587.9 962.22 585.98 959.99 582.74 956.17C564.64 934.94 505.08 864.63 505.08 858.67C505.08 851.67 474.57 822.11 474.57 822.11C474.57 822.11 447.17 799.11 462.11 727.43C477.05 655.75 512.55 795.95 511.31 805.29C510.07 814.63 531.23 839.54 531.23 839.54C531.23 839.54 558.01 852.62 571.71 866.94C581.35 877.02 607.02 893.88 621.38 902.94C627.44 906.82 631.49 909.29 631.49 909.29Z" fill="#FDC2CC"/>
<path opacity="0.1" d="M631.49 909.29L587.9 962.22C587.9 962.22 585.98 959.99 582.74 956.17C583.44 941.35 614.74 908.65 620.28 903.68C620.606 903.388 620.978 903.152 621.38 902.98C627.44 906.82 631.49 909.29 631.49 909.29Z" fill="black"/>
<path d="M650.17 918.01C650.17 918.01 630.24 899.33 624.02 904.94C617.8 910.55 578.56 951.64 587.9 962.23C597.24 972.82 653.28 1017.01 653.28 1017.01L650.17 918.01Z" fill="#5F5D7E"/>
<path opacity="0.1" d="M650.17 918.01C650.17 918.01 630.24 899.33 624.02 904.94C617.8 910.55 578.56 951.64 587.9 962.23C597.24 972.82 653.28 1017.01 653.28 1017.01L650.17 918.01Z" fill="black"/>
<path d="M825.15 769.18C825.15 769.18 805.7 787.95 781.34 808.31L780.42 809.07L779 810.25C740.14 842.39 690.06 877.07 684.9 847.39C684.322 843.516 684.299 839.58 684.83 835.7C684.89 835.13 684.97 834.54 685.05 833.94C685.13 833.34 685.21 832.78 685.27 832.21C686.24 824.731 686.777 817.201 686.88 809.66C686.88 808.39 686.88 807.13 686.88 805.88C686.624 778.273 681.197 750.958 670.88 725.35C670.28 723.83 669.67 722.35 669.08 720.94C661.08 701.86 653.25 690.72 653.25 690.72C653.25 690.72 664.82 683.72 680.86 674.72C686.75 671.44 693.23 667.91 699.97 664.37C736.97 644.97 781.46 625.57 775.3 648.37C772.39 659.16 775.09 673.48 780.45 688.47C780.75 689.3 781.05 690.11 781.36 690.93C784.835 699.989 788.842 708.834 793.36 717.42L793.66 718C800.09 730.32 807.02 741.83 812.76 750.78C814.14 752.94 815.45 754.96 816.67 756.78C821.7 764.48 825.15 769.18 825.15 769.18Z" fill="#FDC2CC"/>
<path opacity="0.1" d="M781.39 690.93C781.1 691.36 780.79 691.79 780.48 692.21C771.14 704.91 760.33 712.47 747.48 716.73C738.62 719.68 728.76 721.07 717.71 721.51C714.96 721.61 712.15 721.66 709.25 721.66C702.567 721.672 695.888 721.288 689.25 720.51C685.76 719.96 682.11 722.31 678.58 724.03C675.95 725.3 673.38 726.23 670.98 725.35C670.38 723.83 669.77 722.35 669.18 720.94C661.18 701.86 653.35 690.72 653.35 690.72C653.35 690.72 664.92 683.72 680.96 674.72C686.85 671.44 693.33 667.91 700.07 664.37C737.07 644.97 781.56 625.57 775.4 648.37C772.49 659.16 775.19 673.48 780.55 688.47C780.78 689.3 781.08 690.11 781.39 690.93Z" fill="black"/>
<path d="M799 632.01C799 633.47 799 634.91 798.9 636.35C797.943 657.523 789.96 677.775 776.212 693.906C762.464 710.037 743.734 721.129 722.98 725.43C711.627 727.766 699.946 728.027 688.5 726.2C685.129 725.674 681.791 724.959 678.5 724.06C675.314 723.196 672.177 722.165 669.1 720.97V720.97C656.37 716.021 644.851 708.399 635.319 698.617C625.788 688.835 618.466 677.122 613.849 664.269C609.231 651.415 607.426 637.72 608.554 624.109C609.683 610.498 613.719 597.288 620.39 585.37L621.23 583.9C631.802 565.806 648.039 551.696 667.431 543.751C686.824 535.805 708.292 534.467 728.522 539.941C748.751 545.416 766.614 557.399 779.353 574.04C792.091 590.681 798.996 611.053 799 632.01V632.01Z" fill="#FDC2CC"/>
<path opacity="0.1" d="M825.15 769.18C825.15 769.18 673.83 915.51 685.04 833.94C686.311 824.641 686.932 815.265 686.9 805.88C692.151 799.388 697.729 793.167 703.61 787.24L724.87 771.87C746.791 755.87 773.521 747.84 800.63 749.11C804.72 749.214 808.785 749.774 812.75 750.78C819.88 761.95 825.15 769.18 825.15 769.18Z" fill="black"/>
<path d="M932.4 1020.4C926.86 1022.05 921.19 1023.48 915.47 1024.73C912.65 1025.36 909.81 1025.94 906.97 1026.48C902.14 1027.41 897.29 1028.24 892.47 1029C868.33 1032.79 843.97 1035.25 819.47 1037L815.47 1037.27L813.01 1037.43C809.27 1037.68 805.53 1037.9 801.8 1038.11C786.85 1038.95 771.88 1039.56 756.91 1040.11C745.91 1040.49 735.02 1040.81 724.08 1041.11L701.83 1041.76L696.08 1041.93L693.56 1042C686.973 1042.2 680.38 1042.39 673.78 1042.57L666.12 1042.79L651.89 1043.18L648.89 1043.26C648.09 1036.2 646.62 1023.37 645.06 1010.56L644.7 1007.56C642.98 993.43 641.2 979.86 640.17 974.72C637.68 962.27 640.17 910.58 640.17 910.58L640.44 910.15L641.62 908.15C647.51 898.32 669.35 860.7 668.81 844.53C668.49 834.88 677.81 820.92 686.81 809.67C687.99 808.21 689.16 806.79 690.31 805.44C697.48 797.01 703.62 791.01 703.62 791.01L724.87 775.63C746.802 759.646 773.531 751.624 800.64 752.89C808.64 753.3 815.02 754.42 816.64 756.83C817.33 757.22 832.83 766.12 849.83 785.98C858.11 795.649 865.313 806.191 871.31 817.42C871.49 817.74 871.67 818.07 871.84 818.42C871.84 818.42 910.45 882.56 915.43 921.17C920.41 959.78 927.89 991.53 927.89 991.53C927.89 991.53 930.02 1003.72 932.4 1020.4Z" fill="#5F5D7E"/>
<path opacity="0.1" d="M817.06 990.86C813.99 995.86 816.36 1019.27 819.51 1036.96L815.51 1037.23L813.05 1037.39C809.31 1037.64 805.57 1037.86 801.84 1038.07C786.89 1038.91 771.92 1039.52 756.95 1040.07C745.95 1040.45 735.06 1040.77 724.12 1041.07L701.87 1041.72C701.87 1039.44 701.17 1037.47 699.36 1036.32C698.096 1035.41 696.977 1034.31 696.04 1033.07C695.75 1032.72 695.45 1032.34 695.15 1031.95C688.22 1022.75 679.44 1003.95 679.44 1003.95C679.44 1003.95 668.23 1006.44 666.98 914.95C666.58 885.13 674.3 863.31 684.89 847.44C706.83 814.58 741.08 807.22 741.08 807.22C753.771 805.013 766.815 806.076 778.98 810.31C783.752 811.984 788.348 814.125 792.7 816.7C798.535 820.21 803.977 824.337 808.93 829.01L810.53 830.54C845.45 864.54 853.7 917.63 832.13 961.36C825.22 975.33 818.99 987.72 817.06 990.86Z" fill="black"/>
<path d="M812.08 985.88C808.7 991.38 811.92 1019.31 815.52 1037.23L813.06 1037.39C809.32 1037.64 805.58 1037.86 801.85 1038.07C786.9 1038.91 771.93 1039.52 756.96 1040.07C745.96 1040.45 735.07 1040.77 724.13 1041.07L701.88 1041.72L696.13 1041.89C697.01 1038.66 697.34 1035.33 696.05 1033.07C695.811 1032.65 695.511 1032.28 695.16 1031.95C694.93 1031.72 694.671 1031.51 694.39 1031.34C687.54 1026.98 674.46 998.95 674.46 998.95C674.46 998.95 663.26 1001.45 662.01 909.95C661.55 875.69 671.81 851.95 684.83 835.73C706.61 808.56 736.11 802.22 736.11 802.22C739.972 801.579 743.876 801.218 747.79 801.14H747.91C759.461 800.884 770.909 803.351 781.33 808.34C790.29 812.713 798.47 818.531 805.54 825.56C806.7 826.69 807.84 827.84 808.93 829.01C840.93 863.1 848.01 914.11 827.15 956.38C820.24 970.35 814.01 982.74 812.08 985.88Z" fill="#5F5D7E"/>
<path opacity="0.1" d="M735.05 924.4C735.05 924.4 673.6 968.01 678.84 974.01C684.08 980.01 735.05 924.4 735.05 924.4Z" fill="black"/>
<path opacity="0.1" d="M821.28 940.11C821.28 940.11 802.08 923.01 803.47 929.64C804.86 936.27 821.28 940.11 821.28 940.11Z" fill="black"/>
<path opacity="0.1" d="M801.85 1038.07C786.9 1038.91 771.93 1039.52 756.96 1040.07C731.33 1037.07 704.68 1032.66 704.68 1032.66C706.99 1031.31 788.76 1029.68 801.85 1038.07Z" fill="black"/>
<path opacity="0.1" d="M673.83 1042.53L666.17 1042.75C660.07 1026.09 654.83 1006.33 652.69 997.94C652.03 995.35 651.69 993.84 651.69 993.84L652.64 995.84C655.79 1002.41 666.23 1024.33 673.83 1042.53Z" fill="black"/>
<path opacity="0.1" d="M792.7 666.08C789.648 674.061 785.531 681.593 780.46 688.47C780.76 689.3 781.06 690.11 781.37 690.93C784.845 699.989 788.852 708.834 793.37 717.42L793.67 718C794.19 722 794.91 726 795.74 729.9C780.54 730.7 765.323 731.05 750.09 730.95C743.47 730.95 736.75 730.76 730.44 728.78C727.833 727.957 725.335 726.822 723 725.4C721.122 724.262 719.349 722.96 717.7 721.51C709.476 714.078 704.284 703.873 703.12 692.85C702.21 684.26 703.51 675.36 701.02 667.09C700.733 666.17 700.399 665.266 700.02 664.38C697.984 659.669 694.768 655.563 690.684 652.455C686.599 649.348 681.783 647.345 676.7 646.64C675.229 646.319 673.692 646.528 672.36 647.23C671.224 648.175 670.404 649.445 670.01 650.87L659.7 677.76C652.36 679.6 647.18 670.01 647.79 662.47C648.4 654.93 651.79 647.21 649.28 640.07C648.51 637.86 647.2 635.85 646.64 633.59C644.41 624.68 653.99 616.77 654.07 607.59C654.13 600.04 647.67 593.94 640.81 590.8C634.52 587.92 627.57 586.68 621.27 583.87C631.852 565.793 648.09 551.701 667.477 543.77C686.865 535.839 708.323 534.508 728.541 539.985C748.76 545.461 766.613 557.439 779.347 574.071C792.081 590.703 798.988 611.063 799 632.01C799 633.47 799 634.91 798.9 636.35C798.444 646.529 796.351 656.568 792.7 666.08V666.08Z" fill="black"/>
<path d="M698.29 507.4C691.92 506.76 684.92 506.6 679.76 510.4C674.34 514.4 672.54 521.56 668.94 527.25C662.07 538.13 649.11 543.1 638.17 549.87C627.23 556.64 616.87 568.73 620.53 581.07C627.27 584.47 634.92 585.66 641.78 588.8C648.64 591.94 655.1 598.04 655.04 605.59C654.96 614.77 645.38 622.68 647.61 631.59C648.17 633.85 649.48 635.86 650.25 638.07C652.74 645.21 649.37 652.93 648.76 660.47C648.15 668.01 653.33 677.6 660.67 675.76L671.05 648.87C671.444 647.446 672.264 646.175 673.4 645.23C674.732 644.528 676.269 644.319 677.74 644.64C683.297 645.418 688.521 647.75 692.81 651.369C697.099 654.987 700.277 659.743 701.98 665.09C704.47 673.36 703.17 682.26 704.08 690.85C705.75 706.69 716.22 722.01 731.42 726.78C737.73 728.78 744.42 728.91 751.07 728.95C766.29 729.063 781.507 728.713 796.72 727.9C792.97 710.26 791.44 690.77 800.53 675.21C804.42 668.55 810.03 663.06 814.31 656.64C821.31 646.18 824.49 633.69 827.06 621.38C829.06 612.05 830.69 602.51 829.81 593.02C828.34 577.11 819.89 562.81 811.65 549.13C807.31 541.92 802.75 534.48 795.76 529.82C781.22 520.14 763.4 526.21 747.86 520.65C731.35 514.76 716.26 509.22 698.29 507.4Z" fill="#865A61"/>
<rect x="117" y="970.988" width="315" height="133" rx="16" transform="rotate(-15 117 970.988)" fill="#03053D" fill-opacity="0.9"/>
<path d="M189.181 1043.79C184.978 1044.91 182.318 1043.4 181.204 1039.24L172.14 1005.41C171.025 1001.25 172.57 998.606 176.773 997.48L192.8 993.186C197.792 991.848 201.939 991.91 205.24 993.372C208.574 994.779 210.728 997.299 211.701 1000.93C212.347 1003.34 212.297 1005.61 211.552 1007.73C210.851 1009.84 209.545 1011.63 207.634 1013.08C210.428 1013.17 212.779 1013.97 214.684 1015.48C216.578 1016.95 217.895 1019.06 218.634 1021.81C219.725 1025.89 219.121 1029.5 216.821 1032.65C214.552 1035.74 210.9 1037.97 205.865 1039.32L189.181 1043.79ZM186.956 1014.46L195.56 1012.16C197.75 1011.57 199.243 1010.75 200.039 1009.69C200.878 1008.62 201.081 1007.28 200.647 1005.66C200.213 1004.04 199.371 1002.99 198.12 1002.53C196.902 1002.01 195.198 1002.05 193.009 1002.63L184.404 1004.94L186.956 1014.46ZM192.06 1033.51L201.847 1030.89C204.08 1030.29 205.589 1029.44 206.373 1028.34C207.189 1027.18 207.368 1025.75 206.911 1024.04C206.453 1022.33 205.588 1021.2 204.314 1020.65C203.084 1020.09 201.352 1020.11 199.119 1020.71L189.332 1023.33L192.06 1033.51ZM235.103 1031.48C233.133 1032.01 231.481 1031.89 230.149 1031.12C228.805 1030.31 227.874 1028.94 227.358 1027.01L218.206 992.855C217.678 990.884 217.799 989.233 218.568 987.9C219.338 986.568 220.686 985.643 222.612 985.127C224.539 984.611 226.169 984.737 227.501 985.507C228.834 986.276 229.764 987.646 230.292 989.617L238.388 1019.83L254.414 1015.54C256.078 1015.09 257.466 1015.19 258.576 1015.83C259.73 1016.46 260.519 1017.56 260.941 1019.14C261.375 1020.76 261.25 1022.13 260.565 1023.25C259.924 1024.36 258.771 1025.14 257.107 1025.59L235.103 1031.48ZM287.377 1018.25C282.692 1019.5 278.311 1019.62 274.237 1018.6C270.194 1017.53 266.706 1015.46 263.773 1012.4C260.841 1009.33 258.735 1005.41 257.456 1000.64C256.165 995.825 256.008 991.385 256.985 987.322C257.993 983.203 260.007 979.683 263.026 976.762C266.044 973.842 269.897 971.753 274.582 970.498C279.267 969.243 283.626 969.131 287.657 970.163C291.732 971.183 295.235 973.224 298.168 976.287C301.089 979.306 303.194 983.223 304.485 988.04C305.764 992.813 305.899 997.259 304.891 1001.38C303.883 1005.5 301.875 1009.04 298.868 1012C295.893 1014.91 292.062 1016.99 287.377 1018.25ZM284.667 1008.13C288.082 1007.22 290.431 1005.3 291.712 1002.37C293.025 999.394 293.101 995.737 291.94 991.402C290.778 987.067 288.911 983.953 286.339 982.061C283.767 980.169 280.752 979.686 277.292 980.613C273.833 981.54 271.463 983.466 270.181 986.39C268.9 989.315 268.84 992.945 270.002 997.28C271.163 1001.62 273.036 1004.75 275.62 1006.69C278.192 1008.58 281.207 1009.06 284.667 1008.13ZM341.673 1003.7C336.375 1005.12 331.6 1005.34 327.35 1004.37C323.144 1003.39 319.603 1001.38 316.725 998.347C313.848 995.317 311.776 991.437 310.509 986.708C309.195 981.803 309.064 977.286 310.116 973.156C311.2 968.97 313.383 965.381 316.665 962.39C319.947 959.399 324.28 957.181 329.666 955.738C331.856 955.151 334.148 954.772 336.542 954.6C338.925 954.384 341.363 954.552 343.858 955.104C345.137 955.324 346.103 955.863 346.755 956.721C347.439 957.523 347.835 958.473 347.941 959.571C348.091 960.657 347.971 961.698 347.581 962.694C347.179 963.647 346.516 964.411 345.591 964.988C344.71 965.552 343.558 965.72 342.135 965.491C339.08 964.949 335.867 965.129 332.495 966.033C328.073 967.218 325.083 969.286 323.527 972.237C322.015 975.177 321.858 978.88 323.055 983.346C324.251 987.813 326.249 990.891 329.049 992.581C331.849 994.272 335.394 994.542 339.685 993.392C341.7 992.852 343.873 991.942 346.204 990.66L344.251 983.369L339.653 984.601C336.544 985.434 334.608 984.427 333.845 981.581C333.094 978.779 334.273 976.961 337.382 976.128L347.104 973.523C350.256 972.678 352.255 973.832 353.1 976.985L356.989 991.501C357.341 992.815 357.356 994.008 357.033 995.08C356.754 996.14 356.076 997.026 355 997.737C353.085 999 350.977 1000.15 348.674 1001.19C346.415 1002.22 344.081 1003.06 341.673 1003.7ZM384.306 992.277C381.635 992.993 378.806 993.47 375.819 993.707C372.864 993.888 370.244 993.746 367.96 993.278C366.625 993.026 365.588 992.482 364.848 991.648C364.108 990.814 363.669 989.875 363.531 988.833C363.38 987.747 363.506 986.728 363.908 985.775C364.298 984.779 364.962 984.015 365.898 983.482C366.823 982.906 367.997 982.732 369.419 982.961C371.306 983.347 373.359 983.477 375.579 983.352C377.786 983.183 379.809 982.852 381.648 982.359C384.538 981.585 386.453 980.673 387.392 979.624C388.363 978.519 388.696 977.397 388.391 976.258C388.121 975.251 387.488 974.553 386.492 974.162C385.539 973.761 383.976 973.616 381.8 973.73L373.675 974.147C364.874 974.581 359.547 971.339 357.693 964.42C356.884 961.399 356.984 958.532 357.994 955.821C359.048 953.098 360.877 950.731 363.483 948.719C366.076 946.663 369.322 945.113 373.219 944.068C375.496 943.458 377.865 943.105 380.327 943.009C382.82 942.857 385.056 943.055 387.034 943.605C388.535 943.954 389.625 944.694 390.304 945.826C390.971 946.915 391.238 948.087 391.105 949.343C390.972 950.598 390.407 951.642 389.41 952.472C388.456 953.291 387.031 953.579 385.135 953.336C383.669 953.119 382.113 953.09 380.466 953.249C378.807 953.365 377.234 953.623 375.745 954.022C373.293 954.679 371.527 955.621 370.448 956.849C369.357 958.033 368.994 959.304 369.358 960.661C369.616 961.624 370.221 962.307 371.174 962.709C372.126 963.111 373.668 963.261 375.8 963.159L383.859 962.759C392.791 962.29 398.155 965.405 399.95 972.105C400.76 975.126 400.654 977.971 399.632 980.638C398.61 983.306 396.796 985.645 394.191 987.658C391.586 989.67 388.291 991.21 384.306 992.277Z" fill="white"/>
<path d="M474.93 466.957C476.19 471.66 476.028 476.632 474.462 481.243C472.897 485.854 470 489.897 466.137 492.861C462.273 495.825 457.618 497.578 452.759 497.896C447.9 498.214 443.056 497.085 438.839 494.65C434.622 492.216 431.222 488.585 429.068 484.218C426.914 479.851 426.104 474.943 426.74 470.115C427.375 465.287 429.428 460.757 432.639 457.096C435.849 453.435 440.073 450.808 444.777 449.548" stroke="#212121" stroke-width="9" stroke-linecap="round"/>
<circle cx="449.875" cy="475.535" r="14.56" transform="rotate(30 449.875 475.535)" fill="#212121"/>
<path d="M434.13 499.402C434.826 500.363 435.898 500.981 437.077 501.104V501.104C441.552 501.567 443.487 495.595 439.592 493.346V493.346C435.696 491.097 431.492 495.759 434.13 499.402V499.402Z" fill="#212121"/>
<circle cx="450.5" cy="474.5" r="42.5" stroke="#212121" stroke-width="6"/>
</g>
<defs>
<clipPath id="clip0_87:626">
<rect width="1000" height="1200" fill="white"/>
</clipPath>
</defs>
</svg>
