<svg width="1212" height="1000" viewBox="0 0 1212 1000" fill="none" xmlns="http://www.w3.org/2000/svg">
<path d="M234.777 501.044C277.145 314.694 -133.392 40.8505 45.2974 2.37178C199.416 -30.816 473.095 295.781 646.498 264.619C1577.91 97.2393 1096.39 386.895 1010 522C855.926 762.95 1042.81 946.981 806.564 839.093C570.316 731.205 576.724 852.362 330.645 964.962C-15.1659 1123.2 188.191 705.947 234.777 501.044Z" fill="#C39EFF"/>
<path d="M574.17 304.731C477.17 308.398 314.629 127.696 250.836 197.41C187.044 267.123 225.494 335 225.494 335C225.494 335 263.944 408.382 250.836 466.171C237.728 523.961 -55.0153 634.948 112.767 695.487C280.55 756.027 395.901 590.919 546.206 811.064C696.511 1031.21 856.427 723.006 856.427 723.006C856.427 723.006 1133.44 807.394 1035.57 695.487C937.699 583.581 814.481 636.781 914.102 511.116C1013.72 385.451 873.1 383.463 881.771 335C914.102 154.298 914.102 66.241 804.871 154.299C695.64 242.356 671.169 301.063 574.17 304.731Z" fill="#5E4D79"/>
<path opacity="0.1" d="M400.381 439.134H399.394C400.178 438.107 400.609 436.774 400.603 435.394V435.394C400.649 434.019 400.228 432.678 399.433 431.667C398.638 430.656 397.533 430.056 396.362 430H366.632C365.461 430.056 364.357 430.656 363.561 431.667C362.766 432.678 362.345 434.019 362.391 435.394V435.394C362.345 436.77 362.766 438.11 363.561 439.122C364.357 440.133 365.461 440.732 366.632 440.789H367.627C366.84 441.815 366.406 443.148 366.41 444.529C366.39 445.695 366.697 446.837 367.284 447.779C367.87 448.721 368.703 449.411 369.655 449.743H361.097C359.972 449.886 358.931 450.513 358.175 451.503C357.418 452.493 357 453.776 357 455.106C357 456.436 357.418 457.719 358.175 458.709C358.931 459.698 359.972 460.325 361.097 460.469H390.828C391.999 460.412 393.103 459.813 393.898 458.802C394.693 457.79 395.114 456.45 395.069 455.074C395.098 453.907 394.798 452.761 394.217 451.814C393.636 450.866 392.806 450.17 391.854 449.833H400.412C401.545 449.699 402.595 449.076 403.359 448.084C404.123 447.093 404.546 445.803 404.546 444.466C404.546 443.128 404.123 441.839 403.359 440.847C402.595 439.855 401.545 439.232 400.412 439.098L400.381 439.134Z" fill="white"/>
<ellipse cx="545.066" cy="898.881" rx="14.1235" ry="14.8342" fill="#5E4D79"/>
<ellipse cx="272.012" cy="87.0244" rx="5.56412" ry="5.84377" fill="#5E4D79"/>
<ellipse cx="189.408" cy="368.88" rx="13.6955" ry="14.3847" fill="#5E4D79"/>
<ellipse cx="417.098" cy="139.62" rx="13.6955" ry="14.3847" fill="#5E4D79"/>
<ellipse cx="970.91" cy="243.911" rx="13.6955" ry="14.3847" fill="#5E4D79"/>
<ellipse cx="909.28" cy="834.598" rx="13.6955" ry="14.3847" fill="#5E4D79"/>
<ellipse cx="934.96" cy="570.272" rx="11.9836" ry="12.5866" fill="#5E4D79"/>
<ellipse cx="1013.28" cy="402.596" rx="18.4033" ry="19.3299" fill="#5E4D79"/>
<ellipse cx="133.345" cy="493.403" rx="17.5474" ry="18.4308" fill="#5E4D79"/>
<ellipse cx="852.788" cy="899.33" rx="8.56019" ry="8.99042" fill="#5E4D79"/>
<ellipse cx="799.717" cy="78.4836" rx="8.56019" ry="8.99042" fill="#5E4D79"/>
<ellipse cx="229.642" cy="748.287" rx="8.56019" ry="8.99042" fill="#5E4D79"/>
<ellipse cx="668.754" cy="139.62" rx="8.56019" ry="8.99042" fill="#5E4D79"/>
<ellipse cx="375.584" cy="819.763" rx="17.5474" ry="18.4308" fill="#5E4D79"/>
<rect x="219.987" y="441.052" width="590" height="310" rx="15" transform="rotate(-15 219.987 441.052)" fill="#FDFDFD" stroke="#C13FFF" stroke-width="10"/>
<circle cx="268.025" cy="427.146" r="15" transform="rotate(-15 268.025 427.146)" fill="#6E6E6E"/>
<circle cx="316.321" cy="414.204" r="15" transform="rotate(-15 316.321 414.204)" fill="#6E6E6E"/>
<circle cx="364.617" cy="401.264" r="15" transform="rotate(-15 364.617 401.264)" fill="#6E6E6E"/>
<circle cx="468.416" cy="529.778" r="132" transform="rotate(-15 468.416 529.778)" fill="#E6BEFF"/>
<circle cx="701.28" cy="450.3" r="65.5" transform="rotate(-15 701.28 450.3)" fill="#E6BEFF"/>
<circle cx="336.612" cy="683.116" r="17" transform="rotate(-15 336.612 683.116)" fill="#E6BEFF"/>
<path d="M547.792 542.319C565.412 537.598 575.876 519.514 571.163 501.927C566.451 484.34 548.347 473.91 530.727 478.631C513.107 483.352 502.643 501.437 507.356 519.024C512.068 536.611 530.172 547.041 547.792 542.319Z" fill="#FFB9B9"/>
<path d="M633.221 646.13L553.225 667.565L530.66 565.394L531.057 564.666L536.758 554.171L562.017 547.403L573.818 553.949L574.75 554.47L599.807 568.202L633.221 646.13Z" fill="#7C3FFF"/>
<path d="M575.369 661.632L514.569 677.923C503.814 639.391 495.684 610.324 495.684 610.324L498.285 607.606L498.301 607.591L526.864 577.79L530.911 564.265L531.058 564.666L539.719 588.567C539.719 588.567 561.045 622.395 575.369 661.632Z" fill="#2F2E41"/>
<path d="M658.097 639.465L603.995 653.961C597.596 641.644 592.75 629.582 590.62 619.013C581.9 575.843 569.463 553.935 572.119 553.223L573.818 553.949L594.033 562.634L618.163 564.785L634.908 566.283L637.825 566.543L638.168 567.822C639.899 574.244 647.958 604.06 658.097 639.465Z" fill="#2F2E41"/>
<path d="M511.746 528.525C511.746 528.525 513.183 523.048 508.3 507.343C503.417 491.639 530.038 494.128 549.867 487.192C569.697 480.256 572.92 509.418 572.92 509.418C572.92 509.418 573.933 507.362 573.436 493.004C572.939 478.646 562.232 467.073 562.232 467.073C556.335 453.426 546.291 460.997 546.291 460.997C552.28 461.652 552.446 466.438 552.446 466.438C545.701 459.633 535.658 467.204 535.658 467.204C518.114 461.82 506.209 478.291 506.209 478.291C489.162 487.265 503.665 498.818 503.665 498.818C487.881 512.915 511.746 528.525 511.746 528.525Z" fill="#2F2E41"/>
<path d="M496.954 682.644C490.202 651.236 484.875 626.602 483.904 624.85C481.196 619.981 497.778 607.962 498.285 607.606L498.291 607.594L498.301 607.592L502.336 608.542L523.082 675.643L496.954 682.644Z" fill="#2F2E41"/>
<path d="M670.821 636.057L643.364 643.414L614.745 568.044L617.349 564.814C617.349 564.814 617.648 564.804 618.164 564.786C620.848 564.737 629.537 564.681 634.909 566.284C636.084 566.586 637.19 567.108 638.169 567.823C638.762 568.239 639.172 568.868 639.312 569.578C639.666 571.835 653.965 601.251 670.821 636.057Z" fill="#2F2E41"/>
<g filter="url(#filter0_d_184_299)">
<circle cx="842.043" cy="570.944" r="86.5" fill="#C13FFF"/>
<path d="M815.876 571.445V559.578C815.876 544.845 826.31 538.811 839.076 546.178L849.376 552.111L859.676 558.045C872.443 565.411 872.443 577.478 859.676 584.845L849.376 590.778L839.076 596.711C826.31 604.078 815.876 598.045 815.876 583.311V571.445Z" fill="white"/>
</g>
<defs>
<filter id="filter0_d_184_299" x="737.543" y="471.444" width="205" height="205" filterUnits="userSpaceOnUse" color-interpolation-filters="sRGB">
<feFlood flood-opacity="0" result="BackgroundImageFix"/>
<feColorMatrix in="SourceAlpha" type="matrix" values="0 0 0 0 0 0 0 0 0 0 0 0 0 0 0 0 0 0 127 0" result="hardAlpha"/>
<feOffset dx="-2" dy="3"/>
<feGaussianBlur stdDeviation="8"/>
<feComposite in2="hardAlpha" operator="out"/>
<feColorMatrix type="matrix" values="0 0 0 0 0 0 0 0 0 0 0 0 0 0 0 0 0 0 0.2 0"/>
<feBlend mode="normal" in2="BackgroundImageFix" result="effect1_dropShadow_184_299"/>
<feBlend mode="normal" in="SourceGraphic" in2="effect1_dropShadow_184_299" result="shape"/>
</filter>
</defs>
</svg>
