<svg id="visual" viewBox="0 0 900 600" width="900" height="600" xmlns="http://www.w3.org/2000/svg" xmlns:xlink="http://www.w3.org/1999/xlink" version="1.1"><rect x="0" y="0" width="900" height="600" fill="#5E4D79"></rect><defs><linearGradient id="grad1_0" x1="33.3%" y1="0%" x2="100%" y2="100%"><stop offset="20%" stop-color="#5e4d79" stop-opacity="1"></stop><stop offset="80%" stop-color="#5e4d79" stop-opacity="1"></stop></linearGradient></defs><defs><linearGradient id="grad2_0" x1="0%" y1="0%" x2="66.7%" y2="100%"><stop offset="20%" stop-color="#5e4d79" stop-opacity="1"></stop><stop offset="80%" stop-color="#5e4d79" stop-opacity="1"></stop></linearGradient></defs><g transform="translate(900, 0)"><path d="M0 459.7C-25 405.8 -50 351.8 -75.7 331.5C-101.3 311.1 -127.7 324.4 -156.6 325.2C-185.6 326.1 -217.2 314.5 -232.6 291.6C-247.9 268.7 -247 234.5 -273.6 218.2C-300.3 202 -354.4 203.8 -389.2 187.4C-424.1 171.1 -439.6 136.6 -448.2 102.3C-456.7 68 -458.2 34 -459.7 0L0 0Z" fill="#C13FFF"></path></g><g transform="translate(0, 600)"><path d="M0 -459.7C24.1 -410.3 48.2 -360.9 81.9 -358.8C115.6 -356.7 158.8 -401.8 198.3 -411.7C237.8 -421.7 273.5 -396.3 286.6 -359.4C299.8 -322.5 290.4 -274 308 -245.7C325.7 -217.3 370.5 -209 384.7 -185.3C398.9 -161.6 382.6 -122.5 390 -89C397.4 -55.6 428.5 -27.8 459.7 0L0 0Z" fill="#C13FFF"></path></g></svg>