<svg width="900" height="369" viewBox="0 0 900 369" fill="none" xmlns="http://www.w3.org/2000/svg">
<g clip-path="url(#clip0_126:215)">
<path d="M0 134L18.8 146.2C37.7 158.3 75.3 182.7 112.8 157.5C150.3 132.3 187.7 57.7 225.2 66.5C262.7 75.3 300.3 167.7 337.8 201.5C375.3 235.3 412.7 210.7 450.2 203C487.7 195.3 525.3 204.7 562.8 189.3C600.3 174 637.7 134 675.2 136C712.7 138 750.3 182 787.8 175.7C825.3 169.3 862.7 112.7 881.3 84.3L900 56V425H881.3C862.7 425 825.3 425 787.8 425C750.3 425 712.7 425 675.2 425C637.7 425 600.3 425 562.8 425C525.3 425 487.7 425 450.2 425C412.7 425 375.3 425 337.8 425C300.3 425 262.7 425 225.2 425C187.7 425 150.3 425 112.8 425C75.3 425 37.7 425 18.8 425H0V134Z" fill="#F0F5FF"/>
</g>
<defs>
<clipPath id="clip0_126:215">
<rect width="900" height="369" fill="white"/>
</clipPath>
</defs>
</svg>
