<svg id="visual" viewBox="0 0 900 600" width="900" height="600" xmlns="http://www.w3.org/2000/svg" xmlns:xlink="http://www.w3.org/1999/xlink" version="1.1"><path d="M0 446L16.7 432.8C33.3 419.7 66.7 393.3 100 388.2C133.3 383 166.7 399 200 357C233.3 315 266.7 215 300 178.8C333.3 142.7 366.7 170.3 400 200.5C433.3 230.7 466.7 263.3 500 259C533.3 254.7 566.7 213.3 600 252C633.3 290.7 666.7 409.3 700 452.5C733.3 495.7 766.7 463.3 800 408.5C833.3 353.7 866.7 276.3 883.3 237.7L900 199L900 0L883.3 0C866.7 0 833.3 0 800 0C766.7 0 733.3 0 700 0C666.7 0 633.3 0 600 0C566.7 0 533.3 0 500 0C466.7 0 433.3 0 400 0C366.7 0 333.3 0 300 0C266.7 0 233.3 0 200 0C166.7 0 133.3 0 100 0C66.7 0 33.3 0 16.7 0L0 0Z" fill="#f0f5ff" stroke-linecap="round" stroke-linejoin="miter"></path></svg>