<svg width="724" height="250" viewBox="0 0 724 250" fill="none" xmlns="http://www.w3.org/2000/svg">
<path d="M348.4 165.32C338.88 165.32 330.8 163.52 324.16 159.92C317.6 156.32 312.6 151.28 309.16 144.8C305.72 138.32 304 130.72 304 122C304 113.04 305.76 105.28 309.28 98.72C312.88 92.16 318.04 87.08 324.76 83.48C331.48 79.88 339.56 78.08 349 78.08C353.32 78.08 357.64 78.56 361.96 79.52C366.28 80.48 370.44 82.08 374.44 84.32C376.6 85.52 377.88 87.12 378.28 89.12C378.76 91.12 378.56 93.08 377.68 95C376.8 96.84 375.44 98.2 373.6 99.08C371.84 99.88 369.72 99.68 367.24 98.48C361.88 95.68 355.84 94.28 349.12 94.28C340.56 94.28 334.12 96.68 329.8 101.48C325.56 106.2 323.44 113.04 323.44 122C323.44 131.04 325.6 137.88 329.92 142.52C334.32 147.16 340.8 149.48 349.36 149.48C353.92 149.48 358.72 148.76 363.76 147.32V130.76H352.96C348 130.76 345.52 128.52 345.52 124.04C345.52 119.56 348 117.32 352.96 117.32H371.8C376.68 117.32 379.12 119.8 379.12 124.76V152.6C379.12 154.68 378.68 156.44 377.8 157.88C377 159.32 375.68 160.36 373.84 161C370.24 162.28 366.2 163.32 361.72 164.12C357.24 164.92 352.8 165.32 348.4 165.32ZM422.342 165.32C416.023 165.32 410.503 164.08 405.783 161.6C401.143 159.04 397.543 155.48 394.982 150.92C392.423 146.28 391.143 140.8 391.143 134.48C391.143 128.24 392.423 122.84 394.982 118.28C397.543 113.64 401.143 110.08 405.783 107.6C410.503 105.12 416.023 103.88 422.342 103.88C428.663 103.88 434.143 105.12 438.783 107.6C443.503 110.08 447.143 113.64 449.703 118.28C452.343 122.84 453.663 128.24 453.663 134.48C453.663 140.8 452.343 146.28 449.703 150.92C447.143 155.48 443.503 159.04 438.783 161.6C434.143 164.08 428.663 165.32 422.342 165.32ZM422.342 151.76C426.183 151.76 429.303 150.36 431.703 147.56C434.183 144.76 435.423 140.4 435.423 134.48C435.423 128.64 434.183 124.36 431.703 121.64C429.303 118.84 426.183 117.44 422.342 117.44C418.503 117.44 415.383 118.84 412.983 121.64C410.583 124.36 409.383 128.64 409.383 134.48C409.383 140.4 410.583 144.76 412.983 147.56C415.383 150.36 418.503 151.76 422.342 151.76ZM507.287 165.32C498.167 165.32 490.367 163.52 483.887 159.92C477.407 156.32 472.407 151.28 468.887 144.8C465.447 138.24 463.727 130.52 463.727 121.64C463.727 112.84 465.447 105.2 468.887 98.72C472.407 92.16 477.407 87.08 483.887 83.48C490.367 79.88 498.167 78.08 507.287 78.08C511.287 78.08 515.327 78.6 519.407 79.64C523.567 80.68 527.167 82.08 530.207 83.84C532.687 85.28 534.207 87.08 534.767 89.24C535.327 91.4 535.127 93.44 534.167 95.36C533.287 97.28 531.887 98.64 529.967 99.44C528.047 100.24 525.887 99.96 523.487 98.6C521.087 97.16 518.567 96.12 515.927 95.48C513.287 94.84 510.607 94.52 507.887 94.52C499.807 94.52 493.687 96.88 489.527 101.6C485.447 106.24 483.407 112.92 483.407 121.64C483.407 130.36 485.447 137.08 489.527 141.8C493.687 146.52 499.807 148.88 507.887 148.88C510.447 148.88 513.047 148.56 515.687 147.92C518.407 147.28 521.007 146.28 523.487 144.92C526.047 143.56 528.287 143.28 530.207 144.08C532.127 144.8 533.527 146.08 534.407 147.92C535.367 149.68 535.607 151.64 535.127 153.8C534.647 155.88 533.287 157.6 531.047 158.96C528.007 160.96 524.327 162.52 520.007 163.64C515.767 164.76 511.527 165.32 507.287 165.32ZM566.797 165.32C559.277 165.32 553.717 163.24 550.117 159.08C546.597 154.92 544.837 148.68 544.837 140.36V113.24C544.837 107.16 547.837 104.12 553.837 104.12C559.917 104.12 562.957 107.16 562.957 113.24V140.84C562.957 147.8 565.957 151.28 571.957 151.28C575.397 151.28 578.197 150.08 580.357 147.68C582.597 145.2 583.717 141.96 583.717 137.96V113.24C583.717 107.16 586.717 104.12 592.717 104.12C598.797 104.12 601.837 107.16 601.837 113.24V155.84C601.837 162 598.917 165.08 593.077 165.08C590.197 165.08 587.997 164.28 586.477 162.68C584.957 161.08 584.197 158.84 584.197 155.96C580.277 162.2 574.477 165.32 566.797 165.32ZM625.218 165.08C618.978 165.08 615.858 162 615.858 155.84V113.24C615.858 107.16 618.818 104.12 624.738 104.12C630.658 104.12 633.618 107.16 633.618 113.24V115.4C636.498 108.28 642.458 104.44 651.498 103.88C653.498 103.72 655.018 104.24 656.058 105.44C657.178 106.56 657.778 108.44 657.858 111.08C658.018 113.56 657.498 115.52 656.298 116.96C655.178 118.4 653.258 119.28 650.538 119.6L647.778 119.84C638.818 120.72 634.338 125.28 634.338 133.52V155.84C634.338 162 631.298 165.08 625.218 165.08ZM694.857 165.32C687.897 165.32 681.897 164.08 676.857 161.6C671.897 159.04 668.057 155.48 665.337 150.92C662.697 146.28 661.377 140.84 661.377 134.6C661.377 128.52 662.657 123.2 665.217 118.64C667.857 114 671.417 110.4 675.897 107.84C680.457 105.2 685.697 103.88 691.617 103.88C700.177 103.88 706.977 106.6 712.017 112.04C717.057 117.4 719.577 124.68 719.577 133.88C719.577 136.92 717.697 138.44 713.937 138.44H678.657C679.297 143.08 680.977 146.48 683.697 148.64C686.497 150.72 690.337 151.76 695.217 151.76C697.137 151.76 699.297 151.56 701.697 151.16C704.177 150.68 706.537 149.88 708.777 148.76C711.097 147.64 713.057 147.44 714.657 148.16C716.257 148.8 717.337 149.92 717.897 151.52C718.537 153.12 718.537 154.8 717.897 156.56C717.337 158.24 716.017 159.64 713.937 160.76C711.137 162.28 708.017 163.4 704.577 164.12C701.217 164.92 697.977 165.32 694.857 165.32ZM692.337 115.88C688.497 115.88 685.377 117.04 682.977 119.36C680.657 121.68 679.217 124.92 678.657 129.08H704.577C704.097 120.28 700.017 115.88 692.337 115.88Z" fill="#262626"/>
<path d="M199.083 125C199.083 139.652 194.738 153.975 186.598 166.158C178.457 178.341 166.887 187.836 153.35 193.444C139.813 199.051 124.918 200.518 110.547 197.659C96.1765 194.801 82.9762 187.745 72.6155 177.384C62.2548 167.024 55.1991 153.823 52.3406 139.453C49.4821 125.082 50.9492 110.186 56.5563 96.6496C62.1635 83.1127 71.6589 71.5425 83.8418 63.4022C96.0246 55.2619 110.348 50.917 125 50.917" stroke="#941BBE" stroke-width="24" stroke-linecap="round"/>
<circle cx="125" cy="125" r="43.3587" fill="#941BBE"/>
<circle cx="125" cy="125" r="116" stroke="#941BBE" stroke-width="18"/>
</svg>
