<svg width="1222" height="1262" viewBox="0 0 1222 1262" fill="none" xmlns="http://www.w3.org/2000/svg">
<path d="M211.637 732.311C261.133 525.04 -149.119 199.11 59.6377 156.311C239.69 119.398 591.634 404.31 790.023 356.623C966.031 314.316 885.802 509.764 915.634 688.31C950.067 894.389 1130.02 1320.62 854.023 1200.62C578.023 1080.62 330.195 1427.38 179.637 1152.31C67.1364 946.77 157.212 960.217 211.637 732.311Z" fill="#C39EFF"/>
<path d="M962 295.5C962 329.419 951.942 362.577 933.097 390.78C914.252 418.983 887.468 440.965 856.13 453.945C824.793 466.926 790.31 470.322 757.042 463.705C723.774 457.087 693.216 440.754 669.231 416.769C645.246 392.784 628.913 362.226 622.295 328.958C615.678 295.69 619.074 261.207 632.055 229.87C645.035 198.532 667.017 171.748 695.22 152.903C723.423 134.058 756.581 124 790.5 124" stroke="#941BBE" stroke-width="64" stroke-linecap="round"/>
<circle cx="790.5" cy="295.5" r="102.5" fill="#941BBE"/>
<circle cx="790.5" cy="295.5" r="275.5" stroke="#941BBE" stroke-width="40"/>
<path d="M790.998 530.999C679.998 534.997 392.997 360.998 319.997 436.999C246.997 513.001 290.997 586.999 290.997 586.999C290.997 586.999 334.997 666.999 319.997 730.001C304.997 793.002 201.997 906.001 211.997 964C221.997 1022 367.997 1037 483.997 1075C599.997 1113 1092 1076 1092 1076C1092 1076 1246 1068 1218 980C1190 891.999 1079 839 1079 778.999C1079 718.998 1193 632.998 1193 574.999C1193 496.423 1105 431 1013 449.999C920.998 468.998 901.998 527.001 790.998 530.999Z" fill="#6B35C3"/>
<path opacity="0.1" d="M539.837 545.109H538.547C539.571 543.966 540.134 542.484 540.127 540.949V540.949C540.187 539.419 539.637 537.928 538.598 536.803C537.56 535.678 536.117 535.012 534.587 534.949H495.747C494.217 535.012 492.775 535.678 491.736 536.803C490.698 537.928 490.148 539.419 490.207 540.949V540.949C490.148 542.479 490.698 543.97 491.736 545.095C492.775 546.22 494.217 546.887 495.747 546.949H497.047C496.019 548.091 495.453 549.573 495.457 551.109C495.432 552.407 495.833 553.677 496.599 554.724C497.365 555.772 498.453 556.54 499.697 556.909H488.517C487.047 557.069 485.687 557.766 484.699 558.867C483.711 559.968 483.164 561.395 483.164 562.874C483.164 564.353 483.711 565.781 484.699 566.882C485.687 567.982 487.047 568.68 488.517 568.839H527.357C528.887 568.777 530.33 568.11 531.368 566.985C532.407 565.86 532.957 564.369 532.897 562.839C532.935 561.541 532.544 560.266 531.785 559.213C531.026 558.159 529.941 557.384 528.697 557.009H539.877C541.357 556.861 542.729 556.168 543.727 555.064C544.725 553.961 545.278 552.527 545.278 551.039C545.278 549.552 544.725 548.117 543.727 547.014C542.729 545.911 541.357 545.218 539.877 545.069L539.837 545.109Z" fill="white"/>
<circle cx="709.5" cy="1197.5" r="16.5" fill="#6B35C3"/>
<circle cx="313.5" cy="277.5" r="6.5" fill="#6B35C3"/>
<circle cx="216.997" cy="590.999" r="16" fill="#6B35C3"/>
<circle cx="369" cy="278" r="16" fill="#6B35C3"/>
<circle cx="1116" cy="774.999" r="14" fill="#6B35C3"/>
<circle cx="1171.5" cy="713.499" r="21.5" fill="#6B35C3"/>
<path d="M771.288 442.088L766.637 443.335L731.648 319.871C726.277 300.919 713.358 284.825 695.731 275.129C678.105 265.434 657.216 262.931 637.659 268.171L367.736 340.497C358.052 343.091 348.987 347.509 341.059 353.497C333.13 359.485 326.493 366.927 321.526 375.397C316.559 383.867 313.36 393.2 312.112 402.863C310.863 412.525 311.589 422.328 314.248 431.712L506.202 1109.05C511.573 1128 524.493 1144.09 542.119 1153.79C559.746 1163.48 580.635 1165.99 600.192 1160.75L870.115 1088.42C879.798 1085.82 888.863 1081.41 896.792 1075.42C904.72 1069.43 911.358 1061.99 916.324 1053.52C921.291 1045.05 924.49 1035.72 925.739 1026.05C926.988 1016.39 926.262 1006.59 923.602 997.204L791.543 531.218L796.194 529.972L771.288 442.088Z" fill="#3F3D56"/>
<path d="M645.903 285.964L610.669 295.405C613.38 298.821 615.182 302.832 615.917 307.085C616.651 311.338 616.295 315.703 614.88 319.795C613.465 323.887 611.034 327.58 607.802 330.55C604.57 333.519 600.635 335.674 596.345 336.824L441.709 378.258C437.419 379.408 432.905 379.517 428.565 378.576C424.224 377.636 420.191 375.674 416.82 372.865C413.449 370.055 410.844 366.484 409.234 362.465C407.624 358.447 407.059 354.104 407.588 349.821L374.68 358.638C360.075 362.552 347.662 371.927 340.171 384.702C332.68 397.476 330.725 412.604 334.736 426.757L526.409 1103.1C528.395 1110.1 531.786 1116.66 536.388 1122.39C540.99 1128.13 546.713 1132.92 553.231 1136.51C559.749 1140.09 566.933 1142.4 574.374 1143.29C581.815 1144.18 589.367 1143.64 596.599 1141.71L867.822 1069.03C875.053 1067.09 881.823 1063.79 887.744 1059.32C893.665 1054.85 898.622 1049.29 902.331 1042.97C906.04 1036.64 908.429 1029.67 909.361 1022.46C910.294 1015.24 909.752 1007.92 907.766 1000.91V1000.91L716.093 324.573C714.107 317.565 710.716 311.008 706.114 305.275C701.512 299.542 695.788 294.746 689.271 291.161C682.753 287.576 675.568 285.272 668.127 284.38C660.686 283.488 653.134 284.027 645.903 285.964V285.964Z" fill="white"/>
<path d="M646.933 810.652C700.28 796.358 731.938 741.524 717.644 688.177C703.35 634.831 648.516 603.173 595.169 617.467C541.823 631.761 510.165 686.595 524.459 739.941C538.753 793.288 593.587 824.946 646.933 810.652Z" fill="#6B35C3"/>
<path d="M621.888 752.795C619.716 753.381 617.413 753.245 615.325 752.407L615.195 752.355L587.842 741.072C586.574 740.548 585.423 739.779 584.453 738.81C583.482 737.841 582.713 736.69 582.187 735.423C581.662 734.156 581.391 732.798 581.39 731.426C581.39 730.055 581.659 728.697 582.184 727.429C582.708 726.162 583.477 725.01 584.446 724.04C585.416 723.07 586.567 722.3 587.833 721.775C589.1 721.249 590.458 720.979 591.83 720.978C593.201 720.978 594.56 721.247 595.827 721.771L613.552 729.107L636.151 674.468C636.675 673.201 637.444 672.05 638.413 671.08C639.382 670.11 640.532 669.341 641.798 668.816C643.065 668.29 644.422 668.02 645.793 668.019C647.164 668.019 648.522 668.288 649.789 668.812L649.792 668.814L649.657 669.171L649.798 668.812C652.355 669.873 654.386 671.906 655.446 674.463C656.506 677.02 656.508 679.894 655.452 682.453L628.864 746.697C628.247 748.178 627.298 749.497 626.089 750.553C624.881 751.608 623.445 752.37 621.894 752.781L621.888 752.795Z" fill="white"/>
<path opacity="0.1" d="M1020.3 788.259H1019C1020.03 787.119 1020.59 785.635 1020.58 784.099V784.099C1020.64 782.569 1020.09 781.078 1019.05 779.953C1018.01 778.828 1016.57 778.162 1015.04 778.099H976.198C974.669 778.164 973.228 778.832 972.19 779.956C971.152 781.08 970.601 782.57 970.658 784.099V784.099C970.601 785.628 971.152 787.118 972.19 788.242C973.228 789.366 974.669 790.034 976.198 790.099H977.498C976.473 791.241 975.91 792.724 975.918 794.259C975.89 795.556 976.29 796.826 977.057 797.873C977.823 798.92 978.913 799.684 980.158 800.049H968.978C967.498 800.198 966.126 800.891 965.128 801.994C964.13 803.097 963.577 804.532 963.577 806.019C963.577 807.507 964.13 808.941 965.128 810.044C966.126 811.147 967.498 811.841 968.978 811.989H1007.82C1009.35 811.924 1010.79 811.256 1011.83 810.132C1012.86 809.008 1013.41 807.518 1013.36 805.989C1013.38 804.693 1012.98 803.423 1012.22 802.377C1011.45 801.331 1010.36 800.565 1009.12 800.199H1020.3C1021.78 800.051 1023.15 799.357 1024.15 798.254C1025.15 797.151 1025.7 795.717 1025.7 794.229C1025.7 792.742 1025.15 791.307 1024.15 790.204C1023.15 789.101 1021.78 788.408 1020.3 788.259V788.259Z" fill="#6C63FF"/>
<path opacity="0.1" d="M689.428 783.129C688.614 783.013 687.784 783.077 686.998 783.319L688.788 776.099L690.978 776.639C690.732 778.858 690.211 781.038 689.428 783.129V783.129Z" fill="black"/>
<path d="M842.488 957.289L798.898 1010.22C798.898 1010.22 796.978 1007.99 793.738 1004.17C775.638 982.939 716.078 912.629 716.078 906.669C716.078 899.669 685.568 870.109 685.568 870.109C685.568 870.109 658.168 847.109 673.108 775.429C688.048 703.749 723.548 843.949 722.308 853.289C721.068 862.629 742.228 887.539 742.228 887.539C742.228 887.539 769.008 900.619 782.708 914.939C792.348 925.019 818.018 941.879 832.378 950.939C838.438 954.819 842.488 957.289 842.488 957.289Z" fill="#FDC2CC"/>
<path opacity="0.1" d="M842.489 957.289L798.899 1010.22C798.899 1010.22 796.979 1007.99 793.739 1004.17C794.439 989.349 825.739 956.649 831.279 951.679C831.604 951.387 831.976 951.151 832.379 950.979C838.439 954.819 842.489 957.289 842.489 957.289Z" fill="black"/>
<path d="M861.168 966.009C861.168 966.009 841.238 947.329 835.018 952.939C828.798 958.549 789.558 999.639 798.898 1010.23C808.238 1020.82 864.278 1065.01 864.278 1065.01L861.168 966.009Z" fill="#5F5D7E"/>
<path opacity="0.1" d="M861.168 966.009C861.168 966.009 841.238 947.329 835.018 952.939C828.798 958.549 789.558 999.639 798.898 1010.23C808.238 1020.82 864.278 1065.01 864.278 1065.01L861.168 966.009Z" fill="black"/>
<path d="M1036.15 817.179C1036.15 817.179 1016.7 835.949 992.338 856.309L991.418 857.069L989.998 858.249C951.138 890.389 901.058 925.069 895.898 895.389C895.32 891.515 895.297 887.579 895.828 883.699C895.888 883.129 895.968 882.539 896.048 881.939C896.128 881.339 896.208 880.779 896.268 880.209C897.238 872.729 897.776 865.2 897.878 857.659C897.878 856.389 897.878 855.129 897.878 853.879C897.622 826.272 892.195 798.957 881.878 773.349C881.278 771.829 880.668 770.349 880.078 768.939C872.078 749.859 864.248 738.719 864.248 738.719C864.248 738.719 875.818 731.719 891.858 722.719C897.748 719.439 904.228 715.909 910.968 712.369C947.968 692.969 992.458 673.569 986.298 696.369C983.388 707.159 986.088 721.479 991.448 736.469C991.748 737.299 992.048 738.109 992.358 738.929C995.833 747.987 999.84 756.833 1004.36 765.419L1004.66 765.999C1011.09 778.319 1018.02 789.829 1023.76 798.779C1025.14 800.939 1026.45 802.959 1027.67 804.779C1032.7 812.479 1036.15 817.179 1036.15 817.179Z" fill="#FDC2CC"/>
<path opacity="0.1" d="M992.388 738.929C992.098 739.359 991.788 739.789 991.478 740.209C982.138 752.909 971.328 760.469 958.478 764.729C949.618 767.679 939.758 769.069 928.708 769.509C925.958 769.609 923.148 769.659 920.248 769.659C913.565 769.671 906.886 769.287 900.248 768.509C896.758 767.959 893.108 770.309 889.578 772.029C886.948 773.299 884.378 774.229 881.978 773.349C881.378 771.829 880.768 770.349 880.178 768.939C872.178 749.859 864.348 738.719 864.348 738.719C864.348 738.719 875.918 731.719 891.958 722.719C897.848 719.439 904.328 715.909 911.068 712.369C948.068 692.969 992.558 673.569 986.398 696.369C983.488 707.159 986.188 721.479 991.548 736.469C991.778 737.299 992.078 738.109 992.388 738.929Z" fill="black"/>
<path d="M1010 680.009C1010 681.469 1010 682.909 1009.9 684.349C1008.94 705.522 1000.96 725.774 987.21 741.905C973.462 758.036 954.732 769.128 933.978 773.429C922.626 775.765 910.944 776.026 899.498 774.199C896.128 773.673 892.789 772.958 889.498 772.059C886.313 771.195 883.175 770.164 880.098 768.969V768.969C867.369 764.02 855.849 756.398 846.317 746.616C836.786 736.834 829.464 725.121 824.847 712.268C820.23 699.414 818.424 685.719 819.553 672.108C820.681 658.497 824.717 645.287 831.388 633.369L832.228 631.899C842.801 613.805 859.037 599.695 878.43 591.75C897.822 583.804 919.291 582.466 939.52 587.94C959.749 593.415 977.613 605.398 990.351 622.039C1003.09 638.68 1009.99 659.052 1010 680.009V680.009Z" fill="#FDC2CC"/>
<path opacity="0.1" d="M1036.15 817.179C1036.15 817.179 884.829 963.509 896.039 881.939C897.309 872.64 897.931 863.264 897.898 853.879C903.15 847.387 908.727 841.166 914.608 835.239L935.868 819.869C957.79 803.869 984.519 795.839 1011.63 797.109C1015.72 797.213 1019.78 797.773 1023.75 798.779C1030.88 809.949 1036.15 817.179 1036.15 817.179Z" fill="black"/>
<path d="M1143.4 1068.4C1137.86 1070.05 1132.19 1071.48 1126.47 1072.73C1123.65 1073.36 1120.81 1073.94 1117.97 1074.48C1113.14 1075.41 1108.29 1076.24 1103.47 1077C1079.33 1080.79 1054.97 1083.25 1030.47 1085L1026.47 1085.27L1024.01 1085.43C1020.27 1085.68 1016.53 1085.9 1012.8 1086.11C997.848 1086.95 982.878 1087.56 967.908 1088.11C956.908 1088.49 946.018 1088.81 935.078 1089.11L912.828 1089.76L907.078 1089.93L904.558 1090C897.972 1090.2 891.378 1090.39 884.778 1090.57L877.118 1090.79L862.888 1091.18L859.888 1091.26C859.088 1084.2 857.618 1071.37 856.058 1058.56L855.698 1055.56C853.978 1041.43 852.198 1027.86 851.168 1022.72C848.678 1010.27 851.168 958.579 851.168 958.579L851.438 958.149L852.618 956.149C858.508 946.319 880.348 908.699 879.808 892.529C879.488 882.879 888.808 868.919 897.808 857.669C898.988 856.209 900.158 854.789 901.308 853.439C908.478 845.009 914.618 839.009 914.618 839.009L935.868 823.629C957.8 807.645 984.53 799.623 1011.64 800.889C1019.64 801.299 1026.02 802.419 1027.64 804.829C1028.33 805.219 1043.83 814.119 1060.83 833.979C1069.11 843.648 1076.31 854.19 1082.31 865.419C1082.49 865.739 1082.67 866.069 1082.84 866.419C1082.84 866.419 1121.45 930.559 1126.43 969.169C1131.41 1007.78 1138.89 1039.53 1138.89 1039.53C1138.89 1039.53 1141.02 1051.72 1143.4 1068.4Z" fill="#5F5D7E"/>
<path opacity="0.1" d="M1028.06 1038.86C1024.99 1043.86 1027.36 1067.27 1030.51 1084.96L1026.51 1085.23L1024.05 1085.39C1020.31 1085.64 1016.57 1085.86 1012.84 1086.07C997.888 1086.91 982.918 1087.52 967.948 1088.07C956.948 1088.45 946.058 1088.77 935.118 1089.07L912.868 1089.72C912.868 1087.44 912.168 1085.47 910.358 1084.32C909.095 1083.41 907.976 1082.31 907.038 1081.07C906.748 1080.72 906.448 1080.34 906.148 1079.95C899.218 1070.75 890.438 1051.95 890.438 1051.95C890.438 1051.95 879.228 1054.44 877.978 962.949C877.578 933.129 885.298 911.309 895.888 895.439C917.828 862.579 952.078 855.219 952.078 855.219C964.769 853.011 977.813 854.075 989.978 858.309C994.751 859.983 999.346 862.123 1003.7 864.699C1009.53 868.209 1014.97 872.336 1019.93 877.009L1021.53 878.539C1056.45 912.539 1064.7 965.629 1043.13 1009.36C1036.22 1023.33 1029.99 1035.72 1028.06 1038.86Z" fill="black"/>
<path d="M1023.08 1033.88C1019.7 1039.38 1022.92 1067.31 1026.52 1085.23L1024.06 1085.39C1020.32 1085.64 1016.58 1085.86 1012.85 1086.07C997.898 1086.91 982.928 1087.52 967.958 1088.07C956.958 1088.45 946.068 1088.77 935.128 1089.07L912.878 1089.72L907.128 1089.89C908.008 1086.66 908.338 1083.33 907.048 1081.07C906.809 1080.65 906.509 1080.28 906.158 1079.95C905.928 1079.71 905.67 1079.51 905.388 1079.34C898.538 1074.98 885.458 1046.95 885.458 1046.95C885.458 1046.95 874.258 1049.45 873.008 957.949C872.548 923.689 882.808 899.949 895.828 883.729C917.608 856.559 947.108 850.219 947.108 850.219C950.971 849.578 954.874 849.217 958.788 849.139H958.908C970.459 848.884 981.908 851.35 992.328 856.339C1001.29 860.712 1009.47 866.53 1016.54 873.559C1017.7 874.689 1018.84 875.839 1019.93 877.009C1051.93 911.099 1059.01 962.109 1038.15 1004.38C1031.24 1018.35 1025.01 1030.74 1023.08 1033.88Z" fill="#5F5D7E"/>
<path opacity="0.1" d="M946.048 972.399C946.048 972.399 884.598 1016.01 889.838 1022.01C895.078 1028.01 946.048 972.399 946.048 972.399Z" fill="black"/>
<path opacity="0.1" d="M1032.28 988.109C1032.28 988.109 1013.08 971.009 1014.47 977.639C1015.86 984.269 1032.28 988.109 1032.28 988.109Z" fill="black"/>
<path opacity="0.1" d="M1012.85 1086.07C997.899 1086.91 982.928 1087.52 967.958 1088.07C942.328 1085.07 915.678 1080.66 915.678 1080.66C917.988 1079.31 999.759 1077.68 1012.85 1086.07Z" fill="black"/>
<path opacity="0.1" d="M884.828 1090.53L877.168 1090.75C871.068 1074.09 865.828 1054.33 863.688 1045.94C863.028 1043.35 862.688 1041.84 862.688 1041.84L863.638 1043.84C866.788 1050.41 877.228 1072.33 884.828 1090.53Z" fill="black"/>
<path opacity="0.1" d="M1003.7 714.079C1000.65 722.06 996.529 729.592 991.458 736.469C991.758 737.299 992.058 738.109 992.368 738.929C995.843 747.988 999.85 756.833 1004.37 765.419L1004.67 765.999C1005.19 769.999 1005.91 773.999 1006.74 777.899C991.538 778.699 976.322 779.049 961.088 778.949C954.468 778.949 947.748 778.759 941.438 776.779C938.831 775.956 936.333 774.821 933.998 773.399C932.121 772.261 930.347 770.959 928.698 769.509C920.474 762.078 915.283 751.872 914.118 740.849C913.208 732.259 914.508 723.359 912.018 715.089C911.731 714.169 911.398 713.265 911.018 712.379C908.982 707.669 905.767 703.562 901.682 700.455C897.598 697.347 892.782 695.345 887.698 694.639C886.227 694.319 884.69 694.527 883.358 695.229C882.222 696.175 881.402 697.445 881.008 698.869L870.698 725.759C863.358 727.599 858.178 718.009 858.788 710.469C859.398 702.929 862.788 695.209 860.278 688.069C859.508 685.859 858.198 683.849 857.638 681.589C855.408 672.679 864.988 664.769 865.068 655.589C865.128 648.039 858.668 641.939 851.808 638.799C845.518 635.919 838.568 634.679 832.268 631.869C842.851 613.792 859.089 599.701 878.476 591.769C897.863 583.838 919.321 582.508 939.54 587.984C959.758 593.46 977.612 605.439 990.346 622.07C1003.08 638.702 1009.99 659.063 1010 680.009C1010 681.469 1010 682.909 1009.9 684.349C1009.44 694.528 1007.35 704.567 1003.7 714.079V714.079Z" fill="black"/>
<path d="M909.288 555.399C902.918 554.759 895.918 554.599 890.758 558.399C885.338 562.399 883.538 569.559 879.938 575.249C873.068 586.129 860.108 591.099 849.168 597.869C838.228 604.639 827.868 616.729 831.528 629.069C838.268 632.469 845.918 633.659 852.778 636.799C859.638 639.939 866.098 646.039 866.038 653.589C865.958 662.769 856.378 670.679 858.608 679.589C859.168 681.849 860.478 683.859 861.248 686.069C863.738 693.209 860.368 700.929 859.758 708.469C859.148 716.009 864.328 725.599 871.668 723.759L882.048 696.869C882.442 695.445 883.262 694.174 884.398 693.229C885.73 692.527 887.267 692.318 888.738 692.639C894.295 693.417 899.519 695.749 903.808 699.368C908.097 702.986 911.276 707.742 912.978 713.089C915.468 721.359 914.168 730.259 915.078 738.849C916.748 754.689 927.218 770.009 942.418 774.779C948.728 776.779 955.418 776.909 962.068 776.949C977.288 777.062 992.505 776.712 1007.72 775.899C1003.97 758.259 1002.44 738.769 1011.53 723.209C1015.42 716.549 1021.03 711.059 1025.31 704.639C1032.31 694.179 1035.49 681.689 1038.06 669.379C1040.06 660.049 1041.69 650.509 1040.81 641.019C1039.34 625.109 1030.89 610.809 1022.65 597.129C1018.31 589.919 1013.75 582.479 1006.76 577.819C992.218 568.139 974.398 574.209 958.858 568.649C942.348 562.759 927.258 557.219 909.288 555.399Z" fill="#865A61"/>
<rect x="566" y="421" width="579" height="176" rx="16" transform="rotate(-15 566 421)" fill="#03053D"/>
<path d="M651.256 524.356C648.422 525.115 646.026 524.929 644.066 523.798C642.107 522.666 640.739 520.652 639.962 517.754L626.296 466.753C625.52 463.855 625.697 461.427 626.829 459.467C627.96 457.508 629.975 456.14 632.872 455.363L656.634 448.996C664.362 446.926 670.827 447.229 676.031 449.907C681.282 452.503 684.804 457.15 686.599 463.847C687.962 468.934 687.822 473.561 686.177 477.729C684.581 481.815 681.548 485.181 677.081 487.827C680.946 487.827 684.508 489.53 687.767 492.935L694.926 500.335C696.474 501.991 697.417 503.705 697.754 505.478C698.155 507.234 697.868 508.864 696.89 510.368C695.896 511.808 694.143 512.865 691.631 513.537C689.12 514.21 686.93 514.28 685.061 513.745C683.24 513.129 681.415 511.858 679.588 509.932L666.475 496.156C665.323 494.946 664.066 494.248 662.705 494.061C661.39 493.792 659.96 493.864 658.415 494.278L653.102 495.702L657.735 512.992C658.512 515.89 658.334 518.318 657.203 520.278C656.136 522.22 654.153 523.58 651.256 524.356ZM649.738 483.145L661.522 479.987C668.541 478.106 671.309 474.397 669.825 468.859C668.358 463.385 664.115 461.589 657.096 463.47L645.312 466.627L649.738 483.145ZM719.609 505.109C713.427 506.766 709.516 504.535 707.877 498.418L694.548 448.672C692.909 442.555 695.18 438.668 701.362 437.011L734.107 428.237C738.743 426.995 741.665 428.628 742.873 433.135C744.116 437.772 742.418 440.711 737.782 441.954L712.765 448.657L716.233 461.6L739.125 455.466C743.762 454.224 746.692 455.889 747.917 460.461C749.143 465.033 747.437 467.94 742.8 469.183L719.908 475.317L723.661 489.322L748.678 482.619C753.315 481.377 756.246 483.042 757.471 487.614C758.696 492.186 756.99 495.093 752.354 496.335L719.609 505.109ZM804.915 483.39C797.123 485.478 790.102 485.806 783.852 484.375C777.667 482.927 772.458 479.974 768.227 475.517C763.996 471.061 760.949 465.355 759.086 458.4C757.153 451.188 756.961 444.545 758.508 438.471C760.102 432.315 763.313 427.038 768.138 422.639C772.964 418.24 779.338 414.979 787.258 412.857C790.478 411.994 793.848 411.436 797.369 411.183C800.873 410.865 804.459 411.112 808.128 411.924C810.009 412.248 811.429 413.04 812.388 414.302C813.395 415.482 813.976 416.879 814.133 418.493C814.354 420.09 814.177 421.622 813.604 423.087C813.013 424.487 812.037 425.611 810.677 426.459C809.381 427.289 807.687 427.536 805.595 427.2C801.102 426.402 796.377 426.667 791.418 427.996C784.914 429.739 780.518 432.78 778.23 437.12C776.007 441.443 775.775 446.888 777.535 453.457C779.295 460.025 782.233 464.552 786.35 467.038C790.467 469.524 795.681 469.921 801.992 468.23C804.954 467.436 808.15 466.097 811.579 464.212L808.706 453.49L801.944 455.302C797.372 456.527 794.525 455.047 793.404 450.861C792.3 446.74 794.033 444.067 798.605 442.842L812.901 439.011C817.538 437.769 820.477 439.466 821.719 444.102L827.439 465.449C827.957 467.381 827.978 469.135 827.504 470.712C827.093 472.271 826.096 473.574 824.513 474.619C821.698 476.478 818.597 478.171 815.211 479.7C811.889 481.211 808.457 482.441 804.915 483.39ZM851.138 470.798C848.305 471.557 845.908 471.371 843.949 470.239C841.989 469.108 840.612 467.061 839.819 464.099L825.972 412.422C825.178 409.46 825.347 406.999 826.478 405.039C827.61 403.08 829.592 401.72 832.425 400.961C835.259 400.202 837.655 400.388 839.615 401.52C841.575 402.651 842.951 404.698 843.745 407.66L857.592 459.337C858.385 462.299 858.217 464.76 857.085 466.72C856.018 468.662 854.036 470.021 851.138 470.798ZM897.701 458.528C893.773 459.581 889.613 460.281 885.22 460.63C880.875 460.897 877.022 460.687 873.663 460C871.7 459.629 870.175 458.83 869.087 457.603C867.999 456.376 867.353 454.996 867.149 453.463C866.929 451.866 867.114 450.367 867.704 448.966C868.278 447.501 869.254 446.377 870.631 445.594C871.992 444.746 873.718 444.491 875.809 444.827C878.584 445.395 881.603 445.587 884.867 445.403C888.113 445.154 891.089 444.667 893.793 443.943C898.043 442.804 900.859 441.463 902.24 439.919C903.668 438.294 904.158 436.645 903.709 434.971C903.312 433.49 902.381 432.462 900.916 431.888C899.515 431.297 897.216 431.086 894.016 431.253L882.068 431.866C869.126 432.504 861.291 427.736 858.565 417.562C857.374 413.118 857.522 408.903 859.007 404.916C860.557 400.912 863.247 397.43 867.079 394.471C870.893 391.448 875.666 389.168 881.397 387.632C884.745 386.735 888.23 386.216 891.85 386.074C895.517 385.851 898.804 386.143 901.713 386.951C903.921 387.464 905.524 388.553 906.522 390.218C907.503 391.818 907.896 393.542 907.7 395.389C907.505 397.236 906.674 398.77 905.207 399.991C903.804 401.195 901.709 401.619 898.921 401.261C896.765 400.942 894.476 400.899 892.054 401.134C889.615 401.304 887.301 401.683 885.112 402.27C881.506 403.236 878.909 404.622 877.322 406.427C875.718 408.169 875.184 410.037 875.719 412.033C876.098 413.45 876.988 414.454 878.389 415.045C879.79 415.636 882.057 415.856 885.192 415.707L897.044 415.119C910.18 414.429 918.067 419.011 920.707 428.863C921.898 433.306 921.742 437.489 920.239 441.412C918.737 445.334 916.07 448.775 912.238 451.734C908.407 454.693 903.561 456.958 897.701 458.528ZM958.766 441.959C955.932 442.718 953.536 442.532 951.576 441.401C949.617 440.269 948.249 438.255 947.472 435.357L935.282 389.862L920.117 393.925C915.223 395.237 912.129 393.478 910.834 388.648C909.54 383.818 911.34 380.748 916.234 379.437L964.337 366.547C969.232 365.236 972.326 366.995 973.62 371.825C974.914 376.654 973.114 379.725 968.22 381.036L953.055 385.1L965.245 430.595C966.022 433.493 965.844 435.921 964.713 437.881C963.646 439.823 961.663 441.183 958.766 441.959ZM1005.05 428.626C998.865 430.283 994.955 428.052 993.316 421.935L979.986 372.189C978.347 366.072 980.619 362.185 986.801 360.528L1019.55 351.754C1024.18 350.512 1027.1 352.145 1028.31 356.652C1029.55 361.289 1027.86 364.228 1023.22 365.471L998.203 372.174L1001.67 385.117L1024.56 378.983C1029.2 377.741 1032.13 379.406 1033.36 383.978C1034.58 388.55 1032.88 391.457 1028.24 392.699L1005.35 398.834L1009.1 412.839L1034.12 406.136C1038.75 404.894 1041.68 406.559 1042.91 411.131C1044.13 415.703 1042.43 418.61 1037.79 419.852L1005.05 428.626ZM1064.23 413.701C1061.39 414.46 1059 414.274 1057.04 413.143C1055.08 412.011 1053.71 409.997 1052.93 407.099L1039.27 356.098C1038.49 353.2 1038.67 350.772 1039.8 348.812C1040.93 346.852 1042.95 345.484 1045.84 344.708L1069.61 338.341C1077.33 336.27 1083.8 336.574 1089 339.252C1094.25 341.848 1097.78 346.494 1099.57 353.191C1100.93 358.279 1100.79 362.906 1099.15 367.074C1097.55 371.159 1094.52 374.526 1090.05 377.172C1093.92 377.172 1097.48 378.874 1100.74 382.28L1107.9 389.679C1109.45 391.335 1110.39 393.05 1110.73 394.823C1111.13 396.579 1110.84 398.209 1109.86 399.713C1108.87 401.153 1107.11 402.209 1104.6 402.882C1102.09 403.555 1099.9 403.624 1098.03 403.09C1096.21 402.474 1094.39 401.202 1092.56 399.276L1079.45 385.501C1078.29 384.291 1077.04 383.593 1075.68 383.405C1074.36 383.136 1072.93 383.209 1071.39 383.623L1066.07 385.047L1070.71 402.337C1071.48 405.234 1071.31 407.663 1070.17 409.623C1069.11 411.565 1067.12 412.924 1064.23 413.701ZM1062.71 372.489L1074.49 369.332C1081.51 367.451 1084.28 363.742 1082.8 358.204C1081.33 352.73 1077.09 350.934 1070.07 352.815L1058.28 355.972L1062.71 372.489Z" fill="white"/>
<circle cx="151.5" cy="729.5" r="20.5" fill="#6B35C3"/>
<circle cx="908" cy="1141" r="10" fill="#6B35C3"/>
<circle cx="373.5" cy="1180.5" r="20.5" fill="#6B35C3"/>
</svg>
