<svg width="1222" height="1262" viewBox="0 0 1222 1262" fill="none" xmlns="http://www.w3.org/2000/svg">
<path d="M211.637 732.311C261.133 525.04 -149.119 199.11 59.6377 156.311C239.69 119.398 591.634 404.31 790.023 356.623C966.031 314.316 885.802 509.764 915.634 688.31C950.067 894.389 1130.02 1320.62 854.023 1200.62C578.023 1080.62 330.195 1427.38 179.637 1152.31C67.1364 946.77 157.212 960.217 211.637 732.311Z" fill="#C39EFF"/>
<path d="M962 295.5C962 329.419 951.942 362.577 933.097 390.78C914.252 418.983 887.468 440.965 856.13 453.945C824.793 466.926 790.31 470.322 757.042 463.705C723.774 457.087 693.216 440.754 669.231 416.769C645.246 392.784 628.913 362.226 622.295 328.958C615.678 295.69 619.074 261.207 632.055 229.87C645.035 198.532 667.017 171.748 695.22 152.903C723.423 134.058 756.581 124 790.5 124" stroke="#941BBE" stroke-width="64" stroke-linecap="round"/>
<circle cx="790.5" cy="295.5" r="102.5" fill="#941BBE"/>
<circle cx="790.5" cy="295.5" r="275.5" stroke="#941BBE" stroke-width="40"/>
<path d="M790.998 530.999C679.998 534.997 392.997 360.998 319.997 436.999C246.997 513.001 290.997 586.999 290.997 586.999C290.997 586.999 334.997 666.999 319.997 730.001C304.997 793.002 201.997 906.001 211.997 964C221.997 1022 367.997 1037 483.997 1075C599.997 1113 1092 1076 1092 1076C1092 1076 1246 1068 1218 980C1190 891.999 1079 839 1079 778.999C1079 718.998 1193 632.998 1193 574.999C1193 496.423 1105 431 1013 449.999C920.998 468.998 901.998 527.001 790.998 530.999Z" fill="#6B35C3"/>
<path opacity="0.1" d="M539.837 545.109H538.547C539.571 543.966 540.134 542.484 540.127 540.949V540.949C540.187 539.419 539.637 537.928 538.598 536.803C537.56 535.678 536.117 535.012 534.587 534.949H495.747C494.217 535.012 492.775 535.678 491.736 536.803C490.698 537.928 490.148 539.419 490.207 540.949V540.949C490.148 542.479 490.698 543.97 491.736 545.095C492.775 546.22 494.217 546.887 495.747 546.949H497.047C496.019 548.091 495.453 549.573 495.457 551.109C495.432 552.407 495.833 553.677 496.599 554.724C497.365 555.772 498.453 556.54 499.697 556.909H488.517C487.047 557.069 485.687 557.766 484.699 558.867C483.711 559.968 483.164 561.395 483.164 562.874C483.164 564.353 483.711 565.781 484.699 566.882C485.687 567.982 487.047 568.68 488.517 568.839H527.357C528.887 568.777 530.33 568.11 531.368 566.985C532.407 565.86 532.957 564.369 532.897 562.839C532.935 561.541 532.544 560.266 531.785 559.213C531.026 558.159 529.941 557.384 528.697 557.009H539.877C541.357 556.861 542.729 556.168 543.727 555.064C544.725 553.961 545.278 552.527 545.278 551.039C545.278 549.552 544.725 548.117 543.727 547.014C542.729 545.911 541.357 545.218 539.877 545.069L539.837 545.109Z" fill="white"/>
<circle cx="709.5" cy="1197.5" r="16.5" fill="#6B35C3"/>
<circle cx="313.5" cy="277.5" r="6.5" fill="#6B35C3"/>
<circle cx="216.997" cy="590.999" r="16" fill="#6B35C3"/>
<circle cx="369" cy="278" r="16" fill="#6B35C3"/>
<circle cx="1116" cy="774.999" r="14" fill="#6B35C3"/>
<circle cx="1171.5" cy="713.499" r="21.5" fill="#6B35C3"/>
<path d="M771.288 442.088L766.637 443.335L731.648 319.871C726.277 300.919 713.358 284.825 695.731 275.129C678.105 265.434 657.216 262.931 637.659 268.171L367.736 340.497C358.052 343.091 348.987 347.509 341.059 353.497C333.13 359.485 326.493 366.927 321.526 375.397C316.559 383.867 313.36 393.2 312.112 402.863C310.863 412.525 311.589 422.328 314.248 431.712L506.202 1109.05C511.573 1128 524.493 1144.09 542.119 1153.79C559.746 1163.48 580.635 1165.99 600.192 1160.75L870.115 1088.42C879.798 1085.82 888.863 1081.41 896.792 1075.42C904.72 1069.43 911.358 1061.99 916.324 1053.52C921.291 1045.05 924.49 1035.72 925.739 1026.05C926.988 1016.39 926.262 1006.59 923.602 997.204L791.543 531.218L796.194 529.972L771.288 442.088Z" fill="#3F3D56"/>
<path d="M645.903 285.964L610.669 295.405C613.38 298.821 615.182 302.832 615.917 307.085C616.651 311.338 616.295 315.703 614.88 319.795C613.465 323.887 611.034 327.58 607.802 330.55C604.57 333.519 600.635 335.674 596.345 336.824L441.709 378.258C437.419 379.408 432.905 379.517 428.565 378.576C424.224 377.636 420.191 375.674 416.82 372.865C413.449 370.055 410.844 366.484 409.234 362.465C407.624 358.447 407.059 354.104 407.588 349.821L374.68 358.638C360.075 362.552 347.662 371.927 340.171 384.702C332.68 397.476 330.725 412.604 334.736 426.757L526.409 1103.1C528.395 1110.1 531.786 1116.66 536.388 1122.39C540.99 1128.13 546.713 1132.92 553.231 1136.51C559.749 1140.09 566.933 1142.4 574.374 1143.29C581.815 1144.18 589.367 1143.64 596.599 1141.71L867.822 1069.03C875.053 1067.09 881.823 1063.79 887.744 1059.32C893.665 1054.85 898.622 1049.29 902.331 1042.97C906.04 1036.64 908.429 1029.67 909.361 1022.46C910.294 1015.24 909.752 1007.92 907.766 1000.91V1000.91L716.093 324.573C714.107 317.565 710.716 311.008 706.114 305.275C701.512 299.542 695.788 294.746 689.271 291.161C682.753 287.576 675.568 285.272 668.127 284.38C660.686 283.488 653.134 284.027 645.903 285.964V285.964Z" fill="white"/>
<path d="M646.933 810.652C700.28 796.358 731.938 741.524 717.644 688.177C703.35 634.831 648.516 603.173 595.169 617.467C541.823 631.761 510.165 686.595 524.459 739.941C538.753 793.288 593.587 824.946 646.933 810.652Z" fill="#6B35C3"/>
<path d="M621.888 752.795C619.716 753.381 617.413 753.245 615.325 752.407L615.195 752.355L587.842 741.072C586.574 740.548 585.423 739.779 584.453 738.81C583.482 737.841 582.713 736.69 582.187 735.423C581.662 734.156 581.391 732.798 581.39 731.426C581.39 730.055 581.659 728.697 582.184 727.429C582.708 726.162 583.477 725.01 584.446 724.04C585.416 723.07 586.567 722.3 587.833 721.775C589.1 721.249 590.458 720.979 591.83 720.978C593.201 720.978 594.56 721.247 595.827 721.771L613.552 729.107L636.151 674.468C636.675 673.201 637.444 672.05 638.413 671.08C639.382 670.11 640.532 669.341 641.798 668.816C643.065 668.29 644.422 668.02 645.793 668.019C647.164 668.019 648.522 668.288 649.789 668.812L649.792 668.814L649.657 669.171L649.798 668.812C652.355 669.873 654.386 671.906 655.446 674.463C656.506 677.02 656.508 679.894 655.452 682.453L628.864 746.697C628.247 748.178 627.298 749.497 626.089 750.553C624.881 751.608 623.445 752.37 621.894 752.781L621.888 752.795Z" fill="white"/>
<path opacity="0.1" d="M1020.3 788.259H1019C1020.03 787.119 1020.59 785.635 1020.58 784.099V784.099C1020.64 782.569 1020.09 781.078 1019.05 779.953C1018.01 778.828 1016.57 778.162 1015.04 778.099H976.198C974.669 778.164 973.228 778.832 972.19 779.956C971.152 781.08 970.601 782.57 970.658 784.099V784.099C970.601 785.628 971.152 787.118 972.19 788.242C973.228 789.366 974.669 790.034 976.198 790.099H977.498C976.473 791.241 975.91 792.724 975.918 794.259C975.89 795.556 976.29 796.826 977.057 797.873C977.823 798.92 978.913 799.684 980.158 800.049H968.978C967.498 800.198 966.126 800.891 965.128 801.994C964.13 803.097 963.577 804.532 963.577 806.019C963.577 807.507 964.13 808.941 965.128 810.044C966.126 811.147 967.498 811.841 968.978 811.989H1007.82C1009.35 811.924 1010.79 811.256 1011.83 810.132C1012.86 809.008 1013.41 807.518 1013.36 805.989C1013.38 804.693 1012.98 803.423 1012.22 802.377C1011.45 801.331 1010.36 800.565 1009.12 800.199H1020.3C1021.78 800.051 1023.15 799.357 1024.15 798.254C1025.15 797.151 1025.7 795.717 1025.7 794.229C1025.7 792.742 1025.15 791.307 1024.15 790.204C1023.15 789.101 1021.78 788.408 1020.3 788.259V788.259Z" fill="#6C63FF"/>
<path opacity="0.1" d="M689.428 783.129C688.614 783.013 687.784 783.077 686.998 783.319L688.788 776.099L690.978 776.639C690.732 778.858 690.211 781.038 689.428 783.129V783.129Z" fill="black"/>
<path d="M842.488 957.289L798.898 1010.22C798.898 1010.22 796.978 1007.99 793.738 1004.17C775.638 982.939 716.078 912.629 716.078 906.669C716.078 899.669 685.568 870.109 685.568 870.109C685.568 870.109 658.168 847.109 673.108 775.429C688.048 703.749 723.548 843.949 722.308 853.289C721.068 862.629 742.228 887.539 742.228 887.539C742.228 887.539 769.008 900.619 782.708 914.939C792.348 925.019 818.018 941.879 832.378 950.939C838.438 954.819 842.488 957.289 842.488 957.289Z" fill="#FDC2CC"/>
<path opacity="0.1" d="M842.489 957.289L798.899 1010.22C798.899 1010.22 796.979 1007.99 793.739 1004.17C794.439 989.349 825.739 956.649 831.279 951.679C831.604 951.387 831.976 951.151 832.379 950.979C838.439 954.819 842.489 957.289 842.489 957.289Z" fill="black"/>
<path d="M861.168 966.009C861.168 966.009 841.238 947.329 835.018 952.939C828.798 958.549 789.558 999.639 798.898 1010.23C808.238 1020.82 864.278 1065.01 864.278 1065.01L861.168 966.009Z" fill="#5F5D7E"/>
<path opacity="0.1" d="M861.168 966.009C861.168 966.009 841.238 947.329 835.018 952.939C828.798 958.549 789.558 999.639 798.898 1010.23C808.238 1020.82 864.278 1065.01 864.278 1065.01L861.168 966.009Z" fill="black"/>
<path d="M1036.15 817.179C1036.15 817.179 1016.7 835.949 992.338 856.309L991.418 857.069L989.998 858.249C951.138 890.389 901.058 925.069 895.898 895.389C895.32 891.515 895.297 887.579 895.828 883.699C895.888 883.129 895.968 882.539 896.048 881.939C896.128 881.339 896.208 880.779 896.268 880.209C897.238 872.729 897.776 865.2 897.878 857.659C897.878 856.389 897.878 855.129 897.878 853.879C897.622 826.272 892.195 798.957 881.878 773.349C881.278 771.829 880.668 770.349 880.078 768.939C872.078 749.859 864.248 738.719 864.248 738.719C864.248 738.719 875.818 731.719 891.858 722.719C897.748 719.439 904.228 715.909 910.968 712.369C947.968 692.969 992.458 673.569 986.298 696.369C983.388 707.159 986.088 721.479 991.448 736.469C991.748 737.299 992.048 738.109 992.358 738.929C995.833 747.987 999.84 756.833 1004.36 765.419L1004.66 765.999C1011.09 778.319 1018.02 789.829 1023.76 798.779C1025.14 800.939 1026.45 802.959 1027.67 804.779C1032.7 812.479 1036.15 817.179 1036.15 817.179Z" fill="#FDC2CC"/>
<path opacity="0.1" d="M992.388 738.929C992.098 739.359 991.788 739.789 991.478 740.209C982.138 752.909 971.328 760.469 958.478 764.729C949.618 767.679 939.758 769.069 928.708 769.509C925.958 769.609 923.148 769.659 920.248 769.659C913.565 769.671 906.886 769.287 900.248 768.509C896.758 767.959 893.108 770.309 889.578 772.029C886.948 773.299 884.378 774.229 881.978 773.349C881.378 771.829 880.768 770.349 880.178 768.939C872.178 749.859 864.348 738.719 864.348 738.719C864.348 738.719 875.918 731.719 891.958 722.719C897.848 719.439 904.328 715.909 911.068 712.369C948.068 692.969 992.558 673.569 986.398 696.369C983.488 707.159 986.188 721.479 991.548 736.469C991.778 737.299 992.078 738.109 992.388 738.929Z" fill="black"/>
<path d="M1010 680.009C1010 681.469 1010 682.909 1009.9 684.349C1008.94 705.522 1000.96 725.774 987.21 741.905C973.462 758.036 954.732 769.128 933.978 773.429C922.626 775.765 910.944 776.026 899.498 774.199C896.128 773.673 892.789 772.958 889.498 772.059C886.313 771.195 883.175 770.164 880.098 768.969V768.969C867.369 764.02 855.849 756.398 846.317 746.616C836.786 736.834 829.464 725.121 824.847 712.268C820.23 699.414 818.424 685.719 819.553 672.108C820.681 658.497 824.717 645.287 831.388 633.369L832.228 631.899C842.801 613.805 859.037 599.695 878.43 591.75C897.822 583.804 919.291 582.466 939.52 587.94C959.749 593.415 977.613 605.398 990.351 622.039C1003.09 638.68 1009.99 659.052 1010 680.009V680.009Z" fill="#FDC2CC"/>
<path opacity="0.1" d="M1036.15 817.179C1036.15 817.179 884.829 963.509 896.039 881.939C897.309 872.64 897.931 863.264 897.898 853.879C903.15 847.387 908.727 841.166 914.608 835.239L935.868 819.869C957.79 803.869 984.519 795.839 1011.63 797.109C1015.72 797.213 1019.78 797.773 1023.75 798.779C1030.88 809.949 1036.15 817.179 1036.15 817.179Z" fill="black"/>
<path d="M1143.4 1068.4C1137.86 1070.05 1132.19 1071.48 1126.47 1072.73C1123.65 1073.36 1120.81 1073.94 1117.97 1074.48C1113.14 1075.41 1108.29 1076.24 1103.47 1077C1079.33 1080.79 1054.97 1083.25 1030.47 1085L1026.47 1085.27L1024.01 1085.43C1020.27 1085.68 1016.53 1085.9 1012.8 1086.11C997.848 1086.95 982.878 1087.56 967.908 1088.11C956.908 1088.49 946.018 1088.81 935.078 1089.11L912.828 1089.76L907.078 1089.93L904.558 1090C897.972 1090.2 891.378 1090.39 884.778 1090.57L877.118 1090.79L862.888 1091.18L859.888 1091.26C859.088 1084.2 857.618 1071.37 856.058 1058.56L855.698 1055.56C853.978 1041.43 852.198 1027.86 851.168 1022.72C848.678 1010.27 851.168 958.579 851.168 958.579L851.438 958.149L852.618 956.149C858.508 946.319 880.348 908.699 879.808 892.529C879.488 882.879 888.808 868.919 897.808 857.669C898.988 856.209 900.158 854.789 901.308 853.439C908.478 845.009 914.618 839.009 914.618 839.009L935.868 823.629C957.8 807.645 984.53 799.623 1011.64 800.889C1019.64 801.299 1026.02 802.419 1027.64 804.829C1028.33 805.219 1043.83 814.119 1060.83 833.979C1069.11 843.648 1076.31 854.19 1082.31 865.419C1082.49 865.739 1082.67 866.069 1082.84 866.419C1082.84 866.419 1121.45 930.559 1126.43 969.169C1131.41 1007.78 1138.89 1039.53 1138.89 1039.53C1138.89 1039.53 1141.02 1051.72 1143.4 1068.4Z" fill="#5F5D7E"/>
<path opacity="0.1" d="M1028.06 1038.86C1024.99 1043.86 1027.36 1067.27 1030.51 1084.96L1026.51 1085.23L1024.05 1085.39C1020.31 1085.64 1016.57 1085.86 1012.84 1086.07C997.888 1086.91 982.918 1087.52 967.948 1088.07C956.948 1088.45 946.058 1088.77 935.118 1089.07L912.868 1089.72C912.868 1087.44 912.168 1085.47 910.358 1084.32C909.095 1083.41 907.976 1082.31 907.038 1081.07C906.748 1080.72 906.448 1080.34 906.148 1079.95C899.218 1070.75 890.438 1051.95 890.438 1051.95C890.438 1051.95 879.228 1054.44 877.978 962.949C877.578 933.129 885.298 911.309 895.888 895.439C917.828 862.579 952.078 855.219 952.078 855.219C964.769 853.011 977.813 854.075 989.978 858.309C994.751 859.983 999.346 862.123 1003.7 864.699C1009.53 868.209 1014.97 872.336 1019.93 877.009L1021.53 878.539C1056.45 912.539 1064.7 965.629 1043.13 1009.36C1036.22 1023.33 1029.99 1035.72 1028.06 1038.86Z" fill="black"/>
<path d="M1023.08 1033.88C1019.7 1039.38 1022.92 1067.31 1026.52 1085.23L1024.06 1085.39C1020.32 1085.64 1016.58 1085.86 1012.85 1086.07C997.898 1086.91 982.928 1087.52 967.958 1088.07C956.958 1088.45 946.068 1088.77 935.128 1089.07L912.878 1089.72L907.128 1089.89C908.008 1086.66 908.338 1083.33 907.048 1081.07C906.809 1080.65 906.509 1080.28 906.158 1079.95C905.928 1079.71 905.67 1079.51 905.388 1079.34C898.538 1074.98 885.458 1046.95 885.458 1046.95C885.458 1046.95 874.258 1049.45 873.008 957.949C872.548 923.689 882.808 899.949 895.828 883.729C917.608 856.559 947.108 850.219 947.108 850.219C950.971 849.578 954.874 849.217 958.788 849.139H958.908C970.459 848.884 981.908 851.35 992.328 856.339C1001.29 860.712 1009.47 866.53 1016.54 873.559C1017.7 874.689 1018.84 875.839 1019.93 877.009C1051.93 911.099 1059.01 962.109 1038.15 1004.38C1031.24 1018.35 1025.01 1030.74 1023.08 1033.88Z" fill="#5F5D7E"/>
<path opacity="0.1" d="M946.048 972.399C946.048 972.399 884.598 1016.01 889.838 1022.01C895.078 1028.01 946.048 972.399 946.048 972.399Z" fill="black"/>
<path opacity="0.1" d="M1032.28 988.109C1032.28 988.109 1013.08 971.009 1014.47 977.639C1015.86 984.269 1032.28 988.109 1032.28 988.109Z" fill="black"/>
<path opacity="0.1" d="M1012.85 1086.07C997.899 1086.91 982.928 1087.52 967.958 1088.07C942.328 1085.07 915.678 1080.66 915.678 1080.66C917.988 1079.31 999.759 1077.68 1012.85 1086.07Z" fill="black"/>
<path opacity="0.1" d="M884.828 1090.53L877.168 1090.75C871.068 1074.09 865.828 1054.33 863.688 1045.94C863.028 1043.35 862.688 1041.84 862.688 1041.84L863.638 1043.84C866.788 1050.41 877.228 1072.33 884.828 1090.53Z" fill="black"/>
<path opacity="0.1" d="M1003.7 714.079C1000.65 722.06 996.529 729.592 991.458 736.469C991.758 737.299 992.058 738.109 992.368 738.929C995.843 747.988 999.85 756.833 1004.37 765.419L1004.67 765.999C1005.19 769.999 1005.91 773.999 1006.74 777.899C991.538 778.699 976.322 779.049 961.088 778.949C954.468 778.949 947.748 778.759 941.438 776.779C938.831 775.956 936.333 774.821 933.998 773.399C932.121 772.261 930.347 770.959 928.698 769.509C920.474 762.078 915.283 751.872 914.118 740.849C913.208 732.259 914.508 723.359 912.018 715.089C911.731 714.169 911.398 713.265 911.018 712.379C908.982 707.669 905.767 703.562 901.682 700.455C897.598 697.347 892.782 695.345 887.698 694.639C886.227 694.319 884.69 694.527 883.358 695.229C882.222 696.175 881.402 697.445 881.008 698.869L870.698 725.759C863.358 727.599 858.178 718.009 858.788 710.469C859.398 702.929 862.788 695.209 860.278 688.069C859.508 685.859 858.198 683.849 857.638 681.589C855.408 672.679 864.988 664.769 865.068 655.589C865.128 648.039 858.668 641.939 851.808 638.799C845.518 635.919 838.568 634.679 832.268 631.869C842.851 613.792 859.089 599.701 878.476 591.769C897.863 583.838 919.321 582.508 939.54 587.984C959.758 593.46 977.612 605.439 990.346 622.07C1003.08 638.702 1009.99 659.063 1010 680.009C1010 681.469 1010 682.909 1009.9 684.349C1009.44 694.528 1007.35 704.567 1003.7 714.079V714.079Z" fill="black"/>
<path d="M909.288 555.399C902.918 554.759 895.918 554.599 890.758 558.399C885.338 562.399 883.538 569.559 879.938 575.249C873.068 586.129 860.108 591.099 849.168 597.869C838.228 604.639 827.868 616.729 831.528 629.069C838.268 632.469 845.918 633.659 852.778 636.799C859.638 639.939 866.098 646.039 866.038 653.589C865.958 662.769 856.378 670.679 858.608 679.589C859.168 681.849 860.478 683.859 861.248 686.069C863.738 693.209 860.368 700.929 859.758 708.469C859.148 716.009 864.328 725.599 871.668 723.759L882.048 696.869C882.442 695.445 883.262 694.174 884.398 693.229C885.73 692.527 887.267 692.318 888.738 692.639C894.295 693.417 899.519 695.749 903.808 699.368C908.097 702.986 911.276 707.742 912.978 713.089C915.468 721.359 914.168 730.259 915.078 738.849C916.748 754.689 927.218 770.009 942.418 774.779C948.728 776.779 955.418 776.909 962.068 776.949C977.288 777.062 992.505 776.712 1007.72 775.899C1003.97 758.259 1002.44 738.769 1011.53 723.209C1015.42 716.549 1021.03 711.059 1025.31 704.639C1032.31 694.179 1035.49 681.689 1038.06 669.379C1040.06 660.049 1041.69 650.509 1040.81 641.019C1039.34 625.109 1030.89 610.809 1022.65 597.129C1018.31 589.919 1013.75 582.479 1006.76 577.819C992.218 568.139 974.398 574.209 958.858 568.649C942.348 562.759 927.258 557.219 909.288 555.399Z" fill="#865A61"/>
<rect x="566" y="421" width="463" height="176" rx="16" transform="rotate(-15 566 421)" fill="#03053D"/>
<path d="M667.728 520.149C663.8 521.202 659.64 521.903 655.247 522.251C650.901 522.519 647.049 522.308 643.69 521.621C641.727 521.25 640.201 520.451 639.114 519.224C638.026 517.997 637.38 516.617 637.176 515.084C636.955 513.487 637.14 511.988 637.731 510.587C638.305 509.122 639.28 507.998 640.658 507.215C642.018 506.367 643.744 506.112 645.836 506.449C648.611 507.016 651.63 507.208 654.894 507.024C658.14 506.775 661.115 506.289 663.82 505.564C668.07 504.425 670.885 503.084 672.266 501.541C673.695 499.916 674.184 498.266 673.736 496.592C673.339 495.111 672.408 494.083 670.943 493.51C669.542 492.919 667.242 492.707 664.043 492.874L652.095 493.487C639.152 494.125 631.318 489.357 628.592 479.183C627.401 474.739 627.548 470.524 629.034 466.537C630.584 462.533 633.274 459.051 637.105 456.092C640.92 453.069 645.692 450.789 651.423 449.254C654.772 448.356 658.256 447.837 661.876 447.695C665.543 447.472 668.831 447.764 671.739 448.572C673.947 449.085 675.55 450.174 676.549 451.839C677.53 453.439 677.922 455.163 677.727 457.01C677.532 458.857 676.701 460.391 675.233 461.612C673.83 462.816 671.735 463.24 668.948 462.882C666.792 462.563 664.503 462.52 662.081 462.755C659.642 462.926 657.328 463.304 655.138 463.891C651.532 464.857 648.936 466.243 647.349 468.049C645.745 469.79 645.21 471.658 645.745 473.655C646.125 475.071 647.015 476.075 648.416 476.666C649.816 477.257 652.084 477.478 655.219 477.328L667.071 476.74C680.206 476.05 688.094 480.632 690.734 490.484C691.925 494.927 691.769 499.11 690.266 503.033C688.763 506.955 686.096 510.396 682.265 513.355C678.434 516.315 673.588 518.579 667.728 520.149ZM714.173 507.497C711.339 508.257 708.943 508.071 706.983 506.939C705.024 505.808 703.647 503.761 702.853 500.799L689.007 449.122C688.213 446.16 688.382 443.699 689.513 441.739C690.644 439.78 692.627 438.42 695.46 437.661C698.294 436.902 700.69 437.088 702.65 438.219C704.609 439.351 705.986 441.397 706.78 444.36L720.626 496.037C721.42 498.999 721.251 501.46 720.12 503.419C719.053 505.362 717.071 506.721 714.173 507.497ZM770.202 492.691C762.41 494.779 755.39 495.108 749.139 493.676C742.954 492.228 737.746 489.275 733.515 484.819C729.284 480.362 726.236 474.656 724.373 467.702C722.44 460.489 722.248 453.846 723.795 447.772C725.389 441.616 728.6 436.339 733.425 431.94C738.251 427.541 744.625 424.28 752.545 422.158C755.765 421.295 759.135 420.737 762.656 420.484C766.16 420.166 769.746 420.413 773.415 421.225C775.296 421.549 776.716 422.342 777.676 423.603C778.682 424.783 779.263 426.18 779.42 427.794C779.641 429.392 779.464 430.923 778.891 432.388C778.3 433.789 777.324 434.913 775.964 435.76C774.668 436.591 772.974 436.838 770.882 436.501C766.389 435.703 761.664 435.969 756.705 437.297C750.201 439.04 745.805 442.081 743.517 446.421C741.294 450.744 741.062 456.19 742.822 462.758C744.582 469.326 747.52 473.853 751.637 476.339C755.754 478.825 760.968 479.222 767.279 477.532C770.241 476.738 773.437 475.398 776.866 473.513L773.993 462.792L767.231 464.603C762.659 465.828 759.812 464.348 758.691 460.162C757.587 456.041 759.32 453.368 763.893 452.143L778.188 448.312C782.825 447.07 785.764 448.767 787.006 453.404L792.726 474.751C793.244 476.682 793.265 478.437 792.791 480.013C792.38 481.573 791.383 482.875 789.8 483.92C786.985 485.779 783.884 487.472 780.498 489.001C777.176 490.512 773.744 491.742 770.202 492.691ZM815.846 480.254C810.308 481.738 806.788 479.679 805.287 474.077L791.181 421.434C790.422 418.6 790.552 416.253 791.572 414.393C792.575 412.467 794.235 411.194 796.553 410.573C798.614 410.021 800.295 409.985 801.597 410.464C802.963 410.926 804.628 411.86 806.593 413.267L843.851 440.657L835.388 409.071C833.904 403.533 835.899 400.031 841.372 398.564C844.077 397.839 846.304 398.036 848.053 399.155C849.849 400.192 851.101 402.031 851.809 404.671L866.147 458.183C866.803 460.63 866.685 462.767 865.794 464.593C864.886 466.355 863.337 467.529 861.147 468.116C858.958 468.702 857.116 468.782 855.621 468.354C854.19 467.909 852.525 466.975 850.625 465.552L813.367 438.162L821.804 469.651C823.305 475.253 821.319 478.788 815.846 480.254ZM917.262 453.08C914.429 453.839 912.033 453.653 910.073 452.521C908.113 451.39 906.737 449.343 905.943 446.381L892.096 394.704C891.303 391.742 891.471 389.281 892.603 387.321C893.734 385.362 895.716 384.003 898.55 383.243C901.383 382.484 903.78 382.67 905.739 383.802C907.699 384.933 909.076 386.98 909.869 389.942L923.716 441.619C924.51 444.581 924.341 447.042 923.21 449.002C922.143 450.944 920.16 452.303 917.262 453.08ZM946.774 445.172C941.236 446.656 937.716 444.597 936.215 438.995L922.109 386.352C921.35 383.518 921.481 381.171 922.5 379.31C923.503 377.385 925.163 376.112 927.482 375.491C929.542 374.939 931.223 374.903 932.525 375.382C933.891 375.844 935.557 376.778 937.521 378.185L974.779 405.575L966.316 373.989C964.832 368.451 966.827 364.949 972.301 363.482C975.005 362.757 977.232 362.954 978.981 364.073C980.777 365.11 982.029 366.949 982.737 369.589L997.075 423.101C997.731 425.548 997.613 427.685 996.722 429.511C995.814 431.273 994.265 432.447 992.076 433.034C989.886 433.62 988.044 433.7 986.549 433.272C985.119 432.827 983.453 431.893 981.554 430.47L944.295 403.08L952.732 434.569C954.234 440.171 952.247 443.706 946.774 445.172Z" fill="white"/>
<circle cx="151.5" cy="729.5" r="20.5" fill="#6B35C3"/>
<circle cx="908" cy="1141" r="10" fill="#6B35C3"/>
<circle cx="373.5" cy="1180.5" r="20.5" fill="#6B35C3"/>
</svg>
