<svg width="1222" height="1262" viewBox="0 0 1222 1262" fill="none" xmlns="http://www.w3.org/2000/svg">
<path d="M211.637 732.311C261.133 525.04 -149.119 199.11 59.6377 156.311C239.69 119.398 591.634 404.31 790.023 356.623C966.031 314.316 885.802 509.764 915.634 688.31C950.067 894.389 1130.02 1320.62 854.023 1200.62C578.023 1080.62 330.195 1427.38 179.637 1152.31C67.1364 946.77 157.212 960.217 211.637 732.311Z" fill="#C39EFF"/>
<path d="M962 295.5C962 329.419 951.942 362.577 933.097 390.78C914.252 418.983 887.468 440.965 856.13 453.945C824.793 466.926 790.31 470.322 757.042 463.705C723.774 457.087 693.216 440.754 669.231 416.769C645.246 392.784 628.913 362.226 622.295 328.958C615.678 295.69 619.074 261.207 632.055 229.87C645.035 198.532 667.017 171.748 695.22 152.903C723.423 134.058 756.581 124 790.5 124" stroke="#941BBE" stroke-width="64" stroke-linecap="round"/>
<circle cx="790.5" cy="295.5" r="102.5" fill="#941BBE"/>
<circle cx="790.5" cy="295.5" r="275.5" stroke="#941BBE" stroke-width="40"/>
<path d="M790.997 530.999C679.997 534.997 392.997 360.998 319.997 436.999C246.997 513.001 290.997 586.999 290.997 586.999C290.997 586.999 334.997 666.999 319.997 730.001C304.997 793.002 201.997 906.001 211.997 964C221.997 1022 367.997 1037 483.997 1075C599.997 1113 1092 1076 1092 1076C1092 1076 1246 1068 1218 980C1190 891.999 1079 839 1079 778.999C1079 718.998 1193 632.998 1193 574.999C1193 496.423 1105 431 1013 449.999C920.997 468.998 901.997 527.001 790.997 530.999Z" fill="#6B35C3"/>
<circle cx="709.5" cy="1197.5" r="16.5" fill="#6B35C3"/>
<circle cx="313.5" cy="277.5" r="6.5" fill="#6B35C3"/>
<circle cx="216.997" cy="590.999" r="16" fill="#6B35C3"/>
<circle cx="369" cy="278" r="16" fill="#6B35C3"/>
<circle cx="1116" cy="774.999" r="14" fill="#6B35C3"/>
<circle cx="1171.5" cy="713.499" r="21.5" fill="#6B35C3"/>
<g filter="url(#filter0_d_135_293)">
<path d="M772.06 441.513L767.401 442.762L732.43 319.365C727.063 300.424 714.131 284.344 696.48 274.662C678.83 264.981 657.906 262.492 638.313 267.742L367.878 340.204C358.176 342.804 349.093 347.225 341.147 353.216C333.201 359.207 326.547 366.65 321.567 375.12C316.586 383.59 313.375 392.921 312.118 402.581C310.861 412.241 311.582 422.04 314.24 431.419L506.09 1108.38C511.458 1127.33 524.39 1143.41 542.04 1153.09C559.691 1162.77 580.614 1165.26 600.208 1160.01L870.642 1087.54C880.344 1084.95 889.427 1080.52 897.374 1074.53C905.32 1068.54 911.973 1061.1 916.954 1052.63C921.935 1044.16 925.145 1034.83 926.402 1025.17C927.659 1015.51 926.939 1005.71 924.281 996.331L792.293 530.598L796.953 529.35L772.06 441.513Z" fill="#3F3D56"/>
<path d="M646.553 285.525L611.253 294.984C613.965 298.397 615.766 302.406 616.498 306.657C617.229 310.909 616.868 315.273 615.447 319.364C614.025 323.456 611.587 327.15 608.347 330.12C605.106 333.091 601.163 335.247 596.865 336.4L441.936 377.913C437.638 379.064 433.116 379.176 428.77 378.238C424.423 377.3 420.385 375.342 417.011 372.535C413.638 369.728 411.032 366.159 409.423 362.143C407.815 358.126 407.253 353.785 407.787 349.502L374.816 358.337C360.184 362.258 347.741 371.638 340.226 384.413C332.71 397.189 330.737 412.314 334.741 426.46L526.067 1102.5C528.049 1109.51 531.439 1116.06 536.044 1121.79C540.648 1127.52 546.376 1132.31 552.901 1135.89C559.425 1139.47 566.619 1141.77 574.072 1142.66C581.524 1143.54 589.089 1143 596.334 1141.06L868.071 1068.25C875.316 1066.31 882.1 1063 888.035 1058.53C893.97 1054.05 898.94 1048.5 902.662 1042.17C906.383 1035.84 908.783 1028.88 909.724 1021.66C910.665 1014.45 910.129 1007.13 908.147 1000.12L716.82 324.082C714.838 317.078 711.448 310.524 706.844 304.795C702.24 299.067 696.512 294.275 689.987 290.695C683.462 287.115 676.268 284.815 668.816 283.928C661.363 283.041 653.799 283.584 646.553 285.525Z" fill="white"/>
<path d="M540.774 671.12C539.53 671.454 538.473 672.251 537.834 673.337C537.195 674.422 537.027 675.708 537.367 676.91C537.708 678.112 538.528 679.133 539.648 679.748C540.768 680.362 542.096 680.52 543.34 680.187L671.469 645.855C672.712 645.522 673.77 644.724 674.409 643.639C675.047 642.553 675.215 641.267 674.875 640.065C674.535 638.863 673.714 637.842 672.594 637.228C671.474 636.613 670.146 636.455 668.903 636.788L540.774 671.12Z" fill="#CCCCCC"/>
<path d="M565.18 716.767C564.314 716.999 563.619 717.699 563.247 718.713C562.876 719.727 562.858 720.973 563.198 722.175C563.539 723.377 564.209 724.438 565.062 725.124C565.915 725.81 566.88 726.065 567.746 725.833L757.844 674.897C758.71 674.665 759.405 673.965 759.777 672.95C760.148 671.936 760.166 670.691 759.826 669.489C759.485 668.286 758.815 667.226 757.962 666.539C757.11 665.853 756.144 665.598 755.278 665.83L565.18 716.767Z" fill="#CCCCCC"/>
<path d="M574.752 752.49C573.887 752.722 573.191 753.423 572.82 754.437C572.448 755.451 572.43 756.696 572.771 757.898C573.111 759.101 573.781 760.162 574.634 760.848C575.487 761.534 576.452 761.789 577.318 761.557L767.416 710.62C768.282 710.388 768.977 709.688 769.349 708.674C769.721 707.66 769.738 706.415 769.398 705.212C769.058 704.01 768.387 702.949 767.535 702.263C766.682 701.577 765.716 701.322 764.85 701.554L574.752 752.49Z" fill="#CCCCCC"/>
<path d="M584.324 788.215C583.458 788.447 582.763 789.147 582.392 790.161C582.02 791.175 582.002 792.42 582.343 793.623C582.683 794.825 583.353 795.886 584.206 796.572C585.059 797.258 586.024 797.513 586.89 797.281L776.988 746.344C777.854 746.112 778.549 745.412 778.921 744.398C779.292 743.384 779.31 742.139 778.97 740.936C778.63 739.734 777.959 738.673 777.106 737.987C776.254 737.301 775.288 737.046 774.422 737.278L584.324 788.215Z" fill="#CCCCCC"/>
<path d="M593.896 823.938C593.031 824.17 592.335 824.87 591.964 825.885C591.592 826.899 591.575 828.144 591.915 829.346C592.255 830.548 592.925 831.609 593.778 832.295C594.631 832.981 595.597 833.237 596.462 833.005L786.56 782.068C787.426 781.836 788.121 781.136 788.493 780.122C788.865 779.108 788.882 777.862 788.542 776.66C788.202 775.458 787.531 774.397 786.679 773.711C785.826 773.025 784.86 772.77 783.994 773.002L593.896 823.938Z" fill="#CCCCCC"/>
<path d="M603.468 859.662C602.602 859.894 601.907 860.594 601.535 861.608C601.163 862.622 601.146 863.868 601.486 865.07C601.826 866.272 602.497 867.333 603.349 868.019C604.202 868.705 605.168 868.96 606.034 868.728L796.132 817.792C796.997 817.56 797.693 816.86 798.064 815.845C798.436 814.831 798.454 813.586 798.113 812.384C797.773 811.181 797.103 810.121 796.25 809.434C795.397 808.748 794.432 808.493 793.566 808.725L603.468 859.662Z" fill="#CCCCCC"/>
<path d="M613.041 895.386C612.175 895.618 611.479 896.319 611.108 897.333C610.736 898.347 610.719 899.592 611.059 900.794C611.399 901.997 612.069 903.058 612.922 903.744C613.775 904.43 614.741 904.685 615.606 904.453L805.704 853.516C806.57 853.284 807.265 852.584 807.637 851.57C808.009 850.556 808.026 849.311 807.686 848.108C807.346 846.906 806.676 845.845 805.823 845.159C804.97 844.473 804.004 844.218 803.138 844.45L613.041 895.386Z" fill="#CCCCCC"/>
<path d="M463.223 744.085C462.933 744.163 462.79 744.715 462.825 745.62C462.861 746.525 463.072 747.709 463.412 748.912C463.752 750.114 464.194 751.236 464.639 752.031C465.085 752.826 465.499 753.229 465.789 753.152L529.497 736.081C529.788 736.003 529.931 735.451 529.895 734.546C529.86 733.641 529.649 732.457 529.309 731.255C528.968 730.052 528.527 728.93 528.081 728.135C527.635 727.34 527.222 726.937 526.932 727.015L463.223 744.085Z" fill="#CCCCCC"/>
<path d="M472.018 780.025C471.728 780.103 471.585 780.655 471.621 781.56C471.656 782.465 471.867 783.649 472.207 784.852C472.548 786.054 472.989 787.176 473.435 787.971C473.881 788.766 474.294 789.169 474.584 789.092L538.293 772.021C538.583 771.943 538.726 771.391 538.691 770.486C538.655 769.581 538.444 768.397 538.104 767.195C537.764 765.992 537.322 764.87 536.876 764.075C536.431 763.28 536.017 762.877 535.727 762.955L472.018 780.025Z" fill="#CCCCCC"/>
<path d="M692.72 409.399L395.714 488.982L437.696 638.131L735.173 558.423L692.72 409.399Z" fill="#F1EDF7"/>
<path d="M396.945 474.748C399.544 474.051 401.072 471.325 400.358 468.659C399.643 465.993 396.957 464.396 394.358 465.093C391.758 465.789 390.23 468.515 390.944 471.182C391.659 473.848 394.345 475.444 396.945 474.748Z" fill="#3F3D56"/>
<path d="M413.204 470.391C415.804 469.694 417.332 466.968 416.618 464.302C415.903 461.636 413.217 460.039 410.617 460.736C408.018 461.432 406.49 464.158 407.204 466.825C407.919 469.491 410.605 471.088 413.204 470.391Z" fill="#3F3D56"/>
<path d="M429.465 466.034C432.065 465.338 433.593 462.612 432.878 459.945C432.164 457.279 429.478 455.682 426.878 456.379C424.279 457.075 422.751 459.802 423.465 462.468C424.179 465.134 426.866 466.731 429.465 466.034Z" fill="#3F3D56"/>
<path opacity="0.1" d="M651.423 498.875C651.534 503.358 646.878 506.868 644.794 510.793C640.867 518.19 645.33 526.259 650.683 532.246C652.475 534.25 654.462 536.349 654.632 538.967C654.842 542.17 652.225 545.253 649.167 547.336C643.596 551.129 636.097 552.59 629.651 551.135C624.082 549.878 619.468 546.65 613.844 545.525C604.435 543.655 594.273 548.044 586.002 553.278C580.153 556.986 573.869 561.454 566.966 561.069C562.108 560.796 558.064 558.049 555.369 554.718C554.068 553.106 552.948 551.284 551.01 550.25C549.856 549.634 548.49 549.345 547.121 549.16C534.607 547.463 521.07 553.795 508.747 551.496C500.423 549.945 493.914 544.555 489.962 538.174C486.011 531.793 484.304 524.45 482.919 517.159C481.934 511.972 481.16 506.373 483.953 501.422C486.907 496.185 493.472 492.78 499.989 491.872C506.507 490.964 512.976 492.249 518.893 494.209C526.295 496.66 533.496 500.25 541.662 499.857C547.223 499.59 552.584 497.484 557.946 495.815C566.912 493.026 576.194 491.406 585.438 489.865C589.944 489.118 594.47 488.388 598.997 487.874C600.012 487.758 601.029 487.653 602.05 487.56C602.562 487.515 603.074 487.472 603.585 487.433C603.984 487.401 604.384 487.379 604.782 487.348C605.412 487.306 606.042 487.271 606.671 487.243C608.478 487.159 610.281 487.13 612.083 487.163C618.348 487.281 623.827 489.077 629.89 489.732C633.841 490.159 637.847 489.496 641.709 490.353C646.461 491.403 651.306 494.162 651.423 498.875Z" fill="black"/>
<path opacity="0.1" d="M587.416 588.701C632.396 576.648 667.189 560.639 665.127 552.944C663.065 545.249 624.929 548.781 579.949 560.833C534.968 572.886 500.176 588.895 502.238 596.59C504.3 604.285 542.435 600.753 587.416 588.701Z" fill="black"/>
<path d="M591.612 559.011C591.612 559.011 589.859 556.102 590.315 553.492C590.514 552.398 590.358 551.265 589.872 550.262C589.635 549.787 589.357 549.336 589.039 548.912" stroke="#535461" stroke-width="2" stroke-miterlimit="10"/>
<path d="M589.325 547.263C589.429 547.649 589.044 548.954 589.044 548.954C589.044 548.954 588.063 548.015 587.96 547.629C587.91 547.443 587.935 547.246 588.028 547.08C588.121 546.915 588.276 546.794 588.457 546.746C588.639 546.697 588.833 546.724 588.997 546.821C589.16 546.918 589.28 547.076 589.33 547.262L589.325 547.263Z" fill="#6C63FF"/>
<path d="M591.032 549.1C590.914 549.479 589.893 550.354 589.893 550.354C589.893 550.354 589.561 549.027 589.679 548.648C589.705 548.555 589.75 548.469 589.809 548.394C589.869 548.319 589.943 548.257 590.027 548.213C590.11 548.168 590.202 548.141 590.297 548.133C590.392 548.125 590.487 548.136 590.578 548.167C590.668 548.197 590.752 548.246 590.824 548.309C590.896 548.373 590.955 548.451 590.998 548.538C591.04 548.625 591.065 548.72 591.071 548.817C591.077 548.913 591.064 549.01 591.032 549.101L591.032 549.1Z" fill="#6C63FF"/>
<path d="M591.961 552.769C591.67 553.033 590.351 553.258 590.351 553.258C590.351 553.258 590.719 551.949 591.01 551.685C591.08 551.622 591.16 551.573 591.248 551.543C591.336 551.512 591.429 551.499 591.522 551.505C591.616 551.511 591.707 551.535 591.791 551.577C591.875 551.619 591.951 551.677 592.013 551.749C592.076 551.82 592.124 551.903 592.155 551.993C592.186 552.083 592.2 552.178 592.195 552.273C592.19 552.368 592.167 552.46 592.127 552.546C592.087 552.631 592.031 552.707 591.962 552.77L591.961 552.769Z" fill="#6C63FF"/>
<path d="M592.055 555.705C591.812 556.017 590.552 556.466 590.552 556.466C590.552 556.466 590.697 555.109 590.94 554.798C591.059 554.658 591.227 554.57 591.41 554.554C591.592 554.537 591.775 554.594 591.919 554.711C592.063 554.828 592.157 554.997 592.183 555.183C592.208 555.368 592.162 555.555 592.055 555.705Z" fill="#6C63FF"/>
<path d="M588.476 550.818C588.819 551.014 590.158 550.955 590.158 550.955C590.158 550.955 589.506 549.754 589.157 549.559C588.993 549.471 588.802 549.452 588.625 549.505C588.448 549.558 588.3 549.679 588.211 549.843C588.121 550.007 588.099 550.201 588.148 550.383C588.196 550.565 588.313 550.721 588.472 550.819L588.476 550.818Z" fill="#6C63FF"/>
<path d="M588.625 554.244C589.009 554.327 590.264 553.862 590.264 553.862C590.264 553.862 589.291 552.912 588.906 552.829C588.721 552.789 588.53 552.825 588.373 552.93C588.216 553.034 588.107 553.198 588.069 553.386C588.032 553.574 588.07 553.77 588.174 553.931C588.278 554.092 588.441 554.205 588.625 554.245L588.625 554.244Z" fill="#6C63FF"/>
<path d="M589.219 557.562C589.585 557.711 590.901 557.469 590.901 557.469C590.901 557.469 590.097 556.366 589.732 556.218C589.558 556.156 589.368 556.165 589.202 556.242C589.036 556.319 588.906 556.459 588.84 556.632C588.774 556.806 588.777 556.999 588.847 557.173C588.918 557.346 589.051 557.485 589.219 557.562V557.562Z" fill="#6C63FF"/>
<path d="M589.552 559.234C589.552 559.234 591.122 558.45 591.442 557.878C591.763 557.306 593.544 555.981 593.918 556.487C594.292 556.993 597.575 558.174 595.782 559.019C593.99 559.863 591.474 560.654 590.867 560.578C590.26 560.501 589.552 559.234 589.552 559.234Z" fill="#A8A8A8"/>
<path opacity="0.2" d="M595.729 558.813C593.938 559.657 591.421 560.449 590.814 560.372C590.347 560.313 589.832 559.563 589.613 559.209L589.561 559.236C589.561 559.236 590.257 560.506 590.871 560.583C591.485 560.661 594.001 559.867 595.786 559.024C596.302 558.78 596.396 558.51 596.26 558.233C596.262 558.432 596.113 558.629 595.729 558.813Z" fill="black"/>
<path d="M628.011 529.195C636.274 526.981 641.139 518.34 638.876 509.895C636.613 501.451 628.08 496.4 619.817 498.614C611.554 500.828 606.69 509.469 608.953 517.913C611.216 526.358 619.748 531.409 628.011 529.195Z" fill="#6C63FF"/>
<path d="M610.981 529.281C619.244 527.067 624.108 518.427 621.845 509.982C619.582 501.538 611.05 496.487 602.787 498.701C594.524 500.915 589.659 509.556 591.922 518C594.185 526.445 602.718 531.496 610.981 529.281Z" fill="#6C63FF"/>
<path d="M593.505 534.124C601.768 531.91 606.632 523.269 604.37 514.825C602.107 506.38 593.574 501.329 585.311 503.543C577.048 505.757 572.184 514.398 574.447 522.842C576.709 531.287 585.242 536.338 593.505 534.124Z" fill="#6C63FF"/>
<path d="M588.892 539.676C597.155 537.462 602.019 528.822 599.756 520.377C597.494 511.933 588.961 506.882 580.698 509.096C572.435 511.31 567.571 519.951 569.833 528.395C572.096 536.84 580.629 541.891 588.892 539.676Z" fill="#6C63FF"/>
<path d="M579.618 543.601C587.881 541.387 592.745 532.747 590.482 524.302C588.22 515.858 579.687 510.807 571.424 513.021C563.161 515.235 558.297 523.875 560.559 532.32C562.822 540.765 571.355 545.815 579.618 543.601Z" fill="#6C63FF"/>
<path d="M572.439 532.573C580.702 530.359 585.566 521.719 583.304 513.274C581.041 504.83 572.508 499.779 564.245 501.993C555.982 504.207 551.118 512.848 553.381 521.292C555.643 529.737 564.176 534.788 572.439 532.573Z" fill="#6C63FF"/>
<path d="M573.06 517.377C581.323 515.163 586.187 506.523 583.924 498.078C581.662 489.634 573.129 484.583 564.866 486.797C556.603 489.011 551.739 497.651 554.001 506.096C556.264 514.54 564.797 519.591 573.06 517.377Z" fill="#6C63FF"/>
<path d="M581.38 515.148C589.643 512.934 594.507 504.294 592.245 495.849C589.982 487.405 581.449 482.354 573.186 484.568C564.923 486.782 560.059 495.422 562.322 503.867C564.584 512.311 573.117 517.362 581.38 515.148Z" fill="#6C63FF"/>
<path d="M584.518 507.591C592.781 505.377 597.645 496.736 595.382 488.292C593.12 479.847 584.587 474.797 576.324 477.011C568.061 479.225 563.197 487.865 565.459 496.31C567.722 504.754 576.255 509.805 584.518 507.591Z" fill="#6C63FF"/>
<path d="M598.619 511.168C606.882 508.954 611.746 500.314 609.483 491.869C607.221 483.425 598.688 478.374 590.425 480.588C582.162 482.802 577.298 491.442 579.56 499.887C581.823 508.331 590.356 513.382 598.619 511.168Z" fill="#6C63FF"/>
<path d="M630.826 516.928C639.089 514.714 643.954 506.074 641.691 497.629C639.428 489.185 630.895 484.134 622.632 486.348C614.369 488.562 609.505 497.203 611.768 505.647C614.031 514.092 622.563 519.143 630.826 516.928Z" fill="#6C63FF"/>
<path d="M620.175 511.629C628.438 509.415 633.303 500.774 631.04 492.33C628.777 483.885 620.244 478.834 611.981 481.048C603.718 483.262 598.854 491.903 601.117 500.347C603.38 508.792 611.912 513.843 620.175 511.629Z" fill="#6C63FF"/>
<path d="M612.59 505.506C620.853 503.292 625.717 494.652 623.455 486.207C621.192 477.762 612.659 472.712 604.396 474.926C596.133 477.14 591.269 485.78 593.532 494.225C595.794 502.669 604.327 507.72 612.59 505.506Z" fill="#6C63FF"/>
<path d="M599.003 496.836C607.266 494.622 612.13 485.981 609.868 477.537C607.605 469.092 599.072 464.041 590.809 466.255C582.546 468.469 577.682 477.11 579.945 485.554C582.207 493.999 590.74 499.05 599.003 496.836Z" fill="#6C63FF"/>
<path d="M621.96 504.274C630.223 502.06 635.087 493.42 632.825 484.975C630.562 476.53 622.029 471.48 613.766 473.694C605.503 475.908 600.639 484.548 602.902 492.993C605.164 501.437 613.697 506.488 621.96 504.274Z" fill="#6C63FF"/>
<g opacity="0.1">
<path opacity="0.1" d="M628.012 529.195C636.275 526.98 641.139 518.34 638.876 509.895C636.614 501.451 628.081 496.4 619.818 498.614C611.555 500.828 606.691 509.469 608.953 517.913C611.216 526.358 619.749 531.409 628.012 529.195Z" fill="black"/>
<path opacity="0.1" d="M610.981 529.281C619.244 527.067 624.108 518.426 621.846 509.982C619.583 501.537 611.05 496.487 602.787 498.701C594.524 500.915 589.66 509.555 591.923 518C594.185 526.444 602.718 531.495 610.981 529.281Z" fill="black"/>
<path opacity="0.1" d="M593.505 534.124C601.768 531.91 606.632 523.27 604.369 514.825C602.106 506.381 593.574 501.33 585.311 503.544C577.048 505.758 572.183 514.398 574.446 522.843C576.709 531.287 585.242 536.338 593.505 534.124Z" fill="black"/>
<path opacity="0.1" d="M588.892 539.676C597.155 537.462 602.019 528.821 599.756 520.377C597.494 511.932 588.961 506.882 580.698 509.096C572.435 511.31 567.571 519.95 569.833 528.395C572.096 536.839 580.629 541.89 588.892 539.676Z" fill="black"/>
<path opacity="0.1" d="M579.618 543.601C587.881 541.387 592.745 532.747 590.482 524.302C588.22 515.858 579.687 510.807 571.424 513.021C563.161 515.235 558.297 523.875 560.559 532.32C562.822 540.765 571.355 545.815 579.618 543.601Z" fill="black"/>
<path opacity="0.1" d="M572.439 532.574C580.702 530.36 585.566 521.719 583.304 513.275C581.041 504.83 572.508 499.779 564.245 501.994C555.982 504.208 551.118 512.848 553.381 521.293C555.643 529.737 564.176 534.788 572.439 532.574Z" fill="black"/>
<path opacity="0.1" d="M573.06 517.377C581.323 515.163 586.187 506.523 583.924 498.078C581.662 489.633 573.129 484.583 564.866 486.797C556.603 489.011 551.739 497.651 554.001 506.096C556.264 514.54 564.797 519.591 573.06 517.377Z" fill="black"/>
<path opacity="0.1" d="M581.38 515.148C589.643 512.934 594.507 504.293 592.244 495.849C589.981 487.404 581.449 482.353 573.186 484.567C564.923 486.781 560.058 495.422 562.321 503.866C564.584 512.311 573.117 517.362 581.38 515.148Z" fill="black"/>
<path opacity="0.1" d="M584.518 507.591C592.781 505.377 597.645 496.736 595.383 488.291C593.12 479.847 584.587 474.796 576.324 477.01C568.061 479.224 563.197 487.865 565.46 496.309C567.723 504.754 576.255 509.805 584.518 507.591Z" fill="black"/>
<path opacity="0.1" d="M598.619 511.168C606.882 508.954 611.746 500.314 609.483 491.869C607.221 483.425 598.688 478.374 590.425 480.588C582.162 482.802 577.298 491.442 579.56 499.887C581.823 508.331 590.356 513.382 598.619 511.168Z" fill="black"/>
<path opacity="0.1" d="M630.827 516.929C639.09 514.715 643.954 506.074 641.691 497.63C639.429 489.185 630.896 484.134 622.633 486.349C614.37 488.563 609.506 497.203 611.768 505.648C614.031 514.092 622.564 519.143 630.827 516.929Z" fill="black"/>
<path opacity="0.1" d="M620.176 511.629C628.439 509.415 633.303 500.774 631.04 492.33C628.778 483.885 620.245 478.834 611.982 481.048C603.719 483.262 598.855 491.903 601.118 500.347C603.38 508.792 611.913 513.843 620.176 511.629Z" fill="black"/>
<path opacity="0.1" d="M612.591 505.506C620.854 503.292 625.718 494.652 623.455 486.207C621.192 477.762 612.66 472.712 604.397 474.926C596.134 477.14 591.269 485.78 593.532 494.225C595.795 502.669 604.328 507.72 612.591 505.506Z" fill="black"/>
<path opacity="0.1" d="M599.003 496.835C607.266 494.621 612.13 485.981 609.868 477.536C607.605 469.092 599.072 464.041 590.809 466.255C582.546 468.469 577.682 477.109 579.945 485.554C582.207 493.998 590.74 499.049 599.003 496.835Z" fill="black"/>
<path opacity="0.1" d="M621.96 504.274C630.223 502.06 635.087 493.42 632.824 484.975C630.561 476.53 622.029 471.48 613.766 473.694C605.503 475.908 600.638 484.548 602.901 492.993C605.164 501.437 613.697 506.488 621.96 504.274Z" fill="black"/>
</g>
<path d="M623.705 542.679C623.705 542.679 630.746 532.371 623.224 522.396L618.235 521.877L617.464 538.641L623.705 542.679Z" fill="#67647E"/>
<path opacity="0.1" d="M618.483 521.24L619.677 521.364L618.92 537.824L624.373 541.351C624.12 541.799 623.953 542.042 623.953 542.042L617.711 538.005L618.483 521.24Z" fill="black"/>
<path d="M578.01 537.384L580.501 541.926C580.501 541.926 589.197 540.795 594.607 538.592C595.558 538.184 596.414 537.579 597.122 536.816C597.518 536.403 598.231 536.079 599.46 536.587C601.568 537.464 613.03 545.935 614.635 557.48C614.753 558.351 614.586 559.234 614.161 559.992C613.735 560.751 613.075 561.342 612.282 561.676V561.676C610.635 562.372 609.17 563.442 607.996 564.806L604.525 568.831L647.782 556.198L641.767 551.82C641.767 551.82 637.96 549.975 635.516 550.368C634.804 550.484 634.057 549.987 633.358 549.227C629.26 544.77 624.714 540.765 619.955 537.054C616.489 534.35 613.385 531.353 612.984 529.056C612.027 523.582 609.207 514.961 609.207 514.961L599.846 516.168C599.846 516.168 604.161 527.515 594.003 533.361C583.846 539.207 578.01 537.384 578.01 537.384Z" fill="#67647E"/>
<g opacity="0.1">
<path opacity="0.1" d="M585.968 537.597C585.968 537.597 591.808 539.418 601.967 533.57C612.125 527.722 607.809 516.376 607.809 516.376L609.59 516.144C609.358 515.405 609.213 514.963 609.213 514.963L599.852 516.169C599.852 516.169 604.166 527.517 594.009 533.363C583.852 539.209 578.011 537.39 578.011 537.39L580.501 541.933C580.501 541.933 583.824 541.501 587.64 540.65L585.968 537.597Z" fill="black"/>
<path opacity="0.1" d="M615.953 565.017C617.127 563.654 618.593 562.584 620.239 561.887V561.887C621.031 561.556 621.69 560.966 622.116 560.211C622.542 559.455 622.71 558.574 622.594 557.705C620.997 546.159 609.526 537.67 607.424 536.796C605.131 535.848 604.635 537.803 604.635 537.803C604.01 538.164 603.361 538.481 602.693 538.752C606.897 542.114 613.459 548.966 614.638 557.492C614.754 558.361 614.586 559.241 614.16 559.997C613.734 560.753 613.075 561.342 612.283 561.674V561.674C610.637 562.37 609.171 563.441 607.997 564.804L604.527 568.829L615.402 565.654L615.953 565.017Z" fill="black"/>
</g>
<path d="M627.092 525.763C635.355 523.549 640.219 514.909 637.956 506.464C635.694 498.02 627.161 492.969 618.898 495.183C610.635 497.397 605.771 506.038 608.034 514.482C610.296 522.927 618.829 527.977 627.092 525.763Z" fill="#6C63FF"/>
<path d="M610.062 525.85C618.325 523.636 623.189 514.996 620.926 506.551C618.663 498.107 610.131 493.056 601.868 495.27C593.605 497.484 588.741 506.124 591.003 514.569C593.266 523.014 601.799 528.064 610.062 525.85Z" fill="#6C63FF"/>
<path d="M592.586 530.693C600.849 528.479 605.713 519.839 603.451 511.394C601.188 502.949 592.655 497.899 584.392 500.113C576.129 502.327 571.265 510.967 573.528 519.412C575.79 527.856 584.323 532.907 592.586 530.693Z" fill="#6C63FF"/>
<path d="M587.972 536.245C596.235 534.031 601.099 525.391 598.836 516.946C596.574 508.502 588.041 503.451 579.778 505.665C571.515 507.879 566.651 516.519 568.913 524.964C571.176 533.409 579.709 538.459 587.972 536.245Z" fill="#6C63FF"/>
<path d="M578.698 540.17C586.961 537.956 591.826 529.316 589.563 520.871C587.3 512.426 578.767 507.376 570.504 509.59C562.241 511.804 557.377 520.444 559.64 528.889C561.903 537.333 570.435 542.384 578.698 540.17Z" fill="#6C63FF"/>
<path d="M571.52 529.143C579.783 526.929 584.647 518.288 582.384 509.844C580.121 501.399 571.589 496.348 563.326 498.562C555.063 500.776 550.199 509.417 552.461 517.862C554.724 526.306 563.257 531.357 571.52 529.143Z" fill="#6C63FF"/>
<path d="M572.14 513.946C580.403 511.731 585.268 503.091 583.005 494.646C580.742 486.202 572.209 481.151 563.946 483.365C555.683 485.579 550.819 494.22 553.082 502.664C555.345 511.109 563.877 516.16 572.14 513.946Z" fill="#6C63FF"/>
<path d="M580.461 511.717C588.724 509.502 593.588 500.862 591.325 492.417C589.062 483.973 580.53 478.922 572.267 481.136C564.004 483.35 559.139 491.991 561.402 500.435C563.665 508.88 572.198 513.931 580.461 511.717Z" fill="#6C63FF"/>
<path d="M583.599 504.16C591.862 501.946 596.726 493.305 594.463 484.861C592.201 476.416 583.668 471.365 575.405 473.579C567.142 475.794 562.278 484.434 564.54 492.879C566.803 501.323 575.336 506.374 583.599 504.16Z" fill="#6C63FF"/>
<path d="M597.699 507.738C605.962 505.523 610.827 496.883 608.564 488.438C606.301 479.994 597.768 474.943 589.505 477.157C581.242 479.371 576.378 488.012 578.641 496.456C580.904 504.901 589.436 509.952 597.699 507.738Z" fill="#6C63FF"/>
<path d="M629.907 513.497C638.17 511.283 643.035 502.643 640.772 494.198C638.509 485.754 629.976 480.703 621.713 482.917C613.45 485.131 608.586 493.771 610.849 502.216C613.112 510.661 621.644 515.711 629.907 513.497Z" fill="#6C63FF"/>
<path d="M619.256 508.197C627.519 505.983 632.383 497.342 630.12 488.898C627.857 480.453 619.325 475.403 611.062 477.617C602.799 479.831 597.934 488.471 600.197 496.916C602.46 505.36 610.993 510.411 619.256 508.197Z" fill="#6C63FF"/>
<path d="M611.671 502.075C619.934 499.861 624.798 491.22 622.536 482.776C620.273 474.331 611.74 469.28 603.477 471.495C595.214 473.709 590.35 482.349 592.613 490.794C594.875 499.238 603.408 504.289 611.671 502.075Z" fill="#6C63FF"/>
<path d="M598.083 493.405C606.346 491.19 611.21 482.55 608.948 474.105C606.685 465.661 598.152 460.61 589.889 462.824C581.626 465.038 576.762 473.679 579.025 482.123C581.287 490.568 589.82 495.619 598.083 493.405Z" fill="#6C63FF"/>
<path d="M621.041 500.843C629.304 498.629 634.168 489.988 631.905 481.544C629.642 473.099 621.11 468.049 612.847 470.263C604.584 472.477 599.72 481.117 601.982 489.562C604.245 498.006 612.778 503.057 621.041 500.843Z" fill="#6C63FF"/>
<path opacity="0.1" d="M631.896 484.113C631.896 484.113 616.154 481.094 610.929 495.32Z" fill="black"/>
<path opacity="0.1" d="M591.631 480.239C591.631 480.239 576.09 483.893 576.927 499.123Z" fill="black"/>
<path opacity="0.1" d="M580.853 516.656C580.853 516.656 565.11 513.635 559.885 527.859Z" fill="black"/>
<path d="M617.172 537.103C617.6 537.572 617.889 538.152 618.008 538.777C617.394 538.653 616.824 538.354 616.366 537.916C615.683 537.216 615.309 536.466 615.53 536.242C615.751 536.018 616.491 536.403 617.172 537.103Z" fill="#6C63FF"/>
<path d="M545.589 570.553C545.589 570.553 546.68 571.412 545.939 573.345C545.197 575.278 544.596 576.91 545.255 577.817C545.255 577.817 546.22 574.33 547.656 573.901C549.092 573.471 547.661 571.939 545.589 570.553Z" fill="#6C63FF"/>
<path opacity="0.1" d="M545.589 570.553C545.686 570.638 545.772 570.736 545.843 570.846C547.703 572.158 548.877 573.535 547.534 573.938C546.284 574.313 545.388 577.021 545.182 577.7C545.206 577.742 545.232 577.783 545.261 577.822C545.261 577.822 546.226 574.335 547.662 573.905C549.098 573.476 547.66 571.939 545.589 570.553Z" fill="black"/>
<path d="M547.45 571.524C547.552 571.903 547.593 572.221 547.542 572.234C547.49 572.248 547.369 571.96 547.266 571.574C547.162 571.188 547.263 571.359 547.314 571.346C547.366 571.332 547.349 571.146 547.45 571.524Z" fill="#FFD037"/>
<path d="M548.083 571.837C547.807 572.105 547.552 572.29 547.517 572.25C547.481 572.21 547.674 571.961 547.951 571.693C548.227 571.425 548.134 571.591 548.172 571.634C548.21 571.676 548.361 571.575 548.083 571.837Z" fill="#FFD037"/>
<path d="M541.341 571.691C541.341 571.691 540.826 572.981 542.434 574.284C544.043 575.587 545.38 576.7 545.263 577.815C545.263 577.815 542.683 575.278 541.225 575.624C539.766 575.97 540.239 573.928 541.341 571.691Z" fill="#6C63FF"/>
<path opacity="0.1" d="M541.341 571.692C541.299 571.814 541.274 571.942 541.267 572.072C540.312 574.139 539.984 575.918 541.349 575.596C542.619 575.296 544.749 577.193 545.266 577.678C545.267 577.726 545.265 577.775 545.26 577.823C545.26 577.823 542.68 575.285 541.222 575.631C539.763 575.977 540.238 573.928 541.341 571.692Z" fill="black"/>
<path d="M540.215 573.462C540.316 573.841 540.439 574.137 540.49 574.123C540.542 574.109 540.502 573.799 540.399 573.413C540.295 573.027 540.294 573.226 540.243 573.24C540.192 573.254 540.113 573.084 540.215 573.462Z" fill="#FFD037"/>
<path d="M539.822 574.051C540.196 574.145 540.509 574.178 540.52 574.125C540.531 574.072 540.238 573.953 539.865 573.859C539.492 573.765 539.656 573.863 539.644 573.919C539.632 573.975 539.456 573.961 539.822 574.051Z" fill="#FFD037"/>
<path d="M541.861 578.581C541.861 578.581 544.09 577.908 544.637 577.233C545.184 576.557 547.805 575.225 548.184 575.97C548.562 576.715 552.615 578.997 550.083 579.697C547.551 580.398 544.078 580.874 543.289 580.633C542.5 580.392 541.861 578.581 541.861 578.581Z" fill="#A8A8A8"/>
<path opacity="0.2" d="M550.053 579.412C547.521 580.113 544.049 580.588 543.26 580.348C542.659 580.166 542.146 579.071 541.935 578.558L541.86 578.578C541.86 578.578 542.503 580.392 543.288 580.632C544.072 580.872 547.549 580.397 550.081 579.697C550.813 579.501 550.993 579.16 550.874 578.769C550.838 579.037 550.601 579.261 550.053 579.412Z" fill="black"/>
<path d="M525.782 565.987C528.932 568.771 531.463 581.08 531.463 581.08C531.463 581.08 519.165 580.286 516.015 577.504C514.502 576.167 513.566 574.279 513.413 572.254C513.259 570.229 513.9 568.233 515.195 566.706C516.491 565.179 518.334 564.245 520.32 564.111C522.305 563.976 524.271 564.651 525.784 565.988L525.782 565.987Z" fill="#6C63FF"/>
<path opacity="0.1" d="M525.782 565.987C528.932 568.771 531.463 581.08 531.463 581.08C531.463 581.08 519.165 580.286 516.015 577.504C514.502 576.167 513.566 574.279 513.413 572.254C513.259 570.229 513.9 568.233 515.195 566.706C516.491 565.179 518.334 564.245 520.32 564.111C522.305 563.976 524.271 564.651 525.784 565.988L525.782 565.987Z" fill="black"/>
<path d="M515.241 566.703C515.241 566.703 525.478 571.106 531.512 581.081" stroke="#535461" stroke-miterlimit="10"/>
<path d="M531.178 571.322C531.178 571.322 524.897 571.883 531.716 580.941C531.716 580.941 535.45 578.2 534.693 574.072C534.546 573.268 534.117 572.544 533.485 572.037C532.853 571.529 532.063 571.273 531.264 571.317L531.178 571.322Z" fill="#6C63FF"/>
<path d="M531.262 571.286C531.262 571.286 533.91 576.597 531.722 580.94" stroke="#535461" stroke-miterlimit="10"/>
<path d="M536.11 587.5C536.318 587.205 536.433 586.851 536.439 586.486C536.42 586.122 536.166 585.749 535.811 585.71C535.413 585.666 535.096 586.023 534.874 586.36C534.653 586.697 534.396 587.08 533.999 587.127C534.147 586.892 534.232 586.622 534.246 586.343C534.26 586.063 534.203 585.784 534.08 585.532C534.034 585.427 533.961 585.336 533.868 585.269C533.609 585.104 533.273 585.295 533.079 585.531C532.465 586.283 532.536 587.395 532.786 588.348C532.618 588.026 532.587 587.651 532.491 587.305C532.395 586.959 532.194 586.583 531.855 586.478C531.649 586.428 531.434 586.433 531.232 586.493C530.886 586.571 530.515 586.709 530.349 587.027C530.142 587.423 530.362 587.936 530.708 588.214C531.054 588.491 531.497 588.611 531.916 588.759C532.246 588.855 532.551 589.026 532.809 589.258C532.841 589.292 532.869 589.328 532.894 589.367L535.038 588.792C535.452 588.414 535.812 587.979 536.11 587.5V587.5Z" fill="#6C63FF"/>
<path d="M640.589 536.389C640.589 536.389 638.429 540.227 641.318 544.289C644.207 548.351 641.659 557.075 641.659 557.075L641.799 557.012C647.613 554.273 648.736 546.317 643.916 541.921C642.118 540.292 640.46 538.254 640.589 536.389Z" fill="#6C63FF"/>
<path d="M640.589 536.389C640.589 536.389 639.908 540.566 642.403 543.157C644.898 545.747 645.797 554.652 641.657 557.076" stroke="#535461" stroke-miterlimit="10"/>
<path d="M649.183 547.267C649.183 547.267 645.639 547.625 646.164 550.817C646.688 554.009 640.582 556.107 640.582 556.107L640.721 556.155C646.778 558.218 651.352 555.657 649.386 551.283C648.657 549.655 648.221 547.942 649.183 547.267Z" fill="#6C63FF"/>
<path opacity="0.2" d="M649.183 547.267C649.183 547.267 645.639 547.625 646.164 550.817C646.688 554.009 640.582 556.107 640.582 556.107L640.721 556.155C646.778 558.218 651.352 555.657 649.386 551.283C648.657 549.655 648.221 547.942 649.183 547.267Z" fill="#F5F5F5"/>
<path d="M649.183 547.267C649.183 547.267 646.709 548.572 647.578 550.956C648.448 553.341 645.108 557.388 640.584 556.106" stroke="#535461" stroke-miterlimit="10"/>
<path d="M619.943 562.498C619.943 562.498 624.706 560.117 625.683 558.384C626.66 556.65 632.061 552.627 633.193 554.164C634.325 555.701 644.29 559.286 638.859 561.846C633.428 564.406 625.79 566.819 623.926 566.583C622.062 566.347 619.943 562.498 619.943 562.498Z" fill="#A8A8A8"/>
<path opacity="0.2" d="M638.682 561.208C633.251 563.768 625.613 566.182 623.749 565.945C622.33 565.765 620.767 563.491 620.102 562.417L619.944 562.498C619.944 562.498 622.056 566.348 623.919 566.584C625.781 566.821 633.418 564.408 638.852 561.847C640.421 561.106 640.706 560.283 640.291 559.449C640.306 560.062 639.85 560.66 638.682 561.208Z" fill="black"/>
<path d="M646.208 524.094C646.354 524.714 646.326 525.361 646.127 525.961C645.652 525.544 645.301 524.999 645.115 524.391C644.86 523.441 644.894 522.607 645.196 522.524C645.499 522.441 645.951 523.146 646.208 524.094Z" fill="#6C63FF"/>
<path d="M654.238 539.213C654.712 539.632 655.062 540.177 655.246 540.787C654.625 540.729 654.029 540.494 653.529 540.109C652.776 539.487 652.325 538.782 652.521 538.535C652.717 538.289 653.487 538.592 654.238 539.213Z" fill="#6C63FF"/>
<path d="M634.342 534.892C634.486 535.512 634.456 536.159 634.255 536.759C633.781 536.34 633.432 535.795 633.247 535.186C632.993 534.236 633.031 533.4 633.333 533.319C633.636 533.238 634.088 533.946 634.342 534.892Z" fill="#6C63FF"/>
<path d="M645.854 555.576C645.854 555.576 648.222 554.396 648.708 553.54C649.193 552.684 651.881 550.692 652.442 551.449C653.002 552.206 657.948 553.968 655.246 555.236C652.544 556.503 648.75 557.702 647.825 557.588C646.901 557.473 645.854 555.576 645.854 555.576Z" fill="#A8A8A8"/>
<path opacity="0.2" d="M655.167 554.922C652.465 556.19 648.671 557.388 647.746 557.274C647.041 557.185 646.268 556.067 645.937 555.535L645.859 555.576C645.859 555.576 646.904 557.474 647.83 557.589C648.757 557.705 652.55 556.506 655.251 555.237C656.031 554.868 656.174 554.464 655.969 554.051C655.97 554.354 655.743 554.65 655.167 554.922Z" fill="black"/>
<path d="M651.327 563.751C651.536 563.455 651.65 563.102 651.656 562.736C651.637 562.373 651.384 562 651.028 561.96C650.63 561.916 650.314 562.274 650.092 562.61C649.87 562.947 649.613 563.33 649.216 563.377C649.364 563.143 649.449 562.873 649.463 562.593C649.477 562.314 649.42 562.035 649.297 561.783C649.251 561.677 649.178 561.586 649.086 561.519C648.827 561.355 648.49 561.546 648.296 561.782C647.682 562.533 647.753 563.646 648.003 564.598C647.835 564.276 647.804 563.901 647.708 563.555C647.612 563.209 647.411 562.833 647.073 562.729C646.866 562.678 646.652 562.683 646.449 562.743C646.103 562.822 645.732 562.959 645.567 563.278C645.359 563.673 645.579 564.187 645.925 564.464C646.271 564.742 646.714 564.862 647.133 565.009C647.463 565.106 647.768 565.276 648.026 565.509C648.058 565.542 648.087 565.579 648.112 565.617L650.256 565.043C650.669 564.664 651.03 564.229 651.327 563.751V563.751Z" fill="#6C63FF"/>
<path d="M616.666 554.175C616.322 554.701 615.838 555.117 615.27 555.373C615.242 554.738 615.391 554.109 615.699 553.56C616.202 552.73 616.829 552.193 617.095 552.362C617.362 552.531 617.17 553.344 616.666 554.175Z" fill="#6C63FF"/>
<path opacity="0.1" d="M616.666 554.175C616.322 554.701 615.838 555.117 615.27 555.373C615.242 554.738 615.391 554.109 615.699 553.56C616.202 552.73 616.829 552.193 617.095 552.362C617.362 552.531 617.17 553.344 616.666 554.175Z" fill="black"/>
<path d="M626.359 550.533C626.015 551.059 625.531 551.475 624.962 551.731C624.934 551.096 625.083 550.467 625.391 549.918C625.895 549.088 626.521 548.551 626.788 548.72C627.054 548.889 626.862 549.7 626.359 550.533Z" fill="#6C63FF"/>
<path opacity="0.1" d="M626.359 550.533C626.015 551.059 625.531 551.475 624.962 551.731C624.934 551.096 625.083 550.467 625.391 549.918C625.895 549.088 626.521 548.551 626.788 548.72C627.054 548.889 626.862 549.7 626.359 550.533Z" fill="black"/>
<path d="M631.03 560.331C630.686 560.858 630.202 561.273 629.633 561.53C629.605 560.893 629.753 560.263 630.062 559.712C630.566 558.882 631.192 558.345 631.459 558.514C631.725 558.683 631.535 559.499 631.03 560.331Z" fill="#6C63FF"/>
<path opacity="0.1" d="M631.03 560.331C630.686 560.858 630.202 561.273 629.633 561.53C629.605 560.893 629.753 560.263 630.062 559.712C630.566 558.882 631.192 558.345 631.459 558.514C631.725 558.683 631.535 559.499 631.03 560.331Z" fill="black"/>
<path d="M601.222 576.309C601.222 576.309 601.704 578.69 602.101 579C602.101 579 595.715 582.05 594.77 581.885C593.826 581.719 594.041 580.993 594.436 580.636C594.831 580.278 596.893 578.806 596.758 577.087C596.758 577.087 595.641 576.884 599.013 576.643C602.384 576.401 601.222 576.309 601.222 576.309Z" fill="#DC9BA3"/>
<path opacity="0.05" d="M601.222 576.309C601.222 576.309 601.704 578.69 602.101 579C602.101 579 595.715 582.05 594.77 581.885C593.826 581.719 594.041 580.993 594.436 580.636C594.831 580.278 596.893 578.806 596.758 577.087C596.758 577.087 595.641 576.884 599.013 576.643C602.384 576.401 601.222 576.309 601.222 576.309Z" fill="black"/>
<path d="M621.332 546.575C621.332 546.575 620.869 548.205 622.135 550.794C623.401 553.383 621.492 553.893 621.492 553.893L617.676 554.916L615.456 551.824L617.328 551.482C617.328 551.482 618.467 550.842 617.159 548.098L621.332 546.575Z" fill="#FFD2D9"/>
<path d="M609 546.369C610.094 548.113 611.446 550.232 612.168 551.361L612.679 552.158L614.489 548.83C614.489 548.83 614.307 548.596 614.043 548.273C613.455 547.555 612.456 546.395 612.111 546.372C612.111 546.372 615.56 545.196 616.86 545.768C618.16 546.339 616.996 543.221 616.996 543.221C616.996 543.221 614.894 543.624 614.003 543.354C613.112 543.085 608.865 543.728 608.865 543.728C608.865 543.728 607.427 543.861 609 546.369Z" fill="#FFD2D9"/>
<path d="M592.236 575.459L593.837 579.295L595.171 578.778C595.171 578.778 595.233 578.675 595.339 578.508C595.619 578.076 596.216 577.215 596.857 576.659C597.072 576.462 597.32 576.307 597.591 576.201L595.435 574.268C595.102 574.51 594.752 574.728 594.388 574.919C594.011 575.124 593.613 575.285 593.2 575.398C592.887 575.487 592.559 575.508 592.236 575.459V575.459Z" fill="#FFD2D9"/>
<path d="M596.807 577.242C597.662 577.681 600.437 575.516 601.516 577.402L601.492 575.345L601.42 569.017L601.409 568.146L602.656 567.752L616.965 563.242L617.775 562.986L618.209 562.849L617.558 562.713L613.221 561.802C613.221 561.802 611.819 562.072 609.851 562.314C606.868 562.682 602.58 562.98 599.903 562.192C595.457 560.873 596.12 569.145 596.12 569.145C596.12 569.145 596.07 571.301 596.159 573.39C596.185 574.295 596.262 575.197 596.389 576.094C596.485 576.714 596.623 577.146 596.807 577.242Z" fill="#794E4E"/>
<path opacity="0.05" d="M596.806 577.242C597.661 577.682 600.436 575.516 601.516 577.402L601.492 575.346L601.419 569.017L601.409 568.146L602.688 567.715L616.44 563.088L617.288 562.801L617.55 562.713L617.888 562.599L613.213 561.801C613.213 561.801 611.811 562.071 609.843 562.313C606.86 562.681 602.573 562.978 599.896 562.19C595.45 560.871 596.112 569.144 596.112 569.144C596.112 569.144 596.063 571.3 596.152 573.389C596.178 574.293 596.255 575.196 596.382 576.093C596.485 576.714 596.622 577.146 596.806 577.242Z" fill="#5E2323"/>
<path opacity="0.1" d="M594.388 574.912L596.153 576.156L596.857 576.652C597.072 576.455 597.32 576.3 597.591 576.194L595.435 574.261C595.102 574.503 594.752 574.721 594.388 574.912V574.912Z" fill="black"/>
<path d="M594.409 574.705L596.384 576.099L597.335 576.769L597.398 577.004C598.332 576.977 600.923 575.648 601.493 575.349L601.604 575.291C603.381 574.898 608.828 569.256 608.828 569.256C608.828 569.256 616.265 568.602 619.616 567.369C621.488 566.68 621.836 565.827 621.778 565.206C621.744 564.9 621.624 564.611 621.432 564.372L617.768 562.989L617.281 562.799L616.506 562.505C616.506 562.505 615.306 562.546 613.785 562.607C611.407 562.703 608.244 562.846 607.628 562.962C606.614 563.15 604.324 564.684 603.333 566.79C603.155 567.125 602.937 567.435 602.683 567.713L602.65 567.75C602.316 568.136 601.893 568.564 601.42 569.013C599.838 570.503 597.66 572.232 596.153 573.388C595.124 574.182 594.409 574.705 594.409 574.705Z" fill="#965555"/>
<path opacity="0.1" d="M592.236 575.459L593.837 579.295L595.171 578.778C595.171 578.778 595.233 578.675 595.339 578.508C595.034 578.59 594.51 578.642 594.232 578.026C594.232 578.026 594.255 575.992 593.201 575.401C592.888 575.489 592.559 575.509 592.236 575.459Z" fill="black"/>
<path d="M594.073 578.057C594.073 578.057 594.106 575.122 592.266 575.28L589.678 577.228L586.374 578.365C586.374 578.365 585.889 580.064 587.735 581.33C588.241 581.671 588.809 581.906 589.403 582.019C589.998 582.132 590.608 582.122 591.196 581.989L594.91 581.178L595.414 578.454C595.414 578.454 594.482 578.951 594.073 578.057Z" fill="#DC9BA3"/>
<path opacity="0.1" d="M609.846 562.315C610.262 562.327 611.984 562.383 613.791 562.609C614.682 562.71 615.567 562.87 616.439 563.087C616.621 563.136 616.796 563.187 616.963 563.24C617.394 563.364 617.804 563.56 618.174 563.82C619.45 564.813 621.014 565.114 621.777 565.203C621.743 564.897 621.622 564.608 621.431 564.369L617.767 562.986L618.201 562.849L617.549 562.713L617.887 562.598L613.213 561.801C613.213 561.801 611.814 562.073 609.846 562.315Z" fill="black"/>
<path opacity="0.1" d="M612.174 551.361L612.686 552.158L614.495 548.83C614.495 548.83 614.313 548.596 614.049 548.273C613.907 549.046 612.709 550.659 612.174 551.361Z" fill="black"/>
<path d="M621.607 550.219C621.626 549.931 621.619 549.641 621.586 549.353L625.181 549.638C625.181 549.638 627.904 550.791 628.7 554.676C628.7 554.676 625.639 554.374 624.742 555.945L624.776 556.172C625.103 558.423 624.704 560.714 623.639 562.699C623.207 563.514 622.831 564.402 622.718 565.19C622.718 565.19 620.413 565.14 618.654 563.769C616.896 562.398 610.233 562.266 610.233 562.266C610.233 562.266 613.538 561.464 613.682 560.17C613.827 558.876 614.685 555.969 613.628 554.162C612.572 552.355 612.098 551.812 612.098 551.812C612.098 551.812 614.624 548.709 614.205 548.068L616.819 549.878L617.819 549.945C617.795 550.146 617.81 550.35 617.864 550.546C618.379 552.679 621.445 552.403 621.607 550.219Z" fill="#0C2F20"/>
<path opacity="0.1" d="M617.552 549.108C617.45 548.822 617.334 548.543 617.203 548.27L621.375 546.734C621.375 546.734 621.152 547.074 621.282 548.084C620.86 548.518 620.386 549.09 619.76 549.258C619.03 549.455 618.254 549.402 617.552 549.108V549.108Z" fill="black"/>
<path d="M619.689 549.149C621.545 548.651 622.637 546.711 622.129 544.815C621.621 542.918 619.705 541.784 617.849 542.281C615.993 542.779 614.901 544.719 615.409 546.615C615.917 548.512 617.833 549.646 619.689 549.149Z" fill="#FFD2D9"/>
<path d="M621.492 545.948L621.034 546.07L620.679 544.744L619.844 543.462C619.844 543.462 617.259 542.983 616.248 543.506L615.622 544.506C615.622 544.506 614.891 542.695 616.078 541.623C617.265 540.552 619.791 540.21 620.548 540.586C621.304 540.962 622.555 541.638 622.475 544.42L622.421 545.114C622.421 545.114 621.414 545.048 621.492 545.948Z" fill="#844F6E"/>
<g opacity="0.05">
<path opacity="0.05" d="M616.04 549.342L615.767 549.324L614.25 548.273C614.255 548.202 614.239 548.132 614.203 548.07L616.04 549.342Z" fill="black"/>
<path opacity="0.05" d="M618.321 551.429C617.956 551.375 617.616 551.207 617.346 550.95C617.076 550.693 616.889 550.358 616.811 549.991C616.798 549.944 616.787 549.901 616.775 549.859L616.806 549.881L617.806 549.948C617.783 550.149 617.798 550.353 617.851 550.549C617.929 550.878 618.091 551.182 618.321 551.429V551.429Z" fill="black"/>
<path opacity="0.05" d="M611.564 561.843C613.66 562.01 616.539 562.388 617.607 563.219L617.686 563.278C615.195 562.37 610.231 562.267 610.231 562.267C610.683 562.151 611.128 562.01 611.564 561.843V561.843Z" fill="black"/>
<path opacity="0.05" d="M621.671 564.641C621.785 563.855 622.163 562.965 622.592 562.15C623.656 560.164 624.055 557.874 623.729 555.622L623.695 555.395C624.582 553.819 627.653 554.127 627.653 554.127C627.149 551.661 625.868 550.298 625 549.629L625.184 549.644C625.184 549.644 627.907 550.796 628.704 554.682C628.704 554.682 625.642 554.38 624.746 555.951L624.78 556.177C625.106 558.429 624.707 560.72 623.643 562.705C623.21 563.52 622.835 564.408 622.721 565.196C622.721 565.196 620.714 565.151 619.019 564.034C619.865 564.384 620.761 564.59 621.671 564.641V564.641Z" fill="black"/>
</g>
<path d="M620.064 555.283C620.064 555.283 625.165 559.687 627.499 560.735C629.833 561.783 629.755 559.377 629.755 559.377L628.417 554.383L624.946 554.895L625.037 555.379L625.141 555.931L621.087 553.33C621.087 553.33 617.182 551.281 617.031 553.162C616.881 555.042 620.064 555.283 620.064 555.283Z" fill="#FFD2D9"/>
<path opacity="0.1" d="M608.876 569.281C608.26 569.018 607.608 568.853 606.944 568.793C606.314 568.746 605.694 568.602 605.104 568.366" fill="black"/>
<path opacity="0.2" d="M586.384 578.361L586.506 578.319C586.451 578.839 586.502 580.059 587.91 581.03C588.415 581.37 588.981 581.604 589.574 581.718C590.166 581.831 590.774 581.822 591.361 581.691L594.963 580.908L594.913 581.178L591.196 581.99C590.61 582.121 590.002 582.13 589.409 582.017C588.816 581.903 588.25 581.669 587.746 581.329C585.899 580.061 586.384 578.361 586.384 578.361Z" fill="white"/>
<path opacity="0.05" d="M600.248 578.232C600.249 578.282 600.25 578.332 600.248 578.381C600.162 578.358 600.033 578.303 600.248 578.232Z" fill="#00FF00"/>
<path opacity="0.2" d="M594.721 581.648C595.602 581.802 601.204 579.165 601.959 578.806C601.996 578.879 602.047 578.945 602.108 578.999C602.108 578.999 595.723 582.049 594.778 581.883C594.285 581.8 594.114 581.564 594.108 581.309C594.201 581.464 594.383 581.593 594.721 581.648Z" fill="white"/>
<path opacity="0.1" d="M616.195 544.647C615.232 544.358 614.364 543.802 613.688 543.043C613.6 542.963 613.544 542.853 613.528 542.734C613.526 542.508 613.786 542.398 613.958 542.254C614.277 541.986 614.316 541.517 614.465 541.121C614.597 540.793 614.816 540.509 615.097 540.302C615.378 540.094 615.711 539.971 616.059 539.945C616.427 539.924 616.796 540.014 617.164 539.97C617.952 539.88 618.652 539.19 619.428 539.363C619.782 539.443 620.075 539.693 620.34 539.946C621.007 540.58 621.804 541.23 621.62 542.229C621.515 542.802 621.241 543.327 620.738 543.62C620.235 543.914 619.574 543.958 619.004 544.047C618.537 544.117 618.034 544.146 617.588 544.311C617.065 544.512 616.789 544.824 616.195 544.647Z" fill="black"/>
<path d="M616.153 544.49C615.19 544.201 614.322 543.645 613.646 542.885C613.558 542.805 613.502 542.696 613.486 542.577C613.484 542.35 613.744 542.24 613.916 542.097C614.235 541.828 614.274 541.36 614.423 540.964C614.555 540.636 614.774 540.352 615.055 540.144C615.336 539.937 615.669 539.814 616.017 539.788C616.385 539.766 616.754 539.857 617.122 539.813C617.91 539.723 618.61 539.032 619.386 539.206C619.74 539.286 620.033 539.536 620.298 539.789C620.965 540.423 621.762 541.073 621.578 542.071C621.473 542.644 621.199 543.17 620.696 543.463C620.193 543.757 619.532 543.801 618.962 543.889C618.495 543.96 617.992 543.989 617.546 544.153C617.023 544.355 616.748 544.669 616.153 544.49Z" fill="#844F6E"/>
<path d="M559.776 576.16C560.207 577.769 560.58 578.809 560.58 578.809C560.58 578.809 562.863 578.335 563.372 580.483C563.88 582.631 572.806 580.723 572.806 580.723C572.806 580.723 572.8 580.701 572.789 580.659C572.789 580.659 572.743 580.487 572.66 580.176C573.531 580.079 574.454 579.942 574.943 579.758C574.954 579.933 574.961 580.119 574.965 580.285C574.935 580.337 574.349 581.392 574.614 582.277C574.719 582.729 575.042 583.137 575.788 583.347C577.944 583.959 583.567 581.79 583.567 581.79C584.287 580.966 584.445 580.386 584.318 579.975C584.181 579.354 583.467 579.081 582.843 578.948C582.361 578.845 581.86 578.923 581.433 579.165C580.851 579.472 580.227 579.69 579.582 579.814C579.572 579.678 579.57 579.543 579.578 579.408C580.218 579.42 580.662 579.438 580.662 579.438C580.662 579.438 583.297 576.933 581.286 574.566C580.982 574.244 580.595 574.017 580.17 573.914C580.693 571.903 581.084 569.596 580.62 568.239C579.845 565.975 575.499 567.678 573.893 568.398L569.788 566.021C569.146 563.628 568.482 560.861 568.104 560.324C567.441 559.394 567.606 559.496 567.228 559.107L567.213 559.093C567.002 558.89 566.501 558.613 566.412 558.692C566.241 558.229 566.119 557.748 566.048 557.259C566.773 556.779 567.329 556.078 567.637 555.253C567.945 554.429 567.989 553.524 567.764 552.667C567.592 552.026 567.273 551.434 566.831 550.943L566.87 550.912L565.874 548.893C565.847 548.852 565.828 548.806 565.818 548.757C565.809 548.709 565.809 548.659 565.819 548.611C565.847 548.539 565.917 548.501 565.963 548.444C566.01 548.363 566.029 548.268 566.017 548.173C566.005 548.079 565.963 547.991 565.897 547.923C565.836 547.855 565.763 547.799 565.681 547.758C565.213 547.44 564.493 547.791 564.01 547.855C563.356 547.942 562.661 548 562.148 548.48C562.041 548.597 561.926 548.705 561.803 548.804C561.627 548.908 561.434 548.98 561.233 549.017C560.877 549.112 560.53 549.24 560.197 549.399C559.695 549.353 559.198 549.646 558.844 550.018C558.442 550.451 558.163 550.988 558.039 551.572C557.915 552.157 557.95 552.767 558.14 553.336C558.274 553.688 558.438 554.028 558.63 554.351L560.248 557.26C560.368 557.507 560.534 557.728 560.737 557.911C560.784 557.949 560.834 557.981 560.888 558.008C560.987 558.08 561.103 558.125 561.224 558.138C561.344 558.151 561.466 558.133 561.576 558.084C561.604 558.068 561.63 558.05 561.654 558.029C561.716 558.364 561.74 558.705 561.727 559.045C560.903 559.551 559.853 560.83 559.014 563.94C557.936 567.925 558.965 573.1 559.776 576.16Z" fill="url(#paint0_linear_135_293)"/>
<path d="M568.762 578.56L577.52 576.214L575.802 569.804L567.045 572.151L568.762 578.56Z" fill="#5F5D7E"/>
<path d="M573.254 568.989C573.254 568.989 579.4 565.844 580.335 568.589C581.269 571.333 578.729 577.996 578.729 577.996L574.866 578.215L574.765 573.616C574.765 573.616 570.349 573.778 570.083 573.782C569.818 573.786 573.254 568.989 573.254 568.989Z" fill="#5F5D7E"/>
<path opacity="0.1" d="M573.254 568.989C573.254 568.989 579.4 565.844 580.335 568.589C581.269 571.333 578.729 577.996 578.729 577.996L574.866 578.215L574.765 573.616C574.765 573.616 570.349 573.778 570.083 573.782C569.818 573.786 573.254 568.989 573.254 568.989Z" fill="black"/>
<path d="M579.494 578.61C579.494 578.61 579.197 579.982 579.514 580.441C579.832 580.901 574.918 580.924 574.918 580.924C574.918 580.924 574.9 579.365 574.787 579.196C574.675 579.028 579.494 578.61 579.494 578.61Z" fill="#5F5D7E"/>
<path d="M573.245 571.44L573.815 571.739L574.18 571.933C574.18 571.933 576.335 574.009 577.851 571.971C579.368 569.933 575.644 569.709 574.945 569.834C574.802 569.85 574.658 569.831 574.523 569.778C574.389 569.725 574.269 569.639 574.173 569.529C574.018 569.371 573.888 569.19 573.788 568.991L573.245 571.44Z" fill="#FDC2CC"/>
<path opacity="0.05" d="M573.245 571.44L573.815 571.739L574.18 571.933C574.18 571.933 576.335 574.009 577.851 571.971C579.368 569.933 575.644 569.709 574.945 569.834C574.802 569.85 574.658 569.831 574.523 569.778C574.389 569.725 574.269 569.639 574.173 569.529C574.018 569.371 573.888 569.19 573.788 568.991L573.245 571.44Z" fill="black"/>
<path opacity="0.1" d="M579.494 578.61C579.494 578.61 579.197 579.982 579.514 580.441C579.832 580.901 574.918 580.924 574.918 580.924C574.918 580.924 574.9 579.365 574.787 579.196C574.675 579.028 579.494 578.61 579.494 578.61Z" fill="black"/>
<path opacity="0.1" d="M573.245 571.44L573.815 571.74C573.597 570.926 573.925 570.037 574.174 569.52C574.019 569.361 573.889 569.18 573.788 568.982L573.245 571.44Z" fill="black"/>
<path d="M568.796 565.762L574.255 568.993C574.255 568.993 573.12 570.725 573.806 572.038L569.749 569.316L568.796 565.762Z" fill="#8614AE"/>
<path opacity="0.1" d="M568.827 565.754L569.779 569.309L570.429 569.745L572.359 571.039L573.837 572.031C573.153 570.718 574.285 568.986 574.285 568.986L568.827 565.754Z" fill="black"/>
<path d="M567.111 559.478C567.111 559.478 567.468 560.81 566.248 560.73C565.029 560.65 570.031 575.84 570.031 575.84C570.031 575.84 572.597 572.499 571.499 570.889C570.401 569.279 569.92 567.975 569.503 566.185C569.086 564.396 567.111 559.478 567.111 559.478Z" fill="#D39999"/>
<path d="M566.096 555.94C566.096 555.94 565.861 558.792 567.321 560.511C568.78 562.229 561.502 560.912 561.502 560.912C561.502 560.912 562.744 559.831 561.346 556.601L566.096 555.94Z" fill="#FDC2CC"/>
<path opacity="0.1" d="M569.836 567.659C569.985 568.367 570.172 569.066 570.397 569.753L572.326 571.047C571.984 570.633 571.617 570.241 571.227 569.872C570.9 569.57 570.461 568.135 570.006 566.484L569.316 566.076C569.612 566.953 569.836 567.659 569.836 567.659Z" fill="black"/>
<path d="M566.55 559.259C566.392 558.944 567.065 559.303 567.316 559.548L567.329 559.562C567.698 559.944 567.538 559.846 568.183 560.761C568.829 561.677 570.303 569.17 571.107 569.917C571.656 570.444 572.165 571.013 572.628 571.619L571.532 571.504C571.532 571.504 570.853 570.461 570.538 570.273C570.222 570.085 569.716 567.704 569.716 567.704C569.716 567.704 568.442 563.692 568.016 562.853C567.677 562.178 566.884 559.922 566.55 559.259Z" fill="#8614AE"/>
<path opacity="0.1" d="M566.55 559.259C566.392 558.944 567.065 559.303 567.316 559.548L567.329 559.562C567.698 559.944 567.538 559.846 568.183 560.761C568.829 561.677 570.303 569.17 571.107 569.917C571.656 570.444 572.165 571.013 572.628 571.619L571.532 571.504C571.532 571.504 570.853 570.461 570.538 570.273C570.222 570.085 569.716 567.704 569.716 567.704C569.716 567.704 568.442 563.692 568.016 562.853C567.677 562.178 566.884 559.922 566.55 559.259Z" fill="black"/>
<path d="M569.336 575.481C569.336 575.481 579.046 572.47 581.003 574.804C582.96 577.137 580.421 579.587 580.421 579.587C580.421 579.587 575.903 579.37 575.022 579.809C574.141 580.249 570.662 580.432 570.662 580.432L569.336 575.481Z" fill="#5F5D7E"/>
<path d="M574.361 572.366C574.361 572.366 576.257 570.497 577.719 570.985C579.182 571.474 579.654 573.732 577.932 574.261C576.21 574.79 574.989 573.961 574.989 573.961L574.361 572.366Z" fill="#FDC2CC"/>
<path d="M563.31 559.204C563.31 559.204 560.948 558.34 559.405 564.258C557.861 570.176 560.973 578.804 560.973 578.804C560.973 578.804 563.18 578.349 563.68 580.459C564.179 582.57 572.808 580.738 572.808 580.738C572.808 580.738 567.105 559.952 566.084 559.617C565.062 559.281 563.31 559.204 563.31 559.204Z" fill="#8614AE"/>
<path opacity="0.1" d="M564.316 562.993C564.736 563.158 565.112 563.421 565.414 563.762C565.716 564.102 565.935 564.51 566.052 564.952C566.572 566.85 567.715 570.935 568.111 571.659C568.632 572.608 572.715 572.942 574.624 572.363C574.624 572.363 576.032 573.89 575.016 574.571C574.001 575.252 567.067 576.701 567.067 576.701C567.067 576.701 563.563 574.307 562.772 571.6C561.98 568.893 560.785 565.942 561.071 565.253C561.3 564.674 562.247 562.208 564.316 562.993Z" fill="black"/>
<path d="M564.373 562.705C564.794 562.869 565.172 563.132 565.475 563.473C565.779 563.814 565.998 564.222 566.117 564.665C566.636 566.563 567.779 570.648 568.176 571.372C568.696 572.321 572.779 572.655 574.689 572.076C574.689 572.076 576.097 573.603 575.081 574.284C574.065 574.965 567.132 576.415 567.132 576.415C567.132 576.415 563.628 574.021 562.836 571.314C562.045 568.606 560.85 565.655 561.135 564.966C561.358 564.392 562.303 561.92 564.373 562.705Z" fill="#8614AE"/>
<path d="M582.526 579.106C583.537 579.316 584.818 579.963 583.236 581.892C583.236 581.892 577.817 584.024 575.709 583.364C573.602 582.704 574.91 580.38 574.91 580.38C574.91 580.38 579.333 580.396 581.165 579.318C581.576 579.08 582.06 579.005 582.526 579.106Z" fill="#4C4C56"/>
<path opacity="0.1" d="M582.56 579.234C583.567 579.429 584.836 580.032 583.238 581.901C583.238 581.901 577.812 584.006 575.718 583.395C573.623 582.785 574.953 580.542 574.953 580.542C574.953 580.542 579.362 580.508 581.201 579.456C581.613 579.222 582.094 579.144 582.56 579.234Z" fill="black"/>
<path opacity="0.1" d="M565.809 567.412C565.809 567.412 567.191 571.328 569.479 571.667Z" fill="black"/>
<path opacity="0.1" d="M566.154 556.401C566.12 557 566.15 557.602 566.241 558.196C565.885 558.435 565.221 558.251 564.783 558.368C563.645 558.673 562.971 557.459 562.049 556.857C561.954 556.504 561.59 557.485 561.405 557.063L566.154 556.401Z" fill="black"/>
<path d="M560.005 555.326C560.094 555.658 560.222 555.978 560.388 556.278L560.414 556.326C560.935 557.243 561.777 557.928 562.769 558.242C563.761 558.556 564.828 558.475 565.755 558.015C566.682 557.555 567.399 556.751 567.76 555.766C568.121 554.781 568.099 553.689 567.699 552.712C567.299 551.735 566.55 550.945 565.605 550.503C564.66 550.061 563.59 550.001 562.611 550.334C561.632 550.666 560.818 551.368 560.334 552.295C559.85 553.223 559.733 554.307 560.006 555.327L560.005 555.326Z" fill="#FDC2CC"/>
<path opacity="0.1" d="M559.424 564.326C559.634 563.487 559.912 562.669 560.257 561.878C559.99 562.55 559.766 563.24 559.588 563.943C558.046 569.867 561.156 578.489 561.156 578.489C561.156 578.489 563.363 578.033 563.863 580.144C564.311 582.039 571.306 580.754 572.734 580.471C572.792 580.686 572.823 580.803 572.823 580.803C572.823 580.803 564.195 582.634 563.695 580.524C563.195 578.413 560.988 578.869 560.988 578.869C560.988 578.869 557.887 570.25 559.424 564.326Z" fill="black"/>
<path opacity="0.1" d="M559.278 550.627C559.62 550.264 560.099 549.977 560.585 550.025C560.906 549.87 561.24 549.746 561.584 549.655C561.776 549.619 561.96 549.549 562.128 549.449C562.247 549.353 562.358 549.248 562.461 549.134C562.955 548.665 563.628 548.612 564.26 548.529C564.773 548.462 565.563 548.053 566.005 548.557C566.069 548.623 566.111 548.709 566.122 548.802C566.134 548.894 566.116 548.987 566.071 549.068C566.027 549.124 565.96 549.16 565.933 549.231C565.924 549.279 565.924 549.328 565.933 549.375C565.942 549.423 565.961 549.468 565.987 549.509L566.958 551.493C566.794 551.637 566.603 551.746 566.396 551.811C566.189 551.877 565.971 551.899 565.754 551.876C565.632 551.861 565.512 551.84 565.392 551.813C565.141 552.098 564.783 552.029 564.435 552.209C564.233 552.332 564.073 552.514 563.976 552.732C563.671 553.317 563.54 553.98 563.598 554.643C563.621 554.892 563.646 555.2 563.438 555.327C563.357 555.367 563.273 555.399 563.186 555.424C562.794 555.586 562.759 556.123 562.584 556.518C562.371 556.998 561.867 557.409 561.969 557.93C561.996 558.064 562.063 558.201 562.02 558.331C561.99 558.41 561.931 558.474 561.855 558.51C561.735 558.562 561.602 558.577 561.472 558.555C561.343 558.533 561.221 558.475 561.122 558.386C560.927 558.204 560.768 557.986 560.654 557.744L559.076 554.88C558.889 554.564 558.729 554.231 558.598 553.887C558.411 553.328 558.376 552.73 558.496 552.156C558.616 551.582 558.886 551.054 559.278 550.627V550.627Z" fill="black"/>
<path d="M559.206 550.585C559.548 550.223 560.027 549.936 560.513 549.983C560.834 549.829 561.168 549.705 561.512 549.613C561.704 549.577 561.888 549.508 562.056 549.408C562.174 549.311 562.286 549.206 562.389 549.093C562.883 548.624 563.555 548.57 564.187 548.487C564.701 548.42 565.49 548.012 565.933 548.515C565.997 548.582 566.038 548.668 566.05 548.76C566.062 548.852 566.044 548.946 565.999 549.026C565.955 549.083 565.887 549.119 565.861 549.19C565.851 549.237 565.851 549.286 565.861 549.334C565.87 549.381 565.888 549.427 565.915 549.467L566.886 551.451C566.722 551.595 566.531 551.704 566.324 551.77C566.117 551.836 565.898 551.858 565.682 551.835C565.56 551.82 565.439 551.799 565.32 551.771C565.068 552.057 564.711 551.987 564.362 552.167C564.161 552.29 564.001 552.473 563.903 552.691C563.599 553.275 563.468 553.939 563.526 554.602C563.549 554.85 563.573 555.158 563.366 555.286C563.285 555.325 563.201 555.358 563.114 555.382C562.722 555.545 562.687 556.082 562.512 556.476C562.298 556.957 561.795 557.367 561.897 557.888C561.924 558.022 561.99 558.16 561.948 558.29C561.918 558.369 561.858 558.433 561.783 558.469C561.662 558.52 561.53 558.536 561.4 558.514C561.27 558.492 561.149 558.433 561.05 558.344C560.855 558.162 560.696 557.944 560.581 557.702L559.003 554.839C558.816 554.522 558.656 554.189 558.525 553.845C558.339 553.286 558.304 552.689 558.424 552.115C558.544 551.541 558.814 551.012 559.206 550.585Z" fill="#865A61"/>
<path d="M606.265 530.538C606.409 531.158 606.379 531.805 606.178 532.404C605.705 531.986 605.355 531.44 605.17 530.831C604.916 529.882 604.954 529.046 605.257 528.965C605.56 528.884 606.01 529.588 606.265 530.538Z" fill="#6C63FF"/>
<path d="M624.178 528.128C624.322 528.748 624.292 529.395 624.092 529.994C623.618 529.575 623.268 529.03 623.083 528.421C622.829 527.471 622.867 526.636 623.17 526.555C623.473 526.473 623.924 527.178 624.178 528.128Z" fill="#6C63FF"/>
<path opacity="0.1" d="M626.64 551.584C627.171 551.734 627.716 551.824 628.265 551.854C629.047 551.888 629.81 551.427 630.17 551.173L630.014 550.59L626.543 551.101L626.64 551.584Z" fill="black"/>
<path d="M629.916 550.072L630.336 550.856C630.336 550.856 629.294 551.744 628.219 551.699C627.488 551.646 626.765 551.503 626.066 551.272C625.898 551.234 626.425 550.173 626.425 550.173L629.916 550.072Z" fill="#CEDAD5"/>
</g>
<path opacity="0.1" d="M1020.3 788.259H1019C1020.03 787.119 1020.59 785.635 1020.58 784.099V784.099C1020.64 782.569 1020.09 781.078 1019.05 779.953C1018.01 778.828 1016.57 778.162 1015.04 778.099H976.198C974.669 778.164 973.228 778.832 972.19 779.956C971.152 781.08 970.602 782.57 970.658 784.099V784.099C970.602 785.628 971.152 787.118 972.19 788.242C973.228 789.366 974.669 790.034 976.198 790.099H977.498C976.473 791.241 975.91 792.724 975.918 794.259C975.89 795.556 976.29 796.826 977.057 797.873C977.823 798.92 978.913 799.684 980.158 800.049H968.978C967.498 800.198 966.126 800.891 965.128 801.994C964.13 803.097 963.578 804.532 963.578 806.019C963.578 807.507 964.13 808.941 965.128 810.044C966.126 811.147 967.498 811.841 968.978 811.989H1007.82C1009.35 811.924 1010.79 811.256 1011.83 810.132C1012.86 809.008 1013.42 807.518 1013.36 805.989C1013.38 804.693 1012.98 803.423 1012.22 802.377C1011.45 801.331 1010.36 800.565 1009.12 800.199H1020.3C1021.78 800.051 1023.15 799.357 1024.15 798.254C1025.15 797.151 1025.7 795.717 1025.7 794.229C1025.7 792.742 1025.15 791.307 1024.15 790.204C1023.15 789.101 1021.78 788.408 1020.3 788.259V788.259Z" fill="#6C63FF"/>
<path opacity="0.1" d="M689.429 783.129C688.614 783.013 687.785 783.077 686.999 783.319L688.789 776.099L690.979 776.639C690.732 778.858 690.212 781.038 689.429 783.129V783.129Z" fill="black"/>
<path d="M842.488 957.289L798.898 1010.22C798.898 1010.22 796.978 1007.99 793.738 1004.17C775.638 982.939 716.078 912.629 716.078 906.669C716.078 899.669 685.568 870.109 685.568 870.109C685.568 870.109 658.168 847.109 673.108 775.429C688.048 703.749 723.548 843.949 722.308 853.289C721.068 862.629 742.228 887.539 742.228 887.539C742.228 887.539 769.008 900.619 782.708 914.939C792.348 925.019 818.018 941.879 832.378 950.939C838.438 954.819 842.488 957.289 842.488 957.289Z" fill="#FDC2CC"/>
<path opacity="0.1" d="M842.489 957.289L798.899 1010.22C798.899 1010.22 796.979 1007.99 793.739 1004.17C794.439 989.349 825.739 956.649 831.279 951.679C831.605 951.387 831.976 951.151 832.379 950.979C838.439 954.819 842.489 957.289 842.489 957.289Z" fill="black"/>
<path d="M861.169 966.009C861.169 966.009 841.239 947.329 835.019 952.939C828.799 958.549 789.559 999.639 798.899 1010.23C808.239 1020.82 864.279 1065.01 864.279 1065.01L861.169 966.009Z" fill="#5F5D7E"/>
<path opacity="0.1" d="M861.169 966.009C861.169 966.009 841.239 947.329 835.019 952.939C828.799 958.549 789.559 999.639 798.899 1010.23C808.239 1020.82 864.279 1065.01 864.279 1065.01L861.169 966.009Z" fill="black"/>
<path d="M1036.15 817.179C1036.15 817.179 1016.7 835.949 992.339 856.309L991.419 857.069L989.999 858.249C951.139 890.389 901.059 925.069 895.899 895.389C895.321 891.515 895.297 887.579 895.829 883.699C895.889 883.129 895.969 882.539 896.049 881.939C896.129 881.339 896.209 880.779 896.269 880.209C897.238 872.729 897.776 865.2 897.879 857.659C897.879 856.389 897.879 855.129 897.879 853.879C897.622 826.272 892.195 798.957 881.879 773.349C881.279 771.829 880.669 770.349 880.079 768.939C872.079 749.859 864.249 738.719 864.249 738.719C864.249 738.719 875.819 731.719 891.859 722.719C897.749 719.439 904.229 715.909 910.969 712.369C947.969 692.969 992.459 673.569 986.299 696.369C983.389 707.159 986.089 721.479 991.449 736.469C991.749 737.299 992.049 738.109 992.359 738.929C995.834 747.987 999.841 756.833 1004.36 765.419L1004.66 765.999C1011.09 778.319 1018.02 789.829 1023.76 798.779C1025.14 800.939 1026.45 802.959 1027.67 804.779C1032.7 812.479 1036.15 817.179 1036.15 817.179Z" fill="#FDC2CC"/>
<path opacity="0.1" d="M992.389 738.929C992.099 739.359 991.789 739.789 991.479 740.209C982.139 752.909 971.329 760.469 958.479 764.729C949.619 767.679 939.759 769.069 928.709 769.509C925.959 769.609 923.149 769.659 920.249 769.659C913.565 769.671 906.887 769.287 900.249 768.509C896.759 767.959 893.109 770.309 889.579 772.029C886.949 773.299 884.379 774.229 881.979 773.349C881.379 771.829 880.769 770.349 880.179 768.939C872.179 749.859 864.349 738.719 864.349 738.719C864.349 738.719 875.919 731.719 891.959 722.719C897.849 719.439 904.329 715.909 911.069 712.369C948.069 692.969 992.559 673.569 986.399 696.369C983.489 707.159 986.189 721.479 991.549 736.469C991.779 737.299 992.079 738.109 992.389 738.929Z" fill="black"/>
<path d="M1010 680.009C1010 681.469 1010 682.909 1009.9 684.349C1008.94 705.522 1000.96 725.774 987.211 741.905C973.463 758.036 954.733 769.128 933.979 773.429C922.626 775.765 910.944 776.026 899.498 774.199C896.128 773.673 892.789 772.958 889.498 772.059C886.313 771.195 883.175 770.164 880.099 768.969V768.969C867.369 764.02 855.849 756.398 846.318 746.616C836.786 736.834 829.464 725.121 824.847 712.268C820.23 699.414 818.425 685.719 819.553 672.108C820.681 658.497 824.717 645.287 831.388 633.369L832.229 631.899C842.801 613.805 859.038 599.695 878.43 591.75C897.822 583.804 919.291 582.466 939.52 587.94C959.749 593.415 977.613 605.398 990.351 622.039C1003.09 638.68 1009.99 659.052 1010 680.009V680.009Z" fill="#FDC2CC"/>
<path opacity="0.1" d="M1036.15 817.179C1036.15 817.179 884.829 963.509 896.039 881.939C897.31 872.64 897.931 863.264 897.899 853.879C903.15 847.387 908.727 841.166 914.609 835.239L935.869 819.869C957.79 803.869 984.519 795.839 1011.63 797.109C1015.72 797.213 1019.78 797.773 1023.75 798.779C1030.88 809.949 1036.15 817.179 1036.15 817.179Z" fill="black"/>
<path d="M1143.4 1068.4C1137.86 1070.05 1132.19 1071.48 1126.47 1072.73C1123.65 1073.36 1120.81 1073.94 1117.97 1074.48C1113.14 1075.41 1108.29 1076.24 1103.47 1077C1079.33 1080.79 1054.97 1083.25 1030.47 1085L1026.47 1085.27L1024.01 1085.43C1020.27 1085.68 1016.53 1085.9 1012.8 1086.11C997.849 1086.95 982.879 1087.56 967.909 1088.11C956.909 1088.49 946.019 1088.81 935.079 1089.11L912.829 1089.76L907.079 1089.93L904.559 1090C897.972 1090.2 891.379 1090.39 884.779 1090.57L877.119 1090.79L862.889 1091.18L859.889 1091.26C859.089 1084.2 857.619 1071.37 856.059 1058.56L855.699 1055.56C853.979 1041.43 852.199 1027.86 851.169 1022.72C848.679 1010.27 851.169 958.579 851.169 958.579L851.439 958.149L852.619 956.149C858.509 946.319 880.349 908.699 879.809 892.529C879.489 882.879 888.809 868.919 897.809 857.669C898.989 856.209 900.159 854.789 901.309 853.439C908.479 845.009 914.619 839.009 914.619 839.009L935.869 823.629C957.801 807.645 984.53 799.623 1011.64 800.889C1019.64 801.299 1026.02 802.419 1027.64 804.829C1028.33 805.219 1043.83 814.119 1060.83 833.979C1069.11 843.648 1076.31 854.19 1082.31 865.419C1082.49 865.739 1082.67 866.069 1082.84 866.419C1082.84 866.419 1121.45 930.559 1126.43 969.169C1131.41 1007.78 1138.89 1039.53 1138.89 1039.53C1138.89 1039.53 1141.02 1051.72 1143.4 1068.4Z" fill="#5F5D7E"/>
<path opacity="0.1" d="M1028.06 1038.86C1024.99 1043.86 1027.36 1067.27 1030.51 1084.96L1026.51 1085.23L1024.05 1085.39C1020.31 1085.64 1016.57 1085.86 1012.84 1086.07C997.889 1086.91 982.919 1087.52 967.949 1088.07C956.949 1088.45 946.059 1088.77 935.119 1089.07L912.869 1089.72C912.869 1087.44 912.169 1085.47 910.359 1084.32C909.095 1083.41 907.976 1082.31 907.039 1081.07C906.749 1080.72 906.449 1080.34 906.149 1079.95C899.219 1070.75 890.439 1051.95 890.439 1051.95C890.439 1051.95 879.229 1054.44 877.979 962.949C877.579 933.129 885.299 911.309 895.889 895.439C917.829 862.579 952.079 855.219 952.079 855.219C964.769 853.011 977.813 854.075 989.979 858.309C994.751 859.983 999.346 862.123 1003.7 864.699C1009.53 868.209 1014.98 872.336 1019.93 877.009L1021.53 878.539C1056.45 912.539 1064.7 965.629 1043.13 1009.36C1036.22 1023.33 1029.99 1035.72 1028.06 1038.86Z" fill="black"/>
<path d="M1023.08 1033.88C1019.7 1039.38 1022.92 1067.31 1026.52 1085.23L1024.06 1085.39C1020.32 1085.64 1016.58 1085.86 1012.85 1086.07C997.899 1086.91 982.929 1087.52 967.959 1088.07C956.959 1088.45 946.069 1088.77 935.129 1089.07L912.879 1089.72L907.129 1089.89C908.009 1086.66 908.339 1083.33 907.049 1081.07C906.809 1080.65 906.509 1080.28 906.159 1079.95C905.929 1079.71 905.67 1079.51 905.389 1079.34C898.539 1074.98 885.459 1046.95 885.459 1046.95C885.459 1046.95 874.259 1049.45 873.009 957.949C872.549 923.689 882.809 899.949 895.829 883.729C917.609 856.559 947.109 850.219 947.109 850.219C950.971 849.578 954.874 849.217 958.789 849.139H958.909C970.459 848.884 981.908 851.35 992.329 856.339C1001.29 860.712 1009.47 866.53 1016.54 873.559C1017.7 874.689 1018.84 875.839 1019.93 877.009C1051.93 911.099 1059.01 962.109 1038.15 1004.38C1031.24 1018.35 1025.01 1030.74 1023.08 1033.88Z" fill="#5F5D7E"/>
<path opacity="0.1" d="M946.048 972.399C946.048 972.399 884.599 1016.01 889.839 1022.01C895.079 1028.01 946.048 972.399 946.048 972.399Z" fill="black"/>
<path opacity="0.1" d="M1032.28 988.109C1032.28 988.109 1013.08 971.009 1014.47 977.639C1015.86 984.269 1032.28 988.109 1032.28 988.109Z" fill="black"/>
<path opacity="0.1" d="M1012.85 1086.07C997.899 1086.91 982.929 1087.52 967.959 1088.07C942.329 1085.07 915.679 1080.66 915.679 1080.66C917.989 1079.31 999.759 1077.68 1012.85 1086.07Z" fill="black"/>
<path opacity="0.1" d="M884.828 1090.53L877.168 1090.75C871.068 1074.09 865.828 1054.33 863.688 1045.94C863.028 1043.35 862.688 1041.84 862.688 1041.84L863.638 1043.84C866.788 1050.41 877.228 1072.33 884.828 1090.53Z" fill="black"/>
<path opacity="0.1" d="M1003.7 714.079C1000.65 722.06 996.529 729.592 991.459 736.469C991.759 737.299 992.059 738.109 992.369 738.929C995.844 747.988 999.851 756.833 1004.37 765.419L1004.67 765.999C1005.19 769.999 1005.91 773.999 1006.74 777.899C991.539 778.699 976.322 779.049 961.089 778.949C954.469 778.949 947.749 778.759 941.439 776.779C938.832 775.956 936.334 774.821 933.999 773.399C932.121 772.261 930.348 770.959 928.699 769.509C920.475 762.078 915.283 751.872 914.119 740.849C913.209 732.259 914.509 723.359 912.019 715.089C911.732 714.169 911.398 713.265 911.019 712.379C908.982 707.669 905.767 703.562 901.682 700.455C897.598 697.347 892.782 695.345 887.699 694.639C886.228 694.319 884.691 694.527 883.359 695.229C882.222 696.175 881.403 697.445 881.009 698.869L870.699 725.759C863.359 727.599 858.179 718.009 858.789 710.469C859.399 702.929 862.789 695.209 860.279 688.069C859.509 685.859 858.199 683.849 857.639 681.589C855.409 672.679 864.989 664.769 865.069 655.589C865.129 648.039 858.669 641.939 851.809 638.799C845.519 635.919 838.569 634.679 832.269 631.869C842.851 613.792 859.089 599.701 878.476 591.769C897.863 583.838 919.322 582.508 939.54 587.984C959.758 593.46 977.612 605.439 990.346 622.07C1003.08 638.702 1009.99 659.063 1010 680.009C1010 681.469 1010 682.909 1009.9 684.349C1009.44 694.528 1007.35 704.567 1003.7 714.079V714.079Z" fill="black"/>
<path d="M909.289 555.399C902.919 554.759 895.918 554.599 890.758 558.399C885.338 562.399 883.538 569.559 879.938 575.249C873.068 586.129 860.108 591.099 849.168 597.869C838.228 604.639 827.869 616.729 831.529 629.069C838.269 632.469 845.919 633.659 852.779 636.799C859.639 639.939 866.099 646.039 866.039 653.589C865.959 662.769 856.378 670.679 858.608 679.589C859.168 681.849 860.478 683.859 861.248 686.069C863.738 693.209 860.368 700.929 859.758 708.469C859.148 716.009 864.328 725.599 871.668 723.759L882.048 696.869C882.442 695.445 883.262 694.174 884.399 693.229C885.73 692.527 887.267 692.318 888.738 692.639C894.295 693.417 899.52 695.749 903.808 699.368C908.097 702.986 911.276 707.742 912.979 713.089C915.469 721.359 914.168 730.259 915.078 738.849C916.748 754.689 927.218 770.009 942.418 774.779C948.728 776.779 955.418 776.909 962.068 776.949C977.288 777.062 992.505 776.712 1007.72 775.899C1003.97 758.259 1002.44 738.769 1011.53 723.209C1015.42 716.549 1021.03 711.059 1025.31 704.639C1032.31 694.179 1035.49 681.689 1038.06 669.379C1040.06 660.049 1041.69 650.509 1040.81 641.019C1039.34 625.109 1030.89 610.809 1022.65 597.129C1018.31 589.919 1013.75 582.479 1006.76 577.819C992.218 568.139 974.398 574.209 958.858 568.649C942.348 562.759 927.259 557.219 909.289 555.399Z" fill="#865A61"/>
<rect x="643" y="468" width="315" height="133" rx="16" transform="rotate(-15 643 468)" fill="#03053D"/>
<path d="M715.181 540.799C710.978 541.925 708.318 540.408 707.204 536.248L698.14 502.422C697.025 498.262 698.57 495.619 702.773 494.492L718.8 490.198C723.792 488.86 727.939 488.923 731.24 490.385C734.574 491.791 736.728 494.311 737.701 497.946C738.347 500.354 738.297 502.62 737.552 504.744C736.851 506.856 735.545 508.638 733.634 510.089C736.428 510.184 738.779 510.986 740.684 512.494C742.578 513.957 743.895 516.068 744.634 518.827C745.725 522.899 745.121 526.511 742.821 529.662C740.552 532.757 736.9 534.979 731.865 536.328L715.181 540.799ZM712.956 511.476L721.56 509.17C723.75 508.583 725.243 507.761 726.039 506.703C726.878 505.633 727.081 504.288 726.647 502.668C726.213 501.048 725.371 500.006 724.12 499.543C722.902 499.025 721.198 499.059 719.009 499.646L710.404 501.951L712.956 511.476ZM718.06 530.524L727.847 527.901C730.08 527.303 731.589 526.453 732.373 525.351C733.189 524.193 733.368 522.761 732.911 521.053C732.453 519.345 731.588 518.216 730.314 517.666C729.084 517.104 727.352 517.122 725.119 517.72L715.332 520.343L718.06 530.524ZM761.103 528.494C759.133 529.022 757.481 528.901 756.149 528.132C754.805 527.319 753.874 525.949 753.358 524.022L744.206 489.867C743.678 487.897 743.799 486.245 744.568 484.913C745.338 483.58 746.686 482.656 748.612 482.139C750.539 481.623 752.169 481.75 753.501 482.519C754.834 483.288 755.764 484.658 756.292 486.629L764.388 516.843L780.414 512.549C782.078 512.103 783.466 512.2 784.576 512.841C785.73 513.471 786.519 514.574 786.941 516.15C787.375 517.77 787.25 519.141 786.565 520.264C785.924 521.374 784.771 522.152 783.107 522.598L761.103 528.494ZM813.377 515.262C808.692 516.517 804.311 516.635 800.237 515.615C796.194 514.539 792.706 512.47 789.773 509.407C786.841 506.345 784.735 502.427 783.456 497.654C782.165 492.837 782.008 488.397 782.985 484.334C783.993 480.215 786.007 476.696 789.026 473.775C792.044 470.854 795.897 468.766 800.582 467.51C805.267 466.255 809.626 466.143 813.657 467.175C817.732 468.195 821.235 470.236 824.168 473.299C827.089 476.318 829.194 480.236 830.485 485.052C831.764 489.825 831.899 494.271 830.891 498.39C829.883 502.508 827.875 506.05 824.868 509.015C821.893 511.924 818.062 514.006 813.377 515.262ZM810.667 505.147C814.082 504.231 816.431 502.311 817.712 499.387C819.025 496.407 819.101 492.749 817.94 488.414C816.778 484.079 814.911 480.965 812.339 479.073C809.767 477.181 806.752 476.698 803.292 477.625C799.833 478.552 797.463 480.478 796.181 483.403C794.9 486.327 794.84 489.957 796.002 494.292C797.163 498.627 799.036 501.763 801.62 503.699C804.192 505.591 807.207 506.073 810.667 505.147ZM867.673 500.713C862.375 502.133 857.6 502.356 853.35 501.383C849.144 500.398 845.603 498.39 842.725 495.36C839.848 492.329 837.776 488.449 836.509 483.72C835.195 478.816 835.064 474.298 836.116 470.168C837.2 465.982 839.383 462.393 842.665 459.402C845.947 456.411 850.28 454.194 855.666 452.75C857.856 452.164 860.148 451.784 862.542 451.612C864.925 451.396 867.363 451.564 869.858 452.116C871.137 452.336 872.103 452.875 872.755 453.733C873.439 454.535 873.835 455.485 873.941 456.583C874.091 457.669 873.971 458.71 873.581 459.707C873.179 460.659 872.516 461.424 871.591 462C870.71 462.565 869.558 462.732 868.135 462.503C865.08 461.961 861.867 462.142 858.495 463.045C854.073 464.23 851.083 466.298 849.527 469.249C848.015 472.189 847.858 475.892 849.055 480.358C850.251 484.825 852.249 487.903 855.049 489.594C857.849 491.284 861.394 491.554 865.685 490.404C867.7 489.865 869.873 488.954 872.204 487.672L870.251 480.381L865.653 481.613C862.544 482.446 860.608 481.44 859.845 478.593C859.094 475.791 860.273 473.973 863.382 473.14L873.104 470.535C876.256 469.69 878.255 470.844 879.1 473.997L882.989 488.513C883.341 489.827 883.356 491.02 883.033 492.092C882.754 493.152 882.076 494.038 881 494.749C879.085 496.013 876.977 497.164 874.674 498.204C872.415 499.231 870.081 500.068 867.673 500.713ZM910.306 489.29C907.635 490.005 904.806 490.482 901.819 490.719C898.864 490.901 896.244 490.758 893.96 490.29C892.625 490.038 891.588 489.495 890.848 488.66C890.108 487.826 889.669 486.888 889.531 485.845C889.38 484.759 889.506 483.74 889.908 482.787C890.298 481.791 890.962 481.027 891.898 480.494C892.823 479.918 893.997 479.744 895.419 479.973C897.306 480.359 899.359 480.49 901.579 480.364C903.786 480.195 905.809 479.864 907.648 479.372C910.538 478.597 912.453 477.685 913.392 476.636C914.363 475.531 914.696 474.409 914.391 473.27C914.121 472.263 913.488 471.565 912.492 471.175C911.539 470.773 909.976 470.629 907.8 470.742L899.675 471.159C890.874 471.593 885.547 468.351 883.693 461.432C882.884 458.411 882.984 455.545 883.994 452.833C885.048 450.111 886.877 447.743 889.483 445.731C892.076 443.675 895.322 442.125 899.219 441.081C901.496 440.47 903.865 440.117 906.327 440.021C908.82 439.869 911.056 440.068 913.034 440.617C914.535 440.966 915.625 441.706 916.304 442.838C916.971 443.927 917.238 445.099 917.105 446.355C916.972 447.611 916.407 448.654 915.41 449.484C914.456 450.303 913.031 450.591 911.135 450.348C909.669 450.131 908.113 450.102 906.466 450.262C904.807 450.378 903.234 450.635 901.745 451.034C899.293 451.691 897.527 452.633 896.448 453.861C895.357 455.045 894.994 456.316 895.358 457.673C895.616 458.637 896.221 459.319 897.174 459.721C898.126 460.123 899.668 460.273 901.8 460.171L909.859 459.772C918.791 459.302 924.155 462.418 925.95 469.117C926.76 472.139 926.654 474.983 925.632 477.65C924.61 480.318 922.796 482.658 920.191 484.67C917.586 486.682 914.291 488.222 910.306 489.29Z" fill="white"/>
<circle cx="151.5" cy="729.5" r="20.5" fill="#6B35C3"/>
<circle cx="908" cy="1141" r="10" fill="#6B35C3"/>
<circle cx="373.5" cy="1180.5" r="20.5" fill="#6B35C3"/>
<g filter="url(#filter1_d_135_293)">
<path d="M598.006 1019.01H442.316C438.76 1019.02 435.248 1018.22 432.048 1016.66C428.848 1015.1 426.044 1012.83 423.849 1010.02C421.616 1007.19 420.055 1003.87 419.287 1000.34C418.519 996.808 418.564 993.145 419.417 989.631C433.73 929.395 433.73 866.618 419.416 806.382C418.563 802.868 418.519 799.206 419.287 795.672C420.055 792.139 421.615 788.829 423.849 785.993C426.044 783.181 428.848 780.91 432.048 779.352C435.248 777.794 438.76 776.989 442.316 777H598.006C603.614 777.017 609.034 779.033 613.3 782.69C617.567 786.347 620.403 791.407 621.304 796.969C631.566 863.933 631.566 932.081 621.304 999.045C620.403 1004.61 617.567 1009.67 613.3 1013.32C609.034 1016.98 603.614 1019 598.006 1019.01V1019.01Z" fill="#3F3D56"/>
<path d="M520.596 942.316C545.397 942.316 565.502 922.115 565.502 897.196C565.502 872.278 545.397 852.077 520.596 852.077C495.795 852.077 475.69 872.278 475.69 897.196C475.69 922.115 495.795 942.316 520.596 942.316Z" fill="white"/>
<path d="M542.073 891.312H526.454V875.618C526.454 874.057 525.836 872.56 524.738 871.457C523.64 870.353 522.15 869.733 520.596 869.733C519.043 869.733 517.553 870.353 516.454 871.457C515.356 872.56 514.739 874.057 514.739 875.618V891.312H499.119C497.566 891.312 496.076 891.932 494.978 893.035C493.879 894.139 493.262 895.636 493.262 897.197C493.262 898.758 493.879 900.254 494.978 901.358C496.076 902.462 497.566 903.082 499.119 903.082H514.739V918.776C514.739 920.336 515.356 921.833 516.454 922.937C517.553 924.041 519.043 924.661 520.596 924.661C522.15 924.661 523.64 924.041 524.738 922.937C525.836 921.833 526.454 920.336 526.454 918.776V903.082H542.073C543.626 903.082 545.116 902.462 546.215 901.358C547.313 900.254 547.93 898.758 547.93 897.197C547.93 895.636 547.313 894.139 546.215 893.035C545.116 891.932 543.626 891.312 542.073 891.312V891.312Z" fill="#3F3D56"/>
<path d="M374.684 1147.28L230.911 1087.26C227.759 1085.96 224.945 1083.95 222.683 1081.39C220.421 1078.82 218.77 1075.78 217.856 1072.48C216.917 1069.14 216.748 1065.63 217.362 1062.22C217.976 1058.81 219.357 1055.58 221.399 1052.78C257.71 1002.55 281.742 944.432 291.551 883.135C292.082 879.708 293.384 876.448 295.358 873.603C297.332 870.758 299.926 868.403 302.942 866.717C305.914 865.04 309.227 864.066 312.63 863.869C316.033 863.672 319.436 864.258 322.579 865.582L466.353 925.601C471.311 927.687 475.371 931.474 477.81 936.288C480.248 941.101 480.907 946.627 479.67 951.883C463.598 1017.58 437.613 1080.42 402.617 1138.22C399.783 1142.81 395.42 1146.24 390.305 1147.9C385.19 1149.56 379.654 1149.34 374.684 1147.28Z" fill="#3F3D56"/>
<path d="M318.084 876.451C316.575 875.814 314.941 875.533 313.307 875.627C311.673 875.72 310.081 876.188 308.654 876.993C307.186 877.815 305.925 878.963 304.966 880.35C304.007 881.736 303.375 883.323 303.118 884.992C293.016 948.121 268.266 1007.97 230.87 1059.71C229.874 1061.07 229.2 1062.64 228.899 1064.3C228.598 1065.96 228.678 1067.67 229.134 1069.29L229.134 1069.29C229.573 1070.88 230.366 1072.34 231.453 1073.57C232.54 1074.8 233.891 1075.77 235.405 1076.39L379.179 1136.41C381.562 1137.41 384.22 1137.52 386.679 1136.73C389.139 1135.94 391.239 1134.3 392.607 1132.1C426.983 1075.33 452.507 1013.6 468.294 949.071C468.88 946.545 468.555 943.892 467.376 941.584C466.198 939.277 464.242 937.464 461.858 936.47L318.084 876.451Z" fill="white"/>
<path d="M394.637 1010.06L319.191 978.56C316.324 977.36 314.048 975.066 312.863 972.182C311.678 969.298 311.679 966.059 312.868 963.176L314.624 958.928C315.819 956.048 318.102 953.761 320.973 952.57C323.843 951.379 327.067 951.381 329.936 952.575L405.383 984.071C408.249 985.271 410.525 987.565 411.711 990.449C412.896 993.334 412.894 996.573 411.706 999.456L409.949 1003.7C408.755 1006.58 406.471 1008.87 403.601 1010.06C400.73 1011.25 397.507 1011.25 394.637 1010.06V1010.06Z" fill="#3F3D56"/>
<path d="M372.444 1063.73L296.998 1032.23C294.131 1031.03 291.855 1028.74 290.67 1025.85C289.485 1022.97 289.486 1019.73 290.675 1016.85L292.431 1012.6C293.626 1009.72 295.909 1007.43 298.78 1006.24C301.65 1005.05 304.874 1005.05 307.743 1006.24L383.19 1037.74C386.057 1038.94 388.332 1041.24 389.518 1044.12C390.703 1047 390.701 1050.24 389.513 1053.13L387.757 1057.37C386.562 1060.25 384.279 1062.54 381.408 1063.73C378.537 1064.92 375.314 1064.92 372.444 1063.73V1063.73Z" fill="#3F3D56"/>
<path d="M424.87 934.63C423.74 934.63 422.622 934.409 421.575 933.982L345.552 903.1C343.393 902.22 341.67 900.516 340.761 898.361C339.851 896.207 339.829 893.778 340.699 891.607L346.554 877.057C347.428 874.887 349.124 873.154 351.269 872.24C353.414 871.326 355.833 871.305 357.993 872.183L434.016 903.065C436.175 903.945 437.898 905.649 438.808 907.803C439.717 909.958 439.739 912.387 438.869 914.557L433.014 929.107C432.356 930.737 431.23 932.133 429.78 933.116C428.329 934.1 426.62 934.627 424.87 934.63V934.63Z" fill="#8E8E8E"/>
</g>
<path d="M416.091 657.999L320.451 665.883C318.358 666.062 316.251 665.761 314.292 665.003C312.332 664.245 310.571 663.05 309.143 661.508V661.508C307.69 659.953 306.611 658.087 305.988 656.052C305.365 654.018 305.214 651.867 305.547 649.765C311.317 612.108 308.144 573.621 296.285 537.417C295.612 535.398 295.409 533.252 295.691 531.143C295.972 529.033 296.731 527.016 297.91 525.244C299.066 523.49 300.608 522.022 302.417 520.954C304.226 519.885 306.254 519.243 308.349 519.077L403.989 511.193C407.292 510.93 410.581 511.848 413.27 513.785C415.959 515.721 417.874 518.549 418.673 521.765C428.339 562.138 431.769 603.753 428.846 645.164C428.584 648.468 427.158 651.571 424.822 653.922C422.486 656.272 419.392 657.717 416.091 657.999Z" fill="#3F3D56"/>
<path d="M308.942 526.275C307.936 526.354 306.962 526.662 306.093 527.175C305.224 527.688 304.484 528.393 303.928 529.235C303.355 530.098 302.987 531.081 302.851 532.108C302.715 533.135 302.816 534.179 303.144 535.162C315.358 572.447 318.626 612.085 312.683 650.867C312.52 651.89 312.592 652.936 312.894 653.927C313.196 654.918 313.72 655.827 314.426 656.584L314.427 656.585C315.113 657.325 315.958 657.899 316.899 658.263C317.841 658.626 318.852 658.771 319.857 658.684L415.497 650.8C417.083 650.67 418.571 649.981 419.697 648.856C420.822 647.731 421.512 646.243 421.643 644.656C424.514 603.98 421.144 563.102 411.651 523.445C411.262 521.902 410.338 520.547 409.043 519.621C407.749 518.695 406.168 518.259 404.582 518.391L308.942 526.275Z" fill="white"/>
<path d="M388.049 572.719L337.861 576.856C335.953 577.011 334.061 576.403 332.601 575.165C331.14 573.927 330.231 572.16 330.071 570.251L329.839 567.439C329.684 565.53 330.292 563.638 331.53 562.177C332.768 560.717 334.534 559.807 336.442 559.648L386.63 555.51C388.538 555.355 390.43 555.963 391.89 557.201C393.35 558.44 394.26 560.207 394.419 562.115L394.651 564.928C394.806 566.836 394.198 568.728 392.961 570.189C391.723 571.65 389.956 572.559 388.049 572.719V572.719Z" fill="#3F3D56"/>
<path d="M390.979 608.261L340.791 612.398C338.883 612.553 336.991 611.945 335.531 610.707C334.071 609.469 333.161 607.702 333.002 605.793L332.77 602.981C332.614 601.072 333.222 599.18 334.46 597.719C335.698 596.259 337.465 595.349 339.372 595.19L389.56 591.052C391.468 590.897 393.36 591.505 394.82 592.743C396.28 593.982 397.19 595.749 397.349 597.657L397.581 600.47C397.737 602.378 397.129 604.27 395.891 605.731C394.653 607.192 392.886 608.101 390.979 608.261V608.261Z" fill="#3F3D56"/>
<path d="M384.036 527.66L333.662 531.813C332.231 531.929 330.813 531.473 329.717 530.544C328.622 529.615 327.94 528.29 327.82 526.859L327.029 517.261C326.913 515.83 327.369 514.411 328.297 513.315C329.225 512.22 330.55 511.537 331.981 511.418L382.355 507.265C383.786 507.149 385.205 507.605 386.3 508.534C387.395 509.462 388.078 510.788 388.197 512.219L388.988 521.816C389.105 523.248 388.649 524.667 387.72 525.763C386.792 526.858 385.467 527.54 384.036 527.66Z" fill="#898293"/>
<defs>
<filter id="filter0_d_135_293" x="283.518" y="244.049" width="665.485" height="947.651" filterUnits="userSpaceOnUse" color-interpolation-filters="sRGB">
<feFlood flood-opacity="0" result="BackgroundImageFix"/>
<feColorMatrix in="SourceAlpha" type="matrix" values="0 0 0 0 0 0 0 0 0 0 0 0 0 0 0 0 0 0 127 0" result="hardAlpha"/>
<feOffset dx="-3" dy="4"/>
<feGaussianBlur stdDeviation="12.5"/>
<feComposite in2="hardAlpha" operator="out"/>
<feColorMatrix type="matrix" values="0 0 0 0 0 0 0 0 0 0 0 0 0 0 0 0 0 0 0.3 0"/>
<feBlend mode="normal" in2="BackgroundImageFix" result="effect1_dropShadow_135_293"/>
<feBlend mode="normal" in="SourceGraphic" in2="effect1_dropShadow_135_293" result="shape"/>
</filter>
<filter id="filter1_d_135_293" x="189" y="756" width="462" height="422" filterUnits="userSpaceOnUse" color-interpolation-filters="sRGB">
<feFlood flood-opacity="0" result="BackgroundImageFix"/>
<feColorMatrix in="SourceAlpha" type="matrix" values="0 0 0 0 0 0 0 0 0 0 0 0 0 0 0 0 0 0 127 0" result="hardAlpha"/>
<feOffset dx="-3" dy="4"/>
<feGaussianBlur stdDeviation="12.5"/>
<feComposite in2="hardAlpha" operator="out"/>
<feColorMatrix type="matrix" values="0 0 0 0 0 0 0 0 0 0 0 0 0 0 0 0 0 0 0.3 0"/>
<feBlend mode="normal" in2="BackgroundImageFix" result="effect1_dropShadow_135_293"/>
<feBlend mode="normal" in="SourceGraphic" in2="effect1_dropShadow_135_293" result="shape"/>
</filter>
<linearGradient id="paint0_linear_135_293" x1="579.834" y1="563.246" x2="557.891" y2="569.126" gradientUnits="userSpaceOnUse">
<stop stop-color="#808080" stop-opacity="0.25"/>
<stop offset="0.54" stop-color="#808080" stop-opacity="0.12"/>
<stop offset="1" stop-color="#808080" stop-opacity="0.1"/>
</linearGradient>
</defs>
</svg>
