<svg width="1222" height="1262" viewBox="0 0 1222 1262" fill="none" xmlns="http://www.w3.org/2000/svg">
<path d="M211.637 732.311C261.133 525.04 -149.119 199.11 59.6377 156.311C239.69 119.398 591.634 404.31 790.023 356.623C966.031 314.316 885.802 509.764 915.634 688.31C950.067 894.389 1130.02 1320.62 854.023 1200.62C578.023 1080.62 330.195 1427.38 179.637 1152.31C67.1364 946.77 157.212 960.217 211.637 732.311Z" fill="#C39EFF"/>
<path d="M962 295.5C962 329.419 951.942 362.577 933.097 390.78C914.252 418.983 887.468 440.965 856.13 453.945C824.793 466.926 790.31 470.322 757.042 463.705C723.774 457.087 693.216 440.754 669.231 416.769C645.246 392.784 628.913 362.226 622.295 328.958C615.678 295.69 619.074 261.207 632.055 229.87C645.035 198.532 667.017 171.748 695.22 152.903C723.423 134.058 756.581 124 790.5 124" stroke="#941BBE" stroke-width="64" stroke-linecap="round"/>
<circle cx="790.5" cy="295.5" r="102.5" fill="#941BBE"/>
<circle cx="790.5" cy="295.5" r="275.5" stroke="#941BBE" stroke-width="40"/>
<path d="M790.997 530.999C679.997 534.997 392.997 360.998 319.997 436.999C246.997 513.001 290.997 586.999 290.997 586.999C290.997 586.999 334.997 666.999 319.997 730.001C304.997 793.002 201.997 906.001 211.997 964C221.997 1022 367.997 1037 483.997 1075C599.997 1113 1092 1076 1092 1076C1092 1076 1246 1068 1218 980C1190 891.999 1079 839 1079 778.999C1079 718.998 1193 632.998 1193 574.999C1193 496.423 1105 431 1013 449.999C920.997 468.998 901.997 527.001 790.997 530.999Z" fill="#6B35C3"/>
<circle cx="709.5" cy="1197.5" r="16.5" fill="#6B35C3"/>
<circle cx="313.5" cy="277.5" r="6.5" fill="#6B35C3"/>
<circle cx="216.997" cy="590.999" r="16" fill="#6B35C3"/>
<circle cx="369" cy="278" r="16" fill="#6B35C3"/>
<circle cx="1116" cy="774.999" r="14" fill="#6B35C3"/>
<circle cx="1171.5" cy="713.499" r="21.5" fill="#6B35C3"/>
<g filter="url(#filter0_d_135_211)">
<path d="M772.06 441.514L767.401 442.762L732.43 319.365C727.062 300.424 714.131 284.344 696.48 274.662C678.83 264.981 657.906 262.492 638.313 267.742L367.878 340.204C358.176 342.804 349.093 347.225 341.147 353.216C333.201 359.207 326.547 366.65 321.567 375.12C316.586 383.59 313.375 392.921 312.118 402.581C310.861 412.241 311.582 422.04 314.24 431.419L506.09 1108.38C511.458 1127.33 524.39 1143.41 542.04 1153.09C559.691 1162.77 580.614 1165.26 600.208 1160.01L870.642 1087.54C880.344 1084.95 889.427 1080.52 897.373 1074.53C905.32 1068.54 911.973 1061.1 916.954 1052.63C921.935 1044.16 925.145 1034.83 926.402 1025.17C927.659 1015.51 926.938 1005.71 924.281 996.331L792.293 530.598L796.953 529.35L772.06 441.514Z" fill="#3F3D56"/>
<path d="M646.56 285.523L611.259 294.982C613.973 298.394 615.776 302.403 616.509 306.654C617.242 310.905 616.883 315.268 615.463 319.359C614.043 323.45 611.605 327.144 608.366 330.114C605.126 333.085 601.184 335.241 596.885 336.393L441.957 377.906C437.658 379.058 433.136 379.17 428.789 378.232C424.442 377.294 420.403 375.336 417.028 372.53C413.652 369.723 411.045 366.155 409.435 362.139C407.825 358.123 407.261 353.783 407.794 349.5L374.823 358.335C360.191 362.255 347.75 371.635 340.239 384.409C332.727 397.183 330.759 412.307 334.769 426.452L526.361 1102.42C528.346 1109.42 531.739 1115.97 536.346 1121.7C540.952 1127.43 546.683 1132.22 553.209 1135.8C559.736 1139.38 566.932 1141.68 574.385 1142.57C581.838 1143.45 589.404 1142.91 596.649 1140.97L868.386 1068.16C875.631 1066.22 882.414 1062.91 888.348 1058.44C894.282 1053.97 899.251 1048.41 902.97 1042.08C906.69 1035.76 909.087 1028.79 910.026 1021.58C910.964 1014.36 910.426 1007.04 908.44 1000.04V1000.04L716.848 324.074C714.863 317.07 711.47 310.517 706.863 304.789C702.257 299.061 696.526 294.271 690 290.691C683.473 287.111 676.277 284.812 668.824 283.925C661.37 283.039 653.805 283.582 646.56 285.523V285.523Z" fill="white"/>
<path d="M462.79 672.782C462.15 672.954 461.673 673.596 461.462 674.567C461.251 675.538 461.323 676.759 461.664 677.961C462.005 679.164 462.586 680.249 463.279 680.978C463.972 681.707 464.72 682.02 465.359 681.849L605.702 644.244C606.341 644.073 606.819 643.431 607.03 642.46C607.241 641.488 607.168 640.267 606.828 639.065C606.487 637.863 605.906 636.778 605.213 636.049C604.52 635.32 603.772 635.006 603.133 635.178L462.79 672.782Z" fill="#CCCCCC"/>
<path d="M473.012 708.848C472.373 709.02 471.895 709.661 471.684 710.633C471.473 711.604 471.546 712.825 471.886 714.027C472.227 715.23 472.808 716.315 473.501 717.044C474.194 717.773 474.942 718.086 475.581 717.915L615.924 680.31C616.564 680.139 617.041 679.497 617.252 678.525C617.463 677.554 617.39 676.333 617.05 675.131C616.709 673.929 616.128 672.844 615.435 672.115C614.742 671.386 613.994 671.072 613.355 671.244L473.012 708.848Z" fill="#CCCCCC"/>
<path d="M485.514 744.304C484.27 744.637 483.212 745.434 482.574 746.52C481.936 747.606 481.768 748.891 482.109 750.094C482.45 751.296 483.271 752.317 484.391 752.931C485.511 753.546 486.84 753.704 488.083 753.37L761.14 680.205C762.383 679.872 763.441 679.075 764.079 677.989C764.718 676.903 764.885 675.618 764.544 674.415C764.203 673.213 763.382 672.193 762.262 671.578C761.142 670.964 759.814 670.806 758.57 671.139L485.514 744.304Z" fill="#CCCCCC"/>
<path d="M495.736 780.369C495.12 780.534 494.543 780.815 494.039 781.195C493.535 781.576 493.112 782.048 492.796 782.586C492.48 783.123 492.276 783.716 492.197 784.329C492.117 784.942 492.163 785.564 492.331 786.159C492.5 786.754 492.788 787.311 493.18 787.798C493.571 788.285 494.059 788.692 494.613 788.997C495.168 789.301 495.78 789.496 496.413 789.572C497.047 789.647 497.69 789.601 498.305 789.436L771.362 716.271C772.605 715.937 773.663 715.14 774.301 714.054C774.94 712.969 775.107 711.683 774.766 710.481C774.425 709.279 773.605 708.258 772.484 707.644C771.364 707.029 770.036 706.871 768.792 707.204L495.736 780.369Z" fill="#CCCCCC"/>
<path d="M504.656 815.743C503.412 816.076 502.355 816.873 501.716 817.959C501.078 819.045 500.91 820.33 501.251 821.533C501.592 822.735 502.413 823.756 503.533 824.37C504.654 824.985 505.982 825.143 507.225 824.809L780.282 751.644C781.525 751.311 782.583 750.514 783.221 749.428C783.86 748.342 784.027 747.057 783.686 745.854C783.345 744.652 782.525 743.632 781.404 743.017C780.284 742.403 778.956 742.245 777.712 742.578L504.656 815.743Z" fill="#CCCCCC"/>
<path d="M514.878 851.809C514.262 851.974 513.685 852.255 513.181 852.635C512.677 853.016 512.254 853.488 511.938 854.026C511.622 854.563 511.418 855.156 511.339 855.769C511.259 856.382 511.305 857.004 511.473 857.599C511.642 858.194 511.93 858.751 512.322 859.238C512.714 859.725 513.201 860.132 513.755 860.437C514.31 860.741 514.922 860.936 515.555 861.012C516.189 861.087 516.832 861.041 517.448 860.876L790.504 787.711C791.748 787.377 792.805 786.58 793.443 785.494C794.082 784.409 794.249 783.123 793.908 781.921C793.568 780.719 792.747 779.698 791.626 779.083C790.506 778.469 789.178 778.311 787.934 778.644L514.878 851.809Z" fill="#CCCCCC"/>
<path d="M405.988 499.234C408.661 498.518 410.248 495.776 409.533 493.111C408.819 490.445 406.074 488.864 403.402 489.58C400.729 490.296 399.142 493.038 399.856 495.703C400.571 498.369 403.316 499.95 405.988 499.234Z" fill="#3F3D56"/>
<path d="M422.703 494.755C425.375 494.039 426.963 491.298 426.248 488.632C425.534 485.966 422.789 484.385 420.116 485.101C417.444 485.817 415.857 488.559 416.571 491.225C417.286 493.891 420.031 495.472 422.703 494.755Z" fill="#3F3D56"/>
<path d="M439.419 490.276C442.092 489.56 443.679 486.818 442.965 484.152C442.25 481.487 439.505 479.906 436.833 480.622C434.16 481.338 432.573 484.08 433.288 486.745C434.002 489.411 436.747 490.992 439.419 490.276Z" fill="#3F3D56"/>
<path d="M698.598 435.767L405.852 514.208L442.158 640.028L734.904 561.587L698.598 435.767Z" fill="#E4CEFF"/>
<path d="M575.241 541.437C583.973 539.098 589.16 530.139 586.826 521.428C584.492 512.717 575.521 507.553 566.789 509.892C558.056 512.232 552.87 521.191 555.204 529.901C557.538 538.612 566.509 543.777 575.241 541.437Z" fill="#FDC2CC"/>
<path d="M617.57 592.851L577.924 603.474L566.749 552.868L566.946 552.507L569.772 547.308L582.29 543.954L588.138 547.196L588.599 547.454L601.016 554.254L617.57 592.851Z" fill="#7C3FFF"/>
<path d="M588.899 600.534L558.767 608.608C553.44 589.523 549.413 575.126 549.413 575.126L550.702 573.779L550.71 573.772L564.867 559.008L566.873 552.309L566.946 552.508L571.236 564.346C571.236 564.346 581.803 581.1 588.899 600.534Z" fill="#2F2E41"/>
<path d="M629.898 589.548L603.086 596.733C599.916 590.632 597.515 584.658 596.46 579.423C592.142 558.04 585.98 547.19 587.296 546.837L588.138 547.196L598.155 551.497L610.113 552.561L618.411 553.302L619.857 553.43L620.027 554.063C620.884 557.244 624.876 572.012 629.898 589.548Z" fill="#2F2E41"/>
<path d="M557.379 534.607C557.379 534.607 558.092 531.894 555.673 524.115C553.254 516.337 566.447 517.568 576.274 514.131C586.101 510.694 587.696 525.139 587.696 525.139C587.696 525.139 588.199 524.12 587.953 517.008C587.708 509.896 582.403 504.165 582.403 504.165C579.481 497.405 574.504 501.156 574.504 501.156C577.472 501.48 577.553 503.851 577.553 503.851C574.211 500.48 569.234 504.232 569.234 504.232C560.54 501.566 554.639 509.725 554.639 509.725C546.191 514.171 553.377 519.893 553.377 519.893C545.554 526.876 557.379 534.607 557.379 534.607Z" fill="#2F2E41"/>
<path d="M550.037 610.947C546.694 595.39 544.055 583.189 543.574 582.321C542.233 579.91 550.451 573.955 550.702 573.779L550.705 573.773L550.71 573.772L552.709 574.242L562.986 607.477L550.037 610.947Z" fill="#2F2E41"/>
<path d="M636.202 587.859L622.595 591.505L608.419 554.175L609.709 552.575C609.709 552.575 609.857 552.57 610.113 552.561C611.443 552.536 615.749 552.508 618.411 553.302C618.993 553.451 619.541 553.709 620.026 554.063C620.32 554.269 620.523 554.581 620.592 554.933C620.767 556.051 627.851 570.62 636.202 587.859Z" fill="#2F2E41"/>
<path d="M554.919 655.195C554.831 655.218 554.738 655.206 554.659 655.161C554.58 655.116 554.523 655.041 554.499 654.953L552.197 646.361C552.185 646.317 552.181 646.272 552.187 646.227C552.193 646.182 552.207 646.138 552.23 646.099C552.252 646.06 552.282 646.025 552.318 645.998C552.354 645.97 552.395 645.95 552.439 645.938C552.482 645.926 552.528 645.923 552.573 645.929C552.618 645.935 552.661 645.95 552.7 645.973C552.74 645.996 552.774 646.026 552.801 646.062C552.828 646.098 552.848 646.139 552.859 646.183L555.162 654.776C555.185 654.863 555.173 654.957 555.127 655.035C555.082 655.114 555.007 655.171 554.919 655.195V655.195Z" fill="#CBCBCB"/>
<path d="M557.194 654.586C557.107 654.609 557.013 654.597 556.934 654.552C556.855 654.506 556.798 654.432 556.775 654.344L554.472 645.751C554.46 645.708 554.457 645.662 554.462 645.618C554.468 645.573 554.483 645.529 554.505 645.49C554.527 645.451 554.558 645.416 554.593 645.389C554.629 645.361 554.67 645.341 554.714 645.329C554.758 645.317 554.804 645.315 554.848 645.321C554.893 645.326 554.937 645.341 554.976 645.364C555.015 645.387 555.049 645.417 555.076 645.453C555.104 645.489 555.123 645.53 555.135 645.574L557.437 654.166C557.461 654.254 557.448 654.348 557.403 654.426C557.357 654.505 557.282 654.562 557.194 654.586V654.586Z" fill="#CBCBCB"/>
</g>
<path opacity="0.1" d="M1020.3 788.259H1019C1020.03 787.119 1020.59 785.635 1020.58 784.099V784.099C1020.64 782.569 1020.09 781.078 1019.05 779.953C1018.01 778.828 1016.57 778.162 1015.04 778.099H976.198C974.669 778.164 973.228 778.832 972.19 779.956C971.152 781.08 970.602 782.57 970.658 784.099V784.099C970.602 785.628 971.152 787.118 972.19 788.242C973.228 789.366 974.669 790.034 976.198 790.099H977.498C976.473 791.241 975.91 792.724 975.918 794.259C975.89 795.556 976.29 796.826 977.057 797.873C977.823 798.92 978.913 799.684 980.158 800.049H968.978C967.498 800.198 966.126 800.891 965.128 801.994C964.13 803.097 963.578 804.532 963.578 806.019C963.578 807.507 964.13 808.941 965.128 810.044C966.126 811.147 967.498 811.841 968.978 811.989H1007.82C1009.35 811.924 1010.79 811.256 1011.83 810.132C1012.86 809.008 1013.42 807.518 1013.36 805.989C1013.38 804.693 1012.98 803.423 1012.22 802.377C1011.45 801.331 1010.36 800.565 1009.12 800.199H1020.3C1021.78 800.051 1023.15 799.357 1024.15 798.254C1025.15 797.151 1025.7 795.717 1025.7 794.229C1025.7 792.742 1025.15 791.307 1024.15 790.204C1023.15 789.101 1021.78 788.408 1020.3 788.259V788.259Z" fill="#6C63FF"/>
<path opacity="0.1" d="M689.429 783.129C688.614 783.013 687.785 783.077 686.999 783.319L688.789 776.099L690.979 776.639C690.732 778.858 690.212 781.038 689.429 783.129V783.129Z" fill="black"/>
<path d="M842.488 957.289L798.898 1010.22C798.898 1010.22 796.978 1007.99 793.738 1004.17C775.638 982.939 716.078 912.629 716.078 906.669C716.078 899.669 685.568 870.109 685.568 870.109C685.568 870.109 658.168 847.109 673.108 775.429C688.048 703.749 723.548 843.949 722.308 853.289C721.068 862.629 742.228 887.539 742.228 887.539C742.228 887.539 769.008 900.619 782.708 914.939C792.348 925.019 818.018 941.879 832.378 950.939C838.438 954.819 842.488 957.289 842.488 957.289Z" fill="#FDC2CC"/>
<path opacity="0.1" d="M842.489 957.289L798.899 1010.22C798.899 1010.22 796.979 1007.99 793.739 1004.17C794.439 989.349 825.739 956.649 831.279 951.679C831.605 951.387 831.976 951.151 832.379 950.979C838.439 954.819 842.489 957.289 842.489 957.289Z" fill="black"/>
<path d="M861.169 966.009C861.169 966.009 841.239 947.329 835.019 952.939C828.799 958.549 789.559 999.639 798.899 1010.23C808.239 1020.82 864.279 1065.01 864.279 1065.01L861.169 966.009Z" fill="#5F5D7E"/>
<path opacity="0.1" d="M861.169 966.009C861.169 966.009 841.239 947.329 835.019 952.939C828.799 958.549 789.559 999.639 798.899 1010.23C808.239 1020.82 864.279 1065.01 864.279 1065.01L861.169 966.009Z" fill="black"/>
<path d="M1036.15 817.179C1036.15 817.179 1016.7 835.949 992.339 856.309L991.419 857.069L989.999 858.249C951.139 890.389 901.059 925.069 895.899 895.389C895.321 891.515 895.297 887.579 895.829 883.699C895.889 883.129 895.969 882.539 896.049 881.939C896.129 881.339 896.209 880.779 896.269 880.209C897.238 872.729 897.776 865.2 897.879 857.659C897.879 856.389 897.879 855.129 897.879 853.879C897.622 826.272 892.195 798.957 881.879 773.349C881.279 771.829 880.669 770.349 880.079 768.939C872.079 749.859 864.249 738.719 864.249 738.719C864.249 738.719 875.819 731.719 891.859 722.719C897.749 719.439 904.229 715.909 910.969 712.369C947.969 692.969 992.459 673.569 986.299 696.369C983.389 707.159 986.089 721.479 991.449 736.469C991.749 737.299 992.049 738.109 992.359 738.929C995.834 747.987 999.841 756.833 1004.36 765.419L1004.66 765.999C1011.09 778.319 1018.02 789.829 1023.76 798.779C1025.14 800.939 1026.45 802.959 1027.67 804.779C1032.7 812.479 1036.15 817.179 1036.15 817.179Z" fill="#FDC2CC"/>
<path opacity="0.1" d="M992.389 738.929C992.099 739.359 991.789 739.789 991.479 740.209C982.139 752.909 971.329 760.469 958.479 764.729C949.619 767.679 939.759 769.069 928.709 769.509C925.959 769.609 923.149 769.659 920.249 769.659C913.565 769.671 906.887 769.287 900.249 768.509C896.759 767.959 893.109 770.309 889.579 772.029C886.949 773.299 884.379 774.229 881.979 773.349C881.379 771.829 880.769 770.349 880.179 768.939C872.179 749.859 864.349 738.719 864.349 738.719C864.349 738.719 875.919 731.719 891.959 722.719C897.849 719.439 904.329 715.909 911.069 712.369C948.069 692.969 992.559 673.569 986.399 696.369C983.489 707.159 986.189 721.479 991.549 736.469C991.779 737.299 992.079 738.109 992.389 738.929Z" fill="black"/>
<path d="M1010 680.009C1010 681.469 1010 682.909 1009.9 684.349C1008.94 705.522 1000.96 725.774 987.211 741.905C973.463 758.036 954.733 769.128 933.979 773.429C922.626 775.765 910.944 776.026 899.498 774.199C896.128 773.673 892.789 772.958 889.498 772.059C886.313 771.195 883.175 770.164 880.099 768.969V768.969C867.369 764.02 855.849 756.398 846.318 746.616C836.786 736.834 829.464 725.121 824.847 712.268C820.23 699.414 818.425 685.719 819.553 672.108C820.681 658.497 824.717 645.287 831.388 633.369L832.229 631.899C842.801 613.805 859.038 599.695 878.43 591.75C897.822 583.804 919.291 582.466 939.52 587.94C959.749 593.415 977.613 605.398 990.351 622.039C1003.09 638.68 1009.99 659.052 1010 680.009V680.009Z" fill="#FDC2CC"/>
<path opacity="0.1" d="M1036.15 817.179C1036.15 817.179 884.829 963.509 896.039 881.939C897.31 872.64 897.931 863.264 897.899 853.879C903.15 847.387 908.727 841.166 914.609 835.239L935.869 819.869C957.79 803.869 984.519 795.839 1011.63 797.109C1015.72 797.213 1019.78 797.773 1023.75 798.779C1030.88 809.949 1036.15 817.179 1036.15 817.179Z" fill="black"/>
<path d="M1143.4 1068.4C1137.86 1070.05 1132.19 1071.48 1126.47 1072.73C1123.65 1073.36 1120.81 1073.94 1117.97 1074.48C1113.14 1075.41 1108.29 1076.24 1103.47 1077C1079.33 1080.79 1054.97 1083.25 1030.47 1085L1026.47 1085.27L1024.01 1085.43C1020.27 1085.68 1016.53 1085.9 1012.8 1086.11C997.849 1086.95 982.879 1087.56 967.909 1088.11C956.909 1088.49 946.019 1088.81 935.079 1089.11L912.829 1089.76L907.079 1089.93L904.559 1090C897.972 1090.2 891.379 1090.39 884.779 1090.57L877.119 1090.79L862.889 1091.18L859.889 1091.26C859.089 1084.2 857.619 1071.37 856.059 1058.56L855.699 1055.56C853.979 1041.43 852.199 1027.86 851.169 1022.72C848.679 1010.27 851.169 958.579 851.169 958.579L851.439 958.149L852.619 956.149C858.509 946.319 880.349 908.699 879.809 892.529C879.489 882.879 888.809 868.919 897.809 857.669C898.989 856.209 900.159 854.789 901.309 853.439C908.479 845.009 914.619 839.009 914.619 839.009L935.869 823.629C957.801 807.645 984.53 799.623 1011.64 800.889C1019.64 801.299 1026.02 802.419 1027.64 804.829C1028.33 805.219 1043.83 814.119 1060.83 833.979C1069.11 843.648 1076.31 854.19 1082.31 865.419C1082.49 865.739 1082.67 866.069 1082.84 866.419C1082.84 866.419 1121.45 930.559 1126.43 969.169C1131.41 1007.78 1138.89 1039.53 1138.89 1039.53C1138.89 1039.53 1141.02 1051.72 1143.4 1068.4Z" fill="#5F5D7E"/>
<path opacity="0.1" d="M1028.06 1038.86C1024.99 1043.86 1027.36 1067.27 1030.51 1084.96L1026.51 1085.23L1024.05 1085.39C1020.31 1085.64 1016.57 1085.86 1012.84 1086.07C997.889 1086.91 982.919 1087.52 967.949 1088.07C956.949 1088.45 946.059 1088.77 935.119 1089.07L912.869 1089.72C912.869 1087.44 912.169 1085.47 910.359 1084.32C909.095 1083.41 907.976 1082.31 907.039 1081.07C906.749 1080.72 906.449 1080.34 906.149 1079.95C899.219 1070.75 890.439 1051.95 890.439 1051.95C890.439 1051.95 879.229 1054.44 877.979 962.949C877.579 933.129 885.299 911.309 895.889 895.439C917.829 862.579 952.079 855.219 952.079 855.219C964.769 853.011 977.813 854.075 989.979 858.309C994.751 859.983 999.346 862.123 1003.7 864.699C1009.53 868.209 1014.98 872.336 1019.93 877.009L1021.53 878.539C1056.45 912.539 1064.7 965.629 1043.13 1009.36C1036.22 1023.33 1029.99 1035.72 1028.06 1038.86Z" fill="black"/>
<path d="M1023.08 1033.88C1019.7 1039.38 1022.92 1067.31 1026.52 1085.23L1024.06 1085.39C1020.32 1085.64 1016.58 1085.86 1012.85 1086.07C997.899 1086.91 982.929 1087.52 967.959 1088.07C956.959 1088.45 946.069 1088.77 935.129 1089.07L912.879 1089.72L907.129 1089.89C908.009 1086.66 908.339 1083.33 907.049 1081.07C906.809 1080.65 906.509 1080.28 906.159 1079.95C905.929 1079.71 905.67 1079.51 905.389 1079.34C898.539 1074.98 885.459 1046.95 885.459 1046.95C885.459 1046.95 874.259 1049.45 873.009 957.949C872.549 923.689 882.809 899.949 895.829 883.729C917.609 856.559 947.109 850.219 947.109 850.219C950.971 849.578 954.874 849.217 958.789 849.139H958.909C970.459 848.884 981.908 851.35 992.329 856.339C1001.29 860.712 1009.47 866.53 1016.54 873.559C1017.7 874.689 1018.84 875.839 1019.93 877.009C1051.93 911.099 1059.01 962.109 1038.15 1004.38C1031.24 1018.35 1025.01 1030.74 1023.08 1033.88Z" fill="#5F5D7E"/>
<path opacity="0.1" d="M946.048 972.399C946.048 972.399 884.599 1016.01 889.839 1022.01C895.079 1028.01 946.048 972.399 946.048 972.399Z" fill="black"/>
<path opacity="0.1" d="M1032.28 988.109C1032.28 988.109 1013.08 971.009 1014.47 977.639C1015.86 984.269 1032.28 988.109 1032.28 988.109Z" fill="black"/>
<path opacity="0.1" d="M1012.85 1086.07C997.899 1086.91 982.929 1087.52 967.959 1088.07C942.329 1085.07 915.679 1080.66 915.679 1080.66C917.989 1079.31 999.759 1077.68 1012.85 1086.07Z" fill="black"/>
<path opacity="0.1" d="M884.828 1090.53L877.168 1090.75C871.068 1074.09 865.828 1054.33 863.688 1045.94C863.028 1043.35 862.688 1041.84 862.688 1041.84L863.638 1043.84C866.788 1050.41 877.228 1072.33 884.828 1090.53Z" fill="black"/>
<path opacity="0.1" d="M1003.7 714.079C1000.65 722.06 996.529 729.592 991.459 736.469C991.759 737.299 992.059 738.109 992.369 738.929C995.844 747.988 999.851 756.833 1004.37 765.419L1004.67 765.999C1005.19 769.999 1005.91 773.999 1006.74 777.899C991.539 778.699 976.322 779.049 961.089 778.949C954.469 778.949 947.749 778.759 941.439 776.779C938.832 775.956 936.334 774.821 933.999 773.399C932.121 772.261 930.348 770.959 928.699 769.509C920.475 762.078 915.283 751.872 914.119 740.849C913.209 732.259 914.509 723.359 912.019 715.089C911.732 714.169 911.398 713.265 911.019 712.379C908.982 707.669 905.767 703.562 901.682 700.455C897.598 697.347 892.782 695.345 887.699 694.639C886.228 694.319 884.691 694.527 883.359 695.229C882.222 696.175 881.403 697.445 881.009 698.869L870.699 725.759C863.359 727.599 858.179 718.009 858.789 710.469C859.399 702.929 862.789 695.209 860.279 688.069C859.509 685.859 858.199 683.849 857.639 681.589C855.409 672.679 864.989 664.769 865.069 655.589C865.129 648.039 858.669 641.939 851.809 638.799C845.519 635.919 838.569 634.679 832.269 631.869C842.851 613.792 859.089 599.701 878.476 591.769C897.863 583.838 919.322 582.508 939.54 587.984C959.758 593.46 977.612 605.439 990.346 622.07C1003.08 638.702 1009.99 659.063 1010 680.009C1010 681.469 1010 682.909 1009.9 684.349C1009.44 694.528 1007.35 704.567 1003.7 714.079V714.079Z" fill="black"/>
<path d="M909.289 555.399C902.919 554.759 895.918 554.599 890.758 558.399C885.338 562.399 883.538 569.559 879.938 575.249C873.068 586.129 860.108 591.099 849.168 597.869C838.228 604.639 827.869 616.729 831.529 629.069C838.269 632.469 845.919 633.659 852.779 636.799C859.639 639.939 866.099 646.039 866.039 653.589C865.959 662.769 856.378 670.679 858.608 679.589C859.168 681.849 860.478 683.859 861.248 686.069C863.738 693.209 860.368 700.929 859.758 708.469C859.148 716.009 864.328 725.599 871.668 723.759L882.048 696.869C882.442 695.445 883.262 694.174 884.399 693.229C885.73 692.527 887.267 692.318 888.738 692.639C894.295 693.417 899.52 695.749 903.808 699.368C908.097 702.986 911.276 707.742 912.979 713.089C915.469 721.359 914.168 730.259 915.078 738.849C916.748 754.689 927.218 770.009 942.418 774.779C948.728 776.779 955.418 776.909 962.068 776.949C977.288 777.062 992.505 776.712 1007.72 775.899C1003.97 758.259 1002.44 738.769 1011.53 723.209C1015.42 716.549 1021.03 711.059 1025.31 704.639C1032.31 694.179 1035.49 681.689 1038.06 669.379C1040.06 660.049 1041.69 650.509 1040.81 641.019C1039.34 625.109 1030.89 610.809 1022.65 597.129C1018.31 589.919 1013.75 582.479 1006.76 577.819C992.218 568.139 974.398 574.209 958.858 568.649C942.348 562.759 927.259 557.219 909.289 555.399Z" fill="#865A61"/>
<rect x="643" y="468" width="391" height="133" rx="16" transform="rotate(-15 643 468)" fill="#03053D"/>
<path d="M715.181 540.799C710.978 541.925 708.318 540.408 707.204 536.248L698.14 502.422C697.025 498.262 698.57 495.619 702.773 494.492L725.04 488.526C728.193 487.681 730.18 488.791 731.001 491.857C731.846 495.009 730.692 497.008 727.539 497.853L710.527 502.411L712.886 511.213L728.452 507.042C731.605 506.197 733.598 507.329 734.431 510.438C735.264 513.547 734.104 515.524 730.952 516.369L715.385 520.54L717.937 530.064L734.949 525.505C738.101 524.661 740.094 525.793 740.927 528.902C741.76 532.011 740.601 533.988 737.448 534.832L715.181 540.799ZM753.521 531.159C751.989 531.57 750.592 531.522 749.329 531.015C748.099 530.453 747.248 529.555 746.777 528.32C746.293 527.042 746.379 525.611 747.035 524.027L754.717 505.143L739.157 493.05C737.786 491.963 736.996 490.767 736.787 489.461C736.622 488.145 736.932 486.935 737.716 485.833C738.5 484.732 739.658 483.975 741.191 483.565C742.461 483.224 743.66 483.232 744.787 483.587C745.915 483.942 747.142 484.669 748.469 485.768L759.207 494.577L764.167 481.562C764.755 479.902 765.455 478.659 766.266 477.832C767.065 476.96 768.099 476.355 769.369 476.014C770.945 475.592 772.349 475.662 773.579 476.224C774.797 476.742 775.648 477.641 776.131 478.919C776.603 480.154 776.517 481.585 775.874 483.212L768.445 501.465L784.474 513.995C785.877 515.027 786.667 516.224 786.843 517.584C787.052 518.889 786.765 520.093 785.98 521.195C785.185 522.253 783.998 522.993 782.422 523.415C781.152 523.756 779.959 523.77 778.843 523.459C777.76 523.092 776.526 522.343 775.144 521.212L763.906 512.114L758.789 525.594C758.157 527.265 757.442 528.536 756.643 529.408C755.832 530.235 754.791 530.819 753.521 531.159ZM801.158 518.395C799.231 518.911 797.601 518.785 796.269 518.015C794.936 517.246 794.006 515.876 793.478 513.906L784.185 479.225C783.657 477.255 783.778 475.603 784.547 474.271C785.317 472.938 786.687 472.008 788.657 471.48L804.815 467.15C810.07 465.742 814.484 466.014 818.058 467.967C821.663 469.863 824.1 473.176 825.367 477.906C826.634 482.635 826.186 486.744 824.024 490.233C821.893 493.667 818.201 496.088 812.946 497.496L802.765 500.224L805.564 510.667C806.092 512.638 805.971 514.289 805.202 515.622C804.476 516.943 803.128 517.867 801.158 518.395ZM800.284 490.962L808.363 488.798C813.092 487.531 814.928 484.926 813.872 480.985C812.816 477.045 809.924 475.708 805.195 476.975L797.116 479.14L800.284 490.962ZM845.649 505.84C841.445 506.966 838.786 505.45 837.672 501.29L828.608 467.463C827.493 463.303 829.038 460.66 833.241 459.533L855.508 453.567C858.661 452.722 860.648 453.833 861.469 456.898C862.314 460.051 861.16 462.049 858.007 462.894L840.995 467.452L843.354 476.254L858.92 472.083C862.073 471.238 864.066 472.37 864.899 475.479C865.732 478.588 864.572 480.565 861.42 481.41L845.853 485.581L848.405 495.105L865.417 490.547C868.569 489.702 870.562 490.834 871.395 493.943C872.228 497.052 871.068 499.029 867.916 499.874L845.649 505.84ZM885.891 495.691C883.964 496.207 882.335 496.08 881.002 495.311C879.67 494.542 878.739 493.172 878.211 491.201L868.919 456.521C868.391 454.55 868.512 452.899 869.281 451.566C870.05 450.234 871.42 449.304 873.391 448.776L889.549 444.446C894.803 443.038 899.2 443.244 902.738 445.065C906.309 446.831 908.704 449.99 909.925 454.544C910.851 458.004 910.756 461.15 909.638 463.984C908.552 466.763 906.49 469.052 903.453 470.851C906.081 470.851 908.503 472.009 910.719 474.325L915.587 479.356C916.64 480.482 917.281 481.648 917.51 482.854C917.783 484.048 917.587 485.156 916.923 486.179C916.246 487.158 915.054 487.877 913.347 488.334C911.639 488.792 910.15 488.839 908.879 488.475C907.64 488.056 906.4 487.192 905.157 485.882L896.241 476.515C895.457 475.692 894.602 475.217 893.676 475.09C892.783 474.907 891.81 474.956 890.759 475.238L887.147 476.206L890.297 487.963C890.825 489.934 890.704 491.585 889.935 492.918C889.21 494.238 887.862 495.163 885.891 495.691ZM884.859 467.667L892.872 465.52C897.645 464.241 899.527 461.719 898.518 457.953C897.521 454.231 894.636 453.009 889.863 454.288L881.849 456.435L884.859 467.667ZM941.887 480.687C939.961 481.203 938.331 481.076 936.999 480.307C935.666 479.538 934.736 478.168 934.208 476.197L925.918 445.261L915.606 448.024C912.278 448.915 910.174 447.719 909.294 444.435C908.414 441.151 909.638 439.063 912.966 438.171L945.676 429.407C949.004 428.515 951.108 429.711 951.988 432.995C952.868 436.279 951.644 438.367 948.316 439.259L938.004 442.022L946.293 472.959C946.821 474.929 946.701 476.581 945.931 477.913C945.206 479.234 943.858 480.159 941.887 480.687ZM983.045 469.799C980.374 470.515 977.545 470.992 974.557 471.229C971.602 471.41 968.983 471.268 966.699 470.8C965.364 470.548 964.327 470.004 963.587 469.17C962.847 468.336 962.408 467.397 962.269 466.355C962.119 465.269 962.245 464.25 962.647 463.297C963.037 462.301 963.7 461.536 964.637 461.004C965.562 460.428 966.736 460.254 968.158 460.483C970.045 460.869 972.098 460.999 974.317 460.874C976.525 460.705 978.548 460.374 980.387 459.881C983.277 459.107 985.192 458.195 986.131 457.145C987.102 456.04 987.435 454.919 987.13 453.78C986.86 452.773 986.227 452.074 985.231 451.684C984.278 451.282 982.714 451.138 980.539 451.252L972.414 451.669C963.613 452.103 958.286 448.861 956.432 441.942C955.622 438.921 955.723 436.054 956.733 433.343C957.786 430.62 959.616 428.253 962.221 426.241C964.815 424.185 968.06 422.634 971.957 421.59C974.234 420.98 976.604 420.627 979.065 420.53C981.559 420.379 983.795 420.577 985.772 421.127C987.274 421.476 988.364 422.216 989.043 423.348C989.71 424.437 989.977 425.609 989.844 426.865C989.711 428.12 989.146 429.164 988.148 429.994C987.194 430.813 985.77 431.101 983.874 430.858C982.408 430.641 980.851 430.612 979.205 430.771C977.546 430.887 975.972 431.145 974.484 431.544C972.032 432.201 970.266 433.143 969.187 434.371C968.096 435.555 967.733 436.825 968.096 438.183C968.355 439.146 968.96 439.829 969.912 440.231C970.865 440.633 972.407 440.783 974.538 440.681L982.598 440.281C991.53 439.812 996.894 442.927 998.689 449.627C999.498 452.648 999.392 455.493 998.37 458.16C997.349 460.827 995.535 463.167 992.93 465.179C990.325 467.192 987.029 468.732 983.045 469.799Z" fill="white"/>
<circle cx="151.5" cy="729.5" r="20.5" fill="#6B35C3"/>
<circle cx="908" cy="1141" r="10" fill="#6B35C3"/>
<circle cx="373.5" cy="1180.5" r="20.5" fill="#6B35C3"/>
<g filter="url(#filter1_d_135_211)">
<ellipse cx="469.519" cy="975.622" rx="90" ry="96" transform="rotate(10 469.519 975.622)" fill="white"/>
<path d="M567.636 839.593L566.899 839.463C537.577 834.293 508.91 845.235 489.957 865.498C479.077 839.974 455.881 819.887 426.559 814.717L425.822 814.587C403.78 810.917 381.18 816.093 362.934 828.99C344.687 841.888 332.269 861.465 328.377 883.467C323.559 910.792 328.691 951.674 346.403 987.692C380.148 1056.32 444.635 1122.53 444.635 1122.53C444.635 1122.53 527.876 1082.38 583.051 1029.42C612.023 1001.63 630.819 964.97 635.637 937.646C639.504 915.641 634.532 892.999 621.799 874.639C609.066 856.279 589.602 843.685 567.636 839.593V839.593ZM524.27 1023.88C520.933 1023.28 517.856 1021.68 515.442 1019.3C513.029 1016.92 511.392 1013.86 510.747 1010.53L493.217 1007.44C492.064 1007.23 491.005 1006.66 490.189 1005.82C489.373 1004.98 488.84 1003.91 488.664 1002.75L486.14 985.576L458.604 1042.1C458.07 1043.19 457.197 1044.08 456.118 1044.63C455.038 1045.18 453.809 1045.36 452.615 1045.15L452.271 1045.09C451.037 1044.81 449.936 1044.12 449.152 1043.12C448.369 1042.13 447.95 1040.9 447.966 1039.63L449.027 930.93L425.175 991.157C424.671 992.292 423.802 993.226 422.706 993.81C421.609 994.393 420.349 994.592 419.126 994.376L394.432 990.022C393.687 989.923 392.969 989.674 392.322 989.29C391.675 988.906 391.112 988.395 390.668 987.788C390.223 987.181 389.906 986.49 389.735 985.758C389.565 985.025 389.544 984.266 389.675 983.525C389.805 982.784 390.085 982.077 390.496 981.447C390.906 980.817 391.441 980.276 392.066 979.858C392.691 979.44 393.395 979.152 394.134 979.013C394.873 978.873 395.633 978.885 396.368 979.047L416.738 982.638L449.731 901.826C450.248 900.637 451.163 899.664 452.318 899.074C453.474 898.484 454.798 898.314 456.065 898.592C457.333 898.871 458.464 899.58 459.265 900.6C460.067 901.62 460.489 902.887 460.46 904.184L459.398 1015.07L484.06 964.501C484.576 963.436 485.423 962.565 486.474 962.02C487.525 961.475 488.724 961.285 489.892 961.477L490.001 961.496C491.155 961.7 492.216 962.264 493.032 963.106C493.848 963.949 494.377 965.027 494.543 966.188L499.117 997.194L512.461 999.547C513.918 996.833 516.096 994.573 518.757 993.018C521.417 991.463 524.455 990.674 527.536 990.736C530.616 990.799 533.62 991.711 536.215 993.373C538.81 995.035 540.895 997.381 542.241 1000.15C543.586 1002.92 544.14 1006.01 543.84 1009.08C543.54 1012.15 542.399 1015.07 540.542 1017.53C538.686 1019.99 536.186 1021.89 533.318 1023.02C530.451 1024.14 527.327 1024.46 524.293 1023.92L524.27 1023.88Z" fill="#3F3D56"/>
</g>
<defs>
<filter id="filter0_d_135_211" x="283.518" y="244.049" width="665.485" height="947.651" filterUnits="userSpaceOnUse" color-interpolation-filters="sRGB">
<feFlood flood-opacity="0" result="BackgroundImageFix"/>
<feColorMatrix in="SourceAlpha" type="matrix" values="0 0 0 0 0 0 0 0 0 0 0 0 0 0 0 0 0 0 127 0" result="hardAlpha"/>
<feOffset dx="-3" dy="4"/>
<feGaussianBlur stdDeviation="12.5"/>
<feComposite in2="hardAlpha" operator="out"/>
<feColorMatrix type="matrix" values="0 0 0 0 0 0 0 0 0 0 0 0 0 0 0 0 0 0 0.3 0"/>
<feBlend mode="normal" in2="BackgroundImageFix" result="effect1_dropShadow_135_211"/>
<feBlend mode="normal" in="SourceGraphic" in2="effect1_dropShadow_135_211" result="shape"/>
</filter>
<filter id="filter1_d_135_211" x="298.663" y="792.435" width="360.255" height="359.098" filterUnits="userSpaceOnUse" color-interpolation-filters="sRGB">
<feFlood flood-opacity="0" result="BackgroundImageFix"/>
<feColorMatrix in="SourceAlpha" type="matrix" values="0 0 0 0 0 0 0 0 0 0 0 0 0 0 0 0 0 0 127 0" result="hardAlpha"/>
<feOffset dx="-3" dy="4"/>
<feGaussianBlur stdDeviation="12.5"/>
<feComposite in2="hardAlpha" operator="out"/>
<feColorMatrix type="matrix" values="0 0 0 0 0 0 0 0 0 0 0 0 0 0 0 0 0 0 0.3 0"/>
<feBlend mode="normal" in2="BackgroundImageFix" result="effect1_dropShadow_135_211"/>
<feBlend mode="normal" in="SourceGraphic" in2="effect1_dropShadow_135_211" result="shape"/>
</filter>
</defs>
</svg>
