<svg width="1119" height="781" viewBox="0 0 1119 781" fill="none" xmlns="http://www.w3.org/2000/svg">
<path opacity="0.1" d="M1117.76 327.708C1110.81 355.854 1075.14 369.963 1055.15 390.96C1017.49 430.535 1032.16 488.327 1056.05 534.612C1064.05 550.11 1073.13 566.517 1069.74 583.135C1065.61 603.463 1043.66 618.321 1020.62 626.2C978.628 640.548 928.339 637.128 889.737 617.281C856.384 600.133 832.488 572.287 798.565 555.869C741.787 528.482 669.522 538.871 607.865 557.699C564.254 571.047 516.564 588.415 473.222 574.476C442.729 564.658 421.643 540.761 410.155 515.484C404.617 503.256 400.587 490.017 390 480.329C383.701 474.559 375.483 470.47 367.074 467.03C290.21 435.534 193.11 452.402 118.496 417.467C68.0859 393.88 35.8026 349.385 21.5155 302.981C7.22849 256.577 8.88815 207.923 12.5174 160.13C15.0969 126.134 19.7259 89.9185 45.9805 63.7019C73.7548 35.9754 121.415 25.7067 164.506 30.936C207.597 36.1654 246.639 54.993 281.002 77.1101C323.993 104.767 363.765 139.192 416.484 150.391C452.387 158.02 490.149 153.84 527.181 152.39C589.089 149.981 651.016 155.39 712.573 161.229C742.567 164.099 772.661 167.109 802.395 171.468C809.06 172.441 815.725 173.491 822.391 174.618C825.73 175.188 829.069 175.778 832.388 176.387C834.988 176.857 837.577 177.387 840.167 177.857C844.253 178.65 848.325 179.484 852.384 180.357C864.042 182.857 875.59 185.686 887.017 188.906C926.749 200.114 958.602 220.472 996.125 234.69C1020.58 243.959 1047.24 246.518 1070.4 258.317C1098.89 272.805 1125.07 298.112 1117.76 327.708Z" fill="#6C63FF"/>
<path opacity="0.1" d="M556.385 781C863.669 781 1112.77 739.296 1112.77 687.852C1112.77 636.408 863.669 594.704 556.385 594.704C249.102 594.704 0 636.408 0 687.852C0 739.296 249.102 781 556.385 781Z" fill="#6C63FF"/>
<path d="M556 379.5C556 413.419 545.942 446.577 527.097 474.78C508.252 502.983 481.468 524.965 450.13 537.945C418.793 550.926 384.31 554.322 351.042 547.705C317.774 541.087 287.216 524.754 263.231 500.769C239.246 476.784 222.913 446.226 216.295 412.958C209.678 379.69 213.074 345.207 226.055 313.87C239.035 282.532 261.017 255.748 289.22 236.903C317.423 218.058 350.581 208 384.5 208" stroke="#941BBE" stroke-width="64" stroke-linecap="round"/>
<circle cx="384.5" cy="379.5" r="102.5" fill="#941BBE"/>
<circle cx="384.5" cy="379.5" r="275.5" stroke="#941BBE" stroke-width="40"/>
<path d="M633.829 602.833C633.829 602.833 627.621 581.756 634.989 566.238C638.122 559.75 639.065 552.42 637.679 545.35C636.981 541.996 635.977 538.712 634.679 535.542" stroke="#535461" stroke-width="2" stroke-miterlimit="10"/>
<path d="M639.318 525.733C639.318 528.312 634.639 535.812 634.639 535.812C634.639 535.812 629.99 528.312 629.99 525.733C629.99 524.492 630.483 523.302 631.361 522.424C632.238 521.546 633.428 521.053 634.669 521.053C635.91 521.053 637.1 521.546 637.978 522.424C638.855 523.302 639.348 524.492 639.348 525.733H639.318Z" fill="#6C63FF"/>
<path d="M647.057 540.041C645.657 542.211 637.659 545.96 637.659 545.96C637.659 545.96 637.809 537.131 639.208 534.962C639.533 534.426 639.962 533.961 640.47 533.595C640.978 533.228 641.554 532.967 642.164 532.827C642.775 532.687 643.407 532.671 644.024 532.78C644.64 532.89 645.229 533.121 645.755 533.462C646.28 533.803 646.732 534.246 647.083 534.764C647.434 535.283 647.678 535.867 647.799 536.481C647.921 537.096 647.917 537.728 647.79 538.341C647.662 538.955 647.413 539.536 647.057 540.051V540.041Z" fill="#6C63FF"/>
<path d="M646.717 564.478C644.407 565.638 635.619 564.838 635.619 564.838C635.619 564.838 640.198 557.289 642.508 556.129C643.056 555.853 643.654 555.687 644.267 555.642C644.88 555.596 645.495 555.672 646.079 555.865C646.662 556.057 647.202 556.363 647.668 556.764C648.133 557.166 648.515 557.655 648.791 558.204C649.068 558.752 649.233 559.35 649.278 559.963C649.324 560.576 649.248 561.192 649.055 561.775C648.863 562.359 648.557 562.899 648.156 563.364C647.754 563.83 647.265 564.211 646.717 564.488V564.478Z" fill="#6C63FF"/>
<path d="M642.298 582.945C640.218 584.485 631.42 585.175 631.42 585.175C631.42 585.175 634.659 576.956 636.739 575.426C637.739 574.748 638.962 574.483 640.152 574.687C641.343 574.89 642.409 575.546 643.127 576.517C643.845 577.489 644.16 578.7 644.005 579.898C643.851 581.096 643.239 582.188 642.298 582.945Z" fill="#6C63FF"/>
<path d="M627.831 546.48C629.68 548.28 638.318 550.149 638.318 550.149C638.318 550.149 636.209 541.571 634.319 539.771C633.422 538.948 632.239 538.508 631.023 538.543C629.806 538.579 628.651 539.087 627.802 539.96C626.954 540.833 626.479 542.002 626.479 543.22C626.479 544.437 626.953 545.606 627.801 546.48H627.831Z" fill="#6C63FF"/>
<path d="M622.932 568.097C625.241 569.257 634.029 568.457 634.029 568.457C634.029 568.457 629.45 560.908 627.141 559.748C626.032 559.19 624.748 559.095 623.569 559.484C622.391 559.873 621.415 560.715 620.857 561.823C620.299 562.931 620.204 564.216 620.593 565.395C620.982 566.573 621.823 567.549 622.932 568.107V568.097Z" fill="#6C63FF"/>
<path d="M621.052 589.785C623.131 591.324 631.93 592.014 631.93 592.014C631.93 592.014 628.69 583.795 626.611 582.265C625.611 581.587 624.388 581.322 623.197 581.526C622.006 581.729 620.94 582.385 620.222 583.356C619.504 584.328 619.19 585.539 619.344 586.737C619.499 587.935 620.111 589.027 621.052 589.785V589.785Z" fill="#6C63FF"/>
<path d="M620.322 600.773C620.322 600.773 631.67 598.503 634.689 595.474C637.708 592.444 651.326 587.155 652.845 590.934C654.365 594.714 673.271 607.572 660.404 609.842C647.536 612.112 630.15 612.842 626.411 611.352C622.672 609.862 620.322 600.773 620.322 600.773Z" fill="#A8A8A8"/>
<path opacity="0.2" d="M660.414 608.472C647.556 610.742 630.16 611.472 626.421 609.982C623.541 608.832 621.542 603.293 620.752 600.723L620.372 600.803C620.372 600.803 622.642 609.882 626.421 611.392C630.2 612.902 647.596 612.152 660.414 609.882C664.123 609.222 665.183 607.692 664.783 605.743C664.463 606.982 663.173 607.962 660.414 608.472Z" fill="black"/>
<path d="M916.761 477.689C973.21 477.689 1018.97 431.925 1018.97 375.472C1018.97 319.019 973.21 273.255 916.761 273.255C860.313 273.255 814.552 319.019 814.552 375.472C814.552 431.925 860.313 477.689 916.761 477.689Z" fill="#6C63FF"/>
<path d="M808.064 449.762C864.512 449.762 910.273 403.998 910.273 347.546C910.273 291.093 864.512 245.329 808.064 245.329C751.615 245.329 705.855 291.093 705.855 347.546C705.855 403.998 751.615 449.762 808.064 449.762Z" fill="#6C63FF"/>
<path d="M688.408 450.762C744.857 450.762 790.617 404.998 790.617 348.546C790.617 292.093 744.857 246.329 688.408 246.329C631.96 246.329 586.199 292.093 586.199 348.546C586.199 404.998 631.96 450.762 688.408 450.762Z" fill="#6C63FF"/>
<path d="M649.516 477.689C705.965 477.689 751.725 431.925 751.725 375.472C751.725 319.019 705.965 273.255 649.516 273.255C593.068 273.255 547.307 319.019 547.307 375.472C547.307 431.925 593.068 477.689 649.516 477.689Z" fill="#6C63FF"/>
<path d="M583.7 486.668C640.148 486.668 685.909 440.904 685.909 384.451C685.909 327.998 640.148 282.234 583.7 282.234C527.251 282.234 481.491 327.998 481.491 384.451C481.491 440.904 527.251 486.668 583.7 486.668Z" fill="#6C63FF"/>
<path d="M556.775 405.888C613.224 405.888 658.984 360.124 658.984 303.671C658.984 247.218 613.224 201.454 556.775 201.454C500.327 201.454 454.566 247.218 454.566 303.671C454.566 360.124 500.327 405.888 556.775 405.888Z" fill="#6C63FF"/>
<path d="M586.689 312.14C643.137 312.14 688.898 266.376 688.898 209.923C688.898 153.47 643.137 107.706 586.689 107.706C530.241 107.706 484.48 153.47 484.48 209.923C484.48 266.376 530.241 312.14 586.689 312.14Z" fill="#6C63FF"/>
<path d="M643.527 312.14C699.976 312.14 745.736 266.376 745.736 209.923C745.736 153.47 699.976 107.706 643.527 107.706C587.079 107.706 541.318 153.47 541.318 209.923C541.318 266.376 587.079 312.14 643.527 312.14Z" fill="#6C63FF"/>
<path d="M676.441 270.255C732.889 270.255 778.65 224.491 778.65 168.038C778.65 111.586 732.889 65.8215 676.441 65.8215C619.992 65.8215 574.232 111.586 574.232 168.038C574.232 224.491 619.992 270.255 676.441 270.255Z" fill="#6C63FF"/>
<path d="M760.203 316.13C816.652 316.13 862.412 270.365 862.412 213.913C862.412 157.46 816.652 111.696 760.203 111.696C703.755 111.696 657.994 157.46 657.994 213.913C657.994 270.365 703.755 316.13 760.203 316.13Z" fill="#6C63FF"/>
<path d="M955.653 405.888C1012.1 405.888 1057.86 360.124 1057.86 303.671C1057.86 247.218 1012.1 201.454 955.653 201.454C899.205 201.454 853.444 247.218 853.444 303.671C853.444 360.124 899.205 405.888 955.653 405.888Z" fill="#6C63FF"/>
<path d="M896.815 355.025C953.264 355.025 999.024 309.26 999.024 252.808C999.024 196.355 953.264 150.591 896.815 150.591C840.367 150.591 794.606 196.355 794.606 252.808C794.606 309.26 840.367 355.025 896.815 355.025Z" fill="#6C63FF"/>
<path d="M858.923 304.161C915.371 304.161 961.132 258.397 961.132 201.944C961.132 145.491 915.371 99.7272 858.923 99.7272C802.475 99.7272 756.714 145.491 756.714 201.944C756.714 258.397 802.475 304.161 858.923 304.161Z" fill="#6C63FF"/>
<path d="M787.128 227.371C843.576 227.371 889.337 181.607 889.337 125.154C889.337 68.7011 843.576 22.937 787.128 22.937C730.679 22.937 684.919 68.7011 684.919 125.154C684.919 181.607 730.679 227.371 787.128 227.371Z" fill="#6C63FF"/>
<path d="M920.75 312.14C977.199 312.14 1022.96 266.376 1022.96 209.923C1022.96 153.47 977.199 107.706 920.75 107.706C864.302 107.706 818.541 153.47 818.541 209.923C818.541 266.376 864.302 312.14 920.75 312.14Z" fill="#6C63FF"/>
<g opacity="0.1">
<path opacity="0.1" d="M916.761 477.689C973.21 477.689 1018.97 431.925 1018.97 375.472C1018.97 319.019 973.21 273.255 916.761 273.255C860.313 273.255 814.552 319.019 814.552 375.472C814.552 431.925 860.313 477.689 916.761 477.689Z" fill="black"/>
<path opacity="0.1" d="M808.064 449.762C864.512 449.762 910.273 403.998 910.273 347.546C910.273 291.093 864.512 245.329 808.064 245.329C751.615 245.329 705.855 291.093 705.855 347.546C705.855 403.998 751.615 449.762 808.064 449.762Z" fill="black"/>
<path opacity="0.1" d="M688.408 450.762C744.857 450.762 790.617 404.998 790.617 348.545C790.617 292.092 744.857 246.328 688.408 246.328C631.96 246.328 586.199 292.092 586.199 348.545C586.199 404.998 631.96 450.762 688.408 450.762Z" fill="black"/>
<path opacity="0.1" d="M649.516 477.689C705.965 477.689 751.725 431.925 751.725 375.472C751.725 319.019 705.965 273.255 649.516 273.255C593.068 273.255 547.307 319.019 547.307 375.472C547.307 431.925 593.068 477.689 649.516 477.689Z" fill="black"/>
<path opacity="0.1" d="M583.7 486.668C640.148 486.668 685.909 440.904 685.909 384.451C685.909 327.998 640.148 282.234 583.7 282.234C527.251 282.234 481.491 327.998 481.491 384.451C481.491 440.904 527.251 486.668 583.7 486.668Z" fill="black"/>
<path opacity="0.1" d="M556.775 405.888C613.224 405.888 658.984 360.124 658.984 303.671C658.984 247.218 613.224 201.454 556.775 201.454C500.327 201.454 454.566 247.218 454.566 303.671C454.566 360.124 500.327 405.888 556.775 405.888Z" fill="black"/>
<path opacity="0.1" d="M586.689 312.14C643.138 312.14 688.898 266.376 688.898 209.923C688.898 153.47 643.138 107.706 586.689 107.706C530.241 107.706 484.48 153.47 484.48 209.923C484.48 266.376 530.241 312.14 586.689 312.14Z" fill="black"/>
<path opacity="0.1" d="M643.527 312.14C699.976 312.14 745.736 266.376 745.736 209.923C745.736 153.47 699.976 107.706 643.527 107.706C587.079 107.706 541.318 153.47 541.318 209.923C541.318 266.376 587.079 312.14 643.527 312.14Z" fill="black"/>
<path opacity="0.1" d="M676.441 270.255C732.889 270.255 778.65 224.491 778.65 168.038C778.65 111.586 732.889 65.8215 676.441 65.8215C619.992 65.8215 574.232 111.586 574.232 168.038C574.232 224.491 619.992 270.255 676.441 270.255Z" fill="black"/>
<path opacity="0.1" d="M760.203 316.13C816.652 316.13 862.412 270.365 862.412 213.913C862.412 157.46 816.652 111.696 760.203 111.696C703.755 111.696 657.994 157.46 657.994 213.913C657.994 270.365 703.755 316.13 760.203 316.13Z" fill="black"/>
<path opacity="0.1" d="M955.653 405.888C1012.1 405.888 1057.86 360.124 1057.86 303.671C1057.86 247.218 1012.1 201.454 955.653 201.454C899.205 201.454 853.444 247.218 853.444 303.671C853.444 360.124 899.205 405.888 955.653 405.888Z" fill="black"/>
<path opacity="0.1" d="M896.815 355.025C953.264 355.025 999.024 309.26 999.024 252.808C999.024 196.355 953.264 150.591 896.815 150.591C840.367 150.591 794.606 196.355 794.606 252.808C794.606 309.26 840.367 355.025 896.815 355.025Z" fill="black"/>
<path opacity="0.1" d="M858.923 304.161C915.372 304.161 961.132 258.397 961.132 201.944C961.132 145.491 915.372 99.7272 858.923 99.7272C802.475 99.7272 756.714 145.491 756.714 201.944C756.714 258.397 802.475 304.161 858.923 304.161Z" fill="black"/>
<path opacity="0.1" d="M787.128 227.371C843.576 227.371 889.337 181.607 889.337 125.154C889.337 68.7011 843.576 22.937 787.128 22.937C730.679 22.937 684.919 68.7011 684.919 125.154C684.919 181.607 730.679 227.371 787.128 227.371Z" fill="black"/>
<path opacity="0.1" d="M920.75 312.14C977.199 312.14 1022.96 266.376 1022.96 209.923C1022.96 153.47 977.199 107.706 920.75 107.706C864.302 107.706 818.541 153.47 818.541 209.923C818.541 266.376 864.302 312.14 920.75 312.14Z" fill="black"/>
</g>
<path d="M866.282 554.599C866.282 554.599 928.769 502.076 897.855 427.285L866.941 415.707L833.398 518.984L866.282 554.599Z" fill="#67647E"/>
<path opacity="0.1" d="M869.611 412.147L877.009 414.917L844.076 516.314L872.81 547.43C870.431 549.8 868.951 551.039 868.951 551.039L836.058 515.424L869.611 412.147Z" fill="black"/>
<path d="M584.08 445.203L592.198 477.699C592.198 477.699 649.556 485.178 687.798 480.478C694.559 479.519 701.049 477.178 706.864 473.599C710.094 471.69 715.193 470.86 722.161 476.079C734.099 485.078 792.687 557.069 783.199 631.759C782.462 637.387 779.891 642.615 775.885 646.635C771.878 650.655 766.658 653.242 761.033 653.996V653.996C749.35 655.589 738.181 659.814 728.37 666.355L699.376 685.662L996.665 679.163L965.801 641.798C965.801 641.798 944.685 623.93 928.439 622.3C923.7 621.83 919.79 617.481 916.631 611.572C898.125 576.926 875.989 544.35 851.994 513.244C834.518 490.587 819.851 466.71 821.221 451.712C824.47 415.967 821.221 357.484 821.221 357.484L759.493 349.365C759.493 349.365 767.612 427.355 692.887 446.843C618.163 466.33 584.08 445.203 584.08 445.203Z" fill="#67647E"/>
<g opacity="0.1">
<path opacity="0.1" d="M634.439 459.831C634.439 459.831 668.552 480.948 743.287 461.451C818.021 441.953 809.893 363.973 809.893 363.973L821.641 365.503C821.421 360.504 821.251 357.504 821.251 357.504L759.523 349.385C759.523 349.385 767.642 427.375 692.917 446.863C618.193 466.35 584.07 445.243 584.07 445.243L592.188 477.739C592.188 477.739 614.103 480.598 639.878 481.668L634.439 459.831Z" fill="black"/>
<path opacity="0.1" d="M778.729 680.973C788.541 674.432 799.71 670.207 811.393 668.614V668.614C817.005 667.869 822.216 665.296 826.221 661.293C830.225 657.29 832.8 652.08 833.548 646.467C843.086 571.777 784.468 499.656 772.561 490.697C759.563 480.948 753.065 492.317 753.065 492.317C748.465 493.524 743.789 494.416 739.068 494.987C760.123 522.983 790.247 576.686 783.199 631.839C782.451 637.452 779.875 642.662 775.871 646.665C771.867 650.668 766.656 653.241 761.043 653.986V653.986C749.36 655.579 738.191 659.804 728.38 666.345L699.386 685.652L774.13 684.022L778.729 680.973Z" fill="black"/>
</g>
<path d="M916.761 454.752C973.21 454.752 1018.97 408.988 1018.97 352.535C1018.97 296.082 973.21 250.318 916.761 250.318C860.313 250.318 814.552 296.082 814.552 352.535C814.552 408.988 860.313 454.752 916.761 454.752Z" fill="#6C63FF"/>
<path d="M808.064 426.825C864.512 426.825 910.273 381.061 910.273 324.608C910.273 268.155 864.512 222.391 808.064 222.391C751.615 222.391 705.855 268.155 705.855 324.608C705.855 381.061 751.615 426.825 808.064 426.825Z" fill="#6C63FF"/>
<path d="M688.408 427.825C744.857 427.825 790.617 382.061 790.617 325.608C790.617 269.155 744.857 223.391 688.408 223.391C631.96 223.391 586.199 269.155 586.199 325.608C586.199 382.061 631.96 427.825 688.408 427.825Z" fill="#6C63FF"/>
<path d="M649.516 454.752C705.965 454.752 751.725 408.988 751.725 352.535C751.725 296.082 705.965 250.318 649.516 250.318C593.068 250.318 547.307 296.082 547.307 352.535C547.307 408.988 593.068 454.752 649.516 454.752Z" fill="#6C63FF"/>
<path d="M583.7 463.731C640.148 463.731 685.909 417.967 685.909 361.514C685.909 305.061 640.148 259.297 583.7 259.297C527.251 259.297 481.491 305.061 481.491 361.514C481.491 417.967 527.251 463.731 583.7 463.731Z" fill="#6C63FF"/>
<path d="M556.775 382.951C613.224 382.951 658.984 337.187 658.984 280.734C658.984 224.281 613.224 178.517 556.775 178.517C500.327 178.517 454.566 224.281 454.566 280.734C454.566 337.187 500.327 382.951 556.775 382.951Z" fill="#6C63FF"/>
<path d="M586.689 289.203C643.137 289.203 688.898 243.439 688.898 186.986C688.898 130.533 643.137 84.7692 586.689 84.7692C530.241 84.7692 484.48 130.533 484.48 186.986C484.48 243.439 530.241 289.203 586.689 289.203Z" fill="#6C63FF"/>
<path d="M643.527 289.203C699.976 289.203 745.736 243.439 745.736 186.986C745.736 130.533 699.976 84.7692 643.527 84.7692C587.079 84.7692 541.318 130.533 541.318 186.986C541.318 243.439 587.079 289.203 643.527 289.203Z" fill="#6C63FF"/>
<path d="M676.441 247.318C732.889 247.318 778.65 201.554 778.65 145.101C778.65 88.6486 732.889 42.8845 676.441 42.8845C619.992 42.8845 574.232 88.6486 574.232 145.101C574.232 201.554 619.992 247.318 676.441 247.318Z" fill="#6C63FF"/>
<path d="M760.203 293.192C816.652 293.192 862.412 247.428 862.412 190.976C862.412 134.523 816.652 88.7587 760.203 88.7587C703.755 88.7587 657.994 134.523 657.994 190.976C657.994 247.428 703.755 293.192 760.203 293.192Z" fill="#6C63FF"/>
<path d="M955.653 382.951C1012.1 382.951 1057.86 337.187 1057.86 280.734C1057.86 224.281 1012.1 178.517 955.653 178.517C899.205 178.517 853.444 224.281 853.444 280.734C853.444 337.187 899.205 382.951 955.653 382.951Z" fill="#6C63FF"/>
<path d="M896.815 332.088C953.264 332.088 999.024 286.323 999.024 229.871C999.024 173.418 953.264 127.654 896.815 127.654C840.367 127.654 794.606 173.418 794.606 229.871C794.606 286.323 840.367 332.088 896.815 332.088Z" fill="#6C63FF"/>
<path d="M858.923 281.224C915.371 281.224 961.132 235.46 961.132 179.007C961.132 122.554 915.371 76.7903 858.923 76.7903C802.475 76.7903 756.714 122.554 756.714 179.007C756.714 235.46 802.475 281.224 858.923 281.224Z" fill="#6C63FF"/>
<path d="M787.128 204.434C843.576 204.434 889.337 158.67 889.337 102.217C889.337 45.7641 843.576 0 787.128 0C730.679 0 684.919 45.7641 684.919 102.217C684.919 158.67 730.679 204.434 787.128 204.434Z" fill="#6C63FF"/>
<path d="M920.75 289.203C977.199 289.203 1022.96 243.439 1022.96 186.986C1022.96 130.533 977.199 84.7692 920.75 84.7692C864.302 84.7692 818.541 130.533 818.541 186.986C818.541 243.439 864.302 289.203 920.75 289.203Z" fill="#6C63FF"/>
<path opacity="0.1" d="M1018.52 202.994C1018.52 202.994 923.33 157.85 865.732 237.86Z" fill="black"/>
<path opacity="0.1" d="M768.492 111.536C768.492 111.536 663.193 108.356 642.518 204.744Z" fill="black"/>
<path opacity="0.1" d="M637.599 320.669C637.599 320.669 542.408 275.514 484.81 355.504Z" fill="black"/>
<path d="M834.168 508.905C836.09 512.54 836.946 516.644 836.638 520.744C832.932 518.941 829.812 516.127 827.639 512.625C824.48 507.115 823.38 501.816 825.17 500.786C826.96 499.756 831.019 503.396 834.168 508.905Z" fill="#6C63FF"/>
<path d="M291.018 614.921C291.018 614.921 296.506 622.1 288.478 632.919C280.45 643.738 273.831 652.917 276.481 659.676C276.481 659.676 288.588 639.538 298.476 639.258C308.364 638.978 301.855 627.03 291.018 614.921Z" fill="#6C63FF"/>
<path opacity="0.1" d="M291.018 614.921C291.495 615.615 291.872 616.372 292.137 617.171C301.755 628.47 306.884 639.018 297.636 639.288C289.028 639.538 278.69 654.936 276.221 658.826C276.301 659.128 276.397 659.425 276.511 659.716C276.511 659.716 288.618 639.578 298.506 639.298C308.394 639.018 301.855 627.03 291.018 614.921Z" fill="black"/>
<path d="M301.226 624.08C301.226 626.61 300.946 628.659 300.596 628.659C300.246 628.659 299.966 626.66 299.966 624.08C299.966 621.5 300.316 622.74 300.666 622.74C301.016 622.74 301.226 621.55 301.226 624.08Z" fill="#FFD037"/>
<path d="M304.725 627.09C302.505 628.3 300.566 629.029 300.406 628.72C300.246 628.41 301.905 627.18 304.125 625.97C306.344 624.76 305.465 625.64 305.634 625.97C305.804 626.3 306.944 625.92 304.725 627.09Z" fill="#FFD037"/>
<path d="M262.004 614.921C262.004 614.921 256.515 622.1 264.543 632.919C272.571 643.738 279.19 652.917 276.541 659.676C276.541 659.676 264.433 639.538 254.545 639.258C244.657 638.978 251.156 627.03 262.004 614.921Z" fill="#6C63FF"/>
<path opacity="0.1" d="M262.004 614.921C261.526 615.615 261.149 616.372 260.884 617.171C251.266 628.47 246.137 639.018 255.385 639.288C263.993 639.538 274.331 654.936 276.801 658.826C276.721 659.128 276.624 659.425 276.511 659.716C276.511 659.716 264.403 639.578 254.515 639.298C244.627 639.018 251.156 627.03 262.004 614.921Z" fill="black"/>
<path d="M251.796 624.08C251.796 626.61 252.076 628.659 252.426 628.659C252.776 628.659 253.056 626.66 253.056 624.08C253.056 621.5 252.706 622.74 252.356 622.74C252.006 622.74 251.796 621.55 251.796 624.08Z" fill="#FFD037"/>
<path d="M248.286 627.09C250.506 628.3 252.446 629.029 252.606 628.72C252.766 628.41 251.106 627.18 248.886 625.97C246.667 624.76 247.547 625.64 247.377 625.97C247.207 626.3 246.107 625.92 248.286 627.09Z" fill="#FFD037"/>
<path d="M253.545 658.766C253.545 658.766 268.902 658.296 273.541 654.996C278.18 651.697 297.166 647.767 298.306 653.046C299.446 658.326 321.381 679.333 304.045 679.473C286.709 679.613 263.763 676.773 259.144 673.954C254.525 671.134 253.545 658.766 253.545 658.766Z" fill="#A8A8A8"/>
<path opacity="0.2" d="M304.345 677.643C287.009 677.783 264.063 674.944 259.444 672.124C255.925 669.984 254.525 662.295 254.055 658.746H253.545C253.545 658.746 254.545 671.134 259.134 673.944C263.723 676.753 286.699 679.603 304.035 679.463C309.034 679.463 310.764 677.643 310.674 675.004C309.984 676.613 308.094 677.613 304.345 677.643Z" fill="black"/>
<path d="M159.426 532.657C174.752 555.284 169.863 636.294 169.863 636.294C169.863 636.294 92.8293 610.787 77.5024 588.17C70.1428 577.304 67.4008 563.96 69.8795 551.072C72.3582 538.184 79.8547 526.809 90.7197 519.449C101.585 512.089 114.928 509.347 127.815 511.826C140.702 514.304 152.076 521.801 159.436 532.667L159.426 532.657Z" fill="#6C63FF"/>
<path opacity="0.1" d="M159.426 532.657C174.752 555.284 169.863 636.294 169.863 636.294C169.863 636.294 92.8293 610.787 77.5024 588.17C70.1428 577.304 67.4008 563.96 69.8795 551.072C72.3582 538.184 79.8547 526.809 90.7197 519.449C101.585 512.089 114.928 509.347 127.815 511.826C140.702 514.304 152.076 521.801 159.436 532.667L159.426 532.657Z" fill="black"/>
<path d="M91.0098 519.499C91.0098 519.499 148.738 564.073 170.163 636.374" stroke="#535461" stroke-miterlimit="10"/>
<path d="M184.7 574.952C184.7 574.952 143.709 567.953 171.703 635.854C171.703 635.854 200.187 624.996 202.407 597.979C202.847 592.723 201.345 587.487 198.185 583.264C195.025 579.041 190.427 576.123 185.26 575.062L184.7 574.952Z" fill="#6C63FF"/>
<path d="M185.3 574.882C185.3 574.882 193.109 612.437 171.743 635.874" stroke="#535461" stroke-miterlimit="10"/>
<path d="M188.51 684.108C190.342 682.614 191.677 680.599 192.339 678.329C192.839 676.029 191.859 673.279 189.659 672.44C187.2 671.5 184.57 673.199 182.581 674.929C180.591 676.659 178.302 678.619 175.692 678.249C177.033 677.033 178.037 675.49 178.604 673.771C179.172 672.052 179.285 670.216 178.932 668.44C178.819 667.704 178.508 667.013 178.032 666.44C176.662 664.98 174.193 665.61 172.553 666.76C167.354 670.42 165.904 677.479 165.874 683.838C165.354 681.548 165.794 679.159 165.774 676.839C165.754 674.519 165.114 671.84 163.135 670.62C161.907 669.96 160.529 669.633 159.136 669.67C156.796 669.58 154.197 669.82 152.597 671.53C150.597 673.649 151.127 677.219 152.857 679.529C154.587 681.838 157.206 683.328 159.626 684.948C161.565 686.101 163.219 687.676 164.465 689.557C164.611 689.818 164.732 690.093 164.824 690.377H179.471C182.753 688.705 185.793 686.596 188.51 684.108V684.108Z" fill="#6C63FF"/>
<path d="M984.637 543.58C984.637 543.58 964.311 563.908 975.789 594.074C987.267 624.24 956.123 674.394 956.123 674.394L957.123 674.234C998.864 666.865 1019.61 619.121 996.395 583.645C987.717 570.477 980.628 554.999 984.637 543.58Z" fill="#6C63FF"/>
<path d="M984.637 543.58C984.637 543.58 973.159 568.497 984.637 588.825C996.115 609.152 986.637 666.195 956.113 674.394" stroke="#535461" stroke-miterlimit="10"/>
<path d="M1020.84 625.8C1020.84 625.8 997.644 622.11 995.535 642.898C993.425 663.685 950.924 666.565 950.924 666.565L951.724 667.095C986.807 690.092 1020.34 681.763 1015.28 651.187C1013.41 639.818 1013.56 628.4 1020.84 625.8Z" fill="#6C63FF"/>
<path opacity="0.2" d="M1020.84 625.8C1020.84 625.8 997.644 622.11 995.535 642.898C993.425 663.685 950.924 666.565 950.924 666.565L951.724 667.095C986.807 690.092 1020.34 681.763 1015.28 651.187C1013.41 639.818 1013.56 628.4 1020.84 625.8Z" fill="#F5F5F5"/>
<path d="M1020.84 625.8C1020.84 625.8 1002.84 629.799 1004.31 646.127C1005.78 662.455 977.579 682.122 950.934 666.564" stroke="#535461" stroke-miterlimit="10"/>
<path d="M808.453 671.924C808.453 671.924 842.876 665.035 852.064 655.856C861.253 646.677 902.554 630.609 907.143 642.088C911.732 653.566 969.13 692.581 930.138 699.47C891.146 706.36 838.337 708.649 826.86 704.06C815.382 699.47 808.453 671.924 808.453 671.924Z" fill="#A8A8A8"/>
<path opacity="0.2" d="M930.098 695.201C891.106 702.09 838.297 704.38 826.82 699.791C818.081 696.291 812.003 679.493 809.603 671.684L808.453 671.924C808.453 671.924 815.342 699.471 826.81 704.06C838.277 708.649 891.076 706.36 930.088 699.471C941.356 697.471 944.575 692.811 943.356 686.912C942.406 690.762 938.477 693.731 930.098 695.201Z" fill="black"/>
<path d="M1041.45 476.289C1041.32 480.398 1040.03 484.387 1037.74 487.797C1035.42 484.399 1034.12 480.417 1033.97 476.309C1033.97 469.96 1035.61 464.81 1037.68 464.8C1039.75 464.79 1041.43 469.94 1041.45 476.289Z" fill="#6C63FF"/>
<path d="M1066.81 584.015C1069.11 587.419 1070.41 591.405 1070.55 595.514C1066.68 594.117 1063.29 591.656 1060.76 588.415C1057.02 583.275 1055.35 578.126 1057.02 576.916C1058.69 575.706 1063.08 578.886 1066.81 584.015Z" fill="#6C63FF"/>
<path d="M947.375 523.813C947.236 527.921 945.94 531.907 943.636 535.311C941.331 531.907 940.035 527.921 939.896 523.813C939.896 517.464 941.566 512.314 943.636 512.314C945.705 512.314 947.375 517.484 947.375 523.813Z" fill="#6C63FF"/>
<path d="M985.427 672.054C985.427 672.054 1002.53 668.654 1007.09 664.125C1011.65 659.596 1032.19 651.667 1034.47 657.326C1036.75 662.985 1065.26 682.243 1045.87 685.632C1026.49 689.022 1000.25 690.162 994.555 687.902C988.856 685.642 985.427 672.054 985.427 672.054Z" fill="#A8A8A8"/>
<path opacity="0.2" d="M1045.9 683.542C1026.52 686.942 1000.28 688.072 994.585 685.812C990.246 684.082 987.226 675.813 986.027 671.944L985.457 672.064C985.457 672.064 988.876 685.652 994.585 687.922C1000.29 690.191 1026.52 689.052 1045.9 685.652C1051.5 684.652 1053.1 682.372 1052.5 679.453C1051.99 681.343 1050.04 682.812 1045.9 683.542Z" fill="black"/>
<path d="M1006.35 732.196C1008.18 730.702 1009.52 728.687 1010.18 726.417C1010.68 724.117 1009.7 721.368 1007.5 720.528C1005.04 719.588 1002.41 721.288 1000.42 723.018C998.434 724.747 996.145 726.707 993.535 726.337C994.876 725.121 995.88 723.579 996.447 721.86C997.015 720.141 997.128 718.304 996.775 716.528C996.662 715.792 996.351 715.101 995.875 714.529C994.505 713.069 992.036 713.699 990.396 714.849C985.197 718.508 983.747 725.567 983.717 731.926C983.197 729.637 983.637 727.247 983.617 724.927C983.597 722.608 982.957 719.928 980.978 718.708C979.75 718.049 978.372 717.721 976.979 717.758C974.639 717.668 972.04 717.908 970.44 719.618C968.44 721.738 968.97 725.307 970.7 727.617C972.43 729.927 975.049 731.417 977.469 733.036C979.408 734.189 981.062 735.765 982.308 737.646C982.454 737.907 982.575 738.181 982.667 738.466H997.314C1000.6 736.793 1003.64 734.684 1006.35 732.196V732.196Z" fill="#6C63FF"/>
<path d="M801.785 614.531C798.693 617.242 794.898 619.023 790.837 619.671C791.744 615.662 793.765 611.992 796.666 609.082C801.295 604.742 806.204 602.443 807.614 603.942C809.023 605.442 806.414 610.192 801.785 614.531Z" fill="#6C63FF"/>
<path opacity="0.1" d="M801.785 614.531C798.693 617.242 794.898 619.023 790.837 619.671C791.744 615.662 793.765 611.992 796.666 609.082C801.295 604.742 806.204 602.443 807.614 603.942C809.023 605.442 806.414 610.192 801.785 614.531Z" fill="black"/>
<path d="M869.781 608.012C866.689 610.723 862.894 612.505 858.833 613.152C859.74 609.144 861.76 605.473 864.662 602.563C869.291 598.224 874.2 595.924 875.61 597.424C877.019 598.923 874.41 603.663 869.781 608.012Z" fill="#6C63FF"/>
<path opacity="0.1" d="M869.781 608.012C866.689 610.723 862.894 612.505 858.833 613.152C859.74 609.144 861.76 605.473 864.662 602.563C869.291 598.224 874.2 595.924 875.61 597.424C877.019 598.923 874.41 603.663 869.781 608.012Z" fill="black"/>
<path d="M882.818 676.943C879.726 679.654 875.931 681.436 871.87 682.083C872.775 678.063 874.799 674.381 877.709 671.464C882.338 667.125 887.247 664.825 888.657 666.325C890.067 667.825 887.457 672.594 882.818 676.943Z" fill="#6C63FF"/>
<path opacity="0.1" d="M882.818 676.943C879.726 679.654 875.931 681.436 871.87 682.083C872.775 678.063 874.799 674.381 877.709 671.464C882.338 667.125 887.247 664.825 888.657 666.325C890.067 667.825 887.457 672.594 882.818 676.943Z" fill="black"/>
<path d="M665.553 726.777C665.553 726.777 664.553 742.435 666.553 745.035C666.553 745.035 620.642 753.384 614.903 750.774C609.164 748.164 611.774 743.995 614.903 742.425C618.033 740.855 633.689 735.116 635.769 724.167C635.769 724.167 628.99 721.038 650.896 725.167C672.801 729.297 665.553 726.777 665.553 726.777Z" fill="#DC9BA3"/>
<path opacity="0.05" d="M665.553 726.777C665.553 726.777 664.553 742.435 666.553 745.035C666.553 745.035 620.642 753.384 614.903 750.774C609.164 748.164 611.774 743.995 614.903 742.425C618.033 740.855 633.689 735.116 635.769 724.167C635.769 724.167 628.99 721.038 650.896 725.167C672.801 729.297 665.553 726.777 665.553 726.777Z" fill="black"/>
<path d="M844.506 574.936C844.506 574.936 838.767 584.325 842.416 602.593C846.066 620.86 833.028 620.85 833.028 620.85H806.954L798.085 597.853L810.603 598.853C810.603 598.853 818.951 596.763 815.302 577.456L844.506 574.936Z" fill="#FFD2D9"/>
<path d="M766.252 553.029C770.251 565.737 775.25 581.215 777.92 589.464L779.819 595.294L797.036 577.556C797.036 577.556 796.276 575.796 795.146 573.336C792.627 567.877 788.238 558.968 786.078 558.248C786.078 558.248 810.073 556.679 817.382 562.418C824.69 568.157 822.601 546.76 822.601 546.76C822.601 546.76 808.514 545.76 803.295 542.59C798.076 539.421 769.901 536.331 769.901 536.331C769.901 536.331 760.513 534.761 766.252 553.029Z" fill="#FFD2D9"/>
<path d="M609.724 706.459L613.374 733.066L622.762 732.066C622.762 732.066 623.332 731.526 624.291 730.666C626.821 728.437 632.09 724.067 637.129 721.668C638.834 720.796 640.684 720.244 642.588 720.038L632.15 704.38C629.611 705.332 627.009 706.104 624.361 706.689C621.612 707.337 618.798 707.672 615.973 707.689C613.827 707.722 611.698 707.303 609.724 706.459V706.459Z" fill="#FFD2D9"/>
<path d="M635.809 725.217C640.508 729.386 661.894 720.518 665.553 734.086L668.912 721.218L679.26 681.623L680.68 676.173L689.298 675.803L788.208 671.584L793.806 671.344L796.806 671.214L792.887 669.274L766.802 656.346C766.802 656.346 757.404 655.686 744.447 653.906C724.801 651.216 696.966 645.907 681.25 636.518C655.165 620.86 645.257 673.564 645.257 673.564C645.257 673.564 641.258 686.932 638.258 700.11C636.881 705.795 635.83 711.554 635.109 717.358C634.659 721.388 634.799 724.307 635.809 725.217Z" fill="#E9E9EF"/>
<path opacity="0.05" d="M635.809 725.217C640.508 729.387 661.894 720.518 665.553 734.086L668.912 721.218L679.26 681.623L680.68 676.173L689.568 675.623L785.128 669.744L791.027 669.374L792.847 669.264L795.196 669.114L766.762 656.326C766.762 656.326 757.364 655.666 744.407 653.886C724.761 651.197 696.926 645.887 681.21 636.499C655.125 620.841 645.217 673.544 645.217 673.544C645.217 673.544 641.218 686.912 638.218 700.09C636.841 705.775 635.79 711.534 635.069 717.338C634.659 721.388 634.799 724.307 635.809 725.217Z" fill="black"/>
<path opacity="0.1" d="M624.371 706.649L633.499 717.358L637.139 721.627C638.844 720.756 640.694 720.204 642.598 719.998L632.16 704.34C629.621 705.292 627.019 706.064 624.371 706.649V706.649Z" fill="black"/>
<path d="M624.861 705.389L635.069 717.388L639.988 723.157V724.727C645.987 726.117 664.773 722.157 668.912 721.247L669.722 721.067C681.72 721.587 726.07 695.501 726.07 695.501C726.07 695.501 774.59 703.85 798.056 701.76C811.163 700.59 814.842 695.851 815.532 691.881C815.835 689.92 815.564 687.913 814.752 686.102L793.757 671.354L790.977 669.354L786.538 666.224C786.538 666.224 778.82 664.475 769.022 662.315C753.705 658.935 733.299 654.546 729.17 654.236C722.391 653.716 705.175 659.455 695.257 670.934C693.555 672.725 691.633 674.294 689.538 675.603L689.268 675.783C686.479 677.633 683.049 679.593 679.27 681.603C666.643 688.252 649.806 695.401 638.229 700.09C630.31 703.32 624.861 705.389 624.861 705.389Z" fill="#E9E9EF"/>
<path opacity="0.1" d="M609.724 706.459L613.374 733.066L622.762 732.066C622.762 732.066 623.332 731.526 624.291 730.666C622.212 730.666 618.782 730.116 618.063 725.807C618.063 725.807 621.682 713.159 615.973 707.709C613.826 707.735 611.697 707.31 609.724 706.459Z" fill="black"/>
<path d="M616.993 725.737C616.993 725.737 622.212 707.479 610.214 705.39L590.388 713.219L567.393 714.788C567.393 714.788 561.394 724.577 571.002 735.556C573.644 738.532 576.861 740.943 580.459 742.644C584.057 744.346 587.961 745.301 591.938 745.455L616.993 746.604L624.861 730.456C624.861 730.456 618.073 731.996 616.993 725.737Z" fill="#DC9BA3"/>
<path opacity="0.1" d="M744.417 653.906C747.046 654.676 757.924 657.906 769.062 662.335C774.568 664.457 779.931 666.932 785.118 669.744C786.198 670.354 787.228 670.964 788.198 671.574C790.738 673.067 793.012 674.973 794.926 677.213C801.365 685.542 810.823 690.032 815.532 691.861C815.835 689.9 815.564 687.893 814.752 686.082L793.757 671.334L796.756 671.204L792.837 669.264L795.186 669.114L766.752 656.326C766.752 656.326 757.374 655.686 744.417 653.906Z" fill="black"/>
<path opacity="0.1" d="M777.96 589.474L779.859 595.304L797.076 577.566C797.076 577.566 796.316 575.806 795.186 573.346C792.957 577.936 782.569 585.995 777.96 589.474Z" fill="black"/>
<path d="M840.037 598.123C840.654 596.356 841.105 594.535 841.387 592.684L863.812 600.473C863.812 600.473 879.199 612.211 877.639 637.778C877.639 637.778 858.643 630.779 850.245 639.078L850.075 640.548C848.309 655.137 841.853 668.759 831.679 679.363C827.529 683.722 823.62 688.632 821.551 693.361C821.551 693.361 806.944 689.192 798.076 677.703C789.207 666.214 746.966 654.256 746.966 654.256C746.966 654.256 769.401 654.776 772.531 646.947C775.66 639.118 786.098 622.42 782.449 609.382C778.799 596.343 776.71 592.164 776.71 592.164C776.71 592.164 798.106 577.036 796.536 572.336L810.103 587.994L816.362 590.084C815.867 591.297 815.616 592.594 815.622 593.904C815.262 608.072 835.278 611.471 840.037 598.123Z" fill="#CEDAD5"/>
<path opacity="0.1" d="M816.082 584.405C815.924 582.456 815.66 580.517 815.292 578.596L844.506 575.986C844.506 575.986 842.506 577.736 841.607 584.255C838.177 586.255 834.178 589.035 829.899 589.035C824.912 589.041 820.059 587.415 816.082 584.405V584.405Z" fill="black"/>
<path d="M829.639 588.244C842.317 588.244 852.594 577.966 852.594 565.287C852.594 552.609 842.317 542.33 829.639 542.33C816.961 542.33 806.684 552.609 806.684 565.287C806.684 577.966 816.961 588.244 829.639 588.244Z" fill="#FFD2D9"/>
<path d="M846.596 571.287H843.466V562.418L840.337 553.029C840.337 553.029 824.68 545.72 817.342 547.29L811.643 552.479C811.643 552.479 810.073 539.961 819.471 535.261C828.869 530.562 845.556 532.652 849.735 536.261C853.914 539.871 860.733 546.18 855.474 563.398L853.944 567.637C853.944 567.637 847.635 565.547 846.596 571.287Z" fill="#844F6E"/>
<g opacity="0.05">
<path opacity="0.05" d="M806.044 583.335L804.334 582.765L796.456 573.676C796.61 573.246 796.628 572.778 796.506 572.336L806.044 583.335Z" fill="black"/>
<path opacity="0.05" d="M817.022 600.173C814.792 599.223 812.908 597.61 811.626 595.553C810.344 593.496 809.725 591.095 809.853 588.674C809.853 588.364 809.853 588.074 809.853 587.794L810.013 587.984L816.272 590.074C815.777 591.287 815.526 592.584 815.532 593.894C815.469 596.081 815.983 598.247 817.022 600.173V600.173Z" fill="black"/>
<path opacity="0.05" d="M756.164 653.826C769.242 658.376 786.948 665.545 792.337 672.514L792.737 673.014C778.41 663.185 746.946 654.246 746.946 654.246C750.024 654.281 753.102 654.141 756.164 653.826V653.826Z" fill="black"/>
<path opacity="0.05" d="M815.812 688.172C817.881 683.462 821.811 678.543 825.94 674.174C836.114 663.57 842.57 649.948 844.336 635.359L844.506 633.889C852.854 625.54 871.9 632.589 871.9 632.589C872.9 616.371 867.061 605.722 862.672 600.103L863.822 600.503C863.822 600.503 879.209 612.241 877.649 637.808C877.649 637.808 858.653 630.809 850.255 639.108L850.085 640.578C848.319 655.168 841.863 668.789 831.689 679.393C827.539 683.752 823.63 688.662 821.561 693.391C821.561 693.391 808.843 689.752 799.945 679.953C804.741 683.555 810.103 686.333 815.812 688.172V688.172Z" fill="black"/>
</g>
<path d="M821.551 627.12C821.551 627.12 846.545 663.115 859.633 673.554C872.72 683.993 876.329 668.854 876.329 668.854V635.469L853.334 632.859L853.084 636.029L852.804 639.648L831.409 616.651C831.409 616.651 810.013 597.344 805.844 608.822C801.675 620.301 821.551 627.12 821.551 627.12Z" fill="#FFD2D9"/>
<path opacity="0.1" d="M726.33 695.731C722.852 693.06 718.98 690.945 714.853 689.462C710.917 688.118 707.209 686.182 703.855 683.722" fill="black"/>
<path opacity="0.2" d="M567.463 714.778L568.313 714.718C567.073 717.868 565.313 725.567 572.632 733.976C575.267 736.942 578.473 739.347 582.058 741.046C585.643 742.745 589.534 743.703 593.498 743.865L617.793 745.004L617.013 746.604L591.938 745.454C587.974 745.293 584.083 744.334 580.498 742.635C576.913 740.936 573.707 738.532 571.072 735.566C561.464 724.567 567.463 714.778 567.463 714.778Z" fill="white"/>
<path opacity="0.05" d="M656.055 737.146C655.982 737.459 655.898 737.769 655.805 738.075C655.295 737.785 654.565 737.225 656.055 737.146Z" fill="#00FF00"/>
<path opacity="0.2" d="M614.993 749.214C620.342 751.644 660.554 744.564 665.983 743.584C666.093 744.104 666.303 744.596 666.603 745.034C666.603 745.034 620.692 753.383 614.953 750.774C611.954 749.434 611.264 747.674 611.664 746.074C611.994 747.194 612.934 748.304 614.993 749.214Z" fill="white"/>
<path opacity="0.1" d="M815.052 554.319C809.408 550.906 804.825 545.99 801.815 540.121C801.392 539.474 801.218 538.696 801.325 537.931C801.695 536.511 803.544 536.261 804.884 535.651C807.374 534.511 808.423 531.652 810.053 529.432C811.452 527.605 813.329 526.202 815.477 525.378C817.625 524.553 819.959 524.34 822.221 524.763C824.6 525.243 826.8 526.422 829.219 526.762C834.398 527.522 840.037 524.383 844.686 526.762C846.805 527.852 848.245 529.902 849.505 531.922C852.674 536.991 856.643 542.38 853.764 548.3C852.114 551.699 849.475 554.519 845.766 555.509C842.056 556.499 837.767 555.669 833.988 555.269C830.889 554.929 827.629 554.269 824.51 554.549C820.831 554.929 818.541 556.419 815.052 554.319Z" fill="black"/>
<path d="M815.052 553.269C809.408 549.856 804.825 544.94 801.815 539.071C801.392 538.424 801.218 537.646 801.325 536.881C801.695 535.461 803.544 535.211 804.884 534.601C807.374 533.462 808.423 530.602 810.053 528.382C811.452 526.556 813.329 525.152 815.477 524.328C817.625 523.504 819.959 523.291 822.221 523.713C824.6 524.193 826.8 525.373 829.219 525.713C834.398 526.473 840.037 523.333 844.686 525.713C846.805 526.802 848.245 528.852 849.505 530.872C852.674 535.941 856.643 541.331 853.764 547.25C852.114 550.649 849.475 553.469 845.766 554.459C842.056 555.449 837.767 554.619 833.988 554.219C830.889 553.879 827.629 553.219 824.51 553.499C820.831 553.879 818.541 555.379 815.052 553.269Z" fill="#844F6E"/>
<path d="M384.981 677.573C384.981 688.332 385.581 695.441 385.581 695.441C385.581 695.441 400.947 696.301 400.518 710.549C400.088 724.797 460.245 727.817 460.245 727.817C460.245 727.817 460.245 727.667 460.245 727.387C460.245 727.387 460.245 726.237 460.245 724.157C465.964 725.007 472.083 725.697 475.512 725.367C475.282 726.477 475.012 727.647 474.752 728.687C474.472 728.967 468.933 734.566 469.113 740.525C469.013 743.525 470.373 746.604 474.772 749.164C487.47 756.583 527.011 752.454 527.011 752.454C533.01 748.514 535.01 745.165 534.9 742.385C535.09 738.285 531.001 735.386 527.251 733.516C524.353 732.071 521.032 731.716 517.893 732.516C513.659 733.454 509.312 733.774 504.986 733.466C505.153 732.606 505.377 731.757 505.656 730.926C509.715 732.076 512.514 732.926 512.514 732.926C512.514 732.926 533.59 721.708 524.812 703.58C523.427 701.065 521.344 699.006 518.813 697.651C525.582 685.982 532.01 672.244 531.371 663.005C530.301 647.587 499.687 650.947 488.219 652.756L466.114 631.069C466.114 615.071 466.604 596.704 465.114 592.724C462.475 585.815 463.355 586.725 461.605 583.665L461.535 583.555C460.535 581.935 457.816 579.366 457.116 579.716C456.817 576.537 456.861 573.336 457.246 570.167C462.686 568.388 467.428 564.94 470.799 560.313C474.169 555.686 475.997 550.115 476.022 544.39C476.025 540.106 474.996 535.884 473.023 532.082L473.323 531.952L470.423 517.694C470.319 517.392 470.277 517.073 470.3 516.756C470.322 516.438 470.408 516.128 470.553 515.844C470.853 515.444 471.363 515.324 471.753 515.044C472.194 514.616 472.48 514.054 472.565 513.445C472.65 512.836 472.53 512.217 472.223 511.684C471.953 511.155 471.583 510.683 471.133 510.295C468.693 507.525 463.505 508.515 460.315 508.105C455.996 507.555 451.467 506.755 447.378 508.895C446.497 509.441 445.579 509.922 444.628 510.335C443.327 510.688 441.974 510.817 440.629 510.715C438.195 510.712 435.766 510.93 433.371 511.364C430.251 510.235 426.582 511.234 423.693 512.964C420.387 514.989 417.695 517.875 415.906 521.313C414.116 524.752 413.297 528.613 413.535 532.482C413.787 534.901 414.252 537.293 414.925 539.631L420.273 560.478C420.615 562.22 421.294 563.877 422.273 565.358C422.51 565.671 422.778 565.959 423.073 566.217C423.583 566.832 424.243 567.304 424.989 567.588C425.736 567.872 426.543 567.958 427.332 567.837C427.536 567.789 427.733 567.718 427.922 567.627C427.74 569.821 427.314 571.987 426.652 574.086C420.533 575.866 411.655 582.085 400.997 600.083C387.32 623.14 385.041 657.136 384.981 677.573Z" fill="url(#paint0_linear_100:399)"/>
<path d="M438.16 707.559H497.987V664.705H438.16V707.559Z" fill="#5F5D7E"/>
<path d="M483.14 655.366C483.14 655.366 527.691 646.027 528.961 664.705C530.231 683.382 502.656 720.698 502.656 720.698L477.662 715.608L484.87 686.752C484.87 686.752 456.446 680.383 454.746 679.963C453.047 679.543 483.14 655.366 483.14 655.366Z" fill="#5F5D7E"/>
<path opacity="0.1" d="M483.14 655.366C483.14 655.366 527.691 646.027 528.961 664.705C530.231 683.382 502.656 720.698 502.656 720.698L477.662 715.608L484.87 686.752C484.87 686.752 456.446 680.383 454.746 679.963C453.047 679.543 483.14 655.366 483.14 655.366Z" fill="black"/>
<path d="M506.486 725.807C506.486 725.807 502.246 733.866 503.486 737.266C504.726 740.665 473.362 732.596 473.362 732.596C473.362 732.596 475.912 722.837 475.482 721.598C475.052 720.358 506.486 725.807 506.486 725.807Z" fill="#5F5D7E"/>
<path d="M478.901 670.644L482.021 673.464L484.02 675.283C484.02 675.283 494.208 691.831 507.355 681.653C520.503 671.474 497.148 663.855 492.479 663.465C491.542 663.328 490.653 662.966 489.887 662.411C489.121 661.856 488.501 661.123 488.079 660.275C487.364 659.029 486.845 657.68 486.54 656.276L478.901 670.644Z" fill="#FDC2CC"/>
<path opacity="0.05" d="M478.901 670.644L482.021 673.464L484.02 675.283C484.02 675.283 494.208 691.831 507.355 681.653C520.503 671.474 497.148 663.855 492.479 663.465C491.542 663.328 490.653 662.966 489.887 662.411C489.121 661.856 488.501 661.123 488.079 660.275C487.364 659.029 486.845 657.68 486.54 656.276L478.901 670.644Z" fill="black"/>
<path opacity="0.1" d="M506.486 725.807C506.486 725.807 502.246 733.866 503.486 737.266C504.726 740.665 473.362 732.596 473.362 732.596C473.362 732.596 475.912 722.837 475.482 721.598C475.052 720.358 506.486 725.807 506.486 725.807Z" fill="black"/>
<path opacity="0.1" d="M478.901 670.644L482.021 673.464C482.021 668.025 485.63 663.025 488.099 660.216C487.384 658.969 486.865 657.62 486.56 656.216L478.901 670.644Z" fill="black"/>
<path d="M460.235 627.79L489.509 657.066C489.509 657.066 479.321 665.975 481.451 675.313L460.235 651.547V627.79Z" fill="#C4C8E2"/>
<path opacity="0.1" d="M460.445 627.79V651.557L463.844 655.366L473.932 666.665L481.661 675.323C479.541 665.985 489.719 657.076 489.719 657.076L460.445 627.79Z" fill="black"/>
<path d="M460.235 585.775C460.235 585.775 460.235 594.684 452.597 592.144C444.958 589.604 450.897 692.711 450.897 692.711C450.897 692.711 472.962 676.163 468.713 664.285C464.464 652.406 463.624 643.468 464.024 631.609C464.424 619.751 460.235 585.775 460.235 585.775Z" fill="#D39999"/>
<path d="M459.805 562.018C459.805 562.018 453.437 579.416 459.805 592.574C466.174 605.732 422.033 585.355 422.033 585.355C422.033 585.355 431.791 580.686 428.402 558.198L459.805 562.018Z" fill="#FDC2CC"/>
<path opacity="0.1" d="M463.624 641.368C463.363 646.03 463.363 650.704 463.624 655.366L473.712 666.665C472.235 663.509 470.566 660.447 468.713 657.496C467.144 655.066 466.794 645.377 466.714 634.319L463.015 630.619C463.404 636.588 463.624 641.368 463.624 641.368Z" fill="black"/>
<path d="M457.026 583.475C456.556 581.245 460.235 584.605 461.415 586.555L461.475 586.665C463.174 589.664 462.325 588.784 464.874 595.573C467.424 602.363 464.024 651.566 467.873 657.565C470.473 661.769 472.743 666.169 474.662 670.724L467.873 668.174C467.873 668.174 465.324 660.535 463.634 658.835C461.945 657.136 462.785 641.438 462.785 641.438C462.785 641.438 461.515 614.281 460.235 608.342C459.225 603.562 458.026 588.164 457.026 583.475Z" fill="#C4C8E2"/>
<path opacity="0.1" d="M457.026 583.475C456.556 581.245 460.235 584.605 461.415 586.555L461.475 586.665C463.174 589.664 462.325 588.784 464.874 595.573C467.424 602.363 464.024 651.566 467.873 657.565C470.473 661.769 472.743 666.169 474.662 670.724L467.873 668.174C467.873 668.174 465.324 660.535 463.634 658.835C461.945 657.136 462.785 641.438 462.785 641.438C462.785 641.438 461.515 614.281 460.235 608.342C459.225 603.562 458.026 588.164 457.026 583.475Z" fill="black"/>
<path d="M447.078 689.312C447.078 689.312 514.114 686.762 522.602 704.59C531.09 722.417 510.725 733.456 510.725 733.456C510.725 733.456 482.3 724.547 475.932 725.817C469.563 727.087 447.078 722.417 447.078 722.417V689.312Z" fill="#5F5D7E"/>
<path d="M484.42 678.283C484.42 678.283 499.697 669.794 508.185 675.283C516.673 680.773 515.824 695.651 503.946 696.071C492.069 696.491 485.7 689.282 485.7 689.282L484.42 678.283Z" fill="#FDC2CC"/>
<path d="M436.47 577.716C436.47 577.716 422.893 568.377 402.947 602.713C383.001 637.048 388.1 696.061 388.1 696.061C388.1 696.061 402.947 696.911 402.527 710.909C402.107 724.907 460.235 727.907 460.235 727.907C460.235 727.907 459.385 588.724 453.447 584.925C447.508 581.125 436.47 577.716 436.47 577.716Z" fill="#C4C8E2"/>
<path opacity="0.1" d="M436.41 603.033C438.804 604.759 440.753 607.03 442.096 609.659C443.438 612.288 444.135 615.199 444.128 618.151C444.198 630.859 444.508 658.246 445.798 663.425C447.498 670.214 472.953 679.123 486.11 678.703C486.11 678.703 492.478 690.581 484.84 693.131C477.202 695.681 430.531 693.131 430.531 693.131C430.531 693.131 412.285 672.344 411.865 654.136C411.445 635.928 408.866 615.521 411.865 611.701C414.315 608.472 424.562 594.674 436.41 603.033Z" fill="black"/>
<path d="M437.26 601.333C439.666 603.056 441.627 605.328 442.978 607.961C444.329 610.594 445.032 613.512 445.028 616.471C445.098 629.179 445.408 656.566 446.698 661.745C448.398 668.534 473.852 677.443 487.01 677.023C487.01 677.023 493.378 688.902 485.74 691.451C478.101 694.001 431.431 691.451 431.431 691.451C431.431 691.451 413.185 670.664 412.765 652.456C412.345 634.249 409.765 613.841 412.765 610.022C415.164 606.812 425.412 592.974 437.26 601.333Z" fill="#C4C8E2"/>
<path d="M524.962 733.966C531.051 736.966 538.109 743.145 524.732 752.534C524.732 752.534 486.55 756.773 474.242 749.134C461.935 741.495 474.242 729.187 474.242 729.187C474.242 729.187 502.406 736.676 515.924 733.016C518.951 732.219 522.166 732.557 524.962 733.966Z" fill="#4C4C56"/>
<path opacity="0.1" d="M524.962 734.826C531.051 737.725 538.109 743.605 524.732 752.594C524.732 752.594 486.55 756.653 474.242 749.344C461.935 742.035 474.242 730.266 474.242 730.266C474.242 730.266 502.406 737.425 515.924 733.936C518.948 733.168 522.146 733.483 524.962 734.826Z" fill="black"/>
<path opacity="0.1" d="M438.38 633.089C438.38 633.089 440.499 659.825 454.506 665.765Z" fill="black"/>
<path opacity="0.1" d="M459.385 564.988C458.147 568.667 457.306 572.468 456.876 576.326C454.196 577.226 450.277 574.966 447.288 574.966C439.509 574.966 437.29 566.267 432.441 560.968C432.441 558.608 428.442 564.118 427.982 561.178L459.385 564.988Z" fill="black"/>
<path d="M422.033 548.01C422.03 550.228 422.302 552.438 422.843 554.589L422.933 554.929C424.684 561.524 428.878 567.205 434.665 570.82C440.451 574.435 447.397 575.712 454.091 574.393C460.785 573.074 466.726 569.258 470.709 563.718C474.692 558.178 476.418 551.33 475.537 544.564C474.656 537.798 471.233 531.62 465.964 527.285C460.695 522.951 453.974 520.783 447.166 521.223C440.357 521.663 433.971 524.677 429.304 529.653C424.636 534.63 422.037 541.196 422.033 548.02V548.01Z" fill="#FDC2CC"/>
<path opacity="0.1" d="M402.957 603.173C405.728 598.291 408.902 593.649 412.445 589.295C409.595 593.04 406.994 596.968 404.657 601.053C384.711 635.429 389.81 694.401 389.81 694.401C389.81 694.401 404.657 695.251 404.237 709.249C403.857 721.818 450.637 725.497 460.225 726.117C460.225 727.557 460.225 728.337 460.225 728.337C460.225 728.337 402.097 725.337 402.517 711.339C402.937 697.341 388.09 696.491 388.09 696.491C388.09 696.491 383.041 637.549 402.957 603.173Z" fill="black"/>
<path opacity="0.1" d="M425.422 517.484C428.222 515.794 431.761 514.804 434.78 515.914C437.089 515.487 439.431 515.273 441.779 515.274C443.064 515.37 444.356 515.245 445.598 514.904C446.518 514.5 447.407 514.029 448.258 513.494C452.207 511.395 456.586 512.184 460.755 512.724C464.144 513.164 469.873 511.934 471.833 515.814C472.129 516.337 472.245 516.944 472.164 517.54C472.083 518.136 471.808 518.688 471.383 519.114C471.003 519.393 470.513 519.503 470.223 519.903C470.082 520.183 469.998 520.488 469.976 520.8C469.954 521.113 469.993 521.426 470.093 521.723L472.892 535.721C471.603 536.349 470.2 536.707 468.768 536.772C467.335 536.837 465.905 536.609 464.564 536.101C463.814 535.806 463.08 535.472 462.365 535.101C460.275 536.461 458.115 535.431 455.586 535.971C454.09 536.401 452.759 537.272 451.767 538.471C448.826 541.607 446.857 545.528 446.098 549.76C445.818 551.349 445.448 553.309 443.908 553.759C443.325 553.871 442.733 553.932 442.139 553.939C439.359 554.299 438.22 557.589 436.43 559.758C434.25 562.398 430.341 564.118 430.101 567.537C430.041 568.417 430.231 569.387 429.741 570.127C429.411 570.569 428.925 570.869 428.382 570.967C427.525 571.088 426.653 570.964 425.864 570.61C425.075 570.256 424.402 569.687 423.923 568.967C422.991 567.507 422.349 565.881 422.033 564.178L416.864 543.68C416.213 541.391 415.762 539.049 415.514 536.681C415.282 532.885 416.081 529.097 417.825 525.718C419.569 522.339 422.194 519.493 425.422 517.484V517.484Z" fill="black"/>
<path d="M425.032 517.104C427.832 515.414 431.371 514.424 434.39 515.534C436.699 515.107 439.041 514.893 441.389 514.894C442.674 514.99 443.966 514.865 445.208 514.524C446.128 514.12 447.017 513.649 447.868 513.114C451.817 511.014 456.196 511.804 460.365 512.344C463.754 512.784 469.483 511.554 471.443 515.434C471.739 515.957 471.855 516.563 471.774 517.159C471.693 517.755 471.418 518.308 470.993 518.733C470.613 519.013 470.123 519.123 469.833 519.523C469.692 519.803 469.608 520.108 469.586 520.42C469.564 520.733 469.604 521.046 469.703 521.343L472.503 535.341C471.214 535.969 469.81 536.326 468.378 536.392C466.945 536.457 465.515 536.229 464.174 535.721C463.424 535.426 462.69 535.092 461.975 534.721C459.885 536.081 457.726 535.051 455.196 535.591C453.7 536.021 452.369 536.892 451.377 538.091C448.436 541.227 446.467 545.148 445.708 549.379C445.428 550.969 445.058 552.929 443.519 553.379C442.935 553.491 442.343 553.551 441.749 553.559C438.969 553.919 437.83 557.208 436.04 559.378C433.861 562.018 429.951 563.738 429.711 567.157C429.651 568.037 429.841 569.007 429.351 569.747C429.021 570.189 428.535 570.489 427.992 570.587C427.136 570.707 426.263 570.584 425.474 570.23C424.685 569.876 424.012 569.307 423.533 568.587C422.601 567.127 421.96 565.501 421.643 563.798L416.474 543.3C415.823 541.01 415.372 538.669 415.124 536.301C414.892 532.505 415.691 528.717 417.435 525.338C419.179 521.958 421.804 519.113 425.032 517.104Z" fill="#865A61"/>
<path d="M759.214 470.71C759.075 474.818 757.779 478.804 755.474 482.208C753.17 478.804 751.873 474.818 751.735 470.71C751.735 464.361 753.405 459.211 755.474 459.211C757.544 459.211 759.214 464.361 759.214 470.71Z" fill="#6C63FF"/>
<path d="M877.509 485.618C877.371 489.726 876.075 493.712 873.77 497.116C871.465 493.712 870.169 489.726 870.031 485.618C870.031 479.268 871.7 474.119 873.77 474.119C875.839 474.119 877.509 479.268 877.509 485.618Z" fill="#6C63FF"/>
<path opacity="0.1" d="M853.134 636.028C856.263 637.851 859.582 639.326 863.032 640.428C867.961 641.948 873.61 640.348 876.339 639.368V635.469L853.344 632.859L853.134 636.028Z" fill="black"/>
<path d="M876.599 632.079L877.939 637.668C877.939 637.668 869.781 641.468 863.002 639.388C858.431 637.838 854.067 635.736 850.005 633.129C849.005 632.609 854.174 626.87 854.174 626.87L876.599 632.079Z" fill="#CEDAD5"/>
<defs>
<linearGradient id="paint0_linear_100:399" x1="534.89" y1="630.549" x2="384.981" y2="630.549" gradientUnits="userSpaceOnUse">
<stop stop-color="#808080" stop-opacity="0.25"/>
<stop offset="0.54" stop-color="#808080" stop-opacity="0.12"/>
<stop offset="1" stop-color="#808080" stop-opacity="0.1"/>
</linearGradient>
</defs>
</svg>
