<svg width="1290" height="900" viewBox="0 0 1290 900" fill="none" xmlns="http://www.w3.org/2000/svg">
<path opacity="0.1" d="M1288.57 377.64C1280.56 410.076 1239.44 426.333 1216.4 450.53C1172.98 496.135 1189.89 562.733 1217.43 616.07C1226.65 633.929 1237.12 652.837 1233.21 671.987C1228.45 695.411 1203.15 712.534 1176.59 721.613C1128.18 738.147 1070.2 734.207 1025.7 711.335C987.252 691.575 959.705 659.485 920.598 640.566C855.143 609.006 771.835 620.978 700.756 642.674C650.48 658.057 595.502 678.071 545.538 662.009C510.384 650.694 486.076 623.156 472.833 594.028C466.448 579.936 461.803 564.681 449.597 553.516C442.336 546.867 432.862 542.155 423.169 538.191C334.559 501.896 222.62 521.334 136.603 481.075C78.4905 453.894 41.2738 402.621 24.8034 349.146C8.33309 295.671 10.2464 239.604 14.4302 184.528C17.4039 145.353 22.7403 103.619 53.007 73.408C85.0256 41.4569 139.969 29.6236 189.645 35.6497C239.321 41.6758 284.329 63.3721 323.943 88.8593C373.504 120.73 419.354 160.401 480.129 173.306C521.518 182.097 565.051 177.281 607.743 175.61C679.11 172.833 750.501 179.067 821.465 185.796C856.042 189.103 890.735 192.571 925.013 197.594C932.696 198.716 940.38 199.926 948.064 201.224C951.914 201.881 955.763 202.56 959.59 203.263C962.587 203.805 965.572 204.416 968.557 204.957C973.267 205.871 977.962 206.831 982.641 207.838C996.081 210.718 1009.39 213.979 1022.57 217.689C1068.37 230.606 1105.09 254.065 1148.35 270.449C1176.54 281.13 1207.28 284.08 1233.97 297.676C1266.82 314.372 1297 343.535 1288.57 377.64Z" fill="#6C63FF"/>
<path opacity="0.1" d="M641.409 900C995.65 900 1282.82 851.942 1282.82 792.659C1282.82 733.376 995.65 685.318 641.409 685.318C287.169 685.318 0 733.376 0 792.659C0 851.942 287.169 900 641.409 900Z" fill="#6C63FF"/>
<path d="M593 437.5C593 471.419 582.942 504.577 564.097 532.78C545.252 560.983 518.468 582.965 487.13 595.945C455.793 608.926 421.31 612.322 388.042 605.705C354.774 599.087 324.216 582.754 300.231 558.769C276.246 534.784 259.913 504.226 253.295 470.958C246.678 437.69 250.074 403.207 263.055 371.87C276.035 340.532 298.017 313.748 326.22 294.903C354.423 276.058 387.581 266 421.5 266" stroke="#941BBE" stroke-width="64" stroke-linecap="round"/>
<circle cx="421.5" cy="437.5" r="102.5" fill="#941BBE"/>
<circle cx="421.5" cy="437.5" r="275.5" stroke="#941BBE" stroke-width="40"/>
<path d="M730.688 694.686C730.688 694.686 723.531 670.397 732.025 652.514C735.636 645.038 736.724 636.592 735.126 628.444C734.321 624.579 733.164 620.795 731.668 617.141" stroke="#535461" stroke-width="2" stroke-miterlimit="10"/>
<path d="M737.016 605.838C737.016 608.811 731.622 617.452 731.622 617.452C731.622 617.452 726.262 608.811 726.262 605.838C726.262 604.408 726.83 603.036 727.842 602.025C728.854 601.014 730.226 600.446 731.656 600.446C733.087 600.446 734.459 601.014 735.47 602.025C736.482 603.036 737.05 604.408 737.05 605.838H737.016Z" fill="#6C63FF"/>
<path d="M745.937 622.326C744.323 624.826 735.103 629.147 735.103 629.147C735.103 629.147 735.275 618.973 736.889 616.473C737.263 615.856 737.758 615.32 738.343 614.898C738.929 614.475 739.593 614.174 740.297 614.013C741 613.852 741.729 613.834 742.44 613.959C743.151 614.085 743.83 614.352 744.436 614.745C745.041 615.138 745.562 615.648 745.967 616.245C746.372 616.843 746.653 617.516 746.793 618.224C746.933 618.932 746.929 619.661 746.782 620.368C746.635 621.074 746.348 621.744 745.937 622.338V622.326Z" fill="#6C63FF"/>
<path d="M745.545 650.487C742.882 651.823 732.751 650.901 732.751 650.901C732.751 650.901 738.03 642.202 740.692 640.866C741.325 640.547 742.014 640.356 742.721 640.304C743.427 640.252 744.137 640.339 744.81 640.561C745.482 640.783 746.105 641.135 746.641 641.598C747.178 642.06 747.618 642.624 747.936 643.256C748.255 643.889 748.446 644.578 748.498 645.284C748.55 645.99 748.463 646.7 748.241 647.372C748.019 648.045 747.666 648.667 747.204 649.203C746.741 649.74 746.177 650.18 745.545 650.498V650.487Z" fill="#6C63FF"/>
<path d="M740.45 671.768C738.053 673.542 727.91 674.337 727.91 674.337C727.91 674.337 731.645 664.866 734.042 663.103C735.195 662.322 736.605 662.016 737.977 662.251C739.35 662.485 740.579 663.241 741.407 664.36C742.235 665.48 742.597 666.876 742.419 668.256C742.241 669.637 741.536 670.895 740.45 671.768Z" fill="#6C63FF"/>
<path d="M723.773 629.746C725.905 631.82 735.863 633.975 735.863 633.975C735.863 633.975 733.431 624.089 731.253 622.015C730.218 621.067 728.855 620.56 727.452 620.601C726.05 620.641 724.718 621.227 723.74 622.233C722.762 623.239 722.215 624.586 722.215 625.989C722.214 627.392 722.761 628.74 723.738 629.746H723.773Z" fill="#6C63FF"/>
<path d="M718.125 654.657C720.787 655.994 730.919 655.072 730.919 655.072C730.919 655.072 725.64 646.373 722.977 645.036C721.7 644.393 720.219 644.283 718.86 644.732C717.502 645.18 716.377 646.15 715.733 647.427C715.09 648.704 714.98 650.185 715.429 651.543C715.877 652.901 716.847 654.026 718.125 654.669V654.657Z" fill="#6C63FF"/>
<path d="M715.958 679.649C718.355 681.424 728.498 682.219 728.498 682.219C728.498 682.219 724.764 672.747 722.366 670.985C721.214 670.203 719.804 669.898 718.431 670.132C717.058 670.366 715.83 671.122 715.002 672.242C714.174 673.361 713.811 674.757 713.989 676.138C714.168 677.518 714.873 678.777 715.958 679.649Z" fill="#6C63FF"/>
<path d="M715.117 692.312C715.117 692.312 728.198 689.697 731.679 686.205C735.16 682.714 750.858 676.619 752.61 680.974C754.362 685.33 776.157 700.147 761.324 702.763C746.49 705.378 726.447 706.219 722.136 704.503C717.825 702.786 715.117 692.312 715.117 692.312Z" fill="#A8A8A8"/>
<path opacity="0.2" d="M761.335 701.184C746.513 703.8 726.458 704.641 722.148 702.924C718.828 701.599 716.523 695.216 715.612 692.254L715.174 692.347C715.174 692.347 717.791 702.809 722.148 704.549C726.504 706.289 746.559 705.424 761.335 702.809C765.611 702.048 766.833 700.285 766.372 698.039C766.003 699.467 764.516 700.597 761.335 701.184Z" fill="black"/>
<path d="M1056.86 550.474C1121.93 550.474 1174.68 497.737 1174.68 432.682C1174.68 367.628 1121.93 314.891 1056.86 314.891C991.782 314.891 939.028 367.628 939.028 432.682C939.028 497.737 991.782 550.474 1056.86 550.474Z" fill="#6C63FF"/>
<path d="M931.548 518.292C996.622 518.292 1049.38 465.555 1049.38 400.501C1049.38 335.446 996.622 282.709 931.548 282.709C866.473 282.709 813.72 335.446 813.72 400.501C813.72 465.555 866.473 518.292 931.548 518.292Z" fill="#6C63FF"/>
<path d="M793.607 519.445C858.682 519.445 911.435 466.707 911.435 401.653C911.435 336.598 858.682 283.861 793.607 283.861C728.533 283.861 675.779 336.598 675.779 401.653C675.779 466.707 728.533 519.445 793.607 519.445Z" fill="#6C63FF"/>
<path d="M748.772 550.474C813.846 550.474 866.6 497.737 866.6 432.682C866.6 367.628 813.846 314.891 748.772 314.891C683.697 314.891 630.944 367.628 630.944 432.682C630.944 497.737 683.697 550.474 748.772 550.474Z" fill="#6C63FF"/>
<path d="M672.898 560.821C737.972 560.821 790.726 508.084 790.726 443.029C790.726 377.975 737.972 325.238 672.898 325.238C607.823 325.238 555.07 377.975 555.07 443.029C555.07 508.084 607.823 560.821 672.898 560.821Z" fill="#6C63FF"/>
<path d="M641.859 467.733C706.934 467.733 759.687 414.996 759.687 349.941C759.687 284.887 706.934 232.15 641.859 232.15C576.784 232.15 524.031 284.887 524.031 349.941C524.031 414.996 576.784 467.733 641.859 467.733Z" fill="#6C63FF"/>
<path d="M676.344 359.7C741.419 359.7 794.172 306.963 794.172 241.909C794.172 176.854 741.419 124.117 676.344 124.117C611.269 124.117 558.516 176.854 558.516 241.909C558.516 306.963 611.269 359.7 676.344 359.7Z" fill="#6C63FF"/>
<path d="M741.868 359.7C806.943 359.7 859.696 306.963 859.696 241.909C859.696 176.854 806.943 124.117 741.868 124.117C676.793 124.117 624.04 176.854 624.04 241.909C624.04 306.963 676.793 359.7 741.868 359.7Z" fill="#6C63FF"/>
<path d="M779.811 311.434C844.886 311.434 897.639 258.697 897.639 193.642C897.639 128.588 844.886 75.8507 779.811 75.8507C714.736 75.8507 661.983 128.588 661.983 193.642C661.983 258.697 714.736 311.434 779.811 311.434Z" fill="#6C63FF"/>
<path d="M876.374 364.298C941.448 364.298 994.202 311.561 994.202 246.506C994.202 181.452 941.448 128.715 876.374 128.715C811.299 128.715 758.546 181.452 758.546 246.506C758.546 311.561 811.299 364.298 876.374 364.298Z" fill="#6C63FF"/>
<path d="M1101.69 467.733C1166.77 467.733 1219.52 414.996 1219.52 349.941C1219.52 284.887 1166.77 232.15 1101.69 232.15C1036.62 232.15 983.863 284.887 983.863 349.941C983.863 414.996 1036.62 467.733 1101.69 467.733Z" fill="#6C63FF"/>
<path d="M1033.86 409.119C1098.94 409.119 1151.69 356.382 1151.69 291.328C1151.69 226.273 1098.94 173.536 1033.86 173.536C968.788 173.536 916.034 226.273 916.034 291.328C916.034 356.382 968.788 409.119 1033.86 409.119Z" fill="#6C63FF"/>
<path d="M990.179 350.506C1055.25 350.506 1108.01 297.769 1108.01 232.714C1108.01 167.66 1055.25 114.922 990.179 114.922C925.105 114.922 872.351 167.66 872.351 232.714C872.351 297.769 925.105 350.506 990.179 350.506Z" fill="#6C63FF"/>
<path d="M907.413 262.015C972.487 262.015 1025.24 209.278 1025.24 144.223C1025.24 79.1689 972.487 26.4319 907.413 26.4319C842.338 26.4319 789.585 79.1689 789.585 144.223C789.585 209.278 842.338 262.015 907.413 262.015Z" fill="#6C63FF"/>
<path d="M1061.45 359.7C1126.53 359.7 1179.28 306.963 1179.28 241.909C1179.28 176.854 1126.53 124.117 1061.45 124.117C996.38 124.117 943.627 176.854 943.627 241.909C943.627 306.963 996.38 359.7 1061.45 359.7Z" fill="#6C63FF"/>
<g opacity="0.1">
<path opacity="0.1" d="M1056.86 550.473C1121.93 550.473 1174.68 497.736 1174.68 432.682C1174.68 367.627 1121.93 314.89 1056.86 314.89C991.782 314.89 939.028 367.627 939.028 432.682C939.028 497.736 991.782 550.473 1056.86 550.473Z" fill="black"/>
<path opacity="0.1" d="M931.548 518.292C996.622 518.292 1049.38 465.555 1049.38 400.501C1049.38 335.446 996.622 282.709 931.548 282.709C866.473 282.709 813.72 335.446 813.72 400.501C813.72 465.555 866.473 518.292 931.548 518.292Z" fill="black"/>
<path opacity="0.1" d="M793.607 519.444C858.682 519.444 911.435 466.707 911.435 401.653C911.435 336.598 858.682 283.861 793.607 283.861C728.533 283.861 675.779 336.598 675.779 401.653C675.779 466.707 728.533 519.444 793.607 519.444Z" fill="black"/>
<path opacity="0.1" d="M748.772 550.473C813.847 550.473 866.6 497.736 866.6 432.682C866.6 367.627 813.847 314.89 748.772 314.89C683.697 314.89 630.944 367.627 630.944 432.682C630.944 497.736 683.697 550.473 748.772 550.473Z" fill="black"/>
<path opacity="0.1" d="M672.898 560.82C737.972 560.82 790.726 508.083 790.726 443.029C790.726 377.974 737.972 325.237 672.898 325.237C607.823 325.237 555.07 377.974 555.07 443.029C555.07 508.083 607.823 560.82 672.898 560.82Z" fill="black"/>
<path opacity="0.1" d="M641.859 467.733C706.934 467.733 759.687 414.995 759.687 349.941C759.687 284.886 706.934 232.149 641.859 232.149C576.784 232.149 524.031 284.886 524.031 349.941C524.031 414.995 576.784 467.733 641.859 467.733Z" fill="black"/>
<path opacity="0.1" d="M676.344 359.7C741.419 359.7 794.172 306.963 794.172 241.909C794.172 176.854 741.419 124.117 676.344 124.117C611.27 124.117 558.516 176.854 558.516 241.909C558.516 306.963 611.27 359.7 676.344 359.7Z" fill="black"/>
<path opacity="0.1" d="M741.868 359.7C806.943 359.7 859.696 306.963 859.696 241.909C859.696 176.854 806.943 124.117 741.868 124.117C676.793 124.117 624.04 176.854 624.04 241.909C624.04 306.963 676.793 359.7 741.868 359.7Z" fill="black"/>
<path opacity="0.1" d="M779.811 311.434C844.886 311.434 897.639 258.697 897.639 193.642C897.639 128.588 844.886 75.8507 779.811 75.8507C714.736 75.8507 661.983 128.588 661.983 193.642C661.983 258.697 714.736 311.434 779.811 311.434Z" fill="black"/>
<path opacity="0.1" d="M876.374 364.298C941.448 364.298 994.202 311.561 994.202 246.506C994.202 181.452 941.448 128.715 876.374 128.715C811.299 128.715 758.546 181.452 758.546 246.506C758.546 311.561 811.299 364.298 876.374 364.298Z" fill="black"/>
<path opacity="0.1" d="M1101.69 467.733C1166.77 467.733 1219.52 414.995 1219.52 349.941C1219.52 284.886 1166.77 232.149 1101.69 232.149C1036.62 232.149 983.863 284.886 983.863 349.941C983.863 414.995 1036.62 467.733 1101.69 467.733Z" fill="black"/>
<path opacity="0.1" d="M1033.86 409.119C1098.94 409.119 1151.69 356.382 1151.69 291.327C1151.69 226.273 1098.94 173.536 1033.86 173.536C968.788 173.536 916.034 226.273 916.034 291.327C916.034 356.382 968.788 409.119 1033.86 409.119Z" fill="black"/>
<path opacity="0.1" d="M990.179 350.506C1055.25 350.506 1108.01 297.769 1108.01 232.714C1108.01 167.66 1055.25 114.922 990.179 114.922C925.105 114.922 872.351 167.66 872.351 232.714C872.351 297.769 925.105 350.506 990.179 350.506Z" fill="black"/>
<path opacity="0.1" d="M907.413 262.015C972.487 262.015 1025.24 209.278 1025.24 144.223C1025.24 79.1689 972.487 26.4319 907.413 26.4319C842.338 26.4319 789.585 79.1689 789.585 144.223C789.585 209.278 842.338 262.015 907.413 262.015Z" fill="black"/>
<path opacity="0.1" d="M1061.45 359.7C1126.53 359.7 1179.28 306.963 1179.28 241.909C1179.28 176.854 1126.53 124.117 1061.45 124.117C996.38 124.117 943.627 176.854 943.627 241.909C943.627 306.963 996.38 359.7 1061.45 359.7Z" fill="black"/>
</g>
<path d="M998.662 639.103C998.662 639.103 1070.7 578.576 1035.06 492.39L999.423 479.048L960.754 598.061L998.662 639.103Z" fill="#67647E"/>
<path opacity="0.1" d="M1002.5 474.946L1011.03 478.137L973.064 594.984L1006.19 630.841C1003.45 633.572 1001.74 635.001 1001.74 635.001L963.82 593.959L1002.5 474.946Z" fill="black"/>
<path d="M673.336 513.038L682.695 550.485C682.695 550.485 748.818 559.104 792.904 553.688C800.698 552.583 808.18 549.885 814.884 545.761C818.607 543.56 824.485 542.604 832.518 548.619C846.28 558.989 913.821 641.949 902.883 728.019C902.034 734.505 899.071 740.53 894.452 745.162C889.832 749.794 883.815 752.776 877.33 753.645C863.862 755.48 850.986 760.35 839.676 767.886L806.251 790.136L1148.97 782.646L1113.39 739.588C1113.39 739.588 1089.05 718.998 1070.32 717.119C1064.85 716.578 1060.35 711.566 1056.71 704.756C1035.37 664.832 1009.85 627.292 982.192 591.447C962.045 565.337 945.137 537.822 946.716 520.539C950.461 479.347 946.716 411.954 946.716 411.954L875.555 402.598C875.555 402.598 884.914 492.471 798.771 514.928C712.627 537.385 673.336 513.038 673.336 513.038Z" fill="#67647E"/>
<g opacity="0.1">
<path opacity="0.1" d="M731.391 529.895C731.391 529.895 770.717 554.23 856.872 531.762C943.027 509.293 933.657 419.432 933.657 419.432L947.2 421.194C946.946 415.433 946.75 411.977 946.75 411.977L875.59 402.621C875.59 402.621 884.949 492.494 798.805 514.951C712.662 537.407 673.324 513.084 673.324 513.084L682.683 550.531C682.683 550.531 707.948 553.827 737.661 555.059L731.391 529.895Z" fill="black"/>
<path opacity="0.1" d="M897.731 784.732C909.042 777.195 921.917 772.325 935.386 770.49C941.856 769.631 947.863 766.666 952.48 762.053C957.096 757.441 960.065 751.437 960.927 744.969C971.922 658.898 904.347 575.788 890.62 565.464C875.636 554.23 868.144 567.331 868.144 567.331C862.842 568.722 857.451 569.75 852.008 570.407C876.282 602.669 911.009 664.555 902.883 728.112C902.021 734.58 899.052 740.584 894.436 745.197C889.819 749.809 883.812 752.774 877.342 753.633C863.873 755.468 850.998 760.338 839.687 767.875L806.262 790.124L892.429 788.246L897.731 784.732Z" fill="black"/>
</g>
<path d="M1056.86 524.042C1121.93 524.042 1174.68 471.305 1174.68 406.25C1174.68 341.196 1121.93 288.459 1056.86 288.459C991.782 288.459 939.028 341.196 939.028 406.25C939.028 471.305 991.782 524.042 1056.86 524.042Z" fill="#6C63FF"/>
<path d="M931.548 491.86C996.622 491.86 1049.38 439.123 1049.38 374.068C1049.38 309.014 996.622 256.277 931.548 256.277C866.473 256.277 813.72 309.014 813.72 374.068C813.72 439.123 866.473 491.86 931.548 491.86Z" fill="#6C63FF"/>
<path d="M793.607 493.012C858.682 493.012 911.435 440.275 911.435 375.221C911.435 310.166 858.682 257.429 793.607 257.429C728.533 257.429 675.779 310.166 675.779 375.221C675.779 440.275 728.533 493.012 793.607 493.012Z" fill="#6C63FF"/>
<path d="M748.772 524.042C813.846 524.042 866.6 471.305 866.6 406.25C866.6 341.196 813.846 288.459 748.772 288.459C683.697 288.459 630.944 341.196 630.944 406.25C630.944 471.305 683.697 524.042 748.772 524.042Z" fill="#6C63FF"/>
<path d="M672.898 534.389C737.972 534.389 790.726 481.652 790.726 416.597C790.726 351.543 737.972 298.806 672.898 298.806C607.823 298.806 555.07 351.543 555.07 416.597C555.07 481.652 607.823 534.389 672.898 534.389Z" fill="#6C63FF"/>
<path d="M641.859 441.301C706.934 441.301 759.687 388.564 759.687 323.509C759.687 258.455 706.934 205.718 641.859 205.718C576.784 205.718 524.031 258.455 524.031 323.509C524.031 388.564 576.784 441.301 641.859 441.301Z" fill="#6C63FF"/>
<path d="M676.344 333.268C741.419 333.268 794.172 280.531 794.172 215.477C794.172 150.422 741.419 97.6853 676.344 97.6853C611.269 97.6853 558.516 150.422 558.516 215.477C558.516 280.531 611.269 333.268 676.344 333.268Z" fill="#6C63FF"/>
<path d="M741.868 333.268C806.943 333.268 859.696 280.531 859.696 215.477C859.696 150.422 806.943 97.6853 741.868 97.6853C676.793 97.6853 624.04 150.422 624.04 215.477C624.04 280.531 676.793 333.268 741.868 333.268Z" fill="#6C63FF"/>
<path d="M779.811 285.002C844.886 285.002 897.639 232.265 897.639 167.21C897.639 102.156 844.886 49.4188 779.811 49.4188C714.736 49.4188 661.983 102.156 661.983 167.21C661.983 232.265 714.736 285.002 779.811 285.002Z" fill="#6C63FF"/>
<path d="M876.374 337.866C941.448 337.866 994.202 285.129 994.202 220.074C994.202 155.02 941.448 102.283 876.374 102.283C811.299 102.283 758.546 155.02 758.546 220.074C758.546 285.129 811.299 337.866 876.374 337.866Z" fill="#6C63FF"/>
<path d="M1101.69 441.301C1166.77 441.301 1219.52 388.564 1219.52 323.509C1219.52 258.455 1166.77 205.718 1101.69 205.718C1036.62 205.718 983.863 258.455 983.863 323.509C983.863 388.564 1036.62 441.301 1101.69 441.301Z" fill="#6C63FF"/>
<path d="M1033.86 382.687C1098.94 382.687 1151.69 329.95 1151.69 264.896C1151.69 199.841 1098.94 147.104 1033.86 147.104C968.788 147.104 916.034 199.841 916.034 264.896C916.034 329.95 968.788 382.687 1033.86 382.687Z" fill="#6C63FF"/>
<path d="M990.179 324.074C1055.25 324.074 1108.01 271.337 1108.01 206.282C1108.01 141.228 1055.25 88.4906 990.179 88.4906C925.105 88.4906 872.351 141.228 872.351 206.282C872.351 271.337 925.105 324.074 990.179 324.074Z" fill="#6C63FF"/>
<path d="M907.413 235.583C972.487 235.583 1025.24 182.846 1025.24 117.792C1025.24 52.7371 972.487 0 907.413 0C842.338 0 789.585 52.7371 789.585 117.792C789.585 182.846 842.338 235.583 907.413 235.583Z" fill="#6C63FF"/>
<path d="M1061.45 333.268C1126.53 333.268 1179.28 280.531 1179.28 215.477C1179.28 150.422 1126.53 97.6853 1061.45 97.6853C996.38 97.6853 943.627 150.422 943.627 215.477C943.627 280.531 996.38 333.268 1061.45 333.268Z" fill="#6C63FF"/>
<path opacity="0.1" d="M1174.17 233.924C1174.17 233.924 1064.43 181.901 998.028 274.102L1174.17 233.924Z" fill="black"/>
<path opacity="0.1" d="M885.929 128.53C885.929 128.53 764.539 124.866 740.704 235.94L885.929 128.53Z" fill="black"/>
<path opacity="0.1" d="M735.033 369.529C735.033 369.529 625.296 317.494 558.896 409.672L735.033 369.529Z" fill="black"/>
<path d="M961.642 586.446C963.857 590.634 964.844 595.364 964.488 600.088C960.216 598.012 956.62 594.768 954.115 590.732C950.473 584.384 949.205 578.277 951.268 577.09C953.332 575.903 958.011 580.097 961.642 586.446Z" fill="#6C63FF"/>
<path d="M369.803 689C369.803 689 376.131 697.273 366.875 709.74C357.62 722.207 349.99 732.785 353.044 740.574C353.044 740.574 367.002 717.368 378.401 717.045C389.8 716.723 382.297 702.953 369.803 689Z" fill="#6C63FF"/>
<path opacity="0.1" d="M369.803 689C370.354 689.799 370.788 690.672 371.094 691.592C382.181 704.613 388.094 716.769 377.433 717.08C367.509 717.368 355.591 735.112 352.745 739.594C352.837 739.942 352.948 740.284 353.079 740.62C353.079 740.62 367.037 717.414 378.436 717.091C389.835 716.769 382.297 702.953 369.803 689Z" fill="black"/>
<path d="M381.571 699.554C381.571 702.469 381.249 704.831 380.845 704.831C380.441 704.831 380.118 702.527 380.118 699.554C380.118 696.581 380.522 698.01 380.926 698.01C381.329 698.01 381.571 696.639 381.571 699.554Z" fill="#FFD037"/>
<path d="M385.604 703.022C383.046 704.417 380.81 705.258 380.625 704.9C380.441 704.543 382.354 703.126 384.913 701.732C387.472 700.338 386.457 701.352 386.653 701.732C386.849 702.112 388.163 701.674 385.604 703.022Z" fill="#FFD037"/>
<path d="M336.355 689C336.355 689 330.027 697.273 339.283 709.74C348.538 722.207 356.168 732.785 353.113 740.574C353.113 740.574 339.156 717.368 327.757 717.045C316.358 716.723 323.85 702.953 336.355 689Z" fill="#6C63FF"/>
<path opacity="0.1" d="M336.355 689C335.804 689.799 335.37 690.672 335.064 691.592C323.976 704.613 318.064 716.769 328.725 717.08C338.649 717.368 350.566 735.112 353.413 739.594C353.321 739.942 353.209 740.284 353.079 740.62C353.079 740.62 339.121 717.414 327.722 717.091C316.323 716.769 323.85 702.953 336.355 689Z" fill="black"/>
<path d="M324.587 699.554C324.587 702.469 324.91 704.831 325.314 704.831C325.717 704.831 326.04 702.527 326.04 699.554C326.04 696.581 325.637 698.01 325.233 698.01C324.829 698.01 324.587 696.639 324.587 699.554Z" fill="#FFD037"/>
<path d="M320.542 703.022C323.1 704.417 325.336 705.258 325.521 704.9C325.705 704.543 323.792 703.126 321.233 701.732C318.675 700.338 319.689 701.352 319.493 701.732C319.297 702.112 318.029 701.674 320.542 703.022Z" fill="#FFD037"/>
<path d="M326.604 739.525C326.604 739.525 344.308 738.983 349.656 735.181C355.004 731.379 376.891 726.851 378.205 732.934C379.519 739.018 404.807 763.226 384.821 763.387C364.835 763.549 338.384 760.276 333.059 757.027C327.734 753.778 326.604 739.525 326.604 739.525Z" fill="#A8A8A8"/>
<path opacity="0.2" d="M385.167 761.279C365.181 761.44 338.729 758.168 333.404 754.918C329.347 752.453 327.734 743.592 327.192 739.502H326.604C326.604 739.502 327.757 753.778 333.047 757.016C338.337 760.253 364.824 763.537 384.809 763.376C390.572 763.376 392.566 761.279 392.463 758.237C391.667 760.092 389.489 761.244 385.167 761.279Z" fill="black"/>
<path d="M233.257 618.033C250.926 644.107 245.29 737.46 245.29 737.46C245.29 737.46 156.484 708.067 138.815 682.004C130.331 669.482 127.17 654.105 130.027 639.253C132.885 624.402 141.527 611.293 154.052 602.812C166.577 594.33 181.96 591.17 196.816 594.027C211.672 596.883 224.784 605.523 233.269 618.044L233.257 618.033Z" fill="#6C63FF"/>
<path opacity="0.1" d="M233.257 618.033C250.926 644.107 245.29 737.46 245.29 737.46C245.29 737.46 156.484 708.067 138.815 682.004C130.331 669.482 127.17 654.105 130.027 639.253C132.885 624.402 141.527 611.293 154.052 602.812C166.577 594.33 181.96 591.17 196.816 594.027C211.672 596.883 224.784 605.523 233.269 618.044L233.257 618.033Z" fill="black"/>
<path d="M154.386 602.869C154.386 602.869 220.936 654.235 245.636 737.552" stroke="#535461" stroke-miterlimit="10"/>
<path d="M262.394 666.772C262.394 666.772 215.138 658.706 247.411 736.954C247.411 736.954 280.248 724.44 282.806 693.307C283.314 687.25 281.583 681.217 277.94 676.35C274.297 671.483 268.996 668.121 263.04 666.898L262.394 666.772Z" fill="#6C63FF"/>
<path d="M263.086 666.691C263.086 666.691 272.087 709.968 247.457 736.976" stroke="#535461" stroke-miterlimit="10"/>
<path d="M266.786 792.56C268.898 790.838 270.437 788.516 271.2 785.9C271.776 783.25 270.647 780.081 268.111 779.113C265.276 778.03 262.244 779.989 259.951 781.982C257.657 783.976 255.018 786.234 252.009 785.808C253.556 784.407 254.712 782.629 255.367 780.648C256.021 778.667 256.151 776.55 255.744 774.504C255.614 773.656 255.255 772.86 254.707 772.2C253.128 770.518 250.281 771.244 248.39 772.569C242.397 776.786 240.726 784.92 240.691 792.249C240.092 789.61 240.599 786.856 240.576 784.183C240.553 781.51 239.815 778.422 237.533 777.016C236.118 776.256 234.529 775.879 232.923 775.922C230.226 775.818 227.229 776.094 225.385 778.065C223.08 780.507 223.691 784.621 225.685 787.283C227.679 789.944 230.698 791.661 233.488 793.528C235.723 794.856 237.63 796.672 239.066 798.839C239.235 799.14 239.374 799.456 239.481 799.784H256.366C260.149 797.857 263.654 795.427 266.786 792.56Z" fill="#6C63FF"/>
<path d="M1135.1 626.405C1135.1 626.405 1111.67 649.83 1124.9 684.592C1138.14 719.355 1102.23 777.15 1102.23 777.15L1103.39 776.966C1151.51 768.474 1175.42 713.455 1148.66 672.575C1138.65 657.4 1130.48 639.563 1135.1 626.405Z" fill="#6C63FF"/>
<path d="M1135.1 626.405C1135.1 626.405 1121.87 655.118 1135.1 678.543C1148.34 701.968 1137.41 767.702 1102.22 777.15" stroke="#535461" stroke-miterlimit="10"/>
<path d="M1176.84 721.152C1176.84 721.152 1150.1 716.901 1147.67 740.855C1145.24 764.81 1096.24 768.128 1096.24 768.128L1097.16 768.739C1137.61 795.24 1176.26 785.642 1170.43 750.407C1168.28 737.306 1168.45 724.148 1176.84 721.152Z" fill="#6C63FF"/>
<path opacity="0.2" d="M1176.84 721.152C1176.84 721.152 1150.1 716.901 1147.67 740.855C1145.24 764.81 1096.24 768.128 1096.24 768.128L1097.16 768.739C1137.61 795.24 1176.26 785.642 1170.43 750.407C1168.28 737.306 1168.45 724.148 1176.84 721.152Z" fill="#F5F5F5"/>
<path d="M1176.84 721.152C1176.84 721.152 1156.09 725.761 1157.79 744.577C1159.48 763.393 1126.97 786.057 1096.25 768.128" stroke="#535461" stroke-miterlimit="10"/>
<path d="M931.997 774.304C931.997 774.304 971.68 766.366 982.273 755.788C992.865 745.211 1040.48 726.695 1045.77 739.922C1051.06 753.15 1117.23 798.109 1072.28 806.048C1027.33 813.987 966.448 816.625 953.216 811.337C939.985 806.048 931.997 774.304 931.997 774.304Z" fill="#A8A8A8"/>
<path opacity="0.2" d="M1072.23 801.128C1027.28 809.067 966.402 811.706 953.17 806.417C943.097 802.384 936.089 783.027 933.323 774.028L931.997 774.304C931.997 774.304 939.938 806.048 953.159 811.337C966.379 816.625 1027.25 813.987 1072.22 806.048C1085.21 803.744 1088.92 798.374 1087.51 791.576C1086.42 796.012 1081.89 799.434 1072.23 801.128Z" fill="black"/>
<path d="M1200.59 548.861C1200.45 553.596 1198.96 558.193 1196.32 562.123C1193.65 558.207 1192.14 553.618 1191.97 548.884C1191.97 541.567 1193.86 535.633 1196.25 535.622C1198.63 535.61 1200.57 541.544 1200.59 548.861Z" fill="#6C63FF"/>
<path d="M1229.84 673.001C1232.49 676.924 1233.99 681.517 1234.15 686.252C1229.69 684.642 1225.78 681.806 1222.86 678.071C1218.55 672.149 1216.63 666.215 1218.55 664.82C1220.48 663.426 1225.54 667.09 1229.84 673.001Z" fill="#6C63FF"/>
<path d="M1092.15 603.626C1091.99 608.36 1090.49 612.953 1087.84 616.876C1085.18 612.953 1083.69 608.36 1083.53 603.626C1083.53 596.309 1085.45 590.375 1087.84 590.375C1090.22 590.375 1092.15 596.332 1092.15 603.626Z" fill="#6C63FF"/>
<path d="M1136.02 774.454C1136.02 774.454 1155.74 770.536 1160.99 765.317C1166.25 760.097 1189.92 750.96 1192.55 757.482C1195.18 764.003 1228.05 786.195 1205.7 790.101C1183.35 794.007 1153.11 795.321 1146.54 792.717C1139.97 790.113 1136.02 774.454 1136.02 774.454Z" fill="#A8A8A8"/>
<path opacity="0.2" d="M1205.73 787.693C1183.39 791.611 1153.14 792.913 1146.57 790.309C1141.57 788.315 1138.09 778.786 1136.71 774.327L1136.05 774.466C1136.05 774.466 1139.99 790.124 1146.57 792.74C1153.15 795.355 1183.39 794.042 1205.73 790.124C1212.19 788.972 1214.03 786.345 1213.34 782.981C1212.75 785.158 1210.51 786.852 1205.73 787.693Z" fill="black"/>
<path d="M1160.14 843.76C1162.25 842.039 1163.79 839.716 1164.55 837.101C1165.13 834.45 1164 831.282 1161.46 830.314C1158.63 829.231 1155.6 831.19 1153.3 833.183C1151.01 835.176 1148.37 837.435 1145.36 837.008C1146.91 835.607 1148.06 833.83 1148.72 831.849C1149.37 829.868 1149.5 827.751 1149.1 825.705C1148.97 824.857 1148.61 824.06 1148.06 823.401C1146.48 821.718 1143.63 822.444 1141.74 823.769C1135.75 827.986 1134.08 836.121 1134.04 843.449C1133.44 840.811 1133.95 838.057 1133.93 835.384C1133.91 832.71 1133.17 829.623 1130.89 828.217C1129.47 827.457 1127.88 827.079 1126.28 827.122C1123.58 827.019 1120.58 827.295 1118.74 829.265C1116.43 831.708 1117.04 835.821 1119.04 838.483C1121.03 841.145 1124.05 842.862 1126.84 844.728C1129.08 846.057 1130.98 847.872 1132.42 850.04C1132.59 850.341 1132.73 850.657 1132.83 850.985H1149.72C1153.5 849.058 1157.01 846.627 1160.14 843.76Z" fill="#6C63FF"/>
<path d="M924.309 708.167C920.745 711.29 916.37 713.343 911.689 714.089C912.734 709.47 915.064 705.24 918.408 701.887C923.745 696.886 929.404 694.236 931.029 695.964C932.654 697.693 929.646 703.166 924.309 708.167Z" fill="#6C63FF"/>
<path opacity="0.1" d="M924.309 708.167C920.745 711.29 916.37 713.343 911.689 714.089C912.734 709.47 915.064 705.24 918.408 701.887C923.745 696.886 929.404 694.236 931.029 695.964C932.654 697.693 929.646 703.166 924.309 708.167Z" fill="black"/>
<path d="M1002.7 700.655C999.132 703.778 994.757 705.831 990.075 706.577C991.121 701.958 993.45 697.728 996.795 694.375C1002.13 689.374 1007.79 686.724 1009.42 688.453C1011.04 690.181 1008.03 695.642 1002.7 700.655Z" fill="#6C63FF"/>
<path opacity="0.1" d="M1002.7 700.655C999.132 703.778 994.757 705.831 990.075 706.577C991.121 701.958 993.45 697.728 996.795 694.375C1002.13 689.374 1007.79 686.724 1009.42 688.453C1011.04 690.181 1008.03 695.642 1002.7 700.655Z" fill="black"/>
<path d="M1017.73 780.088C1014.16 783.212 1009.79 785.265 1005.11 786.011C1006.15 781.378 1008.48 777.136 1011.84 773.774C1017.17 768.774 1022.83 766.124 1024.46 767.852C1026.08 769.58 1023.07 775.076 1017.73 780.088Z" fill="#6C63FF"/>
<path opacity="0.1" d="M1017.73 780.088C1014.16 783.212 1009.79 785.265 1005.11 786.011C1006.15 781.378 1008.48 777.136 1011.84 773.774C1017.17 768.774 1022.83 766.124 1024.46 767.852C1026.08 769.58 1023.07 775.076 1017.73 780.088Z" fill="black"/>
<path d="M767.259 837.515C767.259 837.515 766.107 855.559 768.412 858.555C768.412 858.555 715.485 868.176 708.87 865.168C702.254 862.161 705.262 857.356 708.87 855.547C712.477 853.738 730.527 847.125 732.924 834.508C732.924 834.508 725.109 830.901 750.362 835.66C775.615 840.419 767.259 837.515 767.259 837.515Z" fill="#DC9BA3"/>
<path opacity="0.05" d="M767.259 837.515C767.259 837.515 766.107 855.559 768.412 858.555C768.412 858.555 715.485 868.176 708.87 865.168C702.254 862.161 705.262 857.356 708.87 855.547C712.477 853.738 730.527 847.125 732.924 834.508C732.924 834.508 725.109 830.901 750.362 835.66C775.615 840.419 767.259 837.515 767.259 837.515Z" fill="black"/>
<path d="M973.559 662.539C973.559 662.539 966.943 673.358 971.15 694.409C975.357 715.46 960.328 715.449 960.328 715.449H930.268L920.045 688.948L934.475 690.1C934.475 690.1 944.099 687.692 939.892 665.442L973.559 662.539Z" fill="#FFD2D9"/>
<path d="M883.347 637.294C887.957 651.938 893.72 669.775 896.798 679.281L898.987 685.998L918.835 665.558C918.835 665.558 917.959 663.53 916.656 660.695C913.752 654.404 908.692 644.138 906.203 643.308C906.203 643.308 933.864 641.499 942.29 648.113C950.715 654.727 948.306 630.069 948.306 630.069C948.306 630.069 932.066 628.917 926.05 625.265C920.034 621.612 887.554 618.052 887.554 618.052C887.554 618.052 876.731 616.243 883.347 637.294Z" fill="#FFD2D9"/>
<path d="M702.899 814.102L707.106 844.763L717.929 843.61C717.929 843.61 718.586 842.988 719.692 841.997C722.608 839.428 728.683 834.393 734.492 831.627C736.457 830.623 738.59 829.987 740.785 829.749L728.752 811.705C725.825 812.802 722.825 813.692 719.773 814.367C716.603 815.113 713.359 815.499 710.103 815.519C707.629 815.557 705.175 815.074 702.899 814.102Z" fill="#FFD2D9"/>
<path d="M732.97 835.718C738.387 840.522 763.041 830.302 767.259 845.938L771.132 831.109L783.061 785.481L784.698 779.201L794.633 778.775L908.657 773.912L915.112 773.636L918.57 773.486L914.051 771.251L883.981 756.353C883.981 756.353 873.146 755.592 858.209 753.541C835.561 750.442 803.473 744.323 785.355 733.504C755.284 715.46 743.862 776.194 743.862 776.194C743.862 776.194 739.252 791.599 735.794 806.785C734.206 813.336 732.994 819.972 732.163 826.661C731.645 831.305 731.806 834.669 732.97 835.718Z" fill="#794E4E"/>
<path opacity="0.05" d="M732.97 835.717C738.387 840.522 763.041 830.302 767.259 845.938L771.132 831.109L783.061 785.481L784.698 779.201L794.944 778.567L905.108 771.792L911.908 771.366L914.005 771.239L916.714 771.066L883.935 756.329C883.935 756.329 873.1 755.569 858.163 753.518C835.515 750.419 803.427 744.3 785.309 733.481C755.238 715.437 743.816 776.171 743.816 776.171C743.816 776.171 739.205 791.576 735.748 806.762C734.16 813.313 732.948 819.949 732.117 826.638C731.645 831.304 731.806 834.669 732.97 835.717Z" fill="#5E2323"/>
<path opacity="0.1" d="M719.785 814.321L730.308 826.661L734.503 831.581C736.469 830.577 738.602 829.941 740.796 829.703L728.763 811.659C725.837 812.756 722.836 813.646 719.785 814.321Z" fill="black"/>
<path d="M720.349 812.869L732.117 826.696L737.788 833.344V835.153C744.703 836.755 766.36 832.192 771.132 831.143L772.066 830.936C785.896 831.535 837.025 801.474 837.025 801.474C837.025 801.474 892.959 811.095 920.01 808.687C935.121 807.339 939.362 801.877 940.157 797.303C940.507 795.043 940.194 792.73 939.258 790.643L915.054 773.648L911.85 771.343L906.733 767.737C906.733 767.737 897.835 765.72 886.54 763.232C868.882 759.337 845.358 754.279 840.598 753.922C832.783 753.322 812.936 759.936 801.502 773.164C799.54 775.228 797.325 777.036 794.91 778.545L794.598 778.752C791.383 780.884 787.429 783.142 783.073 785.458C768.516 793.12 749.106 801.359 735.759 806.762C726.631 810.484 720.349 812.869 720.349 812.869Z" fill="#965555"/>
<path opacity="0.1" d="M702.899 814.102L707.106 844.763L717.929 843.611C717.929 843.611 718.586 842.988 719.692 841.997C717.295 841.997 713.342 841.364 712.512 836.398C712.512 836.398 716.684 821.822 710.103 815.542C707.627 815.572 705.173 815.082 702.899 814.102Z" fill="black"/>
<path d="M711.279 836.317C711.279 836.317 717.295 815.277 703.464 812.869L680.609 821.891L654.099 823.7C654.099 823.7 647.184 834.98 658.26 847.632C661.306 851.061 665.014 853.84 669.162 855.8C673.309 857.761 677.811 858.862 682.395 859.039L711.279 860.364L720.349 841.755C720.349 841.755 712.523 843.53 711.279 836.317Z" fill="#DC9BA3"/>
<path opacity="0.1" d="M858.175 753.541C861.206 754.428 873.746 758.15 886.586 763.254C892.933 765.7 899.116 768.552 905.096 771.792C906.341 772.495 907.528 773.198 908.646 773.901C911.574 775.622 914.196 777.818 916.403 780.399C923.825 789.997 934.729 795.171 940.157 797.28C940.507 795.019 940.194 792.706 939.258 790.62L915.054 773.624L918.512 773.475L913.994 771.239L916.702 771.067L883.923 756.33C883.923 756.33 873.112 755.592 858.175 753.541Z" fill="black"/>
<path opacity="0.1" d="M896.844 679.292L899.034 686.009L918.881 665.569C918.881 665.569 918.005 663.541 916.702 660.707C914.132 665.995 902.157 675.282 896.844 679.292Z" fill="black"/>
<path d="M968.407 689.259C969.118 687.222 969.639 685.123 969.963 682.99L995.815 691.966C995.815 691.966 1013.55 705.493 1011.76 734.956C1011.76 734.956 989.857 726.89 980.175 736.454L979.979 738.147C977.943 754.96 970.501 770.657 958.772 782.877C953.988 787.9 949.482 793.558 947.096 799.008C947.096 799.008 930.257 794.203 920.033 780.964C909.81 767.725 861.114 753.944 861.114 753.944C861.114 753.944 886.977 754.543 890.585 745.522C894.193 736.5 906.226 717.258 902.019 702.233C897.812 687.208 895.403 682.391 895.403 682.391C895.403 682.391 920.068 664.958 918.258 659.543L933.899 677.587L941.114 679.995C940.544 681.392 940.254 682.887 940.261 684.396C939.846 700.723 962.921 704.641 968.407 689.259Z" fill="#CEDAD5"/>
<path opacity="0.1" d="M940.791 673.45C940.609 671.204 940.305 668.969 939.881 666.756L973.559 663.749C973.559 663.749 971.254 665.765 970.217 673.277C966.263 675.582 961.653 678.785 956.72 678.785C950.97 678.792 945.376 676.918 940.791 673.45Z" fill="black"/>
<path d="M956.42 677.875C971.035 677.875 982.883 666.03 982.883 651.42C982.883 636.809 971.035 624.965 956.42 624.965C941.805 624.965 929.957 636.809 929.957 651.42C929.957 666.03 941.805 677.875 956.42 677.875Z" fill="#FFD2D9"/>
<path d="M975.968 658.333H972.36V648.113L968.753 637.294C968.753 637.294 950.703 628.871 942.243 630.68L935.674 636.66C935.674 636.66 933.864 622.234 944.698 616.819C955.533 611.403 974.769 613.811 979.587 617.971C984.405 622.13 992.265 629.401 986.203 649.242L984.439 654.127C984.439 654.127 977.167 651.719 975.968 658.333Z" fill="#844F6E"/>
<g opacity="0.05">
<path opacity="0.05" d="M929.219 672.217L927.249 671.561L918.166 661.087C918.344 660.59 918.364 660.051 918.224 659.543L929.219 672.217Z" fill="black"/>
<path opacity="0.05" d="M941.875 691.621C939.304 690.526 937.133 688.667 935.655 686.297C934.176 683.927 933.463 681.159 933.611 678.37C933.611 678.013 933.611 677.679 933.611 677.356L933.795 677.575L941.01 679.983C940.441 681.38 940.151 682.876 940.158 684.385C940.085 686.906 940.677 689.401 941.875 691.621Z" fill="black"/>
<path opacity="0.05" d="M871.717 753.449C886.793 758.691 907.205 766.953 913.418 774.984L913.879 775.56C897.362 764.234 861.091 753.933 861.091 753.933C864.639 753.973 868.187 753.811 871.717 753.449Z" fill="black"/>
<path opacity="0.05" d="M940.48 793.028C942.866 787.601 947.396 781.932 952.156 776.897C963.885 764.677 971.328 748.98 973.363 732.167L973.559 730.474C983.183 720.852 1005.14 728.976 1005.14 728.976C1006.29 710.287 999.561 698.016 994.501 691.54L995.827 692.001C995.827 692.001 1013.57 705.528 1011.77 734.99C1011.77 734.99 989.868 726.925 980.186 736.488L979.991 738.182C977.955 754.995 970.513 770.692 958.783 782.911C954 787.935 949.493 793.592 947.107 799.042C947.107 799.042 932.447 794.848 922.189 783.556C927.717 787.707 933.899 790.908 940.48 793.028Z" fill="black"/>
</g>
<path d="M947.096 722.673C947.096 722.673 975.91 764.153 990.997 776.183C1006.08 788.212 1010.25 770.767 1010.25 770.767V732.294L983.736 729.287L983.448 732.94L983.125 737.111L958.46 710.61C958.46 710.61 933.795 688.36 928.989 701.588C924.183 714.815 947.096 722.673 947.096 722.673Z" fill="#FFD2D9"/>
<path opacity="0.1" d="M837.325 801.739C833.314 798.661 828.851 796.223 824.093 794.514C819.556 792.965 815.281 790.735 811.415 787.9" fill="black"/>
<path opacity="0.2" d="M654.18 823.688L655.159 823.619C653.73 827.249 651.702 836.121 660.139 845.811C663.176 849.229 666.872 852 671.005 853.958C675.138 855.916 679.623 857.021 684.193 857.206L712.201 858.52L711.302 860.364L682.395 859.039C677.825 858.853 673.34 857.748 669.207 855.79C665.074 853.832 661.378 851.061 658.341 847.643C647.264 834.969 654.18 823.688 654.18 823.688Z" fill="white"/>
<path opacity="0.05" d="M756.31 849.464C756.226 849.825 756.13 850.182 756.022 850.536C755.434 850.202 754.592 849.556 756.31 849.464Z" fill="#00FF00"/>
<path opacity="0.2" d="M708.974 863.371C715.14 866.171 761.496 858.013 767.755 856.884C767.882 857.482 768.124 858.05 768.469 858.555C768.469 858.555 715.543 868.176 708.927 865.168C705.47 863.624 704.674 861.596 705.135 859.753C705.516 861.043 706.599 862.322 708.974 863.371Z" fill="white"/>
<path opacity="0.1" d="M939.604 638.78C933.098 634.847 927.814 629.182 924.344 622.419C923.857 621.673 923.657 620.777 923.779 619.895C924.206 618.259 926.338 617.971 927.882 617.268C930.752 615.955 931.963 612.659 933.841 610.101C935.454 607.996 937.618 606.379 940.094 605.429C942.57 604.479 945.261 604.234 947.868 604.72C950.611 605.274 953.147 606.633 955.936 607.025C961.907 607.901 968.407 604.283 973.767 607.025C976.21 608.281 977.87 610.643 979.322 612.97C982.976 618.812 987.551 625.023 984.232 631.844C982.33 635.761 979.287 639.011 975.011 640.151C970.735 641.292 965.791 640.336 961.434 639.875C957.861 639.483 954.104 638.722 950.508 639.045C946.266 639.483 943.627 641.2 939.604 638.78Z" fill="black"/>
<path d="M939.604 637.57C933.098 633.637 927.814 627.972 924.344 621.209C923.857 620.463 923.657 619.567 923.779 618.685C924.206 617.049 926.338 616.761 927.882 616.058C930.752 614.745 931.963 611.449 933.841 608.891C935.454 606.786 937.618 605.169 940.094 604.219C942.57 603.269 945.261 603.024 947.868 603.51C950.611 604.064 953.147 605.423 955.936 605.815C961.907 606.691 968.407 603.073 973.767 605.815C976.21 607.071 977.87 609.433 979.322 611.76C982.976 617.602 987.551 623.813 984.232 630.634C982.33 634.551 979.287 637.801 975.011 638.941C970.735 640.082 965.791 639.126 961.434 638.665C957.861 638.273 954.104 637.513 950.508 637.835C946.266 638.273 943.627 640.001 939.604 637.57Z" fill="#844F6E"/>
<path d="M463 756.634C463 769.031 463.692 777.224 463.692 777.224C463.692 777.224 481.407 778.215 480.911 794.634C480.415 811.053 549.766 814.533 549.766 814.533C549.766 814.533 549.766 814.36 549.766 814.037C549.766 814.037 549.766 812.712 549.766 810.316C556.359 811.295 563.413 812.09 567.366 811.71C567.101 812.989 566.79 814.337 566.49 815.535C566.167 815.858 559.782 822.31 559.989 829.177C559.874 832.634 561.442 836.183 566.513 839.133C581.151 847.682 626.735 842.923 626.735 842.923C633.651 838.384 635.956 834.524 635.829 831.321C636.048 826.596 631.334 823.255 627.012 821.1C623.67 819.435 619.842 819.026 616.224 819.948C611.343 821.029 606.331 821.398 601.344 821.043C601.537 820.051 601.795 819.074 602.116 818.116C606.796 819.441 610.023 820.421 610.023 820.421C610.023 820.421 634.319 807.493 624.199 786.603C622.604 783.705 620.201 781.332 617.284 779.77C625.087 766.324 632.498 750.492 631.76 739.846C630.527 722.078 595.235 725.95 582.015 728.035L556.532 703.044C556.532 684.608 557.096 663.442 555.379 658.856C552.336 650.894 553.351 651.943 551.334 648.417L551.253 648.29C550.1 646.424 546.965 643.462 546.158 643.866C545.814 640.203 545.865 636.514 546.308 632.862C552.58 630.812 558.047 626.839 561.932 621.506C565.818 616.174 567.925 609.754 567.954 603.158C567.957 598.221 566.771 593.356 564.496 588.974L564.842 588.824L561.499 572.393C561.38 572.046 561.331 571.679 561.357 571.312C561.383 570.946 561.482 570.589 561.649 570.262C561.995 569.801 562.583 569.663 563.032 569.34C563.541 568.847 563.87 568.199 563.968 567.497C564.066 566.796 563.928 566.082 563.574 565.469C563.263 564.858 562.836 564.314 562.318 563.867C559.505 560.675 553.523 561.816 549.847 561.344C544.868 560.71 539.646 559.788 534.932 562.254C533.917 562.883 532.858 563.438 531.763 563.913C530.262 564.321 528.703 564.469 527.152 564.351C524.346 564.348 521.546 564.599 518.785 565.1C515.189 563.798 510.959 564.95 507.628 566.943C503.817 569.276 500.714 572.602 498.651 576.565C496.588 580.527 495.643 584.976 495.918 589.435C496.208 592.223 496.744 594.98 497.52 597.673L503.686 621.697C504.08 623.704 504.863 625.614 505.991 627.32C506.264 627.681 506.573 628.013 506.913 628.311C507.501 629.019 508.262 629.563 509.123 629.89C509.983 630.217 510.913 630.316 511.823 630.177C512.058 630.122 512.286 630.04 512.503 629.935C512.294 632.463 511.803 634.96 511.039 637.379C503.986 639.43 493.751 646.596 481.464 667.336C465.697 693.907 463.069 733.082 463 756.634Z" fill="url(#paint0_linear_100:399)"/>
<path d="M524.305 791.188H593.276V741.804H524.305V791.188Z" fill="#5F5D7E"/>
<path d="M576.16 731.043C576.16 731.043 627.519 720.281 628.983 741.804C630.446 763.328 598.658 806.329 598.658 806.329L569.844 800.464L578.154 767.211C578.154 767.211 545.386 759.871 543.427 759.387C541.467 758.903 576.16 731.043 576.16 731.043Z" fill="#5F5D7E"/>
<path opacity="0.1" d="M576.16 731.043C576.16 731.043 627.519 720.281 628.983 741.804C630.446 763.328 598.658 806.329 598.658 806.329L569.844 800.464L578.154 767.211C578.154 767.211 545.386 759.871 543.427 759.387C541.467 758.903 576.16 731.043 576.16 731.043Z" fill="black"/>
<path d="M603.072 812.217C603.072 812.217 598.186 821.503 599.615 825.421C601.044 829.339 564.888 820.04 564.888 820.04C564.888 820.04 567.827 808.794 567.331 807.366C566.836 805.937 603.072 812.217 603.072 812.217Z" fill="#5F5D7E"/>
<path d="M571.273 748.648L574.869 751.898L577.174 753.995C577.174 753.995 588.919 773.064 604.075 761.334C619.232 749.605 592.308 740.825 586.925 740.376C585.846 740.218 584.821 739.801 583.937 739.161C583.054 738.521 582.339 737.676 581.854 736.7C581.029 735.264 580.43 733.709 580.079 732.091L571.273 748.648Z" fill="#FDC2CC"/>
<path opacity="0.05" d="M571.273 748.648L574.869 751.898L577.174 753.995C577.174 753.995 588.919 773.064 604.075 761.334C619.232 749.605 592.308 740.825 586.925 740.376C585.846 740.218 584.821 739.801 583.937 739.161C583.054 738.521 582.339 737.676 581.854 736.7C581.029 735.264 580.43 733.709 580.079 732.091L571.273 748.648Z" fill="black"/>
<path opacity="0.1" d="M603.072 812.217C603.072 812.217 598.186 821.503 599.615 825.421C601.044 829.339 564.888 820.04 564.888 820.04C564.888 820.04 567.827 808.794 567.331 807.366C566.836 805.937 603.072 812.217 603.072 812.217Z" fill="black"/>
<path opacity="0.1" d="M571.273 748.649L574.869 751.898C574.869 745.63 579.03 739.869 581.877 736.631C581.052 735.195 580.453 733.64 580.102 732.022L571.273 748.649Z" fill="black"/>
<path d="M549.754 699.265L583.502 733.002C583.502 733.002 571.757 743.268 574.212 754.03L549.754 726.642V699.265Z" fill="#C4C8E2"/>
<path opacity="0.1" d="M549.997 699.265V726.653L553.915 731.043L565.545 744.063L574.454 754.041C572.011 743.28 583.744 733.013 583.744 733.013L549.997 699.265Z" fill="black"/>
<path d="M549.754 650.848C549.754 650.848 549.754 661.114 540.949 658.188C532.143 655.261 538.989 774.078 538.989 774.078C538.989 774.078 564.427 755.009 559.528 741.321C554.63 727.632 553.662 717.331 554.123 703.666C554.584 690.001 549.754 650.848 549.754 650.848Z" fill="#D39999"/>
<path d="M549.259 623.471C549.259 623.471 541.917 643.52 549.259 658.683C556.601 673.847 505.714 650.364 505.714 650.364C505.714 650.364 516.964 644.983 513.056 619.07L549.259 623.471Z" fill="#FDC2CC"/>
<path opacity="0.1" d="M553.662 714.912C553.361 720.284 553.361 725.67 553.662 731.043L565.291 744.063C563.588 740.426 561.664 736.898 559.528 733.497C557.719 730.697 557.315 719.532 557.223 706.788L552.958 702.525C553.408 709.404 553.662 714.912 553.662 714.912Z" fill="black"/>
<path d="M546.055 648.198C545.513 645.628 549.754 649.5 551.114 651.747L551.184 651.874C553.143 655.33 552.163 654.316 555.102 662.14C558.041 669.963 554.123 726.664 558.56 733.577C561.557 738.422 564.174 743.491 566.386 748.741L558.56 745.803C558.56 745.803 555.621 737 553.673 735.041C551.725 733.082 552.693 714.992 552.693 714.992C552.693 714.992 551.23 683.698 549.754 676.854C548.59 671.346 547.207 653.602 546.055 648.198Z" fill="#C4C8E2"/>
<path opacity="0.1" d="M546.055 648.198C545.513 645.628 549.754 649.5 551.114 651.747L551.184 651.874C553.143 655.33 552.163 654.316 555.102 662.14C558.041 669.963 554.123 726.664 558.56 733.577C561.557 738.422 564.174 743.491 566.386 748.741L558.56 745.803C558.56 745.803 555.621 737 553.673 735.041C551.725 733.082 552.693 714.992 552.693 714.992C552.693 714.992 551.23 683.698 549.754 676.854C548.59 671.346 547.207 653.602 546.055 648.198Z" fill="black"/>
<path d="M534.586 770.161C534.586 770.161 611.867 767.223 621.652 787.767C631.437 808.311 607.959 821.031 607.959 821.031C607.959 821.031 575.192 810.765 567.85 812.228C560.508 813.692 534.586 808.311 534.586 808.311V770.161Z" fill="#5F5D7E"/>
<path d="M577.635 757.452C577.635 757.452 595.247 747.669 605.032 753.995C614.817 760.321 613.838 777.466 600.145 777.95C586.452 778.434 579.111 770.126 579.111 770.126L577.635 757.452Z" fill="#FDC2CC"/>
<path d="M522.358 641.561C522.358 641.561 506.706 630.8 483.712 670.367C460.718 709.934 466.596 777.938 466.596 777.938C466.596 777.938 483.712 778.918 483.228 795.049C482.744 811.18 549.755 814.637 549.755 814.637C549.755 814.637 548.775 654.247 541.929 649.869C535.082 645.491 522.358 641.561 522.358 641.561Z" fill="#C4C8E2"/>
<path opacity="0.1" d="M522.288 670.735C525.049 672.724 527.296 675.342 528.843 678.372C530.39 681.401 531.194 684.755 531.186 688.157C531.267 702.802 531.624 734.361 533.111 740.33C535.071 748.153 564.415 758.419 579.583 757.935C579.583 757.935 586.925 771.624 578.119 774.562C569.314 777.5 515.511 774.562 515.511 774.562C515.511 774.562 494.477 750.607 493.993 729.625C493.509 708.643 490.535 685.127 493.993 680.725C496.816 677.004 508.63 661.103 522.288 670.735Z" fill="black"/>
<path d="M523.268 668.777C526.042 670.762 528.302 673.38 529.86 676.415C531.417 679.449 532.228 682.811 532.224 686.221C532.304 700.866 532.662 732.426 534.148 738.394C536.108 746.218 565.452 756.484 580.62 756C580.62 756 587.962 769.688 579.157 772.627C570.351 775.565 516.549 772.627 516.549 772.627C516.549 772.627 495.514 748.672 495.03 727.69C494.546 706.708 491.572 683.191 495.03 678.79C497.796 675.091 509.61 659.144 523.268 668.777Z" fill="#C4C8E2"/>
<path d="M624.372 821.619C631.392 825.076 639.529 832.196 624.107 843.016C624.107 843.016 580.09 847.901 565.902 839.098C551.714 830.295 565.902 816.111 565.902 816.111C565.902 816.111 598.37 824.741 613.953 820.524C617.443 819.606 621.149 819.995 624.372 821.619Z" fill="#4C4C56"/>
<path opacity="0.1" d="M624.372 822.61C631.392 825.951 639.529 832.726 624.107 843.084C624.107 843.084 580.09 847.762 565.902 839.34C551.714 830.917 565.902 817.355 565.902 817.355C565.902 817.355 598.37 825.605 613.953 821.584C617.439 820.699 621.126 821.062 624.372 822.61Z" fill="black"/>
<path opacity="0.1" d="M524.559 705.371C524.559 705.371 527.003 736.182 543.15 743.026L524.559 705.371Z" fill="black"/>
<path opacity="0.1" d="M548.775 626.893C547.347 631.133 546.377 635.513 545.882 639.959C542.793 640.996 538.275 638.392 534.829 638.392C525.861 638.392 523.303 628.368 517.713 622.261C517.713 619.542 513.102 625.891 512.572 622.503L548.775 626.893Z" fill="black"/>
<path d="M505.714 607.329C505.711 609.885 506.025 612.431 506.648 614.91L506.752 615.302C508.77 622.902 513.606 629.449 520.277 633.614C526.947 637.78 534.954 639.252 542.671 637.732C550.388 636.212 557.237 631.814 561.829 625.43C566.421 619.046 568.41 611.155 567.395 603.358C566.379 595.56 562.433 588.442 556.359 583.447C550.285 578.451 542.537 575.954 534.688 576.46C526.839 576.967 519.477 580.441 514.096 586.176C508.715 591.91 505.718 599.477 505.714 607.34V607.329Z" fill="#FDC2CC"/>
<path opacity="0.1" d="M483.723 670.897C486.918 665.271 490.577 659.922 494.661 654.904C491.376 659.22 488.377 663.747 485.683 668.454C462.689 708.068 468.567 776.026 468.567 776.026C468.567 776.026 485.683 777.005 485.199 793.136C484.761 807.619 538.69 811.86 549.743 812.574C549.743 814.233 549.743 815.132 549.743 815.132C549.743 815.132 482.732 811.675 483.216 795.544C483.7 779.413 466.584 778.434 466.584 778.434C466.584 778.434 460.764 710.51 483.723 670.897Z" fill="black"/>
<path opacity="0.1" d="M509.622 572.152C512.849 570.204 516.929 569.064 520.41 570.343C523.071 569.851 525.772 569.604 528.478 569.605C529.959 569.716 531.448 569.572 532.881 569.179C533.941 568.713 534.966 568.17 535.947 567.554C540.499 565.135 545.547 566.045 550.354 566.667C554.261 567.174 560.865 565.757 563.124 570.227C563.466 570.831 563.6 571.529 563.506 572.216C563.413 572.903 563.096 573.54 562.606 574.03C562.168 574.352 561.603 574.479 561.269 574.94C561.106 575.262 561.009 575.614 560.984 575.974C560.958 576.334 561.004 576.695 561.119 577.037L564.346 593.168C562.86 593.891 561.242 594.303 559.591 594.379C557.94 594.454 556.291 594.191 554.745 593.606C553.881 593.266 553.034 592.881 552.209 592.454C549.801 594.021 547.311 592.834 544.395 593.456C542.671 593.951 541.136 594.955 539.992 596.337C536.602 599.95 534.332 604.469 533.457 609.345C533.134 611.177 532.708 613.436 530.933 613.954C530.26 614.084 529.578 614.153 528.893 614.162C525.689 614.577 524.375 618.367 522.312 620.868C519.799 623.91 515.292 625.891 515.016 629.832C514.947 630.846 515.166 631.964 514.601 632.816C514.22 633.326 513.66 633.671 513.033 633.784C512.046 633.923 511.04 633.78 510.131 633.373C509.221 632.965 508.445 632.309 507.893 631.48C506.819 629.797 506.079 627.923 505.714 625.96L499.756 602.34C499.005 599.701 498.485 597.003 498.2 594.274C497.932 589.9 498.852 585.535 500.863 581.641C502.874 577.746 505.9 574.468 509.622 572.152Z" fill="black"/>
<path d="M509.172 571.713C512.399 569.766 516.48 568.625 519.96 569.904C522.621 569.412 525.322 569.166 528.028 569.167C529.51 569.278 530.999 569.134 532.431 568.741C533.492 568.275 534.516 567.732 535.497 567.116C540.05 564.696 545.098 565.607 549.904 566.229C553.812 566.736 560.416 565.319 562.675 569.789C563.016 570.392 563.151 571.091 563.057 571.778C562.963 572.465 562.647 573.102 562.156 573.592C561.718 573.914 561.153 574.041 560.819 574.502C560.657 574.824 560.56 575.175 560.534 575.535C560.509 575.895 560.555 576.257 560.669 576.599L563.897 592.73C562.411 593.453 560.792 593.865 559.141 593.94C557.49 594.016 555.841 593.753 554.296 593.168C553.431 592.828 552.585 592.443 551.76 592.016C549.351 593.583 546.862 592.396 543.946 593.018C542.221 593.513 540.687 594.517 539.543 595.899C536.152 599.512 533.882 604.031 533.008 608.907C532.685 610.739 532.258 612.998 530.483 613.516C529.811 613.645 529.128 613.715 528.443 613.723C525.239 614.138 523.925 617.929 521.862 620.429C519.349 623.471 514.843 625.453 514.566 629.394C514.497 630.408 514.716 631.525 514.151 632.378C513.77 632.887 513.21 633.233 512.584 633.346C511.597 633.485 510.591 633.342 509.681 632.935C508.772 632.527 507.996 631.871 507.443 631.041C506.369 629.359 505.63 627.485 505.265 625.522L499.306 601.902C498.556 599.263 498.035 596.564 497.75 593.836C497.483 589.462 498.403 585.097 500.414 581.202C502.424 577.308 505.451 574.029 509.172 571.713Z" fill="#865A61"/>
<path d="M894.421 518.251C894.262 522.985 892.768 527.578 890.111 531.501C887.454 527.578 885.959 522.985 885.8 518.251C885.8 510.934 887.725 505 890.111 505C892.496 505 894.421 510.934 894.421 518.251Z" fill="#6C63FF"/>
<path d="M1030.79 535.43C1030.63 540.165 1029.14 544.758 1026.48 548.681C1023.83 544.758 1022.33 540.165 1022.17 535.43C1022.17 528.113 1024.1 522.179 1026.48 522.179C1028.87 522.179 1030.79 528.113 1030.79 535.43Z" fill="#6C63FF"/>
<path opacity="0.1" d="M1002.69 708.759C1006.3 710.859 1010.13 712.559 1014.1 713.829C1019.79 715.58 1026.3 713.736 1029.45 712.607V708.114L1002.94 705.106L1002.69 708.759Z" fill="black"/>
<path d="M1029.75 704.208L1031.29 710.648C1031.29 710.648 1021.88 715.027 1014.07 712.63C1008.8 710.844 1003.77 708.422 999.087 705.417C997.934 704.818 1003.89 698.205 1003.89 698.205L1029.75 704.208Z" fill="#CEDAD5"/>
<defs>
<linearGradient id="paint0_linear_100:399" x1="635.817" y1="702.445" x2="463" y2="702.445" gradientUnits="userSpaceOnUse">
<stop stop-color="#808080" stop-opacity="0.25"/>
<stop offset="0.54" stop-color="#808080" stop-opacity="0.12"/>
<stop offset="1" stop-color="#808080" stop-opacity="0.1"/>
</linearGradient>
</defs>
</svg>
