<svg width="1222" height="1262" viewBox="0 0 1222 1262" fill="none" xmlns="http://www.w3.org/2000/svg">
<path d="M211.637 732.311C261.133 525.04 -149.119 199.11 59.6377 156.311C239.69 119.398 591.634 404.31 790.023 356.623C966.031 314.316 885.802 509.764 915.634 688.31C950.067 894.389 1130.02 1320.62 854.023 1200.62C578.023 1080.62 330.195 1427.38 179.637 1152.31C67.1364 946.77 157.212 960.217 211.637 732.311Z" fill="#C39EFF"/>
<path d="M962 295.5C962 329.419 951.942 362.577 933.097 390.78C914.252 418.983 887.468 440.965 856.13 453.945C824.793 466.926 790.31 470.322 757.042 463.705C723.774 457.087 693.216 440.754 669.231 416.769C645.246 392.784 628.913 362.226 622.295 328.958C615.678 295.69 619.074 261.207 632.055 229.87C645.035 198.532 667.017 171.748 695.22 152.903C723.423 134.058 756.581 124 790.5 124" stroke="#941BBE" stroke-width="64" stroke-linecap="round"/>
<circle cx="790.5" cy="295.5" r="102.5" fill="#941BBE"/>
<circle cx="790.5" cy="295.5" r="275.5" stroke="#941BBE" stroke-width="40"/>
<path d="M790.997 530.999C679.997 534.997 392.997 360.998 319.997 436.999C246.997 513.001 290.997 586.999 290.997 586.999C290.997 586.999 334.997 666.999 319.997 730.001C304.997 793.002 201.997 906.001 211.997 964C221.997 1022 367.997 1037 483.997 1075C599.997 1113 1092 1076 1092 1076C1092 1076 1246 1068 1218 980C1190 891.999 1079 839 1079 778.999C1079 718.998 1193 632.998 1193 574.999C1193 496.423 1105 431 1013 449.999C920.997 468.998 901.997 527.001 790.997 530.999Z" fill="#6B35C3"/>
<path opacity="0.1" d="M539.837 545.109H538.547C539.571 543.966 540.134 542.484 540.127 540.949V540.949C540.186 539.419 539.637 537.928 538.598 536.803C537.559 535.678 536.117 535.012 534.587 534.949H495.747C494.217 535.012 492.775 535.678 491.736 536.803C490.697 537.928 490.147 539.419 490.207 540.949V540.949C490.147 542.479 490.697 543.97 491.736 545.095C492.775 546.22 494.217 546.887 495.747 546.949H497.047C496.019 548.091 495.452 549.573 495.457 551.109C495.432 552.407 495.833 553.677 496.599 554.724C497.364 555.772 498.453 556.54 499.697 556.909H488.517C487.046 557.069 485.686 557.766 484.698 558.867C483.711 559.968 483.164 561.395 483.164 562.874C483.164 564.353 483.711 565.781 484.698 566.882C485.686 567.982 487.046 568.68 488.517 568.839H527.357C528.887 568.777 530.329 568.11 531.368 566.985C532.407 565.86 532.956 564.369 532.897 562.839C532.935 561.541 532.544 560.266 531.785 559.213C531.025 558.159 529.94 557.384 528.697 557.009H539.877C541.357 556.861 542.729 556.168 543.727 555.064C544.725 553.961 545.278 552.527 545.278 551.039C545.278 549.552 544.725 548.117 543.727 547.014C542.729 545.911 541.357 545.218 539.877 545.069L539.837 545.109Z" fill="white"/>
<circle cx="709.5" cy="1197.5" r="16.5" fill="#6B35C3"/>
<circle cx="313.5" cy="277.5" r="6.5" fill="#6B35C3"/>
<circle cx="216.997" cy="590.999" r="16" fill="#6B35C3"/>
<circle cx="369" cy="278" r="16" fill="#6B35C3"/>
<circle cx="1116" cy="774.999" r="14" fill="#6B35C3"/>
<circle cx="1171.5" cy="713.499" r="21.5" fill="#6B35C3"/>
<g filter="url(#filter0_d_108_400)">
<path d="M772.058 441.513L767.398 442.762L732.428 319.365C727.06 300.423 714.128 284.343 696.478 274.662C678.827 264.981 657.904 262.492 638.31 267.742L367.875 340.204C358.173 342.804 349.09 347.225 341.144 353.216C333.198 359.207 326.544 366.65 321.564 375.12C316.583 383.59 313.372 392.921 312.115 402.581C310.858 412.241 311.579 422.04 314.237 431.419L506.087 1108.38C511.455 1127.33 524.387 1143.41 542.037 1153.09C559.688 1162.77 580.611 1165.26 600.205 1160.01L870.64 1087.54C880.341 1084.95 889.425 1080.52 897.371 1074.53C905.317 1068.54 911.97 1061.1 916.951 1052.63C921.932 1044.16 925.143 1034.83 926.4 1025.17C927.657 1015.51 926.936 1005.71 924.278 996.33L792.291 530.598L796.95 529.349L772.058 441.513Z" fill="#3F3D56"/>
<path d="M646.556 285.523L611.255 294.982C613.969 298.395 615.772 302.403 616.505 306.654C617.238 310.905 616.879 315.268 615.458 319.36C614.038 323.451 611.601 327.144 608.362 330.115C605.122 333.085 601.179 335.242 596.881 336.394L441.952 377.907C437.654 379.058 433.132 379.17 428.785 378.232C424.437 377.295 420.398 375.337 417.023 372.53C413.648 369.724 411.041 366.156 409.43 362.14C407.82 358.123 407.257 353.783 407.79 349.501L374.819 358.335C360.186 362.256 347.746 371.635 340.234 384.409C332.723 397.184 330.755 412.307 334.764 426.452L526.356 1102.42C528.341 1109.42 531.734 1115.97 536.34 1121.7C540.947 1127.43 546.677 1132.22 553.204 1135.8C559.731 1139.38 566.927 1141.68 574.38 1142.57C581.833 1143.45 589.399 1142.91 596.644 1140.97L868.381 1068.16C875.626 1066.22 882.41 1062.91 888.344 1058.44C894.278 1053.97 899.246 1048.41 902.965 1042.08C906.685 1035.76 909.082 1028.79 910.021 1021.58C910.959 1014.36 910.421 1007.04 908.436 1000.04V1000.04L716.844 324.074C714.859 317.07 711.466 310.517 706.859 304.79C702.253 299.062 696.522 294.271 689.995 290.691C683.469 287.111 676.273 284.813 668.82 283.926C661.366 283.039 653.801 283.582 646.556 285.523V285.523Z" fill="white"/>
<path d="M497.45 802.146C496.811 802.317 496.333 802.959 496.122 803.931C495.911 804.902 495.984 806.123 496.324 807.325C496.665 808.527 497.246 809.612 497.939 810.341C498.632 811.07 499.38 811.384 500.019 811.212L640.362 773.608C641.002 773.436 641.479 772.795 641.69 771.823C641.901 770.852 641.829 769.631 641.488 768.429C641.147 767.226 640.566 766.141 639.873 765.412C639.18 764.683 638.432 764.37 637.793 764.541L497.45 802.146Z" fill="#CCCCCC"/>
<path d="M507.672 838.212C507.033 838.383 506.555 839.025 506.344 839.996C506.133 840.968 506.206 842.189 506.547 843.391C506.887 844.593 507.468 845.678 508.161 846.407C508.854 847.136 509.602 847.45 510.242 847.278L650.585 809.674C651.224 809.502 651.702 808.86 651.913 807.889C652.124 806.918 652.051 805.697 651.71 804.495C651.369 803.292 650.788 802.207 650.096 801.478C649.403 800.749 648.654 800.436 648.015 800.607L507.672 838.212Z" fill="#CCCCCC"/>
<path d="M520.173 873.667C518.93 874.001 517.872 874.798 517.234 875.884C516.595 876.969 516.428 878.255 516.769 879.457C517.11 880.659 517.93 881.68 519.051 882.294C520.171 882.909 521.499 883.067 522.743 882.734L795.8 809.568C797.043 809.235 798.101 808.438 798.739 807.352C799.378 806.266 799.545 804.981 799.204 803.779C798.863 802.576 798.042 801.556 796.922 800.941C795.802 800.327 794.474 800.169 793.23 800.502L520.173 873.667Z" fill="#CCCCCC"/>
<path d="M530.395 909.733C529.78 909.898 529.203 910.178 528.699 910.559C528.194 910.939 527.772 911.411 527.456 911.949C527.14 912.487 526.936 913.079 526.856 913.692C526.776 914.305 526.822 914.927 526.991 915.522C527.16 916.118 527.448 916.675 527.84 917.162C528.231 917.648 528.718 918.056 529.273 918.36C529.828 918.664 530.439 918.86 531.073 918.935C531.706 919.01 532.349 918.964 532.965 918.799L806.022 845.634C807.265 845.301 808.323 844.503 808.961 843.418C809.6 842.332 809.767 841.046 809.426 839.844C809.085 838.642 808.265 837.621 807.144 837.007C806.024 836.392 804.696 836.234 803.452 836.567L530.395 909.733Z" fill="#CCCCCC"/>
<path d="M405.985 499.234C408.658 498.518 410.245 495.776 409.53 493.11C408.816 490.444 406.071 488.863 403.399 489.58C400.726 490.296 399.139 493.037 399.853 495.703C400.568 498.369 403.313 499.95 405.985 499.234Z" fill="#3F3D56"/>
<path d="M422.7 494.755C425.372 494.039 426.96 491.297 426.245 488.632C425.531 485.966 422.786 484.385 420.113 485.101C417.441 485.817 415.854 488.559 416.568 491.224C417.283 493.89 420.028 495.471 422.7 494.755Z" fill="#3F3D56"/>
<path d="M439.416 490.276C442.088 489.56 443.675 486.818 442.961 484.153C442.247 481.487 439.501 479.906 436.829 480.622C434.157 481.338 432.57 484.08 433.284 486.745C433.998 489.411 436.744 490.992 439.416 490.276Z" fill="#3F3D56"/>
<path d="M616.648 457.273L404.769 514.046L438.725 640.772L650.604 583.999L616.648 457.273Z" fill="#E4CEFF"/>
<path d="M709.612 432.363L637.03 451.812L651.516 505.874L724.098 486.426L709.612 432.363Z" fill="#E4CEFF"/>
<path d="M729.012 504.768L656.431 524.216L670.917 578.279L743.498 558.831L729.012 504.768Z" fill="#E4CEFF"/>
<path d="M532.657 552.847C541.389 550.507 546.575 541.549 544.241 532.838C541.907 524.127 532.936 518.962 524.204 521.302C515.472 523.641 510.286 532.6 512.62 541.311C514.954 550.022 523.925 555.186 532.657 552.847Z" fill="#9E616A"/>
<path d="M574.985 604.261L535.34 614.884L524.165 564.277L524.362 563.917L527.188 558.718L539.706 555.364L545.553 558.605L546.015 558.864L558.432 565.664L574.985 604.261Z" fill="#CBCBCB"/>
<path d="M546.315 611.944L516.184 620.017C510.856 600.932 506.829 586.535 506.829 586.535L508.118 585.189L508.127 585.181L522.283 570.418L524.289 563.719L524.363 563.917L528.653 575.755C528.653 575.755 539.219 592.51 546.315 611.944Z" fill="#2F2E41"/>
<path d="M587.314 600.958L560.502 608.142C557.332 602.041 554.931 596.067 553.877 590.832C549.558 569.45 543.396 558.599 544.713 558.246L545.555 558.606L555.572 562.906L567.529 563.97L575.827 564.711L577.273 564.839L577.443 565.473C578.3 568.653 582.292 583.422 587.314 600.958Z" fill="#2F2E41"/>
<path d="M514.795 546.017C514.795 546.017 515.508 543.303 513.089 535.525C510.67 527.747 523.863 528.978 533.69 525.541C543.517 522.104 545.112 536.548 545.112 536.548C545.112 536.548 545.614 535.53 545.369 528.418C545.123 521.306 539.818 515.575 539.818 515.575C536.897 508.815 531.919 512.566 531.919 512.566C534.887 512.89 534.969 515.261 534.969 515.261C531.627 511.89 526.649 515.641 526.649 515.641C517.956 512.976 512.055 521.135 512.055 521.135C503.607 525.581 510.793 531.303 510.793 531.303C502.97 538.286 514.795 546.017 514.795 546.017Z" fill="#2F2E41"/>
<path d="M507.453 622.356C504.11 606.8 501.471 594.598 500.99 593.731C499.649 591.319 507.867 585.365 508.118 585.189L508.121 585.183L508.126 585.182L510.125 585.652L520.402 618.887L507.453 622.356Z" fill="#2F2E41"/>
<path d="M593.619 599.269L580.012 602.915L565.836 565.584L567.126 563.984C567.126 563.984 567.274 563.979 567.53 563.97C568.86 563.946 573.165 563.918 575.828 564.711C576.41 564.861 576.958 565.119 577.443 565.473C577.737 565.679 577.94 565.991 578.009 566.343C578.184 567.461 585.268 582.03 593.619 599.269Z" fill="#2F2E41"/>
<path d="M620.678 608.624L476.953 647.135C476.4 647.284 475.929 647.646 475.643 648.141C475.357 648.636 475.28 649.223 475.427 649.775C475.575 650.326 475.936 650.796 476.431 651.082C476.926 651.367 477.515 651.445 478.068 651.298L621.794 612.787C622.068 612.714 622.325 612.587 622.551 612.415C622.777 612.243 622.966 612.028 623.108 611.782C623.251 611.537 623.343 611.266 623.38 610.985C623.418 610.704 623.399 610.419 623.326 610.145C623.253 609.872 623.126 609.615 622.953 609.391C622.78 609.166 622.565 608.978 622.319 608.837C622.073 608.695 621.802 608.604 621.52 608.567C621.239 608.531 620.953 608.55 620.678 608.624V608.624Z" fill="#CACACA"/>
<path d="M581.733 619.059L582.849 623.222L478.068 651.298C477.515 651.445 476.926 651.367 476.431 651.082C475.936 650.796 475.575 650.326 475.427 649.775C475.28 649.223 475.357 648.636 475.643 648.141C475.929 647.646 476.4 647.284 476.953 647.135L581.733 619.059Z" fill="#3F3D56"/>
<path d="M583.407 625.303C585.711 624.686 587.08 622.322 586.464 620.023C585.848 617.724 583.48 616.361 581.176 616.978C578.871 617.596 577.503 619.96 578.119 622.259C578.735 624.558 581.102 625.921 583.407 625.303Z" fill="#3F3D56"/>
<path d="M558.668 664.649C556.964 665.106 555.164 665.048 553.495 664.483C551.825 663.919 550.362 662.872 549.289 661.477C548.217 660.082 547.583 658.4 547.469 656.644C547.355 654.888 547.765 653.137 548.647 651.613C549.53 650.088 550.845 648.859 552.427 648.079C554.009 647.3 555.786 647.006 557.534 647.235C559.282 647.464 560.923 648.205 562.248 649.364C563.573 650.523 564.523 652.049 564.978 653.749C565.586 656.028 565.263 658.455 564.08 660.499C562.897 662.542 560.951 664.035 558.668 664.649V664.649ZM554.24 648.125C552.668 648.546 551.255 649.424 550.181 650.645C549.107 651.867 548.42 653.379 548.207 654.99C547.994 656.6 548.263 658.237 548.982 659.693C549.701 661.15 550.837 662.36 552.246 663.171C553.656 663.983 555.275 664.359 556.899 664.251C558.523 664.144 560.08 663.559 561.371 662.569C562.663 661.58 563.633 660.23 564.157 658.692C564.681 657.154 564.736 655.495 564.316 653.926C563.75 651.824 562.371 650.033 560.483 648.945C558.594 647.858 556.349 647.563 554.24 648.125L554.24 648.125Z" fill="#CBCBCB"/>
<path d="M556.468 660.987C556.38 661.011 556.286 660.999 556.208 660.953C556.129 660.908 556.072 660.833 556.048 660.746L553.746 652.153C553.734 652.11 553.73 652.064 553.736 652.019C553.741 651.974 553.756 651.931 553.778 651.892C553.801 651.852 553.831 651.818 553.867 651.79C553.903 651.763 553.944 651.742 553.988 651.731C554.031 651.719 554.077 651.716 554.122 651.722C554.167 651.728 554.21 651.743 554.249 651.765C554.288 651.788 554.323 651.819 554.35 651.855C554.377 651.891 554.397 651.932 554.408 651.976L556.711 660.568C556.734 660.656 556.722 660.749 556.676 660.828C556.631 660.906 556.556 660.964 556.468 660.987V660.987Z" fill="#CBCBCB"/>
<path d="M558.744 660.378C558.656 660.401 558.562 660.389 558.483 660.344C558.405 660.298 558.347 660.224 558.324 660.136L556.022 651.543C556.009 651.5 556.006 651.454 556.012 651.41C556.017 651.365 556.032 651.321 556.054 651.282C556.077 651.243 556.107 651.208 556.143 651.181C556.179 651.153 556.22 651.133 556.263 651.121C556.307 651.109 556.353 651.107 556.398 651.112C556.443 651.118 556.486 651.133 556.525 651.156C556.564 651.179 556.598 651.209 556.626 651.245C556.653 651.281 556.673 651.322 556.684 651.366L558.986 659.958C559.01 660.046 558.998 660.14 558.952 660.218C558.906 660.297 558.832 660.354 558.744 660.378V660.378Z" fill="#CBCBCB"/>
<path d="M516.914 666.627C516.459 664.928 516.519 663.131 517.087 661.465C517.654 659.798 518.704 658.336 520.104 657.264C521.504 656.192 523.19 655.558 524.949 655.442C526.709 655.326 528.463 655.733 529.989 656.612C531.516 657.491 532.746 658.802 533.525 660.38C534.304 661.957 534.597 663.731 534.365 665.475C534.134 667.22 533.39 668.858 532.227 670.182C531.063 671.505 529.533 672.455 527.829 672.912C525.545 673.521 523.113 673.202 521.067 672.023C519.021 670.845 517.527 668.905 516.914 666.627V666.627ZM517.577 666.45C517.997 668.018 518.874 669.427 520.097 670.497C521.32 671.567 522.835 672.251 524.448 672.462C526.062 672.674 527.702 672.402 529.163 671.683C530.623 670.964 531.837 669.829 532.652 668.422C533.466 667.014 533.845 665.398 533.739 663.777C533.634 662.157 533.049 660.604 532.059 659.316C531.069 658.028 529.718 657.062 528.177 656.541C526.636 656.02 524.974 655.967 523.402 656.388C521.295 656.955 519.498 658.333 518.406 660.219C517.314 662.106 517.016 664.346 517.577 666.45L517.577 666.45Z" fill="#3F3D56"/>
<path d="M530.023 666.215C530.084 666.199 530.137 666.164 530.176 666.114C530.214 666.064 530.235 666.003 530.235 665.941C530.235 665.878 530.214 665.817 530.176 665.767C530.138 665.717 530.084 665.682 530.023 665.666L525.253 664.393L528.748 660.905C528.801 660.852 528.832 660.78 528.832 660.704C528.832 660.629 528.802 660.556 528.748 660.503C528.695 660.45 528.622 660.42 528.547 660.42C528.471 660.42 528.398 660.45 528.345 660.503L524.501 664.339C524.466 664.375 524.44 664.419 524.427 664.467C524.414 664.515 524.414 664.566 524.427 664.614C524.44 664.662 524.465 664.706 524.501 664.742C524.536 664.777 524.58 664.802 524.629 664.815L529.876 666.216C529.924 666.228 529.975 666.228 530.023 666.215V666.215Z" fill="#3F3D56"/>
<path d="M524.183 668.804C524.256 668.784 524.319 668.736 524.356 668.671C524.394 668.605 524.404 668.528 524.385 668.455L522.47 661.309C522.451 661.236 522.403 661.174 522.338 661.137C522.272 661.099 522.194 661.089 522.121 661.108C522.048 661.128 521.986 661.176 521.948 661.241C521.91 661.306 521.9 661.384 521.919 661.457L523.834 668.603C523.854 668.675 523.901 668.738 523.967 668.775C524.032 668.813 524.11 668.823 524.183 668.804V668.804Z" fill="#3F3D56"/>
<path d="M589.507 656.386C587.803 656.842 586.003 656.785 584.334 656.22C582.664 655.655 581.201 654.609 580.128 653.214C579.056 651.818 578.422 650.137 578.308 648.381C578.193 646.625 578.604 644.874 579.486 643.35C580.369 641.825 581.684 640.596 583.266 639.816C584.848 639.037 586.625 638.743 588.373 638.972C590.121 639.201 591.762 639.941 593.087 641.101C594.412 642.26 595.362 643.786 595.817 645.486C596.425 647.764 596.102 650.192 594.919 652.235C593.736 654.279 591.79 655.772 589.507 656.386V656.386ZM585.079 639.862C583.507 640.283 582.094 641.16 581.02 642.382C579.946 643.604 579.259 645.116 579.046 646.726C578.832 648.337 579.102 649.974 579.821 651.43C580.54 652.887 581.676 654.097 583.085 654.908C584.494 655.72 586.113 656.095 587.738 655.988C589.362 655.881 590.918 655.296 592.21 654.306C593.502 653.316 594.471 651.967 594.996 650.429C595.52 648.89 595.575 647.232 595.155 645.663C594.589 643.561 593.21 641.77 591.321 640.682C589.433 639.595 587.188 639.3 585.079 639.862L585.079 639.862Z" fill="#3F3D56"/>
<path d="M584.259 651.683C584.198 651.699 584.134 651.695 584.076 651.671C584.018 651.647 583.97 651.605 583.938 651.551C583.907 651.496 583.894 651.433 583.902 651.371C583.911 651.309 583.939 651.251 583.984 651.207L587.478 647.72L582.708 646.447C582.635 646.427 582.573 646.379 582.536 646.314C582.498 646.249 582.488 646.171 582.508 646.099C582.527 646.026 582.575 645.964 582.64 645.926C582.705 645.888 582.783 645.878 582.856 645.897L588.103 647.297C588.151 647.31 588.195 647.335 588.231 647.371C588.266 647.406 588.292 647.45 588.305 647.498C588.318 647.546 588.317 647.597 588.304 647.645C588.292 647.694 588.266 647.738 588.231 647.773L584.387 651.609C584.351 651.645 584.307 651.67 584.259 651.683V651.683Z" fill="#3F3D56"/>
<path d="M590.61 651.005C590.537 651.024 590.459 651.014 590.394 650.976C590.329 650.939 590.281 650.877 590.261 650.804L588.347 643.658C588.327 643.585 588.337 643.508 588.375 643.442C588.413 643.377 588.475 643.329 588.548 643.309C588.621 643.29 588.699 643.3 588.765 643.338C588.83 643.376 588.878 643.438 588.898 643.511L590.812 650.656C590.832 650.729 590.821 650.807 590.784 650.872C590.746 650.937 590.683 650.985 590.61 651.005V651.005Z" fill="#3F3D56"/>
<path d="M534.001 706.02L461.419 725.468L473.059 768.911L545.641 749.463L534.001 706.02Z" fill="#E4CEFF"/>
<path d="M611.422 685.276L538.84 704.725L550.48 748.168L623.062 728.719L611.422 685.276Z" fill="#E4CEFF"/>
<path d="M688.841 664.531L616.26 683.979L627.9 727.423L700.482 707.974L688.841 664.531Z" fill="#E4CEFF"/>
<path d="M766.262 643.786L693.681 663.234L705.321 706.677L777.903 687.229L766.262 643.786Z" fill="#E4CEFF"/>
</g>
<path opacity="0.1" d="M1020.3 788.259H1019C1020.03 787.119 1020.59 785.635 1020.58 784.099V784.099C1020.64 782.569 1020.09 781.078 1019.05 779.953C1018.01 778.828 1016.57 778.162 1015.04 778.099H976.198C974.669 778.164 973.228 778.832 972.19 779.956C971.152 781.08 970.602 782.57 970.658 784.099V784.099C970.602 785.628 971.152 787.118 972.19 788.242C973.228 789.366 974.669 790.034 976.198 790.099H977.498C976.473 791.241 975.91 792.724 975.918 794.259C975.89 795.556 976.29 796.826 977.057 797.873C977.823 798.92 978.913 799.684 980.158 800.049H968.978C967.498 800.198 966.126 800.891 965.128 801.994C964.13 803.097 963.578 804.532 963.578 806.019C963.578 807.507 964.13 808.941 965.128 810.044C966.126 811.147 967.498 811.841 968.978 811.989H1007.82C1009.35 811.924 1010.79 811.256 1011.83 810.132C1012.86 809.008 1013.42 807.518 1013.36 805.989C1013.38 804.693 1012.98 803.423 1012.22 802.377C1011.45 801.331 1010.36 800.565 1009.12 800.199H1020.3C1021.78 800.051 1023.15 799.357 1024.15 798.254C1025.15 797.151 1025.7 795.717 1025.7 794.229C1025.7 792.742 1025.15 791.307 1024.15 790.204C1023.15 789.101 1021.78 788.408 1020.3 788.259V788.259Z" fill="#6C63FF"/>
<path opacity="0.1" d="M689.429 783.129C688.614 783.013 687.785 783.077 686.999 783.319L688.789 776.099L690.979 776.639C690.732 778.858 690.212 781.038 689.429 783.129V783.129Z" fill="black"/>
<path d="M842.488 957.289L798.898 1010.22C798.898 1010.22 796.978 1007.99 793.738 1004.17C775.638 982.939 716.078 912.629 716.078 906.669C716.078 899.669 685.568 870.109 685.568 870.109C685.568 870.109 658.168 847.109 673.108 775.429C688.048 703.749 723.548 843.949 722.308 853.289C721.068 862.629 742.228 887.539 742.228 887.539C742.228 887.539 769.008 900.619 782.708 914.939C792.348 925.019 818.018 941.879 832.378 950.939C838.438 954.819 842.488 957.289 842.488 957.289Z" fill="#FDC2CC"/>
<path opacity="0.1" d="M842.489 957.289L798.899 1010.22C798.899 1010.22 796.979 1007.99 793.739 1004.17C794.439 989.349 825.739 956.649 831.279 951.679C831.605 951.387 831.976 951.151 832.379 950.979C838.439 954.819 842.489 957.289 842.489 957.289Z" fill="black"/>
<path d="M861.169 966.009C861.169 966.009 841.239 947.329 835.019 952.939C828.799 958.549 789.559 999.639 798.899 1010.23C808.239 1020.82 864.279 1065.01 864.279 1065.01L861.169 966.009Z" fill="#5F5D7E"/>
<path opacity="0.1" d="M861.169 966.009C861.169 966.009 841.239 947.329 835.019 952.939C828.799 958.549 789.559 999.639 798.899 1010.23C808.239 1020.82 864.279 1065.01 864.279 1065.01L861.169 966.009Z" fill="black"/>
<path d="M1036.15 817.179C1036.15 817.179 1016.7 835.949 992.339 856.309L991.419 857.069L989.999 858.249C951.139 890.389 901.059 925.069 895.899 895.389C895.321 891.515 895.297 887.579 895.829 883.699C895.889 883.129 895.969 882.539 896.049 881.939C896.129 881.339 896.209 880.779 896.269 880.209C897.238 872.729 897.776 865.2 897.879 857.659C897.879 856.389 897.879 855.129 897.879 853.879C897.622 826.272 892.195 798.957 881.879 773.349C881.279 771.829 880.669 770.349 880.079 768.939C872.079 749.859 864.249 738.719 864.249 738.719C864.249 738.719 875.819 731.719 891.859 722.719C897.749 719.439 904.229 715.909 910.969 712.369C947.969 692.969 992.459 673.569 986.299 696.369C983.389 707.159 986.089 721.479 991.449 736.469C991.749 737.299 992.049 738.109 992.359 738.929C995.834 747.987 999.841 756.833 1004.36 765.419L1004.66 765.999C1011.09 778.319 1018.02 789.829 1023.76 798.779C1025.14 800.939 1026.45 802.959 1027.67 804.779C1032.7 812.479 1036.15 817.179 1036.15 817.179Z" fill="#FDC2CC"/>
<path opacity="0.1" d="M992.389 738.929C992.099 739.359 991.789 739.789 991.479 740.209C982.139 752.909 971.329 760.469 958.479 764.729C949.619 767.679 939.759 769.069 928.709 769.509C925.959 769.609 923.149 769.659 920.249 769.659C913.565 769.671 906.887 769.287 900.249 768.509C896.759 767.959 893.109 770.309 889.579 772.029C886.949 773.299 884.379 774.229 881.979 773.349C881.379 771.829 880.769 770.349 880.179 768.939C872.179 749.859 864.349 738.719 864.349 738.719C864.349 738.719 875.919 731.719 891.959 722.719C897.849 719.439 904.329 715.909 911.069 712.369C948.069 692.969 992.559 673.569 986.399 696.369C983.489 707.159 986.189 721.479 991.549 736.469C991.779 737.299 992.079 738.109 992.389 738.929Z" fill="black"/>
<path d="M1010 680.009C1010 681.469 1010 682.909 1009.9 684.349C1008.94 705.522 1000.96 725.774 987.211 741.905C973.463 758.036 954.733 769.128 933.979 773.429C922.626 775.765 910.944 776.026 899.498 774.199C896.128 773.673 892.789 772.958 889.498 772.059C886.313 771.195 883.175 770.164 880.099 768.969V768.969C867.369 764.02 855.849 756.398 846.318 746.616C836.786 736.834 829.464 725.121 824.847 712.268C820.23 699.414 818.425 685.719 819.553 672.108C820.681 658.497 824.717 645.287 831.388 633.369L832.229 631.899C842.801 613.805 859.038 599.695 878.43 591.75C897.822 583.804 919.291 582.466 939.52 587.94C959.749 593.415 977.613 605.398 990.351 622.039C1003.09 638.68 1009.99 659.052 1010 680.009V680.009Z" fill="#FDC2CC"/>
<path opacity="0.1" d="M1036.15 817.179C1036.15 817.179 884.829 963.509 896.039 881.939C897.31 872.64 897.931 863.264 897.899 853.879C903.15 847.387 908.727 841.166 914.609 835.239L935.869 819.869C957.79 803.869 984.519 795.839 1011.63 797.109C1015.72 797.213 1019.78 797.773 1023.75 798.779C1030.88 809.949 1036.15 817.179 1036.15 817.179Z" fill="black"/>
<path d="M1143.4 1068.4C1137.86 1070.05 1132.19 1071.48 1126.47 1072.73C1123.65 1073.36 1120.81 1073.94 1117.97 1074.48C1113.14 1075.41 1108.29 1076.24 1103.47 1077C1079.33 1080.79 1054.97 1083.25 1030.47 1085L1026.47 1085.27L1024.01 1085.43C1020.27 1085.68 1016.53 1085.9 1012.8 1086.11C997.849 1086.95 982.879 1087.56 967.909 1088.11C956.909 1088.49 946.019 1088.81 935.079 1089.11L912.829 1089.76L907.079 1089.93L904.559 1090C897.972 1090.2 891.379 1090.39 884.779 1090.57L877.119 1090.79L862.889 1091.18L859.889 1091.26C859.089 1084.2 857.619 1071.37 856.059 1058.56L855.699 1055.56C853.979 1041.43 852.199 1027.86 851.169 1022.72C848.679 1010.27 851.169 958.579 851.169 958.579L851.439 958.149L852.619 956.149C858.509 946.319 880.349 908.699 879.809 892.529C879.489 882.879 888.809 868.919 897.809 857.669C898.989 856.209 900.159 854.789 901.309 853.439C908.479 845.009 914.619 839.009 914.619 839.009L935.869 823.629C957.801 807.645 984.53 799.623 1011.64 800.889C1019.64 801.299 1026.02 802.419 1027.64 804.829C1028.33 805.219 1043.83 814.119 1060.83 833.979C1069.11 843.648 1076.31 854.19 1082.31 865.419C1082.49 865.739 1082.67 866.069 1082.84 866.419C1082.84 866.419 1121.45 930.559 1126.43 969.169C1131.41 1007.78 1138.89 1039.53 1138.89 1039.53C1138.89 1039.53 1141.02 1051.72 1143.4 1068.4Z" fill="#5F5D7E"/>
<path opacity="0.1" d="M1028.06 1038.86C1024.99 1043.86 1027.36 1067.27 1030.51 1084.96L1026.51 1085.23L1024.05 1085.39C1020.31 1085.64 1016.57 1085.86 1012.84 1086.07C997.889 1086.91 982.919 1087.52 967.949 1088.07C956.949 1088.45 946.059 1088.77 935.119 1089.07L912.869 1089.72C912.869 1087.44 912.169 1085.47 910.359 1084.32C909.095 1083.41 907.976 1082.31 907.039 1081.07C906.749 1080.72 906.449 1080.34 906.149 1079.95C899.219 1070.75 890.439 1051.95 890.439 1051.95C890.439 1051.95 879.229 1054.44 877.979 962.949C877.579 933.129 885.299 911.309 895.889 895.439C917.829 862.579 952.079 855.219 952.079 855.219C964.769 853.011 977.813 854.075 989.979 858.309C994.751 859.983 999.346 862.123 1003.7 864.699C1009.53 868.209 1014.98 872.336 1019.93 877.009L1021.53 878.539C1056.45 912.539 1064.7 965.629 1043.13 1009.36C1036.22 1023.33 1029.99 1035.72 1028.06 1038.86Z" fill="black"/>
<path d="M1023.08 1033.88C1019.7 1039.38 1022.92 1067.31 1026.52 1085.23L1024.06 1085.39C1020.32 1085.64 1016.58 1085.86 1012.85 1086.07C997.899 1086.91 982.929 1087.52 967.959 1088.07C956.959 1088.45 946.069 1088.77 935.129 1089.07L912.879 1089.72L907.129 1089.89C908.009 1086.66 908.339 1083.33 907.049 1081.07C906.809 1080.65 906.509 1080.28 906.159 1079.95C905.929 1079.71 905.67 1079.51 905.389 1079.34C898.539 1074.98 885.459 1046.95 885.459 1046.95C885.459 1046.95 874.259 1049.45 873.009 957.949C872.549 923.689 882.809 899.949 895.829 883.729C917.609 856.559 947.109 850.219 947.109 850.219C950.971 849.578 954.874 849.217 958.789 849.139H958.909C970.459 848.884 981.908 851.35 992.329 856.339C1001.29 860.712 1009.47 866.53 1016.54 873.559C1017.7 874.689 1018.84 875.839 1019.93 877.009C1051.93 911.099 1059.01 962.109 1038.15 1004.38C1031.24 1018.35 1025.01 1030.74 1023.08 1033.88Z" fill="#5F5D7E"/>
<path opacity="0.1" d="M946.048 972.399C946.048 972.399 884.599 1016.01 889.839 1022.01C895.079 1028.01 946.048 972.399 946.048 972.399Z" fill="black"/>
<path opacity="0.1" d="M1032.28 988.109C1032.28 988.109 1013.08 971.009 1014.47 977.639C1015.86 984.269 1032.28 988.109 1032.28 988.109Z" fill="black"/>
<path opacity="0.1" d="M1012.85 1086.07C997.899 1086.91 982.929 1087.52 967.959 1088.07C942.329 1085.07 915.679 1080.66 915.679 1080.66C917.989 1079.31 999.759 1077.68 1012.85 1086.07Z" fill="black"/>
<path opacity="0.1" d="M884.828 1090.53L877.168 1090.75C871.068 1074.09 865.828 1054.33 863.688 1045.94C863.028 1043.35 862.688 1041.84 862.688 1041.84L863.638 1043.84C866.788 1050.41 877.228 1072.33 884.828 1090.53Z" fill="black"/>
<path opacity="0.1" d="M1003.7 714.079C1000.65 722.06 996.529 729.592 991.459 736.469C991.759 737.299 992.059 738.109 992.369 738.929C995.844 747.988 999.851 756.833 1004.37 765.419L1004.67 765.999C1005.19 769.999 1005.91 773.999 1006.74 777.899C991.539 778.699 976.322 779.049 961.089 778.949C954.469 778.949 947.749 778.759 941.439 776.779C938.832 775.956 936.334 774.821 933.999 773.399C932.121 772.261 930.348 770.959 928.699 769.509C920.475 762.078 915.283 751.872 914.119 740.849C913.209 732.259 914.509 723.359 912.019 715.089C911.732 714.169 911.398 713.265 911.019 712.379C908.982 707.669 905.767 703.562 901.682 700.455C897.598 697.347 892.782 695.345 887.699 694.639C886.228 694.319 884.691 694.527 883.359 695.229C882.222 696.175 881.403 697.445 881.009 698.869L870.699 725.759C863.359 727.599 858.179 718.009 858.789 710.469C859.399 702.929 862.789 695.209 860.279 688.069C859.509 685.859 858.199 683.849 857.639 681.589C855.409 672.679 864.989 664.769 865.069 655.589C865.129 648.039 858.669 641.939 851.809 638.799C845.519 635.919 838.569 634.679 832.269 631.869C842.851 613.792 859.089 599.701 878.476 591.769C897.863 583.838 919.322 582.508 939.54 587.984C959.758 593.46 977.612 605.439 990.346 622.07C1003.08 638.702 1009.99 659.063 1010 680.009C1010 681.469 1010 682.909 1009.9 684.349C1009.44 694.528 1007.35 704.567 1003.7 714.079V714.079Z" fill="black"/>
<path d="M909.289 555.399C902.919 554.759 895.918 554.599 890.758 558.399C885.338 562.399 883.538 569.559 879.938 575.249C873.068 586.129 860.108 591.099 849.168 597.869C838.228 604.639 827.869 616.729 831.529 629.069C838.269 632.469 845.919 633.659 852.779 636.799C859.639 639.939 866.099 646.039 866.039 653.589C865.959 662.769 856.378 670.679 858.608 679.589C859.168 681.849 860.478 683.859 861.248 686.069C863.738 693.209 860.368 700.929 859.758 708.469C859.148 716.009 864.328 725.599 871.668 723.759L882.048 696.869C882.442 695.445 883.262 694.174 884.399 693.229C885.73 692.527 887.267 692.318 888.738 692.639C894.295 693.417 899.52 695.749 903.808 699.368C908.097 702.986 911.276 707.742 912.979 713.089C915.469 721.359 914.168 730.259 915.078 738.849C916.748 754.689 927.218 770.009 942.418 774.779C948.728 776.779 955.418 776.909 962.068 776.949C977.288 777.062 992.505 776.712 1007.72 775.899C1003.97 758.259 1002.44 738.769 1011.53 723.209C1015.42 716.549 1021.03 711.059 1025.31 704.639C1032.31 694.179 1035.49 681.689 1038.06 669.379C1040.06 660.049 1041.69 650.509 1040.81 641.019C1039.34 625.109 1030.89 610.809 1022.65 597.129C1018.31 589.919 1013.75 582.479 1006.76 577.819C992.218 568.139 974.398 574.209 958.858 568.649C942.348 562.759 927.259 557.219 909.289 555.399Z" fill="#865A61"/>
<rect x="643" y="468" width="347" height="133" rx="16" transform="rotate(-15 643 468)" fill="#03053D"/>
<path d="M729.264 537.659C727.6 538.105 726.149 538.118 724.911 537.699C723.716 537.268 722.563 536.38 721.451 535.036L696.158 504.22C695.046 502.875 694.458 501.554 694.392 500.258C694.326 498.961 694.687 497.856 695.475 496.941C696.25 495.982 697.36 495.309 698.805 494.922C700.557 494.453 701.998 494.489 703.129 495.031C704.26 495.572 705.359 496.522 706.426 497.878L725.167 521.579L729.529 491.617C729.775 489.909 730.258 488.559 730.978 487.568C731.687 486.534 732.873 485.794 734.537 485.348C735.894 484.984 737.127 485.029 738.234 485.483C739.341 485.938 740.169 486.748 740.716 487.916C741.296 489.028 741.441 490.444 741.151 492.164L734.588 531.516C734.342 533.224 733.787 534.57 732.924 535.552C732.104 536.522 730.885 537.225 729.264 537.659ZM763.826 528.398C761.899 528.914 760.27 528.788 758.937 528.018C757.605 527.249 756.669 525.857 756.129 523.843L746.713 488.703C746.173 486.688 746.288 485.015 747.057 483.682C747.827 482.35 749.175 481.425 751.101 480.909C753.028 480.393 754.658 480.52 755.99 481.289C757.323 482.058 758.259 483.45 758.799 485.464L768.214 520.605C768.754 522.619 768.639 524.292 767.87 525.625C767.145 526.946 765.796 527.87 763.826 528.398ZM784.392 522.254C780.188 523.38 777.529 521.863 776.415 517.703L767.351 483.877C766.236 479.717 767.781 477.074 771.984 475.947L784.858 472.498C792.872 470.351 799.629 470.699 805.131 473.542C810.633 476.386 814.37 481.486 816.341 488.842C818.312 496.199 817.632 502.506 814.301 507.763C810.958 512.977 805.279 516.657 797.266 518.804L784.392 522.254ZM787.55 510.918L793.855 509.229C798.453 507.997 801.554 505.993 803.156 503.217C804.791 500.385 805.004 496.714 803.796 492.204C802.587 487.694 800.573 484.643 797.753 483.052C794.933 481.461 791.246 481.275 786.692 482.496L780.387 484.185L787.55 510.918ZM836.028 508.418C831.824 509.544 829.165 508.028 828.05 503.868L818.986 470.041C817.872 465.881 819.416 463.238 823.62 462.112L845.886 456.145C849.039 455.3 851.026 456.411 851.848 459.476C852.692 462.629 851.538 464.627 848.386 465.472L831.374 470.031L833.732 478.832L849.299 474.661C852.452 473.816 854.445 474.948 855.278 478.057C856.111 481.166 854.951 483.143 851.798 483.988L836.231 488.159L838.783 497.683L855.795 493.125C858.948 492.28 860.941 493.412 861.774 496.521C862.607 499.63 861.447 501.607 858.294 502.452L836.028 508.418ZM892.722 494.001C888.037 495.257 883.657 495.374 879.582 494.354C875.539 493.279 872.052 491.209 869.119 488.147C866.186 485.084 864.081 481.166 862.802 476.393C861.511 471.576 861.354 467.137 862.33 463.073C863.339 458.955 865.352 455.435 868.371 452.514C871.39 449.593 875.242 447.505 879.927 446.25C884.613 444.994 888.971 444.882 893.002 445.914C897.077 446.934 900.581 448.976 903.513 452.038C906.434 455.057 908.54 458.975 909.831 463.792C911.11 468.565 911.245 473.011 910.236 477.129C909.228 481.248 907.22 484.79 904.213 487.754C901.238 490.663 897.408 492.746 892.722 494.001ZM890.012 483.886C893.428 482.971 895.776 481.051 897.057 478.126C898.371 475.146 898.447 471.488 897.285 467.153C896.124 462.818 894.257 459.705 891.685 457.813C889.113 455.92 886.097 455.438 882.638 456.365C879.179 457.292 876.808 459.217 875.527 462.142C874.245 465.067 874.186 468.697 875.347 473.032C876.509 477.367 878.381 480.502 880.965 482.438C883.537 484.33 886.553 484.813 890.012 483.886ZM940.582 481.177C937.911 481.893 935.082 482.369 932.094 482.607C929.139 482.788 926.52 482.645 924.236 482.178C922.901 481.926 921.864 481.382 921.124 480.548C920.384 479.714 919.945 478.775 919.806 477.733C919.656 476.647 919.782 475.628 920.184 474.675C920.574 473.679 921.237 472.914 922.174 472.382C923.099 471.805 924.273 471.632 925.695 471.861C927.582 472.247 929.635 472.377 931.854 472.252C934.062 472.083 936.085 471.752 937.924 471.259C940.814 470.485 942.729 469.573 943.668 468.523C944.639 467.418 944.972 466.297 944.667 465.158C944.397 464.151 943.764 463.452 942.768 463.062C941.815 462.66 940.251 462.516 938.076 462.63L929.951 463.047C921.15 463.481 915.823 460.239 913.969 453.32C913.159 450.299 913.26 447.432 914.27 444.721C915.323 441.998 917.153 439.631 919.758 437.619C922.352 435.563 925.597 434.012 929.494 432.968C931.771 432.358 934.141 432.005 936.602 431.908C939.096 431.756 941.332 431.955 943.309 432.505C944.811 432.853 945.901 433.594 946.58 434.726C947.247 435.815 947.514 436.987 947.381 438.243C947.248 439.498 946.683 440.542 945.685 441.372C944.731 442.191 943.307 442.479 941.411 442.236C939.945 442.018 938.388 441.99 936.742 442.149C935.083 442.265 933.509 442.523 932.021 442.921C929.569 443.579 927.803 444.521 926.724 445.749C925.633 446.933 925.27 448.203 925.633 449.561C925.892 450.524 926.497 451.207 927.449 451.609C928.402 452.011 929.944 452.161 932.075 452.059L940.135 451.659C949.067 451.19 954.431 454.305 956.226 461.005C957.035 464.026 956.929 466.871 955.907 469.538C954.886 472.205 953.072 474.545 950.467 476.557C947.862 478.57 944.566 480.11 940.582 481.177Z" fill="white"/>
<circle cx="151.5" cy="729.5" r="20.5" fill="#6B35C3"/>
<circle cx="908" cy="1141" r="10" fill="#6B35C3"/>
<circle cx="373.5" cy="1180.5" r="20.5" fill="#6B35C3"/>
<g filter="url(#filter1_d_108_400)">
<circle cx="473" cy="949" r="150" fill="#3F3D56"/>
<path d="M427.625 949.867V929.289C427.625 903.74 445.717 893.277 467.856 906.052L485.717 916.341L503.578 926.63C525.717 939.405 525.717 960.329 503.578 973.104L485.717 983.393L467.856 993.682C445.717 1006.46 427.625 995.994 427.625 970.445V949.867Z" fill="white"/>
</g>
<g filter="url(#filter2_d_108_400)">
<circle cx="354" cy="544" r="45" fill="#3F3D56"/>
<path d="M339.445 536.234V552.64C339.445 556 343.097 558.108 346.011 556.428L353.125 552.331L360.24 548.217C363.154 546.537 363.154 542.337 360.24 540.657L353.125 536.542L346.011 532.445C343.097 530.765 339.445 532.857 339.445 536.234Z" fill="white"/>
<path d="M367.697 556.308C366.994 556.308 366.412 555.725 366.412 555.022V533.834C366.412 533.131 366.994 532.548 367.697 532.548C368.4 532.548 368.983 533.131 368.983 533.834V555.022C368.983 555.725 368.417 556.308 367.697 556.308Z" fill="white"/>
</g>
<g filter="url(#filter3_d_108_400)">
<circle cx="387" cy="654" r="45" transform="rotate(-180 387 654)" fill="#3F3D56"/>
<path d="M401.555 661.766V645.36C401.555 642 397.903 639.892 394.989 641.572L387.875 645.669L380.76 649.783C377.846 651.463 377.846 655.663 380.76 657.343L387.875 661.458L394.989 665.555C397.903 667.235 401.555 665.143 401.555 661.766Z" fill="white"/>
<path d="M373.303 641.692C374.006 641.692 374.588 642.275 374.588 642.978V664.166C374.588 664.869 374.006 665.452 373.303 665.452C372.6 665.452 372.017 664.869 372.017 664.166V642.978C372.017 642.275 372.583 641.692 373.303 641.692Z" fill="white"/>
</g>
<defs>
<filter id="filter0_d_108_400" x="283.515" y="244.049" width="665.485" height="947.651" filterUnits="userSpaceOnUse" color-interpolation-filters="sRGB">
<feFlood flood-opacity="0" result="BackgroundImageFix"/>
<feColorMatrix in="SourceAlpha" type="matrix" values="0 0 0 0 0 0 0 0 0 0 0 0 0 0 0 0 0 0 127 0" result="hardAlpha"/>
<feOffset dx="-3" dy="4"/>
<feGaussianBlur stdDeviation="12.5"/>
<feComposite in2="hardAlpha" operator="out"/>
<feColorMatrix type="matrix" values="0 0 0 0 0 0 0 0 0 0 0 0 0 0 0 0 0 0 0.3 0"/>
<feBlend mode="normal" in2="BackgroundImageFix" result="effect1_dropShadow_108_400"/>
<feBlend mode="normal" in="SourceGraphic" in2="effect1_dropShadow_108_400" result="shape"/>
</filter>
<filter id="filter1_d_108_400" x="295" y="778" width="350" height="350" filterUnits="userSpaceOnUse" color-interpolation-filters="sRGB">
<feFlood flood-opacity="0" result="BackgroundImageFix"/>
<feColorMatrix in="SourceAlpha" type="matrix" values="0 0 0 0 0 0 0 0 0 0 0 0 0 0 0 0 0 0 127 0" result="hardAlpha"/>
<feOffset dx="-3" dy="4"/>
<feGaussianBlur stdDeviation="12.5"/>
<feComposite in2="hardAlpha" operator="out"/>
<feColorMatrix type="matrix" values="0 0 0 0 0 0 0 0 0 0 0 0 0 0 0 0 0 0 0.3 0"/>
<feBlend mode="normal" in2="BackgroundImageFix" result="effect1_dropShadow_108_400"/>
<feBlend mode="normal" in="SourceGraphic" in2="effect1_dropShadow_108_400" result="shape"/>
</filter>
<filter id="filter2_d_108_400" x="281" y="478" width="140" height="140" filterUnits="userSpaceOnUse" color-interpolation-filters="sRGB">
<feFlood flood-opacity="0" result="BackgroundImageFix"/>
<feColorMatrix in="SourceAlpha" type="matrix" values="0 0 0 0 0 0 0 0 0 0 0 0 0 0 0 0 0 0 127 0" result="hardAlpha"/>
<feOffset dx="-3" dy="4"/>
<feGaussianBlur stdDeviation="12.5"/>
<feComposite in2="hardAlpha" operator="out"/>
<feColorMatrix type="matrix" values="0 0 0 0 0 0 0 0 0 0 0 0 0 0 0 0 0 0 0.3 0"/>
<feBlend mode="normal" in2="BackgroundImageFix" result="effect1_dropShadow_108_400"/>
<feBlend mode="normal" in="SourceGraphic" in2="effect1_dropShadow_108_400" result="shape"/>
</filter>
<filter id="filter3_d_108_400" x="314" y="588" width="140" height="140" filterUnits="userSpaceOnUse" color-interpolation-filters="sRGB">
<feFlood flood-opacity="0" result="BackgroundImageFix"/>
<feColorMatrix in="SourceAlpha" type="matrix" values="0 0 0 0 0 0 0 0 0 0 0 0 0 0 0 0 0 0 127 0" result="hardAlpha"/>
<feOffset dx="-3" dy="4"/>
<feGaussianBlur stdDeviation="12.5"/>
<feComposite in2="hardAlpha" operator="out"/>
<feColorMatrix type="matrix" values="0 0 0 0 0 0 0 0 0 0 0 0 0 0 0 0 0 0 0.3 0"/>
<feBlend mode="normal" in2="BackgroundImageFix" result="effect1_dropShadow_108_400"/>
<feBlend mode="normal" in="SourceGraphic" in2="effect1_dropShadow_108_400" result="shape"/>
</filter>
</defs>
</svg>
