<svg width="1222" height="1262" viewBox="0 0 1222 1262" fill="none" xmlns="http://www.w3.org/2000/svg">
<path d="M211.637 732.311C261.133 525.04 -149.119 199.11 59.6377 156.311C239.69 119.398 591.634 404.31 790.023 356.623C966.031 314.316 885.802 509.764 915.634 688.31C950.067 894.389 1130.02 1320.62 854.023 1200.62C578.023 1080.62 330.195 1427.38 179.637 1152.31C67.1364 946.77 157.212 960.217 211.637 732.311Z" fill="#C39EFF"/>
<path d="M962 295.5C962 329.419 951.942 362.577 933.097 390.78C914.252 418.983 887.468 440.965 856.13 453.945C824.793 466.926 790.31 470.322 757.042 463.705C723.774 457.087 693.216 440.754 669.231 416.769C645.246 392.784 628.913 362.226 622.295 328.958C615.678 295.69 619.074 261.207 632.055 229.87C645.035 198.532 667.017 171.748 695.22 152.903C723.423 134.058 756.581 124 790.5 124" stroke="#941BBE" stroke-width="64" stroke-linecap="round"/>
<circle cx="790.5" cy="295.5" r="102.5" fill="#941BBE"/>
<circle cx="790.5" cy="295.5" r="275.5" stroke="#941BBE" stroke-width="40"/>
<path d="M790.997 530.999C679.997 534.997 392.997 360.998 319.997 436.999C246.997 513.001 290.997 586.999 290.997 586.999C290.997 586.999 334.997 666.999 319.997 730.001C304.997 793.002 201.997 906.001 211.997 964C221.997 1022 367.997 1037 483.997 1075C599.997 1113 1092 1076 1092 1076C1092 1076 1246 1068 1218 980C1190 891.999 1079 839 1079 778.999C1079 718.998 1193 632.998 1193 574.999C1193 496.423 1105 431 1013 449.999C920.997 468.998 901.997 527.001 790.997 530.999Z" fill="#6B35C3"/>
<path opacity="0.1" d="M539.837 545.109H538.547C539.571 543.966 540.134 542.484 540.127 540.949V540.949C540.186 539.419 539.637 537.928 538.598 536.803C537.559 535.678 536.117 535.012 534.587 534.949H495.747C494.217 535.012 492.775 535.678 491.736 536.803C490.697 537.928 490.147 539.419 490.207 540.949V540.949C490.147 542.479 490.697 543.97 491.736 545.095C492.775 546.22 494.217 546.887 495.747 546.949H497.047C496.019 548.091 495.452 549.573 495.457 551.109C495.432 552.407 495.833 553.677 496.599 554.724C497.364 555.772 498.453 556.54 499.697 556.909H488.517C487.046 557.069 485.686 557.766 484.698 558.867C483.711 559.968 483.164 561.395 483.164 562.874C483.164 564.353 483.711 565.781 484.698 566.882C485.686 567.982 487.046 568.68 488.517 568.839H527.357C528.887 568.777 530.329 568.11 531.368 566.985C532.407 565.86 532.956 564.369 532.897 562.839C532.935 561.541 532.544 560.266 531.785 559.213C531.025 558.159 529.94 557.384 528.697 557.009H539.877C541.357 556.861 542.729 556.168 543.727 555.064C544.725 553.961 545.278 552.527 545.278 551.039C545.278 549.552 544.725 548.117 543.727 547.014C542.729 545.911 541.357 545.218 539.877 545.069L539.837 545.109Z" fill="white"/>
<circle cx="709.5" cy="1197.5" r="16.5" fill="#6B35C3"/>
<circle cx="313.5" cy="277.5" r="6.5" fill="#6B35C3"/>
<circle cx="216.997" cy="590.999" r="16" fill="#6B35C3"/>
<circle cx="369" cy="278" r="16" fill="#6B35C3"/>
<circle cx="1116" cy="774.999" r="14" fill="#6B35C3"/>
<circle cx="1171.5" cy="713.499" r="21.5" fill="#6B35C3"/>
<path d="M771.288 442.088L766.637 443.335L731.648 319.871C726.277 300.919 713.357 284.825 695.731 275.129C678.105 265.434 657.215 262.931 637.659 268.171L367.735 340.497C358.052 343.091 348.987 347.509 341.059 353.497C333.13 359.485 326.493 366.927 321.526 375.397C316.559 383.867 313.36 393.2 312.111 402.863C310.863 412.525 311.589 422.328 314.248 431.712L506.202 1109.05C511.573 1128 524.493 1144.09 542.119 1153.79C559.746 1163.48 580.635 1165.99 600.191 1160.75L870.115 1088.42C879.798 1085.82 888.863 1081.41 896.792 1075.42C904.72 1069.43 911.357 1061.99 916.324 1053.52C921.291 1045.05 924.49 1035.72 925.739 1026.05C926.988 1016.39 926.262 1006.59 923.602 997.204L791.543 531.218L796.194 529.972L771.288 442.088Z" fill="#3F3D56"/>
<path d="M645.903 285.964L610.669 295.405C613.38 298.821 615.182 302.832 615.917 307.085C616.651 311.338 616.295 315.703 614.88 319.795C613.465 323.887 611.034 327.58 607.802 330.55C604.57 333.519 600.635 335.674 596.345 336.824L441.709 378.258C437.419 379.408 432.905 379.517 428.565 378.576C424.224 377.636 420.191 375.674 416.82 372.865C413.449 370.055 410.844 366.484 409.234 362.465C407.624 358.447 407.059 354.104 407.588 349.821L374.68 358.638C360.075 362.552 347.662 371.927 340.171 384.702C332.68 397.476 330.725 412.604 334.736 426.757L526.409 1103.1C528.395 1110.1 531.786 1116.66 536.388 1122.39C540.99 1128.13 546.713 1132.92 553.231 1136.51C559.749 1140.09 566.933 1142.4 574.374 1143.29C581.815 1144.18 589.367 1143.64 596.599 1141.71L867.822 1069.03C875.053 1067.09 881.823 1063.79 887.744 1059.32C893.665 1054.85 898.622 1049.29 902.331 1042.97C906.04 1036.64 908.429 1029.67 909.361 1022.46C910.294 1015.24 909.752 1007.92 907.766 1000.91V1000.91L716.093 324.573C714.107 317.565 710.716 311.008 706.114 305.275C701.512 299.542 695.788 294.746 689.271 291.161C682.753 287.576 675.568 285.272 668.127 284.38C660.686 283.488 653.134 284.027 645.903 285.964V285.964Z" fill="white"/>
<path d="M497.367 802.693C496.729 802.864 496.253 803.506 496.043 804.478C495.832 805.449 495.906 806.671 496.247 807.874C496.588 809.076 497.168 810.162 497.86 810.892C498.553 811.622 499.3 811.936 499.938 811.765L640.015 774.231C640.653 774.06 641.13 773.418 641.34 772.447C641.55 771.475 641.477 770.254 641.136 769.051C640.795 767.848 640.214 766.762 639.522 766.032C638.83 765.303 638.083 764.989 637.445 765.16L497.367 802.693Z" fill="#CCCCCC"/>
<path d="M507.594 838.779C506.956 838.95 506.479 839.592 506.269 840.564C506.059 841.535 506.132 842.757 506.473 843.959C506.814 845.162 507.395 846.248 508.087 846.978C508.779 847.708 509.526 848.021 510.164 847.851L650.242 810.317C650.88 810.146 651.356 809.504 651.567 808.533C651.777 807.561 651.703 806.34 651.362 805.137C651.021 803.934 650.441 802.848 649.749 802.118C649.057 801.389 648.309 801.075 647.671 801.246L507.594 838.779Z" fill="#CCCCCC"/>
<path d="M520.095 874.256C518.854 874.588 517.799 875.385 517.162 876.471C516.525 877.557 516.359 878.842 516.7 880.045C517.041 881.248 517.861 882.27 518.98 882.885C520.099 883.501 521.424 883.66 522.666 883.327L795.206 810.3C796.447 809.967 797.502 809.171 798.139 808.085C798.776 806.999 798.942 805.713 798.601 804.51C798.26 803.307 797.44 802.286 796.321 801.67C795.202 801.055 793.876 800.896 792.635 801.229L520.095 874.256Z" fill="#CCCCCC"/>
<path d="M530.322 910.341C529.707 910.506 529.132 910.786 528.628 911.166C528.125 911.546 527.704 912.019 527.389 912.556C527.073 913.094 526.87 913.686 526.791 914.3C526.712 914.913 526.758 915.535 526.927 916.131C527.095 916.727 527.384 917.284 527.775 917.771C528.166 918.258 528.652 918.666 529.206 918.971C529.76 919.275 530.371 919.471 531.003 919.547C531.636 919.623 532.278 919.577 532.892 919.412L805.432 846.386C806.674 846.053 807.729 845.256 808.366 844.17C809.002 843.084 809.168 841.799 808.828 840.596C808.487 839.393 807.667 838.371 806.548 837.756C805.429 837.14 804.103 836.982 802.862 837.314L530.322 910.341Z" fill="#CCCCCC"/>
<path d="M405.877 499.61C408.544 498.895 410.127 496.153 409.412 493.486C408.698 490.819 405.956 489.236 403.289 489.951C400.621 490.665 399.038 493.407 399.753 496.074C400.468 498.742 403.209 500.325 405.877 499.61Z" fill="#3F3D56"/>
<path d="M422.561 495.139C425.228 494.424 426.811 491.683 426.096 489.015C425.382 486.348 422.64 484.765 419.973 485.48C417.305 486.195 415.722 488.936 416.437 491.604C417.152 494.271 419.894 495.854 422.561 495.139Z" fill="#3F3D56"/>
<path d="M439.245 490.669C441.912 489.954 443.495 487.212 442.781 484.545C442.066 481.878 439.324 480.295 436.657 481.01C433.989 481.724 432.407 484.466 433.121 487.133C433.836 489.801 436.578 491.384 439.245 490.669Z" fill="#3F3D56"/>
<path d="M616.15 457.761L404.671 514.427L438.645 641.222L650.124 584.556L616.15 457.761Z" fill="#E4CEFF"/>
<path d="M708.938 432.899L636.493 452.31L650.987 506.402L723.431 486.99L708.938 432.899Z" fill="#E4CEFF"/>
<path d="M728.349 505.343L655.904 524.754L670.398 578.846L742.843 559.435L728.349 505.343Z" fill="#E4CEFF"/>
<path d="M532.362 553.32C541.078 550.985 546.25 542.026 543.915 533.31C541.579 524.595 532.621 519.422 523.905 521.758C515.189 524.093 510.017 533.052 512.353 541.767C514.688 550.483 523.647 555.655 532.362 553.32Z" fill="#9E616A"/>
<path d="M574.649 604.779L535.079 615.382L523.892 564.75L524.089 564.389L526.906 559.19L539.401 555.842L545.24 559.089L545.701 559.347L558.101 566.157L574.649 604.779Z" fill="#CBCBCB"/>
<path d="M546.032 612.448L515.958 620.506C510.628 601.41 506.599 587.005 506.599 587.005L507.885 585.659L507.894 585.652L522.017 570.892L524.016 564.191L524.089 564.39L528.379 576.235C528.379 576.235 538.937 593.002 546.032 612.448Z" fill="#2F2E41"/>
<path d="M586.954 601.482L560.193 608.653C557.024 602.548 554.624 596.57 553.568 591.333C549.244 569.939 543.086 559.081 544.4 558.729L545.241 559.089L555.243 563.397L567.181 564.469L575.465 565.215L576.909 565.344L577.078 565.978C577.936 569.16 581.93 583.937 586.954 601.482Z" fill="#2F2E41"/>
<path d="M514.527 546.477C514.527 546.477 515.237 543.763 512.817 535.98C510.398 528.197 523.568 529.437 533.377 526.004C543.185 522.572 544.786 537.023 544.786 537.023C544.786 537.023 545.287 536.004 545.038 528.889C544.788 521.775 539.489 516.038 539.489 516.038C536.568 509.274 531.601 513.024 531.601 513.024C534.564 513.349 534.648 515.721 534.648 515.721C531.309 512.347 526.342 516.097 526.342 516.097C517.662 513.425 511.776 521.583 511.776 521.583C503.345 526.026 510.523 531.754 510.523 531.754C502.717 538.736 514.527 546.477 514.527 546.477Z" fill="#2F2E41"/>
<path d="M507.244 622.841C503.897 607.276 501.256 595.068 500.775 594.2C499.434 591.787 507.635 585.835 507.886 585.659L507.889 585.653L507.894 585.652L509.89 586.124L520.169 619.377L507.244 622.841Z" fill="#2F2E41"/>
<path d="M593.247 599.796L579.666 603.436L565.49 566.082L566.778 564.483C566.778 564.483 566.926 564.478 567.181 564.469C568.509 564.445 572.807 564.419 575.465 565.215C576.047 565.365 576.594 565.624 577.078 565.978C577.372 566.184 577.575 566.496 577.644 566.848C577.82 567.967 584.9 582.546 593.247 599.796Z" fill="#2F2E41"/>
<path d="M620.266 609.172L476.812 647.61C476.26 647.759 475.791 648.121 475.505 648.616C475.22 649.11 475.143 649.698 475.291 650.25C475.439 650.802 475.799 651.272 476.294 651.558C476.788 651.844 477.376 651.922 477.928 651.775L621.382 613.337C621.656 613.264 621.913 613.138 622.138 612.965C622.363 612.793 622.552 612.578 622.693 612.333C622.835 612.088 622.928 611.817 622.965 611.536C623.002 611.255 622.983 610.969 622.91 610.696C622.836 610.422 622.71 610.165 622.537 609.94C622.365 609.716 622.149 609.527 621.904 609.386C621.658 609.244 621.387 609.152 621.106 609.116C620.825 609.079 620.54 609.098 620.266 609.172V609.172Z" fill="#CACACA"/>
<path d="M581.395 619.588L582.51 623.752L477.928 651.775C477.376 651.922 476.788 651.844 476.294 651.558C475.799 651.272 475.439 650.802 475.291 650.25C475.143 649.698 475.22 649.11 475.505 648.616C475.791 648.121 476.26 647.759 476.812 647.61L581.395 619.588Z" fill="#3F3D56"/>
<path d="M583.068 625.835C585.368 625.218 586.733 622.854 586.117 620.554C585.501 618.254 583.136 616.889 580.836 617.505C578.536 618.121 577.171 620.486 577.787 622.786C578.404 625.086 580.768 626.451 583.068 625.835Z" fill="#3F3D56"/>
<path d="M558.396 665.18C556.696 665.636 554.899 665.577 553.232 665.011C551.565 664.445 550.103 663.398 549.031 662.001C547.96 660.605 547.326 658.922 547.211 657.165C547.096 655.409 547.505 653.657 548.385 652.133C549.265 650.608 550.577 649.379 552.156 648.601C553.735 647.822 555.509 647.529 557.254 647.759C559 647.989 560.638 648.731 561.961 649.891C563.285 651.052 564.234 652.579 564.69 654.28C565.298 656.56 564.977 658.988 563.797 661.031C562.617 663.075 560.675 664.567 558.396 665.18V665.18ZM553.966 648.647C552.397 649.068 550.987 649.944 549.916 651.166C548.844 652.388 548.159 653.9 547.947 655.511C547.735 657.122 548.005 658.76 548.724 660.217C549.443 661.674 550.578 662.886 551.985 663.698C553.392 664.511 555.009 664.888 556.63 664.781C558.251 664.675 559.805 664.09 561.094 663.101C562.383 662.112 563.35 660.763 563.873 659.224C564.395 657.685 564.449 656.026 564.029 654.457C563.462 652.353 562.085 650.561 560.199 649.471C558.312 648.382 556.071 648.086 553.966 648.647L553.966 648.647Z" fill="#CBCBCB"/>
<path d="M556.198 661.516C556.11 661.54 556.016 661.528 555.938 661.482C555.859 661.437 555.802 661.362 555.778 661.274L553.475 652.677C553.463 652.634 553.459 652.588 553.465 652.543C553.47 652.498 553.485 652.455 553.507 652.416C553.53 652.376 553.56 652.342 553.595 652.314C553.631 652.287 553.672 652.266 553.716 652.255C553.76 652.243 553.805 652.24 553.85 652.246C553.895 652.252 553.938 652.267 553.977 652.29C554.016 652.313 554.05 652.343 554.078 652.379C554.105 652.415 554.125 652.456 554.136 652.5L556.44 661.097C556.463 661.185 556.451 661.278 556.406 661.357C556.36 661.436 556.285 661.493 556.198 661.516V661.516Z" fill="#CBCBCB"/>
<path d="M558.469 660.908C558.381 660.931 558.287 660.919 558.209 660.874C558.13 660.828 558.073 660.753 558.049 660.666L555.746 652.069C555.734 652.025 555.73 651.979 555.736 651.935C555.741 651.89 555.756 651.846 555.778 651.807C555.801 651.768 555.831 651.733 555.867 651.706C555.902 651.678 555.943 651.658 555.987 651.646C556.031 651.635 556.076 651.632 556.121 651.638C556.166 651.644 556.209 651.658 556.248 651.681C556.287 651.704 556.321 651.734 556.349 651.77C556.376 651.806 556.396 651.848 556.407 651.891L558.711 660.489C558.734 660.576 558.722 660.67 558.676 660.748C558.631 660.827 558.556 660.884 558.469 660.908V660.908Z" fill="#CBCBCB"/>
<path d="M516.716 667.134C516.26 665.433 516.319 663.636 516.885 661.969C517.451 660.302 518.498 658.841 519.895 657.769C521.291 656.697 522.974 656.064 524.731 655.949C526.487 655.834 528.239 656.242 529.763 657.122C531.288 658.002 532.517 659.315 533.296 660.894C534.074 662.472 534.367 664.247 534.137 665.992C533.907 667.737 533.165 669.375 532.005 670.699C530.844 672.022 529.317 672.972 527.617 673.427C525.337 674.036 522.908 673.715 520.865 672.535C518.821 671.355 517.329 669.412 516.716 667.134V667.134ZM517.377 666.957C517.798 668.526 518.674 669.936 519.896 671.007C521.118 672.079 522.63 672.764 524.241 672.976C525.852 673.188 527.489 672.917 528.947 672.199C530.404 671.48 531.616 670.345 532.428 668.938C533.241 667.531 533.617 665.914 533.511 664.293C533.405 662.671 532.82 661.118 531.831 659.829C530.842 658.54 529.493 657.573 527.954 657.05C526.415 656.528 524.756 656.474 523.187 656.894C521.083 657.461 519.29 658.838 518.201 660.724C517.112 662.611 516.816 664.852 517.377 666.957L517.377 666.957Z" fill="#3F3D56"/>
<path d="M529.802 666.73C529.862 666.714 529.916 666.678 529.954 666.629C529.992 666.579 530.013 666.518 530.013 666.455C530.013 666.393 529.992 666.332 529.954 666.282C529.916 666.232 529.862 666.196 529.802 666.18L525.039 664.904L528.526 661.417C528.579 661.364 528.609 661.292 528.609 661.216C528.609 661.141 528.579 661.068 528.526 661.015C528.472 660.961 528.4 660.931 528.324 660.931C528.249 660.931 528.176 660.961 528.123 661.015L524.288 664.85C524.252 664.885 524.227 664.929 524.214 664.978C524.201 665.026 524.201 665.077 524.214 665.125C524.227 665.173 524.252 665.217 524.288 665.253C524.323 665.288 524.367 665.313 524.415 665.326L529.654 666.73C529.703 666.743 529.753 666.743 529.802 666.73V666.73Z" fill="#3F3D56"/>
<path d="M523.974 669.315C524.047 669.296 524.109 669.248 524.147 669.183C524.184 669.117 524.195 669.039 524.175 668.967L522.259 661.817C522.24 661.744 522.192 661.682 522.127 661.644C522.061 661.606 521.984 661.596 521.911 661.616C521.838 661.635 521.776 661.683 521.738 661.748C521.7 661.814 521.69 661.892 521.709 661.964L523.625 669.114C523.645 669.187 523.692 669.249 523.758 669.287C523.823 669.325 523.901 669.335 523.974 669.315V669.315Z" fill="#3F3D56"/>
<path d="M589.177 656.933C587.476 657.388 585.679 657.33 584.012 656.764C582.345 656.198 580.883 655.15 579.812 653.754C578.74 652.357 578.107 650.674 577.992 648.918C577.876 647.161 578.285 645.41 579.165 643.885C580.045 642.361 581.358 641.132 582.936 640.353C584.515 639.574 586.289 639.281 588.035 639.511C589.78 639.741 591.418 640.483 592.741 641.644C594.065 642.805 595.015 644.332 595.47 646.032C596.078 648.312 595.757 650.74 594.577 652.784C593.398 654.827 591.455 656.319 589.177 656.933V656.933ZM584.747 640.4C583.177 640.82 581.767 641.697 580.696 642.919C579.625 644.14 578.94 645.652 578.727 647.263C578.515 648.874 578.786 650.512 579.504 651.969C580.223 653.427 581.358 654.638 582.765 655.451C584.172 656.263 585.789 656.64 587.41 656.534C589.032 656.428 590.585 655.843 591.874 654.854C593.164 653.864 594.13 652.515 594.653 650.976C595.175 649.438 595.229 647.779 594.809 646.209C594.243 644.106 592.865 642.313 590.979 641.224C589.093 640.135 586.851 639.838 584.747 640.4L584.747 640.4Z" fill="#3F3D56"/>
<path d="M583.935 652.225C583.875 652.241 583.81 652.237 583.752 652.213C583.695 652.189 583.646 652.147 583.615 652.093C583.583 652.038 583.571 651.975 583.579 651.913C583.587 651.851 583.616 651.793 583.66 651.749L587.147 648.262L582.384 646.986C582.311 646.966 582.249 646.919 582.212 646.853C582.174 646.788 582.164 646.711 582.183 646.638C582.203 646.565 582.25 646.503 582.316 646.465C582.381 646.427 582.458 646.417 582.531 646.436L587.77 647.84C587.818 647.853 587.862 647.878 587.898 647.914C587.933 647.949 587.959 647.993 587.971 648.041C587.984 648.09 587.984 648.14 587.971 648.189C587.959 648.237 587.933 648.281 587.898 648.316L584.063 652.152C584.027 652.187 583.983 652.212 583.935 652.225V652.225Z" fill="#3F3D56"/>
<path d="M590.275 651.55C590.202 651.57 590.124 651.559 590.059 651.522C589.993 651.484 589.945 651.422 589.926 651.349L588.01 644.199C587.991 644.126 588.001 644.049 588.039 643.983C588.076 643.918 588.139 643.87 588.212 643.851C588.284 643.831 588.362 643.841 588.428 643.879C588.493 643.917 588.541 643.979 588.56 644.052L590.476 651.201C590.495 651.274 590.485 651.352 590.447 651.417C590.41 651.483 590.347 651.531 590.275 651.55V651.55Z" fill="#3F3D56"/>
<path d="M533.796 706.553L461.352 725.965L472.999 769.432L545.443 750.02L533.796 706.553Z" fill="#E4CEFF"/>
<path d="M611.071 685.848L538.626 705.259L550.273 748.726L622.718 729.315L611.071 685.848Z" fill="#E4CEFF"/>
<path d="M688.345 665.142L615.9 684.554L627.547 728.02L699.992 708.609L688.345 665.142Z" fill="#E4CEFF"/>
<path d="M765.619 644.437L693.174 663.848L704.821 707.315L777.266 687.903L765.619 644.437Z" fill="#E4CEFF"/>
<path opacity="0.1" d="M1020.3 788.259H1019C1020.03 787.119 1020.59 785.635 1020.58 784.099V784.099C1020.64 782.569 1020.09 781.078 1019.05 779.953C1018.01 778.828 1016.57 778.162 1015.04 778.099H976.198C974.669 778.164 973.228 778.832 972.19 779.956C971.152 781.08 970.602 782.57 970.658 784.099V784.099C970.602 785.628 971.152 787.118 972.19 788.242C973.228 789.366 974.669 790.034 976.198 790.099H977.498C976.473 791.241 975.91 792.724 975.918 794.259C975.89 795.556 976.29 796.826 977.057 797.873C977.823 798.92 978.913 799.684 980.158 800.049H968.978C967.498 800.198 966.126 800.891 965.128 801.994C964.13 803.097 963.578 804.532 963.578 806.019C963.578 807.507 964.13 808.941 965.128 810.044C966.126 811.147 967.498 811.841 968.978 811.989H1007.82C1009.35 811.924 1010.79 811.256 1011.83 810.132C1012.86 809.008 1013.42 807.518 1013.36 805.989C1013.38 804.693 1012.98 803.423 1012.22 802.377C1011.45 801.331 1010.36 800.565 1009.12 800.199H1020.3C1021.78 800.051 1023.15 799.357 1024.15 798.254C1025.15 797.151 1025.7 795.717 1025.7 794.229C1025.7 792.742 1025.15 791.307 1024.15 790.204C1023.15 789.101 1021.78 788.408 1020.3 788.259V788.259Z" fill="#6C63FF"/>
<path opacity="0.1" d="M689.429 783.129C688.614 783.013 687.785 783.077 686.999 783.319L688.789 776.099L690.979 776.639C690.732 778.858 690.212 781.038 689.429 783.129V783.129Z" fill="black"/>
<path d="M842.488 957.289L798.898 1010.22C798.898 1010.22 796.978 1007.99 793.738 1004.17C775.638 982.939 716.078 912.629 716.078 906.669C716.078 899.669 685.568 870.109 685.568 870.109C685.568 870.109 658.168 847.109 673.108 775.429C688.048 703.749 723.548 843.949 722.308 853.289C721.068 862.629 742.228 887.539 742.228 887.539C742.228 887.539 769.008 900.619 782.708 914.939C792.348 925.019 818.018 941.879 832.378 950.939C838.438 954.819 842.488 957.289 842.488 957.289Z" fill="#FDC2CC"/>
<path opacity="0.1" d="M842.489 957.289L798.899 1010.22C798.899 1010.22 796.979 1007.99 793.739 1004.17C794.439 989.349 825.739 956.649 831.279 951.679C831.605 951.387 831.976 951.151 832.379 950.979C838.439 954.819 842.489 957.289 842.489 957.289Z" fill="black"/>
<path d="M861.169 966.009C861.169 966.009 841.239 947.329 835.019 952.939C828.799 958.549 789.559 999.639 798.899 1010.23C808.239 1020.82 864.279 1065.01 864.279 1065.01L861.169 966.009Z" fill="#5F5D7E"/>
<path opacity="0.1" d="M861.169 966.009C861.169 966.009 841.239 947.329 835.019 952.939C828.799 958.549 789.559 999.639 798.899 1010.23C808.239 1020.82 864.279 1065.01 864.279 1065.01L861.169 966.009Z" fill="black"/>
<path d="M1036.15 817.179C1036.15 817.179 1016.7 835.949 992.339 856.309L991.419 857.069L989.999 858.249C951.139 890.389 901.059 925.069 895.899 895.389C895.321 891.515 895.297 887.579 895.829 883.699C895.889 883.129 895.969 882.539 896.049 881.939C896.129 881.339 896.209 880.779 896.269 880.209C897.238 872.729 897.776 865.2 897.879 857.659C897.879 856.389 897.879 855.129 897.879 853.879C897.622 826.272 892.195 798.957 881.879 773.349C881.279 771.829 880.669 770.349 880.079 768.939C872.079 749.859 864.249 738.719 864.249 738.719C864.249 738.719 875.819 731.719 891.859 722.719C897.749 719.439 904.229 715.909 910.969 712.369C947.969 692.969 992.459 673.569 986.299 696.369C983.389 707.159 986.089 721.479 991.449 736.469C991.749 737.299 992.049 738.109 992.359 738.929C995.834 747.987 999.841 756.833 1004.36 765.419L1004.66 765.999C1011.09 778.319 1018.02 789.829 1023.76 798.779C1025.14 800.939 1026.45 802.959 1027.67 804.779C1032.7 812.479 1036.15 817.179 1036.15 817.179Z" fill="#FDC2CC"/>
<path opacity="0.1" d="M992.389 738.929C992.099 739.359 991.789 739.789 991.479 740.209C982.139 752.909 971.329 760.469 958.479 764.729C949.619 767.679 939.759 769.069 928.709 769.509C925.959 769.609 923.149 769.659 920.249 769.659C913.565 769.671 906.887 769.287 900.249 768.509C896.759 767.959 893.109 770.309 889.579 772.029C886.949 773.299 884.379 774.229 881.979 773.349C881.379 771.829 880.769 770.349 880.179 768.939C872.179 749.859 864.349 738.719 864.349 738.719C864.349 738.719 875.919 731.719 891.959 722.719C897.849 719.439 904.329 715.909 911.069 712.369C948.069 692.969 992.559 673.569 986.399 696.369C983.489 707.159 986.189 721.479 991.549 736.469C991.779 737.299 992.079 738.109 992.389 738.929Z" fill="black"/>
<path d="M1010 680.009C1010 681.469 1010 682.909 1009.9 684.349C1008.94 705.522 1000.96 725.774 987.211 741.905C973.463 758.036 954.733 769.128 933.979 773.429C922.626 775.765 910.944 776.026 899.498 774.199C896.128 773.673 892.789 772.958 889.498 772.059C886.313 771.195 883.175 770.164 880.099 768.969V768.969C867.369 764.02 855.849 756.398 846.318 746.616C836.786 736.834 829.464 725.121 824.847 712.268C820.23 699.414 818.425 685.719 819.553 672.108C820.681 658.497 824.717 645.287 831.388 633.369L832.229 631.899C842.801 613.805 859.038 599.695 878.43 591.75C897.822 583.804 919.291 582.466 939.52 587.94C959.749 593.415 977.613 605.398 990.351 622.039C1003.09 638.68 1009.99 659.052 1010 680.009V680.009Z" fill="#FDC2CC"/>
<path opacity="0.1" d="M1036.15 817.179C1036.15 817.179 884.829 963.509 896.039 881.939C897.31 872.64 897.931 863.264 897.899 853.879C903.15 847.387 908.727 841.166 914.609 835.239L935.869 819.869C957.79 803.869 984.519 795.839 1011.63 797.109C1015.72 797.213 1019.78 797.773 1023.75 798.779C1030.88 809.949 1036.15 817.179 1036.15 817.179Z" fill="black"/>
<path d="M1143.4 1068.4C1137.86 1070.05 1132.19 1071.48 1126.47 1072.73C1123.65 1073.36 1120.81 1073.94 1117.97 1074.48C1113.14 1075.41 1108.29 1076.24 1103.47 1077C1079.33 1080.79 1054.97 1083.25 1030.47 1085L1026.47 1085.27L1024.01 1085.43C1020.27 1085.68 1016.53 1085.9 1012.8 1086.11C997.849 1086.95 982.879 1087.56 967.909 1088.11C956.909 1088.49 946.019 1088.81 935.079 1089.11L912.829 1089.76L907.079 1089.93L904.559 1090C897.972 1090.2 891.379 1090.39 884.779 1090.57L877.119 1090.79L862.889 1091.18L859.889 1091.26C859.089 1084.2 857.619 1071.37 856.059 1058.56L855.699 1055.56C853.979 1041.43 852.199 1027.86 851.169 1022.72C848.679 1010.27 851.169 958.579 851.169 958.579L851.439 958.149L852.619 956.149C858.509 946.319 880.349 908.699 879.809 892.529C879.489 882.879 888.809 868.919 897.809 857.669C898.989 856.209 900.159 854.789 901.309 853.439C908.479 845.009 914.619 839.009 914.619 839.009L935.869 823.629C957.801 807.645 984.53 799.623 1011.64 800.889C1019.64 801.299 1026.02 802.419 1027.64 804.829C1028.33 805.219 1043.83 814.119 1060.83 833.979C1069.11 843.648 1076.31 854.19 1082.31 865.419C1082.49 865.739 1082.67 866.069 1082.84 866.419C1082.84 866.419 1121.45 930.559 1126.43 969.169C1131.41 1007.78 1138.89 1039.53 1138.89 1039.53C1138.89 1039.53 1141.02 1051.72 1143.4 1068.4Z" fill="#5F5D7E"/>
<path opacity="0.1" d="M1028.06 1038.86C1024.99 1043.86 1027.36 1067.27 1030.51 1084.96L1026.51 1085.23L1024.05 1085.39C1020.31 1085.64 1016.57 1085.86 1012.84 1086.07C997.889 1086.91 982.919 1087.52 967.949 1088.07C956.949 1088.45 946.059 1088.77 935.119 1089.07L912.869 1089.72C912.869 1087.44 912.169 1085.47 910.359 1084.32C909.095 1083.41 907.976 1082.31 907.039 1081.07C906.749 1080.72 906.449 1080.34 906.149 1079.95C899.219 1070.75 890.439 1051.95 890.439 1051.95C890.439 1051.95 879.229 1054.44 877.979 962.949C877.579 933.129 885.299 911.309 895.889 895.439C917.829 862.579 952.079 855.219 952.079 855.219C964.769 853.011 977.813 854.075 989.979 858.309C994.751 859.983 999.346 862.123 1003.7 864.699C1009.53 868.209 1014.98 872.336 1019.93 877.009L1021.53 878.539C1056.45 912.539 1064.7 965.629 1043.13 1009.36C1036.22 1023.33 1029.99 1035.72 1028.06 1038.86Z" fill="black"/>
<path d="M1023.08 1033.88C1019.7 1039.38 1022.92 1067.31 1026.52 1085.23L1024.06 1085.39C1020.32 1085.64 1016.58 1085.86 1012.85 1086.07C997.899 1086.91 982.929 1087.52 967.959 1088.07C956.959 1088.45 946.069 1088.77 935.129 1089.07L912.879 1089.72L907.129 1089.89C908.009 1086.66 908.339 1083.33 907.049 1081.07C906.809 1080.65 906.509 1080.28 906.159 1079.95C905.929 1079.71 905.67 1079.51 905.389 1079.34C898.539 1074.98 885.459 1046.95 885.459 1046.95C885.459 1046.95 874.259 1049.45 873.009 957.949C872.549 923.689 882.809 899.949 895.829 883.729C917.609 856.559 947.109 850.219 947.109 850.219C950.971 849.578 954.874 849.217 958.789 849.139H958.909C970.459 848.884 981.908 851.35 992.329 856.339C1001.29 860.712 1009.47 866.53 1016.54 873.559C1017.7 874.689 1018.84 875.839 1019.93 877.009C1051.93 911.099 1059.01 962.109 1038.15 1004.38C1031.24 1018.35 1025.01 1030.74 1023.08 1033.88Z" fill="#5F5D7E"/>
<path opacity="0.1" d="M946.048 972.399C946.048 972.399 884.599 1016.01 889.839 1022.01C895.079 1028.01 946.048 972.399 946.048 972.399Z" fill="black"/>
<path opacity="0.1" d="M1032.28 988.109C1032.28 988.109 1013.08 971.009 1014.47 977.639C1015.86 984.269 1032.28 988.109 1032.28 988.109Z" fill="black"/>
<path opacity="0.1" d="M1012.85 1086.07C997.899 1086.91 982.929 1087.52 967.959 1088.07C942.329 1085.07 915.679 1080.66 915.679 1080.66C917.989 1079.31 999.759 1077.68 1012.85 1086.07Z" fill="black"/>
<path opacity="0.1" d="M884.828 1090.53L877.168 1090.75C871.068 1074.09 865.828 1054.33 863.688 1045.94C863.028 1043.35 862.688 1041.84 862.688 1041.84L863.638 1043.84C866.788 1050.41 877.228 1072.33 884.828 1090.53Z" fill="black"/>
<path opacity="0.1" d="M1003.7 714.079C1000.65 722.06 996.529 729.592 991.459 736.469C991.759 737.299 992.059 738.109 992.369 738.929C995.844 747.988 999.851 756.833 1004.37 765.419L1004.67 765.999C1005.19 769.999 1005.91 773.999 1006.74 777.899C991.539 778.699 976.322 779.049 961.089 778.949C954.469 778.949 947.749 778.759 941.439 776.779C938.832 775.956 936.334 774.821 933.999 773.399C932.121 772.261 930.348 770.959 928.699 769.509C920.475 762.078 915.283 751.872 914.119 740.849C913.209 732.259 914.509 723.359 912.019 715.089C911.732 714.169 911.398 713.265 911.019 712.379C908.982 707.669 905.767 703.562 901.682 700.455C897.598 697.347 892.782 695.345 887.699 694.639C886.228 694.319 884.691 694.527 883.359 695.229C882.222 696.175 881.403 697.445 881.009 698.869L870.699 725.759C863.359 727.599 858.179 718.009 858.789 710.469C859.399 702.929 862.789 695.209 860.279 688.069C859.509 685.859 858.199 683.849 857.639 681.589C855.409 672.679 864.989 664.769 865.069 655.589C865.129 648.039 858.669 641.939 851.809 638.799C845.519 635.919 838.569 634.679 832.269 631.869C842.851 613.792 859.089 599.701 878.476 591.769C897.863 583.838 919.322 582.508 939.54 587.984C959.758 593.46 977.612 605.439 990.346 622.07C1003.08 638.702 1009.99 659.063 1010 680.009C1010 681.469 1010 682.909 1009.9 684.349C1009.44 694.528 1007.35 704.567 1003.7 714.079V714.079Z" fill="black"/>
<path d="M909.289 555.399C902.919 554.759 895.918 554.599 890.758 558.399C885.338 562.399 883.538 569.559 879.938 575.249C873.068 586.129 860.108 591.099 849.168 597.869C838.228 604.639 827.869 616.729 831.529 629.069C838.269 632.469 845.919 633.659 852.779 636.799C859.639 639.939 866.099 646.039 866.039 653.589C865.959 662.769 856.378 670.679 858.608 679.589C859.168 681.849 860.478 683.859 861.248 686.069C863.738 693.209 860.368 700.929 859.758 708.469C859.148 716.009 864.328 725.599 871.668 723.759L882.048 696.869C882.442 695.445 883.262 694.174 884.399 693.229C885.73 692.527 887.267 692.318 888.738 692.639C894.295 693.417 899.52 695.749 903.808 699.368C908.097 702.986 911.276 707.742 912.979 713.089C915.469 721.359 914.168 730.259 915.078 738.849C916.748 754.689 927.218 770.009 942.418 774.779C948.728 776.779 955.418 776.909 962.068 776.949C977.288 777.062 992.505 776.712 1007.72 775.899C1003.97 758.259 1002.44 738.769 1011.53 723.209C1015.42 716.549 1021.03 711.059 1025.31 704.639C1032.31 694.179 1035.49 681.689 1038.06 669.379C1040.06 660.049 1041.69 650.509 1040.81 641.019C1039.34 625.109 1030.89 610.809 1022.65 597.129C1018.31 589.919 1013.75 582.479 1006.76 577.819C992.218 568.139 974.398 574.209 958.858 568.649C942.348 562.759 927.259 557.219 909.289 555.399Z" fill="#865A61"/>
<rect x="181" y="962.457" width="477" height="205" rx="16" transform="rotate(-15 181 962.457)" fill="#03053D"/>
<path d="M248.578 1007.87C247.625 1008.13 246.793 1008.12 246.083 1007.84C245.367 1007.53 244.713 1006.95 244.123 1006.09L230.967 987.125C230.219 986.083 230.021 985.087 230.374 984.137C230.719 983.16 231.601 982.483 233.017 982.103C233.996 981.841 234.805 981.872 235.445 982.198C236.103 982.491 236.714 983.073 237.279 983.943L246.081 997.32L247.402 981.23C247.507 980.181 247.758 979.368 248.156 978.792C248.573 978.183 249.219 977.762 250.095 977.527C250.945 977.299 251.69 977.348 252.329 977.674C252.962 977.974 253.576 978.568 254.173 979.457L263.203 993.064L264.325 976.696C264.378 975.66 264.604 974.854 265.002 974.278C265.419 973.67 266.104 973.238 267.057 972.982C268.241 972.665 269.215 972.846 269.977 973.525C270.731 974.178 271.058 975.14 270.957 976.41L268.977 999.468C268.891 1000.48 268.613 1001.3 268.145 1001.93C267.696 1002.52 266.995 1002.94 266.041 1003.19C265.088 1003.45 264.257 1003.44 263.547 1003.16C262.831 1002.85 262.177 1002.27 261.587 1001.41L252.865 988.794L251.552 1004.14C251.44 1005.16 251.162 1005.98 250.72 1006.6C250.27 1007.19 249.556 1007.61 248.578 1007.87ZM280.28 999.379C279.07 999.704 278.07 999.53 277.283 998.857C276.495 998.185 276.219 997.154 276.455 995.766L280.526 972.479C280.721 971.35 281.091 970.464 281.636 969.821C282.182 969.178 282.905 968.736 283.807 968.494C284.682 968.259 285.517 968.284 286.311 968.568C287.105 968.853 287.869 969.435 288.601 970.315L303.771 988.447C304.702 989.55 305.007 990.586 304.687 991.556C304.36 992.499 303.617 993.126 302.458 993.437C301.427 993.713 300.567 993.695 299.876 993.383C299.211 993.064 298.521 992.449 297.807 991.536L295.784 988.93L283.613 992.192L283.164 995.459C282.976 996.614 282.7 997.488 282.335 998.083C281.97 998.678 281.285 999.11 280.28 999.379ZM285.81 976.281L284.472 986.123L291.967 984.114L285.888 976.26L285.81 976.281ZM315.386 989.973C314.252 990.276 313.294 990.202 312.51 989.749C311.726 989.297 311.179 988.491 310.868 987.332L305.992 969.134L299.926 970.759C297.968 971.284 296.731 970.58 296.213 968.648C295.695 966.716 296.415 965.488 298.373 964.964L317.614 959.808C319.572 959.283 320.809 959.987 321.327 961.919C321.845 963.851 321.125 965.079 319.167 965.604L313.101 967.229L317.977 985.427C318.288 986.586 318.217 987.558 317.764 988.341C317.338 989.118 316.545 989.662 315.386 989.973ZM342.473 982.797C339.459 983.605 336.715 983.719 334.241 983.14C331.767 982.56 329.667 981.37 327.942 979.568C326.243 977.76 325.014 975.439 324.254 972.605C323.495 969.772 323.403 967.16 323.977 964.77C324.57 962.348 325.793 960.267 327.646 958.528C329.499 956.789 331.933 955.516 334.947 954.708C336.131 954.391 337.393 954.205 338.731 954.15C340.088 954.062 341.328 954.158 342.452 954.437C343.277 954.63 343.91 954.984 344.352 955.501C344.794 956.017 345.059 956.595 345.148 957.234C345.236 957.873 345.153 958.489 344.898 959.082C344.668 959.668 344.294 960.127 343.776 960.459C343.25 960.765 342.608 960.841 341.849 960.686C340.129 960.346 338.47 960.39 336.873 960.818C334.478 961.46 332.858 962.625 332.013 964.315C331.161 965.979 331.074 968.073 331.75 970.597C332.433 973.147 333.563 974.943 335.139 975.983C336.709 976.998 338.691 977.185 341.087 976.543C341.757 976.364 342.457 976.093 343.189 975.731C343.913 975.344 344.6 974.87 345.251 974.309C345.934 973.767 346.592 973.494 347.226 973.49C347.886 973.479 348.471 973.654 348.981 974.014C349.492 974.374 349.869 974.853 350.112 975.45C350.373 976.015 350.455 976.628 350.356 977.289C350.257 977.951 349.908 978.555 349.309 979.102C348.553 979.885 347.546 980.61 346.29 981.278C345.059 981.939 343.787 982.445 342.473 982.797ZM358.853 978.326C357.719 978.629 356.761 978.555 355.977 978.102C355.193 977.65 354.642 976.831 354.325 975.646L348.786 954.975C348.469 953.791 348.536 952.806 348.989 952.022C349.441 951.239 350.234 950.695 351.368 950.391C352.501 950.087 353.46 950.162 354.244 950.614C355.027 951.067 355.578 951.886 355.895 953.071L357.831 960.296L369.075 957.283L367.139 950.058C366.821 948.873 366.889 947.889 367.341 947.105C367.794 946.321 368.587 945.777 369.72 945.474C370.854 945.17 371.799 945.248 372.557 945.707C373.341 946.16 373.892 946.978 374.209 948.163L379.748 968.834C380.066 970.019 379.998 971.003 379.546 971.787C379.119 972.564 378.339 973.104 377.205 973.408C376.046 973.719 375.075 973.648 374.291 973.195C373.533 972.736 372.995 971.914 372.678 970.729L370.638 963.117L359.395 966.13L361.434 973.741C361.752 974.926 361.684 975.911 361.232 976.694C360.805 977.471 360.012 978.015 358.853 978.326ZM409.885 964.735C407.129 965.473 404.552 965.542 402.155 964.942C399.777 964.309 397.725 963.092 396 961.291C394.275 959.489 393.036 957.185 392.284 954.377C391.525 951.544 391.433 948.932 392.007 946.542C392.6 944.119 393.784 942.049 395.56 940.33C397.336 938.612 399.602 937.384 402.358 936.645C405.114 935.907 407.678 935.841 410.049 936.448C412.446 937.048 414.507 938.249 416.232 940.051C417.95 941.826 419.189 944.131 419.948 946.964C420.701 949.772 420.78 952.387 420.187 954.81C419.594 957.233 418.413 959.316 416.644 961.06C414.894 962.771 412.641 963.996 409.885 964.735ZM408.29 958.784C410.299 958.246 411.681 957.117 412.435 955.396C413.207 953.643 413.252 951.492 412.569 948.942C411.885 946.392 410.787 944.56 409.274 943.447C407.761 942.334 405.987 942.05 403.952 942.596C401.918 943.141 400.523 944.274 399.77 945.994C399.016 947.714 398.981 949.85 399.664 952.4C400.347 954.95 401.449 956.794 402.969 957.933C404.481 959.046 406.255 959.33 408.29 958.784ZM439.969 956.673C436.002 957.736 432.694 957.546 430.043 956.103C427.418 954.653 425.571 951.932 424.501 947.939L421.178 935.537C420.868 934.378 420.939 933.406 421.391 932.622C421.844 931.838 422.637 931.295 423.77 930.991C424.903 930.687 425.862 930.762 426.646 931.214C427.43 931.667 427.977 932.473 428.287 933.632L431.631 946.112C432.163 948.095 433.001 949.472 434.146 950.241C435.291 951.011 436.7 951.172 438.375 950.723C440.023 950.282 441.151 949.441 441.757 948.202C442.364 946.963 442.402 945.351 441.87 943.368L438.526 930.888C438.216 929.729 438.274 928.761 438.7 927.984C439.153 927.2 439.946 926.657 441.079 926.353C442.213 926.049 443.158 926.127 443.916 926.587C444.675 927.046 445.209 927.855 445.519 929.014L448.843 941.417C449.912 945.409 449.686 948.686 448.164 951.248C446.667 953.802 443.936 955.611 439.969 956.673ZM460.35 951.129C459.217 951.433 458.258 951.359 457.475 950.906C456.691 950.454 456.144 949.648 455.833 948.489L450.367 928.088C450.056 926.929 450.127 925.958 450.58 925.174C451.032 924.39 451.838 923.843 452.997 923.532L462.502 920.985C465.593 920.157 468.179 920.279 470.261 921.35C472.361 922.388 473.77 924.247 474.488 926.926C475.033 928.961 474.977 930.812 474.319 932.479C473.68 934.113 472.468 935.459 470.681 936.518C472.227 936.518 473.652 937.199 474.955 938.561L477.819 941.521C478.438 942.183 478.815 942.869 478.95 943.578C479.11 944.281 478.995 944.933 478.604 945.534C478.206 946.11 477.505 946.533 476.501 946.802C475.496 947.071 474.62 947.099 473.873 946.885C473.144 946.639 472.414 946.13 471.683 945.36L466.438 939.849C465.977 939.366 465.475 939.086 464.93 939.011C464.404 938.904 463.832 938.933 463.214 939.098L461.089 939.668L462.942 946.584C463.253 947.743 463.182 948.714 462.729 949.498C462.303 950.275 461.51 950.819 460.35 951.129ZM459.743 934.645L464.457 933.382C467.265 932.63 468.372 931.146 467.778 928.931C467.191 926.741 465.494 926.023 462.687 926.775L457.973 928.038L459.743 934.645ZM507.031 938.621C506.052 938.884 505.199 938.892 504.47 938.645C503.767 938.392 503.089 937.869 502.435 937.078L487.557 918.952C486.903 918.16 486.557 917.384 486.518 916.621C486.479 915.858 486.692 915.208 487.155 914.67C487.611 914.106 488.264 913.71 489.114 913.482C490.144 913.206 490.992 913.227 491.657 913.546C492.323 913.865 492.969 914.423 493.597 915.221L504.621 929.163L507.187 911.538C507.332 910.533 507.616 909.739 508.039 909.156C508.456 908.548 509.154 908.112 510.133 907.85C510.931 907.636 511.656 907.663 512.307 907.93C512.959 908.197 513.446 908.674 513.768 909.361C514.108 910.015 514.194 910.848 514.023 911.86L510.163 935.008C510.018 936.013 509.692 936.804 509.184 937.382C508.702 937.953 507.984 938.366 507.031 938.621ZM527.362 933.174C526.228 933.478 525.27 933.403 524.486 932.951C523.702 932.498 523.151 931.679 522.834 930.494L517.295 909.824C516.978 908.639 517.045 907.654 517.498 906.871C517.95 906.087 518.743 905.543 519.877 905.239C521.01 904.936 521.968 905.01 522.752 905.463C523.536 905.915 524.087 906.734 524.404 907.919L529.943 928.59C530.26 929.774 530.193 930.759 529.74 931.543C529.314 932.32 528.521 932.863 527.362 933.174ZM539.459 929.56C536.986 930.222 535.422 929.33 534.767 926.883L529.435 906.985C528.779 904.538 529.688 902.983 532.161 902.32L539.733 900.291C544.447 899.028 548.422 899.233 551.659 900.906C554.895 902.578 557.093 905.578 558.253 909.906C559.412 914.233 559.012 917.943 557.053 921.036C555.086 924.102 551.746 926.267 547.032 927.53L539.459 929.56ZM541.317 922.892L545.026 921.898C547.731 921.173 549.554 919.994 550.497 918.361C551.459 916.696 551.584 914.536 550.873 911.883C550.162 909.23 548.977 907.436 547.319 906.5C545.66 905.564 543.491 905.455 540.812 906.173L537.103 907.166L541.317 922.892ZM569.833 921.421C567.36 922.084 565.796 921.191 565.14 918.744L559.809 898.846C559.153 896.399 560.062 894.844 562.534 894.182L575.632 890.672C577.487 890.175 578.656 890.828 579.139 892.631C579.636 894.486 578.957 895.662 577.102 896.159L567.095 898.84L568.483 904.017L577.64 901.564C579.494 901.067 580.667 901.733 581.157 903.562C581.647 905.39 580.964 906.553 579.11 907.05L569.953 909.504L571.454 915.106L581.461 912.425C583.316 911.928 584.488 912.594 584.978 914.423C585.468 916.252 584.786 917.414 582.931 917.911L569.833 921.421ZM603.183 912.94C600.427 913.679 597.85 913.748 595.453 913.148C593.075 912.515 591.024 911.298 589.299 909.497C587.573 907.695 586.335 905.39 585.583 902.583C584.823 899.749 584.731 897.138 585.305 894.748C585.898 892.325 587.083 890.254 588.859 888.536C590.634 886.818 592.9 885.59 595.657 884.851C598.413 884.113 600.976 884.047 603.348 884.654C605.745 885.254 607.806 886.455 609.531 888.256C611.249 890.032 612.487 892.337 613.247 895.17C613.999 897.978 614.079 900.593 613.485 903.016C612.892 905.439 611.711 907.522 609.942 909.266C608.192 910.977 605.939 912.202 603.183 912.94ZM601.589 906.99C603.598 906.452 604.979 905.323 605.733 903.602C606.506 901.849 606.55 899.698 605.867 897.148C605.184 894.598 604.086 892.766 602.573 891.653C601.06 890.54 599.286 890.256 597.251 890.801C595.216 891.347 593.822 892.479 593.068 894.2C592.314 895.92 592.279 898.055 592.962 900.605C593.645 903.155 594.747 905 596.267 906.139C597.78 907.252 599.554 907.536 601.589 906.99ZM266.002 1060.23C262.988 1061.04 260.244 1061.15 257.77 1060.57C255.295 1059.99 253.196 1058.8 251.471 1057C249.771 1055.19 248.542 1052.87 247.783 1050.04C247.024 1047.2 246.931 1044.59 247.506 1042.2C248.099 1039.78 249.322 1037.7 251.175 1035.96C253.028 1034.22 255.461 1032.95 258.475 1032.14C259.66 1031.82 260.921 1031.64 262.259 1031.58C263.616 1031.49 264.857 1031.59 265.98 1031.87C266.805 1032.06 267.439 1032.42 267.881 1032.93C268.323 1033.45 268.588 1034.03 268.676 1034.66C268.765 1035.3 268.681 1035.92 268.426 1036.51C268.197 1037.1 267.823 1037.56 267.304 1037.89C266.779 1038.2 266.137 1038.27 265.377 1038.12C263.657 1037.78 261.999 1037.82 260.402 1038.25C258.006 1038.89 256.386 1040.06 255.541 1041.75C254.69 1043.41 254.602 1045.5 255.278 1048.03C255.962 1050.58 257.092 1052.37 258.668 1053.41C260.238 1054.43 262.22 1054.62 264.616 1053.97C265.285 1053.79 265.986 1053.52 266.717 1053.16C267.442 1052.77 268.129 1052.3 268.779 1051.74C269.462 1051.2 270.121 1050.92 270.755 1050.92C271.414 1050.91 271.999 1051.08 272.51 1051.44C273.02 1051.8 273.397 1052.28 273.64 1052.88C273.902 1053.45 273.983 1054.06 273.885 1054.72C273.786 1055.38 273.437 1055.99 272.838 1056.53C272.081 1057.32 271.075 1058.04 269.818 1058.71C268.587 1059.37 267.315 1059.88 266.002 1060.23ZM291.041 1053.52C288.285 1054.26 285.708 1054.33 283.311 1053.73C280.933 1053.09 278.881 1051.88 277.156 1050.08C275.431 1048.27 274.193 1045.97 273.44 1043.16C272.681 1040.33 272.589 1037.72 273.163 1035.33C273.756 1032.9 274.941 1030.83 276.716 1029.11C278.492 1027.4 280.758 1026.17 283.514 1025.43C286.27 1024.69 288.834 1024.63 291.205 1025.23C293.602 1025.83 295.663 1027.03 297.388 1028.83C299.107 1030.61 300.345 1032.92 301.104 1035.75C301.857 1038.56 301.936 1041.17 301.343 1043.59C300.75 1046.02 299.569 1048.1 297.8 1049.84C296.05 1051.56 293.797 1052.78 291.041 1053.52ZM289.446 1047.57C291.456 1047.03 292.837 1045.9 293.591 1044.18C294.363 1042.43 294.408 1040.28 293.725 1037.73C293.041 1035.18 291.943 1033.34 290.43 1032.23C288.917 1031.12 287.144 1030.83 285.109 1031.38C283.074 1031.93 281.679 1033.06 280.926 1034.78C280.172 1036.5 280.137 1038.63 280.82 1041.18C281.503 1043.73 282.605 1045.58 284.125 1046.72C285.638 1047.83 287.412 1048.11 289.446 1047.57ZM312.372 1047.72C310.157 1048.31 308.749 1047.49 308.149 1045.25L302.507 1024.19C302.203 1023.06 302.255 1022.12 302.663 1021.38C303.064 1020.61 303.728 1020.1 304.656 1019.85C305.48 1019.63 306.152 1019.61 306.673 1019.8C307.219 1019.99 307.886 1020.36 308.671 1020.93L323.575 1031.88L320.189 1019.25C319.596 1017.03 320.394 1015.63 322.583 1015.04C323.665 1014.75 324.556 1014.83 325.255 1015.28C325.974 1015.7 326.475 1016.43 326.758 1017.49L332.493 1038.89C332.755 1039.87 332.708 1040.73 332.352 1041.46C331.989 1042.16 331.369 1042.63 330.493 1042.86C329.617 1043.1 328.881 1043.13 328.283 1042.96C327.71 1042.78 327.044 1042.41 326.284 1041.84L311.381 1030.88L314.756 1043.48C315.356 1045.72 314.562 1047.13 312.372 1047.72ZM348.298 1038.09C347.164 1038.4 346.206 1038.32 345.422 1037.87C344.638 1037.42 344.091 1036.61 343.78 1035.45L338.904 1017.26L332.838 1018.88C330.88 1019.41 329.643 1018.7 329.125 1016.77C328.608 1014.84 329.328 1013.61 331.285 1013.09L350.526 1007.93C352.484 1007.4 353.722 1008.11 354.239 1010.04C354.757 1011.97 354.037 1013.2 352.079 1013.72L346.013 1015.35L350.889 1033.55C351.2 1034.71 351.129 1035.68 350.676 1036.46C350.25 1037.24 349.457 1037.78 348.298 1038.09ZM366.81 1032.76C364.338 1033.42 362.773 1032.53 362.118 1030.08L356.786 1010.19C356.13 1007.74 357.039 1006.18 359.512 1005.52L372.61 1002.01C374.464 1001.52 375.633 1002.17 376.116 1003.97C376.613 1005.83 375.934 1007 374.08 1007.5L364.073 1010.18L365.46 1015.36L374.617 1012.9C376.471 1012.41 377.644 1013.07 378.134 1014.9C378.624 1016.73 377.942 1017.89 376.087 1018.39L366.93 1020.84L368.431 1026.45L378.438 1023.76C380.293 1023.27 381.465 1023.93 381.955 1025.76C382.445 1027.59 381.763 1028.75 379.908 1029.25L366.81 1032.76ZM390.25 1026.85C388.035 1027.45 386.627 1026.62 386.027 1024.38L380.384 1003.32C380.081 1002.19 380.133 1001.25 380.541 1000.51C380.942 999.738 381.606 999.229 382.533 998.98C383.358 998.76 384.03 998.745 384.551 998.937C385.097 999.122 385.763 999.495 386.549 1000.06L401.452 1011.01L398.067 998.38C397.474 996.164 398.271 994.763 400.461 994.177C401.543 993.887 402.434 993.966 403.133 994.413C403.852 994.828 404.352 995.564 404.635 996.62L410.371 1018.02C410.633 1019 410.586 1019.86 410.23 1020.59C409.866 1021.29 409.247 1021.76 408.371 1022C407.495 1022.23 406.758 1022.26 406.16 1022.09C405.588 1021.91 404.922 1021.54 404.162 1020.97L389.259 1010.02L392.634 1022.61C393.234 1024.85 392.44 1026.27 390.25 1026.85ZM426.175 1017.23C425.042 1017.53 424.083 1017.46 423.3 1017C422.516 1016.55 421.969 1015.75 421.658 1014.59L416.782 996.388L410.716 998.013C408.758 998.538 407.521 997.834 407.003 995.902C406.485 993.971 407.205 992.742 409.163 992.218L428.404 987.062C430.362 986.538 431.599 987.241 432.117 989.173C432.635 991.105 431.915 992.333 429.957 992.858L423.891 994.483L428.767 1012.68C429.078 1013.84 429.007 1014.81 428.554 1015.6C428.127 1016.37 427.335 1016.92 426.175 1017.23ZM453.402 1009.93C452.192 1010.26 451.193 1010.08 450.405 1009.41C449.618 1008.74 449.342 1007.71 449.577 1006.32L453.649 983.031C453.843 981.902 454.213 981.016 454.758 980.373C455.304 979.73 456.027 979.288 456.929 979.046C457.805 978.812 458.64 978.836 459.434 979.121C460.227 979.405 460.991 979.987 461.724 980.867L476.893 998.999C477.824 1000.1 478.129 1001.14 477.809 1002.11C477.482 1003.05 476.739 1003.68 475.58 1003.99C474.55 1004.26 473.689 1004.25 472.998 1003.94C472.333 1003.62 471.644 1003 470.93 1002.09L468.906 999.483L456.736 1002.74L456.286 1006.01C456.099 1007.17 455.822 1008.04 455.457 1008.64C455.092 1009.23 454.407 1009.66 453.402 1009.93ZM458.933 986.833L457.594 996.675L465.09 994.666L459.01 986.812L458.933 986.833ZM484.918 1001.49C482.703 1002.08 481.295 1001.26 480.695 999.016L475.053 977.958C474.749 976.825 474.801 975.886 475.209 975.142C475.61 974.372 476.274 973.863 477.202 973.614C478.026 973.393 478.698 973.379 479.219 973.571C479.766 973.755 480.432 974.129 481.217 974.692L496.121 985.648L492.735 973.013C492.142 970.798 492.94 969.397 495.129 968.811C496.211 968.521 497.102 968.599 497.801 969.047C498.52 969.462 499.021 970.197 499.304 971.253L505.039 992.658C505.301 993.637 505.254 994.492 504.898 995.222C504.535 995.927 503.915 996.397 503.039 996.631C502.163 996.866 501.427 996.898 500.829 996.727C500.256 996.549 499.59 996.175 498.83 995.606L483.927 984.65L487.302 997.245C487.902 999.486 487.108 1000.9 484.918 1001.49ZM520.844 991.861C519.71 992.164 518.752 992.09 517.968 991.637C517.177 991.159 516.623 990.327 516.306 989.142L513.966 980.41L503.669 971.657C503.066 971.156 502.69 970.525 502.541 969.765C502.418 968.997 502.555 968.27 502.951 967.584C503.373 966.892 504.099 966.407 505.129 966.131C505.85 965.938 506.555 965.942 507.244 966.144C507.933 966.346 508.643 966.777 509.372 967.438L515.939 973.091L518.789 964.873C519.116 963.929 519.518 963.214 519.995 962.728C520.465 962.215 521.086 961.855 521.859 961.648C522.838 961.386 523.663 961.427 524.335 961.772C525.007 962.116 525.456 962.658 525.682 963.398C525.934 964.132 525.905 964.954 525.597 965.864L521.075 978.506L523.415 987.238C524.07 989.685 523.213 991.226 520.844 991.861ZM546.463 984.996C545.33 985.299 544.371 985.225 543.588 984.772C542.804 984.32 542.257 983.514 541.946 982.355L537.07 964.157L531.004 965.782C529.046 966.307 527.809 965.603 527.291 963.671C526.773 961.739 527.493 960.511 529.451 959.987L548.692 954.831C550.65 954.307 551.887 955.01 552.405 956.942C552.923 958.874 552.203 960.102 550.245 960.627L544.179 962.252L549.055 980.45C549.366 981.609 549.295 982.581 548.842 983.364C548.415 984.141 547.622 984.685 546.463 984.996ZM564.915 980.052C563.781 980.355 562.823 980.281 562.039 979.828C561.255 979.376 560.704 978.557 560.387 977.372L554.848 956.702C554.531 955.517 554.598 954.532 555.051 953.748C555.503 952.965 556.296 952.421 557.43 952.117C558.563 951.813 559.522 951.888 560.305 952.34C561.089 952.793 561.64 953.612 561.957 954.797L567.496 975.467C567.814 976.652 567.746 977.637 567.294 978.42C566.867 979.197 566.074 979.741 564.915 980.052ZM576.681 976.899C575.65 977.175 574.776 977.106 574.057 976.691C573.365 976.269 572.88 975.543 572.604 974.513L566.858 953.069C566.575 952.013 566.658 951.135 567.105 950.436C567.546 949.71 568.307 949.203 569.389 948.913C570.264 948.678 571.021 948.669 571.659 948.884C572.289 949.074 572.931 949.51 573.582 950.191L584.869 961.868L588.805 946.112C589.055 945.189 589.393 944.491 589.818 944.018C590.262 943.513 590.935 943.139 591.837 942.898C592.841 942.629 593.703 942.701 594.421 943.116C595.133 943.505 595.63 944.228 595.913 945.284L601.659 966.728C601.935 967.758 601.879 968.629 601.49 969.34C601.1 970.052 600.378 970.549 599.322 970.832C598.292 971.108 597.417 971.039 596.699 970.624C596.006 970.202 595.521 969.476 595.245 968.446L592.057 956.546L589.174 967.423C588.965 968.086 588.692 968.615 588.356 969.008C588.046 969.395 587.556 969.678 586.886 969.858C586.242 970.03 585.676 970.03 585.188 969.857C584.7 969.684 584.212 969.359 583.726 968.882L575.871 961.049L579.018 972.794C579.294 973.825 579.237 974.696 578.848 975.407C578.459 976.119 577.737 976.616 576.681 976.899ZM611.159 967.288C608.687 967.95 607.122 967.058 606.467 964.611L601.135 944.713C600.479 942.266 601.388 940.711 603.861 940.049L616.959 936.539C618.813 936.042 619.982 936.695 620.465 938.498C620.962 940.353 620.283 941.529 618.429 942.026L608.422 944.707L609.809 949.884L618.966 947.431C620.821 946.934 621.993 947.6 622.483 949.429C622.973 951.257 622.291 952.42 620.436 952.917L611.279 955.371L612.78 960.973L622.787 958.292C624.642 957.795 625.814 958.461 626.304 960.29C626.794 962.118 626.112 963.281 624.257 963.778L611.159 967.288ZM267.736 1116.62C266.525 1116.95 265.526 1116.77 264.739 1116.1C263.951 1115.43 263.675 1114.4 263.911 1113.01L267.982 1089.72C268.177 1088.59 268.547 1087.71 269.092 1087.06C269.638 1086.42 270.361 1085.98 271.263 1085.74C272.138 1085.5 272.973 1085.53 273.767 1085.81C274.561 1086.09 275.325 1086.68 276.057 1087.56L291.227 1105.69C292.158 1106.79 292.463 1107.83 292.143 1108.8C291.816 1109.74 291.073 1110.37 289.914 1110.68C288.883 1110.95 288.023 1110.94 287.332 1110.62C286.667 1110.31 285.977 1109.69 285.263 1108.78L283.24 1106.17L271.069 1109.43L270.62 1112.7C270.432 1113.86 270.156 1114.73 269.791 1115.32C269.426 1115.92 268.741 1116.35 267.736 1116.62ZM273.266 1093.52L271.928 1103.36L279.423 1101.36L273.344 1093.5L273.266 1093.52ZM299.252 1108.18C297.037 1108.77 295.629 1107.95 295.029 1105.7L289.386 1084.65C289.083 1083.51 289.135 1082.58 289.543 1081.83C289.944 1081.06 290.608 1080.55 291.535 1080.3C292.36 1080.08 293.032 1080.07 293.553 1080.26C294.099 1080.44 294.765 1080.82 295.551 1081.38L310.454 1092.34L307.069 1079.7C306.476 1077.49 307.273 1076.09 309.463 1075.5C310.545 1075.21 311.435 1075.29 312.135 1075.74C312.854 1076.15 313.354 1076.89 313.637 1077.94L319.373 1099.35C319.635 1100.33 319.588 1101.18 319.232 1101.91C318.868 1102.62 318.249 1103.09 317.373 1103.32C316.497 1103.56 315.76 1103.59 315.162 1103.42C314.59 1103.24 313.924 1102.86 313.164 1102.29L298.261 1091.34L301.636 1103.93C302.236 1106.18 301.442 1107.59 299.252 1108.18ZM335.177 1098.55C334.044 1098.85 333.085 1098.78 332.302 1098.33C331.511 1097.85 330.957 1097.02 330.639 1095.83L328.3 1087.1L318.003 1078.35C317.4 1077.85 317.024 1077.21 316.875 1076.45C316.752 1075.69 316.889 1074.96 317.285 1074.27C317.706 1073.58 318.432 1073.1 319.463 1072.82C320.184 1072.63 320.889 1072.63 321.578 1072.83C322.267 1073.04 322.976 1073.47 323.705 1074.13L330.272 1079.78L333.122 1071.56C333.449 1070.62 333.851 1069.9 334.328 1069.42C334.798 1068.9 335.42 1068.54 336.192 1068.34C337.171 1068.08 337.997 1068.12 338.669 1068.46C339.341 1068.81 339.79 1069.35 340.016 1070.09C340.267 1070.82 340.239 1071.64 339.931 1072.55L335.409 1085.19L337.748 1093.93C338.404 1096.37 337.547 1097.91 335.177 1098.55ZM360.774 1091.69C359.821 1091.95 358.989 1091.93 358.28 1091.66C357.563 1091.35 356.909 1090.77 356.319 1089.9L343.163 1070.94C342.415 1069.9 342.217 1068.9 342.57 1067.95C342.916 1066.98 343.797 1066.3 345.214 1065.92C346.192 1065.66 347.002 1065.69 347.641 1066.02C348.299 1066.31 348.911 1066.89 349.475 1067.76L358.277 1081.14L359.598 1065.05C359.703 1064 359.955 1063.19 360.352 1062.61C360.769 1062 361.415 1061.58 362.291 1061.34C363.141 1061.12 363.886 1061.17 364.525 1061.49C365.158 1061.79 365.773 1062.39 366.37 1063.27L375.399 1076.88L376.521 1060.51C376.575 1059.48 376.8 1058.67 377.198 1058.1C377.615 1057.49 378.3 1057.06 379.253 1056.8C380.438 1056.48 381.411 1056.66 382.173 1057.34C382.928 1058 383.254 1058.96 383.153 1060.23L381.173 1083.29C381.087 1084.3 380.81 1085.12 380.341 1085.74C379.892 1086.33 379.191 1086.76 378.238 1087.01C377.285 1087.27 376.453 1087.26 375.744 1086.98C375.027 1086.67 374.373 1086.09 373.783 1085.22L365.062 1072.61L363.748 1087.95C363.636 1088.98 363.358 1089.8 362.916 1090.41C362.467 1091 361.753 1091.43 360.774 1091.69ZM397.322 1081.9C396.188 1082.2 395.23 1082.13 394.446 1081.68C393.662 1081.22 393.111 1080.4 392.794 1079.22L387.255 1058.55C386.938 1057.36 387.005 1056.38 387.458 1055.6C387.91 1054.81 388.703 1054.27 389.837 1053.96C390.97 1053.66 391.929 1053.73 392.712 1054.19C393.496 1054.64 394.047 1055.46 394.364 1056.64L396.3 1063.87L407.544 1060.86L405.608 1053.63C405.29 1052.45 405.358 1051.46 405.81 1050.68C406.263 1049.89 407.056 1049.35 408.189 1049.05C409.323 1048.74 410.268 1048.82 411.026 1049.28C411.81 1049.73 412.361 1050.55 412.678 1051.74L418.217 1072.41C418.535 1073.59 418.467 1074.58 418.015 1075.36C417.588 1076.14 416.808 1076.68 415.674 1076.98C414.515 1077.29 413.544 1077.22 412.76 1076.77C412.002 1076.31 411.464 1075.49 411.147 1074.3L409.107 1066.69L397.864 1069.7L399.903 1077.31C400.221 1078.5 400.153 1079.48 399.701 1080.27C399.274 1081.04 398.481 1081.59 397.322 1081.9ZM427.757 1073.37C425.284 1074.03 423.72 1073.14 423.064 1070.69L417.733 1050.8C417.077 1048.35 417.985 1046.79 420.458 1046.13L433.556 1042.62C435.411 1042.12 436.58 1042.78 437.063 1044.58C437.56 1046.44 436.881 1047.61 435.026 1048.11L425.019 1050.79L426.407 1055.97L435.564 1053.51C437.418 1053.02 438.59 1053.68 439.08 1055.51C439.57 1057.34 438.888 1058.5 437.034 1059L427.877 1061.45L429.378 1067.06L439.385 1064.37C441.239 1063.88 442.412 1064.54 442.902 1066.37C443.392 1068.2 442.709 1069.36 440.855 1069.86L427.757 1073.37ZM451.429 1067.4C450.295 1067.7 449.337 1067.63 448.553 1067.18C447.769 1066.72 447.222 1065.92 446.911 1064.76L441.445 1044.36C441.134 1043.2 441.205 1042.23 441.658 1041.44C442.11 1040.66 442.916 1040.11 444.075 1039.8L453.58 1037.26C456.671 1036.43 459.257 1036.55 461.339 1037.62C463.439 1038.66 464.848 1040.52 465.566 1043.2C466.111 1045.23 466.055 1047.08 465.397 1048.75C464.759 1050.38 463.546 1051.73 461.759 1052.79C463.305 1052.79 464.73 1053.47 466.033 1054.83L468.897 1057.79C469.516 1058.45 469.893 1059.14 470.028 1059.85C470.189 1060.55 470.073 1061.2 469.683 1061.81C469.285 1062.38 468.583 1062.8 467.579 1063.07C466.574 1063.34 465.698 1063.37 464.951 1063.16C464.222 1062.91 463.492 1062.4 462.761 1061.63L457.517 1056.12C457.056 1055.64 456.553 1055.36 456.008 1055.28C455.483 1055.17 454.911 1055.2 454.292 1055.37L452.167 1055.94L454.02 1062.85C454.331 1064.01 454.26 1064.99 453.807 1065.77C453.381 1066.55 452.588 1067.09 451.429 1067.4ZM450.821 1050.92L455.535 1049.65C458.343 1048.9 459.45 1047.42 458.856 1045.2C458.27 1043.01 456.572 1042.29 453.765 1043.05L449.051 1044.31L450.821 1050.92ZM478.77 1059.7C476.297 1060.36 474.733 1059.47 474.077 1057.02L468.746 1037.13C468.09 1034.68 468.998 1033.13 471.471 1032.46L484.569 1028.95C486.424 1028.46 487.593 1029.11 488.076 1030.91C488.573 1032.77 487.894 1033.94 486.039 1034.44L476.032 1037.12L477.42 1042.3L486.576 1039.84C488.431 1039.35 489.603 1040.01 490.093 1041.84C490.583 1043.67 489.901 1044.83 488.047 1045.33L478.89 1047.78L480.391 1053.39L490.398 1050.71C492.252 1050.21 493.425 1050.87 493.915 1052.7C494.405 1054.53 493.722 1055.7 491.868 1056.19L478.77 1059.7Z" fill="white"/>
<rect x="679" y="392.34" width="237" height="95" rx="16" transform="rotate(-15 679 392.34)" fill="#03053D"/>
<path d="M747.891 437.406C746.912 437.668 746.059 437.676 745.33 437.429C744.627 437.176 743.949 436.654 743.295 435.863L728.417 417.736C727.763 416.945 727.417 416.168 727.378 415.405C727.339 414.643 727.552 413.992 728.015 413.454C728.471 412.89 729.124 412.494 729.974 412.266C731.004 411.99 731.852 412.012 732.517 412.33C733.183 412.649 733.829 413.207 734.457 414.005L745.481 427.947L748.047 410.322C748.192 409.317 748.476 408.523 748.899 407.941C749.316 407.332 750.014 406.897 750.993 406.634C751.791 406.42 752.516 406.447 753.167 406.714C753.819 406.981 754.306 407.458 754.628 408.145C754.968 408.799 755.054 409.632 754.883 410.644L751.023 433.792C750.878 434.797 750.552 435.588 750.044 436.166C749.562 436.737 748.844 437.15 747.891 437.406ZM768.222 431.958C767.088 432.262 766.13 432.187 765.346 431.735C764.562 431.282 764.011 430.464 763.694 429.279L758.155 408.608C757.838 407.423 757.905 406.439 758.358 405.655C758.81 404.871 759.603 404.327 760.736 404.024C761.87 403.72 762.828 403.794 763.612 404.247C764.396 404.699 764.947 405.518 765.264 406.703L770.803 427.374C771.12 428.559 771.053 429.543 770.6 430.327C770.174 431.104 769.381 431.648 768.222 431.958ZM780.319 428.344C777.846 429.006 776.282 428.114 775.627 425.667L770.295 405.769C769.639 403.322 770.548 401.767 773.021 401.105L780.593 399.076C785.307 397.813 789.282 398.017 792.519 399.69C795.755 401.363 797.953 404.363 799.113 408.69C800.272 413.017 799.872 416.727 797.913 419.82C795.946 422.887 792.606 425.052 787.892 426.315L780.319 428.344ZM782.177 421.676L785.886 420.682C788.59 419.957 790.414 418.778 791.357 417.145C792.319 415.48 792.444 413.32 791.733 410.667C791.022 408.014 789.837 406.22 788.179 405.284C786.52 404.348 784.351 404.239 781.672 404.957L777.963 405.951L782.177 421.676ZM810.693 420.205C808.22 420.868 806.656 419.976 806 417.529L800.669 397.63C800.013 395.183 800.922 393.629 803.394 392.966L816.492 389.457C818.347 388.96 819.516 389.613 819.999 391.416C820.496 393.27 819.817 394.446 817.962 394.943L807.955 397.624L809.343 402.802L818.5 400.348C820.354 399.851 821.527 400.517 822.017 402.346C822.507 404.175 821.824 405.338 819.97 405.835L810.813 408.288L812.314 413.891L822.321 411.209C824.176 410.712 825.348 411.378 825.838 413.207C826.328 415.036 825.646 416.199 823.791 416.696L810.693 420.205ZM844.043 411.725C841.287 412.463 838.71 412.532 836.313 411.932C833.935 411.3 831.884 410.082 830.159 408.281C828.433 406.479 827.195 404.175 826.443 401.367C825.683 398.534 825.591 395.922 826.165 393.532C826.758 391.109 827.943 389.039 829.719 387.321C831.494 385.602 833.76 384.374 836.517 383.636C839.273 382.897 841.836 382.831 844.208 383.438C846.604 384.038 848.666 385.239 850.391 387.041C852.109 388.817 853.347 391.121 854.107 393.954C854.859 396.762 854.938 399.377 854.345 401.8C853.752 404.223 852.571 406.306 850.802 408.05C849.052 409.761 846.799 410.986 844.043 411.725ZM842.449 405.775C844.458 405.236 845.839 404.107 846.593 402.386C847.366 400.633 847.41 398.482 846.727 395.932C846.044 393.382 844.946 391.55 843.433 390.437C841.92 389.324 840.146 389.04 838.111 389.586C836.076 390.131 834.682 391.264 833.928 392.984C833.174 394.704 833.139 396.84 833.822 399.39C834.505 401.94 835.607 403.784 837.127 404.923C838.64 406.036 840.414 406.32 842.449 405.775ZM872.195 404.181C870.624 404.602 868.96 404.882 867.203 405.022C865.465 405.129 863.924 405.045 862.58 404.77C861.795 404.621 861.185 404.302 860.75 403.811C860.314 403.32 860.056 402.768 859.975 402.155C859.886 401.516 859.96 400.917 860.197 400.356C860.426 399.77 860.816 399.321 861.367 399.007C861.912 398.668 862.602 398.566 863.439 398.701C864.549 398.928 865.756 399.005 867.062 398.931C868.36 398.832 869.55 398.637 870.632 398.347C872.332 397.891 873.458 397.355 874.011 396.738C874.582 396.088 874.778 395.428 874.598 394.758C874.44 394.166 874.067 393.755 873.481 393.525C872.921 393.289 872.001 393.204 870.721 393.271L865.942 393.516C860.765 393.772 857.631 391.864 856.541 387.795C856.065 386.017 856.124 384.331 856.718 382.736C857.338 381.135 858.414 379.742 859.946 378.558C861.472 377.349 863.381 376.437 865.674 375.823C867.013 375.464 868.407 375.256 869.855 375.2C871.322 375.11 872.637 375.227 873.8 375.55C874.683 375.755 875.324 376.191 875.724 376.857C876.116 377.497 876.273 378.187 876.195 378.925C876.117 379.664 875.784 380.278 875.198 380.766C874.636 381.248 873.798 381.417 872.683 381.274C871.821 381.147 870.905 381.13 869.937 381.224C868.961 381.292 868.035 381.443 867.16 381.678C865.717 382.064 864.679 382.619 864.044 383.341C863.402 384.037 863.188 384.785 863.402 385.583C863.554 386.15 863.91 386.552 864.471 386.788C865.031 387.024 865.938 387.113 867.192 387.053L871.932 386.818C877.187 386.542 880.342 388.374 881.398 392.315C881.874 394.092 881.812 395.766 881.211 397.335C880.61 398.904 879.543 400.28 878.01 401.464C876.478 402.647 874.539 403.553 872.195 404.181Z" fill="white"/>
<circle cx="151.5" cy="729.5" r="20.5" fill="#6B35C3"/>
<circle cx="908" cy="1141" r="10" fill="#6B35C3"/>
<circle cx="373.5" cy="1180.5" r="20.5" fill="#6B35C3"/>
</svg>
