<svg width="32" height="32" viewBox="0 0 32 32" fill="none" xmlns="http://www.w3.org/2000/svg">
<path d="M15.9997 16C19.6816 16 22.6663 13.0152 22.6663 9.33332C22.6663 5.65142 19.6816 2.66666 15.9997 2.66666C12.3178 2.66666 9.33301 5.65142 9.33301 9.33332C9.33301 13.0152 12.3178 16 15.9997 16Z" stroke="black" stroke-width="3" stroke-linecap="round" stroke-linejoin="round"/>
<path d="M4.54688 29.3333C4.54688 24.1733 9.6802 20 16.0002 20C17.2802 20 18.5202 20.1733 19.6802 20.4933" stroke="black" stroke-width="3" stroke-linecap="round" stroke-linejoin="round"/>
<path d="M29.3337 24C29.3337 25 29.0537 25.9467 28.5603 26.7467C28.2803 27.2267 27.9203 27.6533 27.507 28C26.5737 28.84 25.347 29.3333 24.0003 29.3333C22.0537 29.3333 20.3603 28.2933 19.4403 26.7467C18.947 25.9467 18.667 25 18.667 24C18.667 22.32 19.4403 20.8133 20.667 19.84C21.587 19.1067 22.747 18.6667 24.0003 18.6667C26.947 18.6667 29.3337 21.0533 29.3337 24Z" stroke="black" stroke-width="2" stroke-miterlimit="10" stroke-linecap="round" stroke-linejoin="round"/>
<path d="M21.9199 24L23.2399 25.32L26.0799 22.6934" stroke="black" stroke-width="1.5" stroke-linecap="round" stroke-linejoin="round"/>
</svg>
